<svg width="707" height="476" viewBox="0 0 707 476" fill="none" xmlns="http://www.w3.org/2000/svg">
<path d="M59.1298 9.77991C106.741 8.33225 139.24 7.88145 183.408 7.22109C280.637 5.63275 408.854 3.28688 508.297 2.00312C569.912 1.23535 632.34 0.652292 694 0.211232L704.675 0.0994616L704.789 11C704.887 24.6636 704.978 38.2896 705.064 51.8607C705.089 55.6975 704.856 57.987 704.866 59.7268C704.964 76.1073 705.394 103.576 705.468 119.825C705.632 154.007 705.996 213.482 705.859 244.789C705.804 258.083 705.808 271.72 705.159 276.887C705.141 281.745 705.752 284.396 705.789 285.665C705.789 285.679 705.788 285.694 705.788 285.708C705.904 289.794 705.511 300.111 705.544 302.387C705.549 302.728 705.982 300.632 705.866 306.155C705.856 306.647 705.556 306.193 705.565 310.844C705.567 312.054 706.068 327.609 706.107 332.054C706.239 346.848 705.942 382.176 705.965 399.863C705.968 402.568 706.148 404.126 706.154 406.982C706.157 408.458 705.966 410.67 705.968 411.124C705.977 413.113 706.861 421.806 705.128 418.686C705.245 427.761 705.815 425.088 706.186 425.293C706.247 435.145 705.433 439.894 706.298 442.466C706.286 449.311 706.273 456.155 706.258 463V475.258H694C652.395 475.168 610.789 475.03 569.184 474.845C569.169 474.984 569.155 475.124 569.141 475.263C554.86 474.673 549.961 475.596 541.809 474.769C536.782 474.932 531.755 475.093 526.728 475.253C397.531 474.305 268.637 474.049 140.897 472.644C135.506 472.585 134.16 472.343 125.269 472.246C115.452 472.14 101.646 472.241 88.7082 472.083C77.3596 471.946 60.6169 471.545 47.9624 471.36C45.1061 471.318 43.0397 471.421 42.7183 471.416C40.8272 471.387 40.7322 471.184 38.8981 471.156C36.7037 471.123 34.0531 471.238 31.5182 471.196C22.0459 471.044 11.7241 470.959 10.5246 470.94C9.56422 470.924 8.72852 470.905 8 470.885L0.242213 471.008L0.114949 463C0.216846 459.346 0.358518 458.393 0.365336 457.997C0.47088 451.571 0.273495 453.98 0.304176 452.38C0.468291 444.075 0.942994 438.205 0.71312 426.836C0.85582 427.146 0.998778 427.456 1.14199 427.765C1.33554 419.065 0.873943 424.812 0.826892 423.034C0.810184 422.308 1.11441 403.58 1.14147 402.135C1.23574 397.105 1.42141 396.97 1.42979 396.535C1.44808 395.476 1.42003 382.82 1.6671 376.332C1.95476 368.655 2.18819 377.691 2.28197 375.785C2.29708 375.463 2.3639 367.426 2.48731 366.347C2.61993 365.156 2.53159 372.106 2.58325 371.999C2.62006 371.924 3.00045 360.384 3.13561 362.596C3.27918 364.375 2.89372 380.03 2.93614 383.347C2.94352 383.895 3.16507 382.862 3.16764 383.347C3.17294 385.295 2.81631 421.366 2.76424 423.016C2.67896 421.138 2.59485 419.26 2.51193 417.381C2.47515 419.879 2.43836 422.377 2.40155 424.874C2.35537 421.323 2.31113 417.772 2.26889 414.221C1.36231 419.498 2.03718 435.393 2.47844 436.048C2.6814 436.332 3.28166 426.616 3.50721 435.658C3.57029 434.283 3.63301 432.908 3.69537 431.534C3.63322 428.7 3.57253 425.867 3.51331 423.034C3.44482 424.921 3.37584 426.807 3.30636 428.694C3.25241 428 3.19871 427.305 3.14525 426.611C3.09746 421.314 3.05304 416.018 3.01209 410.722C3.08168 407.999 3.24644 408.565 3.29686 406.694C3.92197 383.352 3.26213 398.577 3.48484 383.295C3.59297 381.113 3.69997 378.931 3.80581 376.749C3.44465 377.518 3.73044 370.749 3.66307 362.562C3.76416 363.54 3.86604 364.518 3.96868 365.496C4.02743 353.636 4.77633 329.592 4.14169 336.081C4.21759 333.363 4.29259 330.646 4.3667 327.928C4.29687 325.633 4.22881 323.338 4.16254 321.043C4.20595 317.871 4.24928 314.699 4.29253 311.527C4.34024 311.513 4.38795 311.499 4.43566 311.484C4.4105 314.013 4.38546 316.543 4.36054 319.072C4.52746 317.174 4.69214 315.275 4.85455 313.377C4.84681 311.51 4.8395 309.643 4.83263 307.777C4.62408 315.607 4.49641 305.284 4.33943 302.784C4.34289 296.184 4.62486 291.966 4.65707 289.752C4.66937 288.712 4.40188 276.456 4.78957 281.261C4.80099 274.955 4.81636 268.649 4.83577 262.342C4.89462 259.877 4.95276 257.411 5.01019 254.945C5.14558 260.296 5.51815 244.788 5.48937 256.213C5.47289 264.744 5.27326 266.846 5.23605 270.895C5.2028 274.544 5.31191 276.473 5.28336 280.445C5.08739 307.155 4.88835 328.912 4.61189 354.279C4.55678 359.291 4.59919 363.849 4.56189 367.215C4.51892 371.016 4.35246 366.254 4.3627 371.096C4.3738 376.181 4.5362 377.281 4.5294 378.624C4.5252 379.459 4.35028 382.108 4.33071 384.545C4.24975 394.561 4.29614 409.238 4.28604 410.661C4.2734 412.269 3.914 440.596 3.87431 441.952C3.85434 442.671 3.21812 441.18 3.86157 447.422C3.86035 449.37 3.85932 451.317 3.85847 453.265C3.72962 452.95 3.60097 452.634 3.47255 452.319C3.71924 459.291 3.73072 460.601 3.68776 463L3.75736 467.38L8 467.312C9.57126 467.34 11.6095 467.39 16.0117 467.405C42.6459 467.497 81.9348 467.877 111.065 468.002C117.57 468.03 120.048 467.858 127.744 467.888C134.893 467.914 153.561 468.597 149.501 467.775C165.409 468.558 167.966 467.358 175.93 468.159C176.894 468.052 177.857 467.946 178.821 467.839C187.466 468.361 190.134 467.954 199.572 467.937C203.639 467.93 198.95 468.431 207.16 467.887C208.729 467.937 210.297 467.988 211.866 468.039C211.501 468.164 211.137 468.29 210.772 468.415C219.889 468.356 220.477 468.424 219.437 467.94C223.839 468.047 228.241 468.154 232.643 468.262C233.19 468.105 233.737 467.948 234.283 467.791C232.174 467.493 132.226 467.499 118.306 467.527C101.982 467.125 69.1892 467.332 56.0021 467.176C50.7244 467.115 48.3927 466.809 40.7127 466.732C33.0351 466.655 23.3729 466.856 19.2849 466.839C16.8485 466.829 12.7827 466.807 8 466.776L4.28526 466.835L4.22433 463C4.37098 441.048 4.68333 403.99 4.72872 440.025C4.86457 438.763 4.99957 437.501 5.13372 436.239C4.79551 418.8 5.03084 425.115 5.15236 410.644C5.20202 404.552 5.02683 390.066 5.55189 390.875C5.59433 402.187 5.36069 414.204 5.31726 424.041C5.31162 425.016 5.51845 436.662 5.42023 442.655C5.33078 448.062 4.77834 444.34 5.36155 456.104C5.16144 458.726 5.06854 461.016 5.03975 463L5.08753 466.007L8 465.96C12.6266 466.028 15.586 465.744 17.2012 465.707C21.1898 465.617 21.6268 465.938 25.6143 465.995C29.9578 466.057 32.9479 465.855 33.5411 465.856C39.4975 465.879 70.5207 465.977 71.9427 466.122C70.6954 466.178 69.4481 466.234 68.2007 466.289C76.2573 466.424 74.5734 466.063 76.692 466.029C78.2692 466.037 79.8466 466.044 81.4238 466.052C80.7987 466.124 80.1735 466.195 79.5484 466.266C89.0634 466.292 81.783 466.003 95.2893 466.063C103.865 466.1 112.723 466.429 113.557 466.411C113.803 466.405 111.103 466.196 114.599 466.183C120.386 466.162 130.392 466.203 131.512 466.484C134.346 466.456 134.104 466.184 134.481 466.179C136.127 466.16 164.441 466.164 169.514 466.162C183.569 466.162 199.217 466.272 214.445 466.268C216.01 466.267 215.011 466.453 216.58 466.452C219.099 466.451 232.031 466.189 233.962 466.172C238.784 466.133 251.467 466.287 253.463 466.203C253.746 466.191 249.572 465.918 254.452 465.848C259.871 465.769 256.953 466.118 257.248 466.122C268.275 466.272 275.237 466.04 282.765 466.007C285.205 465.996 289.707 466.281 293.149 466.208C293.545 466.199 292.76 465.943 293.149 465.932C298.351 465.808 303.218 466.292 305.469 466.329C310.977 466.417 307.978 466.058 308.265 466.056C311.934 466.053 316.872 466.19 322.452 466.185C347.327 466.16 367.627 466.173 394.072 466.241C397.393 466.249 401.334 466.517 401.842 466.518C403.412 466.519 402.963 466.21 407.503 466.224C417.074 466.254 425.948 466.252 435.425 466.271C437.333 466.275 438.147 466.566 439.601 466.575C444.481 466.602 461.121 465.858 461.394 466.811C471.079 465.979 477.511 466.715 485.305 466.717C503.767 466.723 532.676 466.576 551.081 466.703C554.956 466.73 556.775 466.983 558.93 466.998C562.796 467.027 584.898 466.903 586.054 466.943C588.324 467.02 586.963 468.133 598.634 467.171C605.477 467.106 604.668 467.563 606.084 467.588C617.112 467.78 627.841 466.76 625.836 467.698C638.676 467.449 646.998 466.932 652.238 467.813C652.17 467.384 658.209 467.128 665.487 467.293C658.035 468.012 658.957 468.474 640.934 468.335C640.65 468.333 641.192 468.023 640.908 468.02C638.334 467.999 632.966 468.153 628.579 468.133C624.192 468.114 626.628 467.904 624.872 467.907C623.264 467.91 623.318 468.207 620.991 468.209C613.444 468.217 606.766 468.293 602.472 468.295C599.767 468.296 596.74 468.035 594.64 468.033C586.525 468.029 569.327 468.215 559 468.175C556.848 468.167 557.751 467.879 553.044 467.85C552.494 467.846 550.489 468.145 546.367 468.202C542.244 468.26 539.048 468.107 536.4 468.134C534.187 468.157 535.112 468.425 530.574 468.435C526.791 468.445 483.941 468.186 481.615 468.139C478.268 468.073 476.677 467.703 474.634 467.744C474.275 467.753 473.666 468.107 472.42 468.13C451.877 468.511 406.407 467.929 382.932 467.874C333.865 467.756 288.596 467.807 239.093 467.684C238.211 467.735 237.328 467.785 236.445 467.835C241.449 467.858 246.453 467.88 251.457 467.902C251.489 468.049 251.521 468.196 251.553 468.343C258.318 468.396 257.421 468.042 257.231 467.83C259.734 467.93 262.237 468.029 264.741 468.129C266.9 467.619 283.596 468.025 292.203 468.057C297.801 468.077 304.462 467.897 307.414 467.922C313.651 467.975 313.488 468.306 313.978 468.313C314.81 468.324 323.517 468.061 329.797 468.091C339.082 468.136 340.086 468.659 352.796 468.257C369.082 468.578 387.128 468.496 404.681 468.496C401.339 468.982 417.07 468.556 424.164 468.58C467.444 468.736 520.639 469.054 564.487 469.316C570.122 469.349 574.379 469.663 577.519 469.656C579.221 469.653 579.964 469.29 582.329 469.341C582.744 469.351 583.033 469.692 587.434 469.748C598.387 469.891 625.669 469.342 632.573 470.003C653.049 469.961 673.524 469.912 694 469.856H700.856V463C700.81 446.029 700.759 429.058 700.704 412.087C700.844 411.147 700.983 410.206 701.123 409.266C700.404 402.152 700.804 374.03 700.754 360.315C700.668 336.178 700.403 305.381 700.341 284.232C700.328 279.637 700.519 275.871 700.506 271.522C700.5 269.65 700.24 267.322 700.235 265.375C700.174 243.507 700.364 213.9 700.295 191.862C700.142 141.828 700.011 94.7077 699.782 44.0119C699.732 33.0039 699.679 22 699.623 11L699.564 5.31857L694 5.37683C534.348 6.20869 375.527 7.48062 217.121 8.85874C214.851 8.87881 214.964 8.7775 213.205 8.79392C202.82 8.89151 179.629 9.19166 167.901 9.30124C158.556 9.38587 143.724 9.43556 140.509 9.57243C173.707 9.40145 208.781 9.11062 243.341 8.90194C245.798 8.88756 246.103 8.99345 246.406 8.99319C252.001 8.98956 248.468 8.86593 256.582 8.79543C259.293 8.76328 284.341 8.96877 281.361 8.60453C287.359 8.70696 329.644 8.5143 337.804 8.40372C340.282 8.36914 338.528 8.24565 339.02 8.23557C341.155 8.19067 342.12 8.37137 344.029 8.3641C349.118 8.34401 362.06 8.10217 364.519 8.08584C370.177 8.04773 387.141 8.10679 394.612 8.02263C401.46 7.94391 400.178 7.72842 406.099 7.66848C410.765 7.62242 405.682 7.84416 416.1 7.839C421.264 7.83723 439.328 7.58678 443.719 7.55935C448.107 7.53245 452.99 7.65052 459.043 7.60532C467.763 7.54005 486.731 7.34883 495.604 7.24833C496.133 7.24263 497.424 7.03003 498.73 7.0265C501.433 7.01922 500.621 7.27887 502.663 7.29376C504.705 7.30753 540.082 7.0903 546.091 7.06402C550.233 7.0449 553.093 6.86752 555.381 6.85693C557.177 6.84911 557.369 7.07735 559.201 7.07112C559.769 7.06864 564.597 6.84452 569.42 6.82465C573.978 6.80514 591.283 6.91803 593.288 6.912C594.593 6.90682 593.162 6.74348 597.021 6.72923C600.538 6.71656 602.848 6.92888 604.853 6.92351C609.504 6.91068 614.703 6.6956 619.639 6.6722C633.826 6.60591 633.096 6.89553 633.947 6.90109C636.307 6.91744 637.253 6.65146 638.028 6.64265C641.299 6.60673 649.316 6.52378 652.232 6.50112C655.864 6.4727 657.402 6.7202 661.261 6.70611C664.138 6.695 669.946 6.42206 676.507 6.38281C682.048 6.34962 687.982 6.31246 694 6.27664L698.673 6.2277L698.723 11C698.783 21.0482 698.839 31.3321 698.866 40.4175C698.88 44.7493 698.636 45.414 698.634 46.7382C698.624 53.6971 698.914 57.593 698.918 59.5792C698.945 73.7475 698.58 99.0207 698.575 112.168C698.574 117.521 698.847 140.959 698.842 154.181C698.842 155.694 698.632 154.277 698.669 155.961C698.756 159.987 699.176 159.614 699.169 161.656C699.164 162.642 698.932 164.89 698.915 167.76C698.827 182.647 699.035 192.885 699.038 199.676C699.054 264.899 699.019 331.408 699.012 392.318C699.011 399.109 699.285 407.53 699.027 417.783C698.886 418.098 698.746 418.414 698.605 418.729C698.744 419.088 698.882 419.447 699.021 419.806C699.099 431.419 699.279 435.808 699.104 447.667C699.089 448.688 698.446 451.806 699.245 453.736C698.848 461.8 698.999 461.291 699.149 463V468.149H694C693.219 468.218 691.976 468.287 689.242 468.304C680.523 468.358 672.049 468.178 663.595 468.136C658.96 467.849 678.407 467.192 679.674 467.194C681.716 467.197 683.838 467.594 685.804 467.616C688.767 467.648 691.681 467.582 694 467.556H698.556V463C698.532 460.76 698.544 459.075 698.718 458.433C698.343 450.906 698.531 460.277 698.193 459.336C698.332 454.312 698.472 449.288 698.611 444.264C697.463 441.704 698.953 413.944 698.08 415.873C698.254 413.665 698.428 411.456 698.602 409.248C697.503 399.565 698.273 393.87 698.59 380.953C698.451 381.885 698.312 382.817 698.172 383.748C698.114 383.484 697.885 372.084 698.482 376.16C697.692 364.473 698.993 364.966 698.046 354.489C697.921 348.266 698.469 352.008 698.45 340.867C698.439 334.265 698.148 326.07 698.122 318.692C698.117 316.993 698.429 316.254 698.428 314.742C698.426 313.23 698.118 312.492 698.109 310.661C698.089 306.878 698.298 301.973 698.275 299.609C698.255 297.49 697.982 294.462 697.934 289.355C697.765 271.521 698.154 276.908 698.28 274.092C698.414 271.065 697.908 268.89 697.958 262.857C697.964 262.251 698.279 263.817 698.264 261.85C698.252 260.263 697.911 259.465 697.841 254.209C697.813 252.116 697.697 219.628 697.683 214.679C697.663 207.094 697.917 190.197 697.9 182.346C697.894 179.321 697.624 176.088 697.621 172.874C697.608 162.224 697.599 145.174 697.584 131.668C697.575 119.506 698.084 98.1555 697.564 91.4952C697.461 74.4173 697.873 70.2694 697.876 68.9821C697.882 65.5015 697.598 63.8897 697.574 59.5011C697.493 44.3653 697.432 27.9527 697.38 11L697.344 7.58515L694 7.62017C647.286 7.76032 596.47 7.84376 556.97 8.00688C432.086 8.52832 306.521 9.18767 181.202 9.88005C180.867 9.9217 180.531 9.96313 180.195 10.0043C195.007 9.94938 212.413 9.9426 227.036 9.89803C246.557 9.84737 275.515 9.46103 289.835 9.82085C284.027 9.87662 274.567 9.75814 274.736 9.96271C285.117 9.94235 295.498 9.9241 305.879 9.90788C305.57 9.8047 305.26 9.70181 304.95 9.59919C315.789 9.52499 326.875 9.50403 337.752 9.44573C339.641 9.43565 338.303 9.33776 339.948 9.3304C341.789 9.32234 340.541 9.43315 340.886 9.43257C345.539 9.41578 346.943 9.30173 347.511 9.30086C348.967 9.29924 347.835 9.40699 352.034 9.42039C359.824 9.44737 365.403 9.14128 363.573 9.62335C366.088 9.61541 368.603 9.60752 371.118 9.59966C371.769 9.46603 372.42 9.33183 373.071 9.19706C388.541 9.68472 395.674 8.68358 404.223 9.43841C407.042 9.30854 409.861 9.17668 412.68 9.04287C414.269 9.18032 415.857 9.31911 417.446 9.45924C417.756 9.33407 418.066 9.20868 418.375 9.08307C433.563 9.12169 449.735 8.91143 464.261 8.87419C474.38 8.84966 476.804 8.89613 485.767 8.85617C505.704 8.76852 485.905 9.10637 502.472 9.36852C501.609 9.19496 500.747 9.02207 499.884 8.84986C502.628 8.77706 505.371 8.70355 508.115 8.62933C510.025 8.76723 511.935 8.90635 513.845 9.04667C522.318 8.26358 527.807 8.8574 528.961 8.85682C529.893 8.85419 533.094 8.37442 543.122 8.74257C538.964 8.10924 550.772 8.71431 551.717 8.71763C552.616 8.71813 564.112 8.53722 568.778 8.52913C572.448 8.52256 580.277 8.64536 585.743 8.62383C590.569 8.60453 590.079 8.3733 590.431 8.36989C596.371 8.33297 592.649 8.52503 596.943 8.52209C601.237 8.51957 604.568 8.3093 605.495 8.32445C605.962 8.33278 604.402 8.55704 606.537 8.5727C612.269 8.61644 622.635 8.39468 629.198 8.38258C631.524 8.37809 634.456 8.56284 637.046 8.56275C641.018 8.56192 642.874 8.2998 645.182 8.3013C645.984 8.30207 651.107 8.69001 657.476 8.61488C658.687 8.6015 662.246 7.73129 666.974 8.94064C667.339 8.76822 667.703 8.59563 668.068 8.42287C680.911 8.13529 688.18 8.52532 694 8.60957L696.365 8.58481L696.39 11C696.336 14.8575 696.417 18.0782 696.936 21.8635C696.828 37.3705 696.302 26.725 696.23 28.4273C696.183 29.527 696.33 34.5828 696.324 35.1387C696.31 36.1223 696.148 35.9532 696.151 37.0314C696.213 56.7988 696.507 48.0221 696.714 54.283C697.214 69.1698 696.188 80.7845 696.457 54.8908C696.365 54.8908 696.274 54.8908 696.183 54.8908C696.281 61.2666 696.264 77.4516 695.786 72.0469C695.411 67.7909 695.611 29.3934 695.122 51.1401C695.009 56.0772 695.358 58.6347 694.714 67.1849C694.681 72.8392 695.528 73.6539 695.194 81.3109C695.49 80.052 695.784 78.793 696.078 77.5341C696.48 87.9755 695.977 100.857 696.155 108.877C696.214 111.602 697.676 121.419 696.226 119.131C696.323 123.712 696.081 145.292 696.216 149.302C696.249 150.266 697.035 151.522 696.78 165.477C696.683 166.446 696.585 167.416 696.487 168.385C696.185 155.622 695.916 178.162 695.158 172.04C695.495 169.96 695.692 159.839 695.859 158.21C696.146 155.429 696.531 163.712 696.416 153.157C695.166 146.503 695.755 165.527 694.565 162.62C695.125 176.478 694.596 177.863 694.574 181C694.487 194.411 694.617 202.851 694.478 215.504C694.729 218.587 695.08 195.681 694.971 192.843C695.855 203.285 695.88 185.313 695.357 177.727C695.62 177.091 695.882 176.454 696.145 175.817C696.012 185.691 695.945 195.323 696.173 205.102C696.074 205.739 695.975 206.376 695.876 207.013C695.724 204.819 695.572 202.625 695.421 200.431C695.18 208.564 695.956 203.687 695.28 214.523C695.581 214.858 695.882 215.194 696.184 215.53C696.093 225.92 696 236.309 695.906 246.699C696.521 252.108 696.309 272.1 695.509 268.439C695.457 276.509 695.876 266.547 696.074 274.109C696.161 277.4 696.188 283.833 695.974 285.422C695.211 284.738 695.113 275.111 694.591 272.199C694.422 273.966 694.977 318.733 694.077 314.742C693.969 318.317 694.432 316.673 694.552 323.12C694.887 341.185 693.965 369.167 695.128 383.714C695.771 366.632 695.086 361.58 695.057 348.49C695.038 340.129 694.917 289.15 695.729 300.538C695.625 298.665 695.522 296.793 695.418 294.92C695.658 293.028 695.898 291.135 696.137 289.242C696.175 294.576 696.212 299.91 696.25 305.243C696.01 306.517 695.77 307.79 695.53 309.064C695.702 309.651 695.874 310.239 696.046 310.826C696.082 313.072 696.117 315.318 696.152 317.564C695.945 316.933 695.737 316.302 695.53 315.671C695.496 319.132 695.462 322.594 695.427 326.055C695.704 325.123 695.981 324.191 696.258 323.259C696.335 339.56 696.159 334.039 695.642 343.081C695.591 349.831 696.122 338.428 696.263 352.709C696.428 369.316 695.571 358.421 695.759 379.928C695.899 380.238 696.039 380.547 696.178 380.857C696.04 385.586 695.901 390.315 695.762 395.044C695.936 394.419 696.11 393.794 696.284 393.169C696.219 402.93 696.554 416.38 695.87 419.615C696.198 409.722 695.005 409.818 694.786 412.391C694.544 415.239 694.554 439.119 694.618 463V463.618H694C673.347 463.674 652.692 463.771 645.64 463.784C626.195 463.82 611.498 463.439 593.737 464.021C605.773 464.503 648.099 464.115 656.119 464.448C656.914 464.481 656.69 465.576 661.798 464.345C671.562 464.469 682.458 464.397 694 464.325H695.325V463C695.276 455.09 695.227 446.877 695.241 438.516C695.556 439.144 695.872 439.772 696.187 440.4C695.614 451.206 696.609 461.325 696.142 463V465.142H694C693.716 465.063 693.675 464.942 693.913 464.765C691.398 464.765 688.883 464.765 686.368 464.765C686.368 464.976 686.368 465.187 686.368 465.398C682.577 465.398 678.786 465.398 674.995 465.398C674.995 465.187 674.995 464.976 674.995 464.764C671.854 464.764 668.714 464.764 665.574 464.764C665.247 464.974 664.92 465.185 664.593 465.395C655.19 464.958 623.135 466.118 637.227 464.866C632.81 464.866 628.394 464.865 623.978 464.864C623.992 465.018 624.007 465.172 624.021 465.326C622.123 465.346 620.224 465.366 618.326 465.386C618.951 465.247 619.576 465.108 620.201 464.969C611.501 465.216 603.253 464.483 597.54 464.961C601.308 465.067 605.076 465.173 608.844 465.279C601.618 465.078 588.304 465.486 587.113 465.486C583.481 465.487 581.566 465.177 577.632 465.16C574.08 465.145 574.569 465.382 573.907 465.374C554.748 465.123 562.05 463.848 553.104 465.358C552.152 465.151 551.2 464.944 550.248 464.737C548.98 464.909 547.713 465.08 546.445 465.252C540.787 465.233 535.129 465.214 529.471 465.194C531.358 465.452 533.245 465.711 535.132 465.969C526.651 466.077 522.696 465.56 521.874 465.548C519.55 465.516 518.486 465.838 517.768 465.838C483.207 465.782 504.199 465.513 486.928 464.303C480.77 464.77 487 465.245 487.875 465.725C479.687 465.493 477.131 465.624 468.487 465.589C466.238 465.58 463.82 465.321 462.401 465.317C461.172 465.313 457.329 465.581 454.379 465.579C449.461 465.576 442.914 465.408 436.181 465.406C430.581 465.404 413.441 465.575 401.486 465.561C396.385 465.555 397.568 465.335 396.251 465.333C395.702 465.333 391.727 465.593 388.454 465.589C361.764 465.559 334.41 465.356 307.588 465.32C288.691 465.294 269.489 465.458 250.554 465.401C246.525 465.388 248.658 465.216 246.899 465.206C246.294 465.204 245.567 465.51 239.337 465.374C237.086 465.325 239.674 465.116 237.461 465.102C236.384 465.095 235.926 465.362 229.63 465.41C218.187 465.495 212.036 465.132 211.015 465.141C209.089 465.157 209.652 465.375 207.099 465.377C194.617 465.387 184.196 465.399 173.056 465.389C167.854 465.386 131.988 465.335 130.018 465.293C125.612 465.202 129.714 464.796 124.062 464.798C122.479 464.9 120.896 465 119.313 465.101C121.828 465.186 124.343 465.272 126.858 465.359C119.935 465.207 112.085 465.373 106.958 465.35C106.011 465.345 97.2954 465.138 92.8496 465.146C94.7396 465.077 96.6292 465.007 98.5191 464.936C97.8506 464.87 97.1821 464.804 96.5135 464.739C87.6237 464.816 78.2204 464.79 69.1036 464.755C65.8163 464.742 66.9273 464.595 63.5991 464.582C44.2135 464.514 49.1095 465.109 30.459 463.959C36.7562 464.071 59.7303 463.961 63.0695 464.003C65.3962 464.03 74.4197 465.041 71.1093 464.016C89.7229 464.046 73.5554 464.59 90.9395 464.498C90.5923 464.37 90.2449 464.242 89.8977 464.114C95.9666 464.042 100.449 463.981 104.137 464.216C105.374 463.588 125.993 463.977 137.303 463.948C153.646 463.904 172.111 463.755 188.302 463.736C193.881 463.73 197.04 464.005 197.74 464.005C198.763 464.004 201.637 463.767 203.679 463.766C211.302 463.762 234.496 464.201 240.266 463.514C194.904 463.495 149.542 463.472 104.18 463.447C109.884 463.75 63.9983 463.732 61.6716 463.715C59.5181 463.7 61.3306 463.507 60.6906 463.494C55.9237 463.408 51.8546 463.686 50.3413 463.684C49.1874 463.682 46.8571 463.549 42.7531 463.549C42.0003 463.549 41.791 463.686 40.9819 463.685C35.6286 463.68 30.3441 463.672 24.9718 463.667C24.6447 463.666 23.2893 463.47 21.933 463.469C20.5732 463.468 19.2286 463.66 18.8855 463.66C16.0003 463.656 11.7306 463.595 8 463.554L7.45476 463.563L7.44582 463C7.46557 461.178 7.48051 459.485 7.48212 458.145C7.48331 456.727 7.34485 457.71 7.34793 456.122C7.35691 451.241 7.62179 452.849 7.55788 446.814C7.53644 444.792 7.33493 444.922 7.36594 441.049C7.38804 438.306 7.74242 438.602 7.75556 438.167C7.76997 437.566 7.50035 428.101 7.72979 425.004C8.32785 431.77 7.76084 417.603 7.51478 418.284C7.58104 414.534 7.64598 410.783 7.70955 407.032C7.64854 405.753 7.588 404.474 7.52794 403.195C7.81448 388.062 7.65529 378.829 7.74578 363.942C7.75094 363.223 7.87982 350.68 7.95538 351.266C8.08665 358.774 8.09994 366.265 7.84207 371.07C8.33152 378.977 7.94198 379.113 8.00621 391.882C8.02909 396.157 8.16935 396.46 8.17129 396.952C8.24418 413.578 8.33619 440.207 7.88008 451.407C8.00302 454.547 8.05078 443.259 8.1409 447.648C8.15702 448.427 8.18507 455.051 8.19801 463L8 462.802C24.4818 462.773 46.6602 462.822 34.2444 463.198C36.1546 463.183 38.0645 463.168 39.9747 463.153C41.8852 462.624 51.3848 462.739 50.3066 463.276C51.2067 463.167 52.1067 463.057 53.0068 462.947C54.7848 462.854 56.8887 462.803 59.8397 462.773C71.1389 462.651 138.364 462.829 141.939 462.745C142.02 462.602 142.101 462.459 142.182 462.316C112.484 462.186 83.6723 462.536 51.2877 462.199C52.2282 462.318 53.1688 462.436 54.1094 462.555C41.1873 462.396 28.2653 462.246 15.3431 462.107C29.0197 461.885 50.7783 461.657 65.1359 461.813C67.6878 461.841 65.8172 462.014 66.4035 462.034C67.9353 462.086 69.5826 461.788 75.0857 461.749C80.5913 461.71 94.4215 461.903 95.6887 461.896C98.1321 461.881 104.726 461.517 108.886 461.513C114.353 461.509 110.688 461.737 111.786 461.74C116.324 461.755 120.394 461.638 123.949 461.649C129.228 461.663 140.195 462.053 143.884 461.454C140.113 461.433 136.342 461.413 132.571 461.393C153.019 461.136 169.007 461.892 189.153 461.253C193.731 460.488 177.085 460.631 191.159 460.274C188.603 460.291 186.048 460.309 183.492 460.326C182.893 460.485 182.294 460.643 181.695 460.801C177.293 460.699 172.891 460.598 168.489 460.499C169.745 460.634 171.002 460.769 172.257 460.904C156.652 461.044 140.893 461.207 135.445 460.508C135.123 460.682 134.802 460.855 134.481 461.028C119.992 460.857 98.2411 461.615 102.305 460.681C101.619 460.732 100.933 460.782 100.247 460.833C91.4887 460.67 95.2294 461.039 91.938 461.089C90.998 461.102 73.9749 460.956 81.5193 460.668C64.912 460.519 70.0329 461.331 65.4572 461.378C54.826 460.999 35.7034 461.647 43.7428 461.001C42.1598 460.982 40.5766 460.964 38.9937 460.945C33.7917 461.447 28.6639 460.911 23.027 460.753C21.1168 460.749 19.2068 460.745 17.2967 460.742C16.0174 460.905 14.7384 461.067 13.4591 461.229C11.3274 461.146 9.52846 461.102 8 461.086L9.91379 463C10.027 451.643 8.66968 455.205 10.119 447.969C10.2234 449.248 10.3284 450.527 10.434 451.807C10.4944 454.84 10.5554 457.873 10.6171 460.906C10.6084 448.672 10.5955 436.439 10.5782 424.206C10.9402 408.678 10.4246 399.842 10.6605 382.592C10.6122 380.977 10.5642 379.362 10.5167 377.747C10.8537 379.393 10.8481 385.658 10.9199 373.988C11.1425 372.993 11.2301 380.874 11.0731 384.467C11.0339 385.333 10.8085 377.964 10.8529 386.247C10.883 391.878 11.1044 381.653 11.1062 398.524C11.1616 397.898 11.2167 397.273 11.2716 396.648C11.2822 398.477 11.2928 400.306 11.3033 402.135C11.1759 403.762 11.0471 405.388 10.9169 407.015C11.1424 411.195 11.4455 413.542 11.447 423.094C11.3403 420.503 11.0738 424.019 11.105 428.746C11.2104 428.746 11.3158 428.746 11.4211 428.746C11.5629 440.191 11.2219 436.24 11.5278 445.755C11.4473 446.707 11.3664 447.659 11.285 448.611C11.4881 451.334 11.6871 457.892 11.7484 463L8 459.252C12.6165 459.196 16.0492 459.257 14.3968 459.531C19.75 458.96 30.9929 459.128 35.1735 459.555C35.4946 459.437 35.816 459.319 36.1371 459.201C38.3628 459.165 40.5882 459.128 42.8139 459.091C44.0553 459.155 45.2969 459.219 46.5385 459.284C48.1158 459.204 49.693 459.123 51.2703 459.042C52.2225 459.156 53.1746 459.27 54.1268 459.385C56.662 459.228 59.1973 459.07 61.7324 458.91C63.2838 458.998 64.8349 459.086 66.3861 459.175C66.5464 458.921 81.915 458.775 86.2077 458.923C87.487 458.841 88.766 458.757 90.0453 458.674C90.6704 458.795 91.2954 458.917 91.9206 459.039C92.8728 458.934 93.825 458.829 94.7771 458.723C96.9708 458.811 99.1645 458.901 101.358 458.991C110.305 458.321 110.593 458.867 112.636 458.854C116.424 458.829 129.321 458.362 131.477 458.37C133.63 458.38 134.67 458.606 136.408 458.62C165.066 458.851 153.285 458.274 159.034 458.143C162.136 458.072 164.332 458.284 167.074 458.246C171.765 458.182 195.432 457.763 196.794 457.785C198.776 457.819 194.108 458.929 200.553 458.621C200.767 458.033 214.548 458.567 208.106 457.772C213.782 457.817 219.457 457.864 225.132 457.912C224.489 457.203 231.488 457.627 239.111 457.554C249.913 457.451 274.234 456.855 273.345 457.619C275.932 457.434 278.52 457.248 281.107 457.061C298.811 457.226 316.175 456.903 333.747 456.825C385.9 456.594 442.48 456.604 494.386 456.67C496.882 456.673 496.523 456.952 498.319 456.955C507.759 456.968 532.294 456.727 545.516 456.771C549.752 456.784 551.813 457.057 553.156 457.068C557.715 457.107 556.639 456.745 558.739 456.752C562.051 456.764 579.568 457.082 585.602 457.112C588.589 457.127 592.124 456.833 595.621 456.919C595.922 456.926 595.367 457.227 595.621 457.232C601.996 457.263 598.162 457.007 600.319 457.018C615.697 457.103 632.134 457.098 648.818 457.154C652.96 457.168 659.3 457.378 662.857 457.398C664.213 457.404 661.78 457.176 666.469 457.193C668.075 457.2 668.624 457.498 670.436 457.517C678.248 457.596 680.862 456.638 687.575 457.408C689.523 457.4 691.688 457.388 694 457.373L688.373 463C688.288 449.929 688.114 432.135 688.113 422.089C688.114 419.292 688.29 417.931 688.288 415.265C688.287 413.374 688.016 410.045 688.014 407.095C688.013 404.144 688.274 399.486 688.268 393.811C688.262 387.836 688.114 380.407 688.116 379.06C688.117 377.433 688.444 376.675 688.441 375.049C688.434 370.13 688.126 356.963 688.098 350.626C688.069 343.817 688.231 339.729 688.23 337.403C688.228 335.248 687.958 332.735 687.957 331.75C687.954 330.219 688.274 329.858 688.274 327.913C688.272 324.736 688.076 321.46 688.077 316.695C688.095 230.891 688.495 146.765 688.995 63.2865C689.051 53.9804 688.873 48.7216 689.015 35.0084C689.073 29.4485 689.35 31.7906 689.311 27.4636C689.294 25.5343 689.068 26.0221 689.067 23.5826C689.066 19.4686 689.102 15.0953 689.149 11L694 15.8511C687.362 15.7756 681.455 15.6748 678.565 15.6653C676.712 15.659 674.594 15.8976 670.794 15.8845C642.477 15.7888 608.976 15.5646 578.502 15.4463C562.366 15.3846 537.938 15.3601 519.419 15.2629C468.252 14.998 413.208 14.5839 366.542 14.2563C296.079 13.7743 225.954 13.2418 155.642 12.4866C188.537 12.9785 233.33 13.4357 269.952 13.7973C375.732 14.9019 488.361 15.528 596.769 16.1294C625.799 16.298 660.656 16.4716 694 16.6884L688.312 11C688.246 20.981 688.177 30.8264 688.101 40.3393C688.086 42.2121 688.268 46.0935 688.23 50.1416C688.222 51.0015 687.811 61.6649 687.791 65.2574C688.458 61.8525 687.818 75.9269 687.814 80.2777C687.812 85.7647 688.1 97.2075 687.864 110.049C687.649 121.701 687.4 118.488 687.381 119.131C687.26 123.252 687.674 124.69 687.706 127.848C687.825 140.749 687.373 207.107 687.313 225.627C687.297 230.413 687.016 230.548 687.012 231.627C687.003 234.482 687.27 238.547 687.258 243.122C687.234 251.37 686.945 260.869 686.934 265.409C686.906 276.267 687.184 296.871 687.168 310.982C687.163 314.951 686.864 314.708 686.862 316.504C686.853 324.413 687.179 345.011 687.172 354.828C687.159 370.774 686.948 387.177 687.037 403.388C686.901 404.415 686.765 405.442 686.628 406.47C686.77 408.091 686.911 409.711 687.053 411.332C686.975 428.455 687.064 445.77 687.14 463L694 456.14C683.649 456.185 673.329 456.225 663.1 456.221C659.959 456.219 644.413 455.966 641.82 455.967C639.663 455.968 637.541 456.306 634.344 456.258C629.866 456.193 634.08 455.549 626.765 455.738C624.798 455.789 626.705 456.061 622.753 456.15C621.448 456.178 596.115 456.312 594.753 456.295C592.484 456.265 590.46 455.684 589.874 455.672C586.829 455.61 586.959 456.057 584.916 456.101C578.889 456.23 571.014 455.939 570.035 455.947C558.193 456.046 536.056 456.434 523.628 456.248C521.909 456.222 522.115 455.893 521.814 455.883C519.866 455.819 518.656 456.195 516.804 456.207C506.835 456.268 491.224 456.05 481.198 456.011C480.043 456.007 477.606 456.191 475.546 456.179C463.893 456.107 467.673 455.814 467.011 455.804C465.441 455.778 462.68 456.098 458.503 456.128C447.739 456.207 427.099 456.22 415.56 456.233C406.916 456.241 407.046 455.891 406.479 455.886C405.266 455.878 401.898 456.168 396.207 456.218C385.257 456.317 386.505 456.041 382.003 456.069C381.625 456.07 382.283 456.334 377.289 456.378C367.64 456.463 345.968 456.287 335.64 456.344C331.668 456.366 330.738 456.618 326.671 456.639C320.223 456.672 305.67 456.469 304.523 456.476C304.201 456.477 303.48 456.761 301.588 456.769C299.508 456.778 297.461 456.643 295.91 456.651C287.077 456.695 271.86 457.245 276.089 456.242C273.258 456.499 270.428 456.755 267.597 457.009C249.097 457.047 231.125 457.231 212.795 457.37C208.673 457.402 205.231 457.244 201.751 457.271C198.272 457.299 182.923 457.667 180.358 457.686C175.78 457.718 149.767 457.889 146.532 457.889C140.214 457.886 134.084 457.566 131.512 457.652C129.45 457.72 131.357 457.909 127.422 457.988C120.612 458.124 109.039 457.941 106.958 457.959C106.07 457.967 107.733 458.108 99.4134 458.169C94.9303 458.202 92.5229 458.053 90.8961 458.065C90.3904 458.069 91.1489 458.329 82.2746 458.348C76.1457 458.361 73.5323 458.178 72.8892 458.182C71.9237 458.187 69.5941 458.414 65.7176 458.431C56.6564 458.469 40.0897 458.345 31.4835 458.391C29.8191 458.399 30.3852 458.637 23.7475 458.66C19.0001 458.677 19.8295 458.482 18.052 458.487C15.7445 458.495 12.5115 458.671 8 458.753L12.2465 463C12.2282 462.001 12.2144 460.94 12.2077 459.812C12.1724 451.98 11.946 393.831 11.9632 390.822C11.9821 388.798 11.9645 386.451 12.043 385.448C12.134 386.308 12.2255 387.167 12.3174 388.027C12.1013 396.932 12.408 393.338 12.4523 395.702C12.516 399.126 12.5886 412.029 12.6956 415.15C12.7346 416.262 12.8993 413.716 13.0551 419.691C13.224 426.102 12.9037 428.954 13.4033 431.507C12.9596 440.606 13.6116 449.346 13.66 438.809C13.6967 432.927 13.2415 375.23 13.1147 363.447C13.0207 353.894 12.6885 336.002 12.5743 324.256C12.5075 317.351 12.3125 300.346 12.5064 301.065C12.4486 294.936 12.3495 301.423 12.3065 300.136C12.2206 297.446 12.0973 278.317 12.0416 274.697C11.7744 256.84 11.3149 234.307 11.2491 216.96C11.2975 217.768 11.3463 218.575 11.3955 219.383C11.524 223.28 11.6812 241.364 11.9082 243.406C11.514 216.96 11.1026 190.514 10.6739 164.068C10.5646 164.56 10.0554 131.758 10.0669 130.207C10.1205 130.783 10.1746 131.359 10.2293 131.935C10.3659 150.471 10.5836 148.809 10.6531 161.255C10.7339 166.322 10.8014 164.793 10.8614 167.289C11.4675 192.14 10.6689 167.688 11.0665 186.711C11.1224 180.985 11.4394 196.565 11.5795 203.546C11.6128 205.135 11.9149 226.004 11.9561 228.482C12.196 242.404 12.6992 266.313 12.7928 280.141C12.9445 291.036 13.2004 297.034 13.395 306.926C13.5417 314.434 13.3859 312.282 13.4378 315.816C13.5431 323.232 13.9726 325.672 13.4979 330.42C13.6384 335.447 13.7808 340.474 13.9252 345.501C13.8371 345.501 13.7489 345.501 13.6608 345.501C13.705 348.659 13.749 351.816 13.7927 354.973C13.8954 355.902 13.9988 356.831 14.1027 357.76C14.122 367.781 13.8387 363.598 13.6029 365.47C13.6128 367.635 13.6223 369.8 13.6315 371.965C13.8567 373.64 14.084 375.316 14.3136 376.992C14.4316 386.658 14.546 396.324 14.6569 405.99C14.5647 406.615 14.4721 407.241 14.3792 407.866C14.4803 407.886 14.5815 407.906 14.6826 407.926C14.9207 424.295 15.1537 440.664 15.3812 457.033C15.6169 461.387 15.4061 435.16 15.3862 433.174C15.2925 422.126 14.7224 392.788 15.0679 392.75C14.7065 385.883 14.4775 365.208 14.6625 358.776C14.7984 368.538 14.9302 378.3 15.0581 388.061C15.1691 387.746 15.2799 387.431 15.3904 387.115C15.1134 399.278 15.146 401.058 15.8 413.561C15.6367 413.573 15.4733 413.584 15.31 413.596C16.0141 422.314 15.239 437.725 15.9749 438.167C15.982 442.809 15.9869 447.451 15.9897 452.093C16.1504 459.084 16.3766 453.628 16.6118 463L8 454.388C12.0659 454.286 18.9227 454.181 30.7976 454.089C33.5024 454.068 32.9387 454.279 37.0054 454.211C38.1783 454.192 44.8943 453.8 57.7386 453.658C59.7434 453.637 59.8949 453.818 61.9755 453.815C66.7794 453.809 76.3483 453.317 72.0035 453.975C91.0305 453.919 83.1451 453.516 89.0468 453.24C92.9801 453.056 92.1887 453.432 95.5932 453.307C99.8059 453.152 96.7144 452.815 113.583 452.777C111.69 452.827 109.797 452.876 107.905 452.925C108.857 453.015 109.809 453.106 110.761 453.197C120.389 452.834 119.479 453.21 124.019 452.57C131.018 452.746 137.073 452.698 146.645 452.539C165.239 452.234 155.707 451.672 176.929 452.333C180.367 452.17 183.805 452.006 187.243 451.841C192.895 452.049 188.323 452.434 196.759 452.417C190.157 451.815 207.955 451.877 210.963 451.24C211.278 451.381 211.594 451.522 211.909 451.663C213.793 451.643 215.678 451.624 217.561 451.605C217.567 451.489 217.573 451.372 217.579 451.256C220.088 451.317 222.597 451.378 225.106 451.441C226.993 451.306 228.88 451.17 230.767 451.034C233.87 451.248 236.972 451.465 240.075 451.683C242.022 451.682 243.97 451.681 245.918 451.68C245.301 451.508 244.685 451.336 244.068 451.165C246.572 451.2 249.075 451.236 251.579 451.271C248.665 451.007 250.496 450.647 258.29 450.579C264.721 450.524 257.477 451.208 271.305 450.823C272.269 450.796 273.977 450.337 287.046 450.145C302.719 449.918 295.105 450.314 297.898 450.3C298.447 450.297 303.235 450.028 307.718 449.955C310.262 449.914 312.713 450.078 313.049 450.075C314.619 450.053 315.076 449.787 317.251 449.758C322.773 449.688 330.187 449.755 335.597 449.698C338.056 449.672 340.369 449.495 341.466 449.484C343.168 449.469 345.327 449.693 347.049 449.679C353.404 449.625 363.05 448.739 366.002 449.844C372.111 448.76 384.911 449.927 383.974 449.234C400.301 449.381 443.848 448.233 442.571 449.455C451.818 448.367 450.991 449.122 454.865 449.086C459.197 449.046 456.953 448.856 460.395 448.846C468.434 448.825 476.115 448.873 484.115 448.84C482.859 449.014 481.603 449.189 480.347 449.363C488.745 449.378 485.854 448.999 494.421 448.884C510.178 448.676 503.538 449.021 505.864 449.456C505.24 449.028 523.82 449.021 525.712 449.072C526.84 449.102 521.896 449.676 533.274 449.457C532.652 449.287 532.03 449.118 531.407 448.949C536.591 449.164 550.671 448.82 553.061 448.87C554.158 448.893 560.026 450.269 565.398 449.152C566.047 449.323 566.695 449.494 567.343 449.665C573.308 449.442 579.273 449.218 585.237 448.995C586.19 449.306 587.142 449.616 588.094 449.927C589.987 449.923 591.879 449.919 593.772 449.915C592.516 449.64 591.26 449.365 590.004 449.09C601.691 449.189 615.969 448.724 618.378 449.662C620.881 449.483 623.384 449.305 625.888 449.127C627.517 449.438 629.146 449.749 630.776 450.06C642.368 449.967 642.559 449.758 650.485 449.415C650.175 449.661 649.865 449.906 649.556 450.151C655.401 449.802 666.072 449.474 674.508 449.427C678.519 449.405 685.405 449.742 686.351 449.711C686.953 449.691 690.901 449.156 694 449.05L680.05 463C679.988 461.175 680.074 459.645 680.5 459.267C679.992 445.42 680.517 439.324 680.507 433.706C680.501 430.057 680.226 428.392 680.201 424.268C680.165 418.367 680.304 412.427 680.289 409.022C680.28 407.074 680.012 406.71 680.005 405.367C679.972 399.017 680.241 402.737 680.233 396.042C680.231 395.425 679.91 390.531 679.962 385.016C679.99 381.932 680.372 373.954 680.373 373.252C680.372 370.13 679.634 372.625 680.503 361.956C680.363 362.266 680.223 362.575 680.083 362.885C679.759 349.681 680.386 347.597 680.435 344.93C680.439 344.59 680.208 341.375 680.246 339.452C680.311 336.202 680.642 334.892 680.658 334.173C680.715 331.638 680.596 323.1 680.928 317.52C679.995 318.693 679.734 299.139 680.795 294.807C680.601 291.346 680.408 287.885 680.216 284.423C680.394 282.858 680.571 281.292 680.748 279.726C680.581 278.774 680.415 277.822 680.248 276.87C680.644 271.826 681.039 266.781 681.433 261.737C681.06 261.415 680.687 261.094 680.314 260.773C680.363 259.361 680.412 257.948 680.461 256.536C680.763 255.433 681.064 254.331 681.365 253.228C681.316 251.463 681.267 249.697 681.219 247.932C681.006 247.495 680.794 247.058 680.582 246.621C680.383 237.13 682.389 242.007 680.693 223.926C680.875 221.112 681.057 218.299 681.238 215.486C680.442 212.309 680.967 206.355 680.902 201.551C680.857 198.166 680.535 198.35 680.556 193.737C680.576 189.122 680.88 189.287 680.885 188.927C680.925 185.165 680.674 182.329 680.745 179.568C680.755 179.152 681.122 178.11 681.167 174.593C681.211 171.075 680.842 168.954 680.948 163.714C681.002 161.029 681.308 160.253 681.35 157.871C681.547 146.521 680.128 135.092 681.967 126.58C681.753 124.661 681.072 110.744 681.166 104.788C681.311 95.5243 681.625 99.0936 681.717 95.4109C681.73 94.8813 681.636 92.0603 681.72 84.2889C681.735 82.8984 681.541 83.2208 681.54 83.0213C681.618 73.9612 681.918 56.3675 682.033 46.4169C682.043 45.5279 681.569 40.8729 682.335 32.9855C682.141 27.3997 682.34 19.4555 682.529 11L694 22.471C684.761 22.263 674.911 22.0673 666.861 22.3721C664.724 22.3657 662.129 22.1628 661.183 22.1593C653.03 22.1318 656.018 22.6868 637.593 21.7236C639.085 22.006 634.775 22.2001 628.685 22.1113C619.53 21.9784 626.033 21.5611 618.675 21.5208C618.675 21.6584 618.675 21.7959 618.675 21.9335C601.747 21.3742 598.379 21.9173 581.393 21.7084C575.283 21.6327 566.258 21.2312 564.801 21.213C564.238 21.2075 557.556 21.4335 556.918 21.4268C553.324 21.3893 551.295 21.2212 548.192 21.1804C537.94 21.0469 525.706 21.2668 527.919 20.5939C525.1 20.7057 522.282 20.8156 519.463 20.9235C508.813 20.0426 500.849 20.9387 498.617 20.2042C496.712 20.3228 494.808 20.4401 492.904 20.5559C447.226 19.827 401.549 19.0442 355.872 18.2121C354.056 18.3552 334.137 17.943 333.116 17.8997C328.425 17.7025 333.379 17.4351 323.808 17.3543C322.749 17.4884 321.69 17.6212 320.63 17.7527C308.6 17.5818 314.387 17.5391 309.639 17.3547C307.655 17.3373 308.296 17.4619 305.61 17.4208C291.045 17.2009 261.179 16.6338 245.251 16.3233C242.039 16.261 242.524 16.1854 241.527 16.1657C238.784 16.1134 233.372 16.111 227.869 15.9984C193.84 15.31 145.62 14.2176 111.362 13.4118C109.035 13.357 108.747 13.3041 107.177 13.2676C105.001 13.2178 100.141 13.1459 97.8526 13.0907C95.6968 13.0392 94.3161 12.9779 92.0095 12.9238C81.4541 12.6807 67.2625 12.3917 55.9694 12.0854C55.0197 12.0549 43.1877 11.725 42.92 11.7203C41.35 11.6697 51.8644 11.8082 34.5937 11.4703C50.0295 11.7131 45.2075 11.5369 25.1561 11.2448C35.2131 11.3836 45.27 11.514 55.327 11.6363C55.3414 11.6271 55.3559 11.6179 55.3704 11.6087C46.2154 11.4476 37.1323 11.339 23.2113 11.1766C23.6454 11.1788 24.0795 11.1807 24.5136 11.1824C36.8092 11.2989 51.6416 11.4383 61.0051 11.4523C47.2727 11.2889 33.5403 11.1605 19.8079 11.0693C20.4938 11.0715 21.1797 11.0735 21.8656 11.0751C28.4485 11.1059 42.8275 11.1686 48.2943 11.1774C69.1736 11.1971 30.0204 11.0735 36.4517 11.0738C58.496 11.1311 80.5402 11.1886 102.584 11.2462C103.357 11.1578 18.5523 10.949 19.4258 10.9835C26.3543 10.9722 33.2827 10.9584 40.2112 10.9422C37.1232 10.9327 34.0352 10.9275 30.9472 10.9265C31.798 10.9205 32.6489 10.914 33.4998 10.9072C45.189 10.8559 56.8782 10.7927 68.5674 10.7183C33.0281 10.9008 16.5127 10.9254 8 11C8.96373 10.9919 9.92746 10.9836 10.8912 10.975C18.5902 10.9116 54.932 10.6923 74.2456 10.5136C70.3091 10.4994 53.3034 10.658 49.7095 10.6673C48.6912 10.671 52.2425 10.622 49.8832 10.6318C43.7167 10.6513 17.4391 10.8971 21.2578 10.8529C23.7169 10.8269 65.998 10.306 74.2456 10.2102C54.9135 10.3816 34.9945 10.624 15.6057 10.8901C27.8441 10.7063 38.683 10.4652 61.0225 10.0715C67.8317 9.89329 20.5403 10.7323 19.4432 10.7695C27.6277 10.6002 35.8121 10.4215 43.9966 10.2337C37.074 10.3831 30.1513 10.5313 23.2287 10.6784C23.2084 10.6765 23.1882 10.6746 23.1679 10.6727C41.1006 10.2837 57.5068 9.85033 78.031 9.39354C77.369 9.35128 65.0884 9.64142 59.1298 9.77991ZM13.097 271.858C13.2459 271.444 13.352 278.969 13.4214 283.206C13.44 282.569 13.4585 281.933 13.4767 281.296C13.6069 290.338 13.8214 307.17 14.1733 307.794C14.3299 314.244 13.981 311.392 13.9822 313.472C13.9806 314.286 14.3035 322.705 14.1933 329.439C14.2202 331.039 14.2471 332.64 14.2739 334.24C14.3985 334.55 14.5234 334.859 14.6486 335.169C14.5412 337.401 14.4312 339.632 14.3185 341.863C13.9228 318.54 13.5156 295.216 13.0976 271.893C13.0974 271.881 13.0972 271.87 13.097 271.858ZM49.3429 454.257C57.8361 454.241 70.8463 454.236 68.2181 453.799C62.8525 453.892 57.4868 453.986 52.1212 454.079C51.1951 454.139 50.269 454.198 49.3429 454.257ZM682.038 262.727C682.705 255.633 682.176 249.101 682.338 238.13C682.203 238.144 682.069 238.159 681.935 238.173C682.238 242.659 681.974 254.519 682.038 262.727ZM8.86366 61.1053C8.84179 59.5424 8.81946 57.9797 8.79667 56.4169C8.96825 62.7728 8.94728 63.9103 9.07758 71.0985C9.0856 71.532 9.10076 71.3815 9.10354 71.5327C9.13616 73.2917 9.14238 74.9188 9.17006 76.5076C9.2235 79.5721 9.29213 82.0704 9.38671 87.4993C9.45962 91.6973 9.41474 91.7369 9.44075 93.2122C9.45788 94.4695 9.8177 106.927 9.89484 114.944C10.0108 130.191 8.93943 65.7586 8.86366 61.1053ZM8.09177 15.9141C8.1199 17.422 8.14799 18.9297 8.17605 20.4376C8.08606 15.9035 8.25163 25.054 8.37031 31.7679C8.3489 31.5599 8.11195 17.356 8 11C8.02826 12.6381 8.05886 14.2761 8.09177 15.9141ZM11.0187 206.594C10.9214 200.694 11.1205 201.677 11.1801 201.923C11.2085 203.801 11.2368 205.679 11.2651 207.557C11.1826 207.236 11.1005 206.915 11.0187 206.594ZM10.3314 162.219C10.4585 164.054 10.6993 176.862 10.7999 182.935C10.8037 183.2 10.7163 181.532 10.7849 185.826C10.8022 187.115 11.2376 199.799 10.9159 197.009C10.7187 185.418 10.5238 173.827 10.3316 162.236C10.3316 162.23 10.3315 162.225 10.3314 162.219ZM10.2005 149.282C10.266 151.696 10.3328 154.11 10.4008 156.523C10.3737 157.771 10.3454 159.018 10.316 160.265C10.2644 157.519 10.2132 154.772 10.1625 152.026C10.1757 151.111 10.1884 150.197 10.2005 149.282ZM329.747 15.4139C330.308 15.5208 330.87 15.6281 331.431 15.7359C333.607 15.8278 344.182 15.5029 340.834 15.3764C337.138 15.3907 333.443 15.4032 329.747 15.4139ZM285.085 14.7025C282.886 14.6326 280.686 14.5634 278.487 14.4951C275.957 14.6138 273.428 14.7289 270.899 14.8402C281.887 15.0759 293.578 15.3491 291.693 14.8718C294.208 14.9012 296.722 14.9305 299.237 14.9597C297.12 15.126 297.404 15.1892 303.987 15.3949C305.426 15.1433 312.232 15.3634 320.023 15.3954C314.356 15.3118 308.69 15.2283 303.023 15.1448C303.023 15.0974 303.023 15.05 303.023 15.0027C315.653 15.1631 299.955 14.6868 291.727 14.7795C291.079 14.7111 290.431 14.643 289.782 14.5753C288.217 14.6186 286.651 14.661 285.085 14.7025ZM641.95 454.149C643.516 454.253 645.081 454.358 646.647 454.462C652.715 453.085 640.361 454.395 631.566 453.317C634.471 454.139 621.064 454.117 620.296 454.173C621.839 454.449 623.381 454.725 624.924 455.001C630.599 454.717 636.275 454.433 641.95 454.149ZM686.334 455.079C683.886 454.77 687.963 454.591 694 454.503L685.503 463C685.394 455.648 685.421 445.391 685.505 440.478C685.543 438.303 685.921 434.425 685.874 432.855C685.735 431.903 685.597 430.951 685.458 429.999C685.939 428.871 685.408 411.399 685.156 404.516C685.331 403.868 685.506 403.22 685.681 402.572C685.614 400.062 685.547 397.553 685.48 395.044C685.653 395.36 685.827 395.675 686.001 395.99C685.793 394.092 685.585 392.193 685.378 390.295C685.153 382.842 686.096 387.438 685.806 381.838C685.485 375.615 684.91 385.813 684.543 385.624C684.631 390.675 684.833 402.16 684.839 407.286C684.843 410.229 684.185 406.893 684.935 419.58C684.757 422.361 684.578 425.142 684.4 427.924C684.678 433.029 684.958 438.134 685.237 443.239C684.993 444.191 684.748 445.143 684.503 446.096C684.464 446.641 685.018 458.447 685.202 457.817C685.069 459.173 684.967 460.936 684.889 463L694 453.889C688.787 453.692 681.648 453.645 674.239 453.63C673.244 453.763 672.248 453.896 671.253 454.03C681.256 453.74 674.435 454.17 677.417 454.423C679.138 454.57 684.404 454.858 686.334 455.079ZM399.439 15.8729C382.642 16.041 393.042 15.8673 374.886 15.6832C376.153 15.8673 377.421 16.0527 378.689 16.2396C387.615 16.0241 402.304 16.3917 399.457 15.8731C399.451 15.873 399.445 15.873 399.439 15.8729ZM221.774 14.2699C231.382 14.3346 226.561 14.1003 238.74 14.1941C238.745 14.1941 238.751 14.1942 238.757 14.1943C232.459 14.104 226.162 14.0139 219.864 13.924C220.501 14.0384 221.138 14.1537 221.774 14.2699ZM685.713 100.438C685.542 109.65 685.774 107.837 685.286 116.196C685.766 128.642 685.742 118.106 686.233 118.106C686.102 115.261 685.971 112.417 685.842 109.572C686.332 102.675 686.53 109.216 686.575 109.216C686.575 109.21 686.575 109.204 686.575 109.198C686.722 109.199 686.752 109.422 686.852 106.776C686.471 104.663 686.091 102.551 685.713 100.438ZM686.135 139.864C685.818 136.705 685.403 135.284 685.151 143.589C685.151 143.594 685.151 143.6 685.151 143.606C685.888 144.273 685.255 152.235 685.288 155.865C685.364 156.818 685.441 157.77 685.518 158.722C685.725 152.436 685.93 146.15 686.135 139.864ZM686.388 278.78C685.524 278.815 685.461 271.845 684.638 281.654C684.649 283.558 684.659 285.462 684.67 287.367C684.857 288.617 685.044 289.867 685.231 291.117C683.602 315.273 686.264 322.475 685.357 281.654C685.357 281.648 685.356 281.642 685.356 281.636C685.7 280.684 686.044 279.732 686.388 278.78ZM686.422 236.237C685.975 235.93 685.529 235.623 685.083 235.317C686.177 229.982 685.173 223.091 685.964 212.63C685.832 211.684 685.701 210.737 685.57 209.791C685.878 205.882 686.101 167.481 685.401 175.8C685.092 179.432 685.459 187.343 685.448 188.024C685.407 190.332 685.017 193.341 685.024 197.236C685.028 199.488 685.456 204.233 685.439 208.827C685.404 219.098 684.123 237.847 685.234 251.353C685.096 252.325 684.957 253.298 684.818 254.27C684.871 264.292 685.313 260.947 684.771 270.271C686.899 276.714 684.774 232.785 686.478 241.933C686.478 241.927 686.478 241.921 686.478 241.915C686.459 240.022 686.44 238.13 686.422 236.237ZM643.289 17.8852C642.684 17.5624 631.059 17.9758 633.791 17.2346C629.996 17.4754 626.202 17.713 622.408 17.9472C622.437 18.0171 622.466 18.0871 622.495 18.1571C626.266 18.1299 630.037 18.1018 633.808 18.0728C633.823 18.1848 633.837 18.2969 633.851 18.4089C639.471 18.0461 662.922 18.3795 662.208 18.784C663.461 18.6209 664.714 18.4572 665.967 18.2928C675.594 18.7614 684.067 18.5045 694 18.765L686.235 11C686.192 12.6412 686.134 14.3223 686.056 16.0551C686.197 17.0015 686.338 17.9478 686.48 18.8942C686.357 19.5106 686.234 20.1271 686.111 20.7435C686.068 25.1946 686.025 29.6457 685.982 34.0968C686.383 48.6019 687.172 20.4185 687.117 17.0014C687.11 16.5475 686.802 16.6178 686.771 13.7803C686.764 13.1691 686.765 12.2169 686.772 11L694 18.2279C685.184 18.1773 662.474 17.8285 654.81 17.9504C654.735 17.7538 654.66 17.5572 654.585 17.3606C650.819 17.5378 647.054 17.7127 643.289 17.8852ZM685.35 332.679C685.107 333.316 684.863 333.953 684.62 334.59C684.841 345.578 684.619 352.496 685.427 349.679C685.427 349.673 685.427 349.668 685.427 349.662C685.4 344.001 685.375 338.34 685.35 332.679ZM13.7103 462.729C13.6765 462.761 13.6455 462.852 13.6176 463L8 457.382C9.19235 457.607 14.0171 457.637 20.0576 457.382C19.7306 457.293 19.4036 457.204 19.0765 457.115C16.5338 457.332 13.5379 457.172 8 457.13L13.8701 463C13.8866 460.834 13.885 458.279 13.8375 455.21C13.6833 455.21 13.5292 455.21 13.375 455.21C13.4858 457.716 13.5976 460.223 13.7103 462.729ZM685.472 323.198C685.762 319.849 684.918 310.45 684.863 316.635C684.821 321.364 685.315 324.995 685.472 323.198ZM183.981 13.6058C186.464 13.6541 188.947 13.7029 191.43 13.752C192.724 13.7079 194.017 13.6625 195.311 13.6159C195.305 13.6158 195.299 13.6157 195.294 13.6157C191.522 13.6153 187.752 13.612 183.981 13.6058ZM685.847 68.9474C685.827 77.3691 685.808 85.7909 685.792 94.2127C685.913 94.2966 686.034 94.3806 686.156 94.4645C685.755 86.0278 686.251 82.6357 686.289 80.6684C686.289 80.6771 686.289 80.6858 686.289 80.6944C686.417 74.3778 686.518 68.3599 686.692 62.3836C686.411 64.5715 686.13 66.7594 685.847 68.9474ZM686.756 40.0789C685.921 41.4976 685.806 43.3502 686.322 56.2886C686.429 55.7764 686.535 55.2641 686.641 54.7519C686.614 48.0476 686.445 44.137 686.872 45.3143C686.833 43.5691 686.795 41.824 686.756 40.0789ZM685.858 171.962C686.149 170.409 685.911 158.087 685.766 158.757C685.708 159.021 685.284 174.989 685.858 171.962ZM12.6473 369.178C12.64 372.017 12.6319 374.856 12.6228 377.695C12.5279 373.918 12.4342 370.141 12.3416 366.365C12.4429 367.302 12.5448 368.24 12.6473 369.178ZM11.6387 338.008C11.6778 335.984 12.175 342.565 12.1527 330.463C12.2573 339.27 12.361 348.077 12.4637 356.884C12.3479 352.754 12.2339 348.624 12.1217 344.494C12.0048 345.215 11.8872 345.935 11.769 346.656C11.7254 343.773 11.6819 340.891 11.6387 338.008ZM11.8549 328.553C11.5828 333.296 11.3265 308.323 11.3397 305.997C11.3438 305.479 11.543 303.015 11.5807 302.107C11.6206 305.878 11.6602 309.649 11.6995 313.42C11.7588 312.158 11.8172 310.897 11.8748 309.635C11.9479 314.048 12.0216 318.462 12.0957 322.875C12.0004 320.988 11.9061 319.101 11.8129 317.214C11.828 320.994 11.8419 324.774 11.8549 328.553ZM12.9072 428.746C12.8883 425.589 12.8691 422.432 12.8495 419.274C12.7109 419.905 12.5717 420.536 12.4321 421.167C12.448 423.057 12.4639 424.947 12.4797 426.836C12.6217 427.473 12.7642 428.11 12.9072 428.746ZM12.129 364.411C12.8023 369.008 11.5385 381.535 11.9179 366.894C11.9561 365.419 12.0651 363.976 12.129 364.411ZM11.3109 296.637C10.8416 286.82 11.6825 289.035 11.5407 298.304C11.5325 298.77 11.3459 297.374 11.3109 296.637ZM10.5393 223.029C10.5343 222.234 10.7214 220.844 10.4456 213.253C10.4546 212 10.4633 210.747 10.4715 209.494C10.5939 212.426 10.9476 237.513 10.69 234.047C10.6452 230.207 10.5754 227.002 10.5393 223.029ZM9.94916 247.322C9.98298 251.087 10.0169 254.853 10.0509 258.618C10.1167 257.376 10.1814 256.135 10.2452 254.893C10.2803 256.745 10.3157 258.598 10.3515 260.45C10.2479 263.616 10.1397 266.782 10.0272 269.948C9.9499 261.764 9.87363 253.579 9.79842 245.395C9.84834 246.037 9.89859 246.68 9.94916 247.322ZM10.3988 347.429C10.4766 340.184 10.2946 331.307 10.2436 319.541C10.2438 319.535 10.2441 319.53 10.2443 319.524C10.2421 318.937 10.3595 317.897 10.3519 316.007C10.3432 314.398 10.0115 282.621 10.2173 285.099C10.4787 297.394 10.2392 301.987 10.7093 304.938C10.6192 305.537 10.5287 306.136 10.4377 306.735C10.3518 318.558 10.7111 321.931 10.8922 328.571C10.8158 328.545 10.7394 328.519 10.663 328.493C10.6866 332.926 10.7096 337.36 10.7321 341.794C10.7797 341.169 10.827 340.544 10.874 339.918C10.8854 341.487 10.8968 343.056 10.9081 344.624C10.7008 348.445 10.6719 353.29 10.3988 347.429ZM9.91461 230.244C9.47241 226.764 9.51649 192.845 9.31889 177.352C9.57872 185.486 9.54207 198.087 9.6004 206.958C9.72229 224.108 9.77966 212.254 9.86476 215.163C9.91123 216.601 9.72538 226.329 9.91461 230.244ZM10.665 373.892C10.6645 365.342 10.4937 360.555 10.6738 353.159C10.7227 353.778 10.7718 354.397 10.821 355.017C10.7993 357.55 10.7957 378.202 10.665 373.892ZM9.22563 154.648C9.2471 171.162 9.46102 163.016 9.31762 171.604C9.26116 165.952 9.20566 160.3 9.15114 154.648C9.17597 154.648 9.2008 154.648 9.22563 154.648ZM689.949 304.297C689.984 297.338 690.206 289.566 689.768 285.405C689.694 290.134 689.62 294.862 689.545 299.591C689.68 301.16 689.815 302.729 689.949 304.297ZM654.244 463.305C655.833 463.414 662.117 463.093 662.779 463.093C664.009 463.093 663.673 463.251 663.69 463.293C671.742 463.264 664.314 462.773 670.271 462.667C671.29 462.649 685.286 462.892 690.979 462.872C691.989 462.868 692.999 462.865 694 462.863L693.863 463C693.848 455.319 693.872 448.14 693.864 445.245C693.851 439.721 693.483 429.466 693.464 420.388C693.457 416.645 693.751 415.338 693.744 411.575C693.694 387.419 693.297 339.864 693.485 318.432C693.531 313.137 693.91 308.087 693.88 305.287C693.741 303.079 693.603 300.871 693.466 298.662C694.708 291.871 693.603 289.6 693.489 282.279C693.417 277.629 693.784 275.454 693.783 274.83C693.776 270.688 693.602 268.644 693.574 265.392C693.542 261.741 693.707 256.496 693.678 255.19C693.658 254.389 693.174 256.948 693.187 242.783C693.201 228.348 693.256 214.097 693.282 199.416C691.852 204.312 692.826 208.529 692.877 214.523C692.89 216.131 692.663 215.111 692.672 216.511C692.697 220.465 692.918 228.033 692.863 231.305C692.802 234.839 692.27 233.631 692.464 238.112C692.474 238.339 692.695 237.622 692.731 238.677C693.092 249.27 692.706 252.737 692.689 266.13C692.676 275.004 692.883 328.894 692.735 330.743C691.938 340.391 691.96 283.605 692.027 276.965C692.05 274.641 692.295 277.078 692.344 274.96C692.363 274.062 691.898 265.99 691.865 258.012C691.825 248.365 692.156 228.978 692.151 219.784C692.12 149.82 692.396 80.7146 692.524 11L694 12.4756C684.965 12.4585 675.92 12.4435 666.861 12.4312C665.178 12.4292 662.961 12.6637 657.476 12.655C555.1 12.4833 448.995 12.1409 345.314 11.9755C322.71 11.9404 300.292 11.9985 277.48 11.8425C274.649 11.923 271.819 12.0011 268.988 12.0767C276.228 12.0318 289.495 12.2815 290.703 12.2915C291.138 12.2944 293.883 12.2007 298.308 12.2218C304.532 12.2513 307.261 12.3557 307.772 12.3578C309.355 12.3642 308.318 12.2596 309.83 12.2654C321.104 12.3101 329.827 12.3105 340.174 12.3439C351.863 12.3796 357.787 12.6165 366.299 12.4077C367.263 12.5038 368.227 12.6004 369.19 12.6976C375.55 12.3208 413.419 12.4647 428.759 12.5342C433.599 12.5553 432.75 12.74 434.377 12.7451C435.415 12.7482 435.005 12.5016 447.669 12.5845C454.044 12.6267 455.716 12.8171 458.913 12.821C460.65 12.8228 460.368 12.6366 462.863 12.6433C477.296 12.682 489.08 12.7752 503.21 12.8504C507.182 12.871 507.226 13.0377 508.115 13.0381C511.388 13.0409 517.081 12.7721 525.401 12.7921C539.097 12.8279 566.391 12.8902 577.59 13.0669C579.236 13.093 580.599 13.3158 581.81 13.316C583.643 13.3154 584.362 13.0872 584.684 13.0867C590.813 13.0973 587.125 13.3033 591.23 13.2614C593.443 13.239 595.75 12.9793 600.894 12.9598C607.685 12.9341 606.348 13.2504 609.185 13.2252C609.485 13.2209 609.574 12.9986 612.363 12.997C622.937 12.9932 638.276 12.9708 648.281 12.9903C651.156 12.9956 653.293 13.1561 657.302 13.167C661.994 13.1796 679.452 13.1811 694 13.1969L691.803 11C691.792 21.4967 691.771 30.4783 691.729 32.0565C691.718 32.4537 691.365 28.371 691.362 34.8782C691.509 36.768 691.657 38.6579 691.806 40.5477C691.558 43.7081 691.308 46.8684 691.057 50.0287C691.899 49.9153 692.007 68.5075 691.131 68.3222C691.092 70.3568 691.052 72.3913 691.012 74.4259C691.611 78.6627 691.382 81.4833 691.729 89.6719C691.539 90.9482 691.349 92.2245 691.158 93.5008C691.283 93.822 691.408 94.1433 691.533 94.4645C690.844 98.8343 691.517 106.001 691.521 106.871C691.531 110.218 691.352 112.733 691.355 114.303C691.364 120.167 691.589 132.86 691.467 139.708C691.46 140.029 691.162 139.713 691.122 141.661C691.049 145.176 691.489 145.518 690.965 150.205C691.093 151.151 691.222 152.097 691.35 153.044C691.282 154.048 691.213 155.052 691.144 156.056C691.17 161.983 691.196 167.911 691.223 173.838C690.717 168.447 690.419 174.65 690.816 180.514C690.951 182.499 691.268 180.738 691.315 181.4C691.378 182.308 691.186 208.908 690.978 210.668C691.076 211.927 691.175 213.186 691.275 214.445C691.073 215.081 690.871 215.718 690.669 216.355C690.738 217.049 690.808 217.744 690.877 218.438C690.512 225.361 691.31 243.329 691.243 246.586C691.207 248.327 690.341 246.761 690.419 255.104C690.658 255.393 690.897 255.682 691.135 255.972C691.168 257.882 691.2 259.792 691.233 261.702C691.209 265.286 690.788 270.504 690.503 270.671C690.672 271.791 690.842 272.911 691.012 274.031C690.453 277.038 690.633 293.079 690.984 299.531C690.813 301.418 690.642 303.304 690.471 305.191C690.675 307.727 690.879 310.262 691.083 312.797C691.142 318.67 690.803 312.466 690.773 313.717C690.712 316.366 691.284 329.861 690.56 328.972C690.557 330.813 690.554 332.653 690.551 334.494C690.757 335.44 690.964 336.387 691.171 337.333C690.454 340.493 690.703 345.959 690.435 357.172C690.599 358.113 690.764 359.053 690.929 359.994C690.692 363.461 690.456 366.928 690.218 370.395C690.492 371.107 690.766 371.819 691.04 372.531C691.078 374.039 691.117 375.547 691.156 377.054C690.54 380.118 691.203 385.619 690.948 388.419C690.576 392.505 690.135 389.346 690.054 381.76C689.606 382.328 689.801 404.924 689.832 410.134C689.92 409.789 690.008 409.445 690.096 409.101C690.028 403.773 689.961 398.445 689.894 393.117C691.023 388.652 690.715 403.121 690.859 409.76C690.873 410.367 691.3 413.809 691.259 420.5C691.243 423.092 690.615 433.2 690.58 435.13C690.292 450.712 691.188 439.255 690.402 454.5C690.863 452.066 690.677 456.633 690.617 463L694 459.617C692.052 459.599 689.937 459.593 687.801 459.62C686.249 459.64 673.088 460.128 672.199 460.141C666.657 460.22 672.69 459.688 664.671 459.827C663.708 459.967 662.744 460.107 661.78 460.246C659.914 460.247 658.047 460.247 656.18 460.247C644.853 459.005 642.218 459.923 638.19 460.041C636.564 460.089 638.658 459.764 634.44 459.834C632.851 459.86 631.09 460.13 626.817 460.15C613.445 460.212 608.905 459.064 596.611 460.266C594.724 460.094 592.837 459.921 590.95 459.749C589.677 459.958 588.404 460.166 587.13 460.374C577.39 459.776 580.907 460.391 577.389 460.385C568.1 460.371 549.091 460.264 547.426 459.773C539.407 460.909 529.819 459.641 526.658 459.689C524.78 459.828 522.902 459.966 521.023 460.104C518.815 459.969 516.607 459.833 514.399 459.699C515.472 460.799 504.036 459.726 502.938 459.712C501.671 459.697 484.082 460.038 477.534 460.039C470.996 460.039 459.601 459.758 458.598 459.759C457.444 459.761 446.315 460.067 437.613 460.075C429.999 460.077 384.891 459.737 387.734 460.201C390.685 460.326 394.885 460.433 398.517 460.49C409.792 460.659 475.965 460.844 492.876 460.914C526.791 461.046 562.163 461.002 596.229 461.101C598.233 461.106 598.538 461.397 600.258 461.403C602.868 461.411 609.493 461.118 612.066 461.124C621.675 461.147 633.367 461.192 638.512 461.199C650.011 461.212 657.898 461.387 666.599 461.415C669.323 461.423 683.093 461.06 692.533 461.213C693.022 461.236 693.511 461.26 694 461.283L692.284 463C692.342 461.779 692.401 460.557 692.46 459.336C692.479 460.29 692.504 461.549 692.531 463L694 461.531C688.058 461.645 678.885 461.811 674.126 461.834C665.315 461.875 660.718 461.638 657.465 461.643C654.742 461.646 640.822 461.917 634.483 461.924C632.516 461.927 632.112 461.62 630.429 461.622C621.292 461.63 609.259 461.641 601.334 461.941C604.569 461.843 584.369 461.66 583.31 461.661C581.494 461.662 579.524 461.947 575.817 461.948C568.689 461.949 569.593 461.355 560.684 461.951C558.479 461.778 556.273 461.606 554.068 461.435C553.933 462.222 526.067 461.163 518.141 462.117C517.933 462.223 554.144 462.524 557.133 462.54C575.065 462.633 601.6 462.436 619.003 462.575C624.24 462.617 640.708 463.102 641.95 463.093C643.954 463.079 642.144 462.801 643.009 462.792C660.728 462.584 651.888 463.144 654.244 463.305ZM10.0331 328.571C10.0461 333.954 10.0582 339.337 10.0694 344.72C9.97938 344.329 9.88965 343.938 9.80018 343.548C9.82323 341.082 9.8456 338.616 9.86728 336.15C9.80679 334.255 9.74702 332.359 9.68797 330.463C9.8036 329.833 9.91864 329.202 10.0331 328.571ZM9.62033 315.304C9.55885 310.636 9.72732 310.408 9.73014 309.331C9.73907 306.116 9.65778 303.335 9.64519 300.214C10.0539 303.809 9.92366 311.464 9.62033 315.304ZM9.84557 411.721C9.8696 410.668 10.3785 403.642 9.84743 395.65C9.98192 389.671 10.1103 383.691 10.2324 377.712C10.0478 387.87 10.3565 401.927 10.3732 406.902C10.3786 408.791 10.2122 409.152 10.216 410.661C10.2377 419.363 10.6714 427.823 10.0974 428.712C10.2304 420.483 9.81863 413.064 9.84557 411.721ZM9.82612 359.21C9.92453 357.818 10.0219 356.426 10.1182 355.034C10.1437 360.064 10.1689 365.094 10.1939 370.124C10.0788 368.764 9.96463 367.404 9.85149 366.043C9.8431 363.766 9.83464 361.488 9.82612 359.21ZM291.17 460.501C288.067 460.505 284.965 460.508 281.862 460.512C282.032 460.639 285.582 460.632 286.889 460.717C286.883 460.717 286.878 460.717 286.872 460.717C288.328 460.812 287.705 460.978 290.353 461.047C290.626 460.865 290.898 460.683 291.17 460.501ZM265.229 11.8106C260.029 11.7926 212.005 11.6609 216.096 11.8457C218.158 11.9429 234.583 11.9269 239.425 11.944C245.953 11.9647 263.583 12.2663 265.229 11.8106ZM180.178 11.5363C179.346 11.6783 209.359 11.8188 212.293 11.7983C211.67 11.7712 210.71 11.713 209.88 11.698C205.832 11.6266 186.648 11.5965 180.178 11.5363ZM464.91 461.737C462.491 461.479 460.071 461.222 457.652 460.966C458.288 461.301 458.925 461.637 459.562 461.972C461.345 461.894 463.127 461.815 464.91 461.737ZM692.297 457.391C692.315 417.085 692.339 376.779 692.369 336.474C692.512 340.019 692.655 343.564 692.798 347.109C692.74 381.84 692.587 418.878 692.812 452.416C692.64 454.075 692.469 455.733 692.297 457.391ZM8.94921 423.077C8.9627 433.404 9.14082 442.03 8.90364 453.265C8.64242 442.558 9.0087 437.258 8.64208 426.854C8.64207 426.848 8.64207 426.842 8.64206 426.836C8.74518 425.583 8.84757 424.33 8.94921 423.077ZM198.643 461.789C195.503 461.991 192.363 462.192 189.223 462.391C192.999 462.389 196.776 462.387 200.553 462.384C199.916 462.186 199.279 461.987 198.643 461.789ZM693.695 105.812C693.219 95.0104 694.084 67.3772 693.52 58.5981C693.484 58.0306 693.241 63.2494 692.789 54.8127C692.877 61.1856 692.97 65.6852 693.334 66.1604C693.21 68.0531 693.085 69.9458 692.96 71.8385C693.051 74.9786 693.143 78.1187 693.236 81.2588C692.871 80.9183 692.889 81.1669 693.138 85.9906C693.043 88.1901 692.949 90.3896 692.854 92.5891C693.009 93.521 693.165 94.4529 693.321 95.3848C693.101 97.2891 692.881 99.1934 692.66 101.098C692.893 108.52 693.323 104 693.695 105.812ZM693.595 143.623C693.676 141.867 693.425 91.7857 692.671 114.547C692.69 120.462 692.709 126.378 692.729 132.293C693.978 127.394 692.856 143.515 692.827 144.839C692.7 151.174 692.995 159.248 692.977 163.844C692.962 167.797 692.732 170.146 692.736 172.926C692.75 182.397 692.75 197.357 693.282 199.416C693.296 192.054 693.304 184.575 693.293 176.92C693.284 168.824 693.776 161.706 693.108 146.497C693.182 142.736 693.573 144.077 693.595 143.623ZM179.768 462.351C180.145 461.9 161.032 462.029 160.91 462.202C160.872 462.305 167.097 462.298 167.986 462.336C167.992 462.336 167.997 462.336 168.003 462.336C168.374 462.353 166.493 462.524 169.418 462.57C172.868 462.498 176.318 462.425 179.768 462.351ZM339.922 11.3769C337.339 11.2148 278.315 11.2369 276.577 11.2935C276.105 11.3106 276.763 11.3693 276.577 11.4025C290.347 11.2285 309.922 11.4765 322.992 11.5171C326.636 11.5267 325.547 11.417 325.753 11.4153C325.762 11.4153 325.77 11.4153 325.779 11.4153C327.847 11.4151 337.181 11.7003 339.922 11.3769ZM693.304 39.6969C693.227 42.206 693.149 44.7152 693.07 47.2244C693.221 47.8611 693.373 48.4978 693.525 49.1345C693.525 49.1287 693.525 49.1229 693.525 49.1171C693.451 45.977 693.377 42.8369 693.304 39.6969ZM635.761 11.1844C636.372 11.2831 636.983 11.3819 637.593 11.4808C643.911 11.4975 650.229 11.5143 656.547 11.5314C655.91 11.5878 655.273 11.6441 654.637 11.7003C664.189 11.859 668.146 11.5058 673.234 11.5592C673.228 11.5592 673.223 11.5592 673.217 11.5591C673.764 11.5654 674.427 11.7784 676.464 11.7871C680.223 11.8029 689.63 11.8645 694 11.7747L693.225 11C693.247 12.059 693.278 12.8223 693.32 13.1378C693.433 13.9703 693.506 13.007 693.552 11L694 11.448C687.754 11.3053 671.401 11.4218 667.599 11.4041C665.329 11.3936 662.599 11.2084 661.218 11.2039C659.705 11.1998 657.644 11.4471 653.959 11.4378C652.881 11.434 640.927 11.1423 635.761 11.1844ZM524.247 11.4201C526.195 11.6165 530.262 11.4306 531.757 11.4633C532.114 11.4713 529.337 11.6337 532.703 11.6861C533.655 11.5744 534.607 11.4622 535.56 11.3496C531.789 11.3735 528.018 11.397 524.247 11.4201ZM147.652 462.579C148.202 462.624 158.463 462.603 158.956 462.573C165.104 462.173 143.85 462.234 147.652 462.579ZM7.98362 343.686C7.61631 348.407 7.99324 292.402 7.96417 286.974C8.16168 287.245 7.96492 300.568 8.239 293.59C8.09055 300.249 8.17913 318.656 8.13435 322.988C8.10652 325.617 7.91528 326.281 7.90908 326.678C7.88505 328.237 8.11194 342.022 7.98362 343.686ZM8.08379 240.698C8.05361 246.02 8.02145 251.342 7.98736 256.664C7.96743 250.384 7.94887 244.104 7.93171 237.824C7.98183 238.782 8.03253 239.74 8.08379 240.698ZM8.00717 234.004C7.8486 234.174 7.97332 216.108 7.9389 211.36C8.18647 216.713 7.95289 225.643 8.00717 234.004ZM79.5831 463.433C87.9063 463.651 91.4832 462.671 81.363 463.096C81.0551 463.11 79.2359 463.422 79.5831 463.433ZM695.429 103.242C695.436 101.824 695.814 84.173 695.617 83.1515C694.991 79.921 695.251 91.5036 695.017 95.3848C694.635 101.646 694.314 92.4379 694.552 107.722C694.425 107.097 694.298 106.472 694.172 105.847C694.13 114.792 695.01 111.864 695.124 113.47C695.159 113.961 695.089 119.554 695.146 120.563C695.869 133.169 695.423 104.558 695.429 103.242ZM285.622 463.624C302.192 463.992 295.063 463.46 312.068 463.497C312.635 463.223 287.778 463.39 285.622 463.624ZM695.001 264.593C694.879 247.456 695.26 233.363 694.737 217.379C693.94 218.419 694.789 269.039 695.001 264.593ZM142.384 10.5825C209.063 10.7658 285.974 10.6675 356.966 10.5304C364.702 10.5202 365.444 10.6952 368.244 10.6742C370.078 10.6605 369.757 10.5181 372.194 10.5148C460.288 10.4098 544.638 10.0596 629.024 10.0992C634.339 10.0986 660.199 10.5506 665.724 9.83686C669.903 9.29328 651.325 9.73677 648.229 9.73414C645.903 9.73344 645.804 9.48528 644.253 9.48671C642.607 9.48824 643.967 9.65563 642.056 9.66066C633.961 9.68278 625.127 9.62948 617.807 9.65407C546.019 9.88751 476.179 9.94788 404.77 10.0661C396.126 10.0801 397.903 9.93721 397.468 9.93737C397.463 9.93773 397.457 9.93809 397.451 9.93845C351.106 10.0408 298.177 10.4033 249.089 10.4119C214.522 10.4219 179.955 10.4606 145.388 10.5323C144.387 10.5493 143.385 10.5661 142.384 10.5825ZM694.66 139.838C695.512 135.525 694.651 134.561 694.99 119.087C694.845 117.828 694.7 116.57 694.556 115.311C694.59 123.495 694.625 131.68 694.66 139.864C694.66 139.855 694.66 139.847 694.66 139.838ZM694.909 37.6392C695.531 36.1318 695.525 23.995 695.447 11L695.432 9.53808L694 9.55307C684.452 9.61066 674.441 9.70523 667.842 9.62959C664.987 10.1512 687.636 9.89756 692.978 9.94774C693.223 9.95006 693.568 9.95671 694 9.96664L695.022 9.95593L695.033 11C694.937 15.2501 694.514 27.9302 694.799 37.7868C694.835 37.7376 694.872 37.6884 694.909 37.6392ZM6.93032 402.283C6.94572 404.801 6.96147 407.319 6.97755 409.837C7.07072 403.536 7.16105 397.236 7.24842 390.935C7.18262 400.986 7.11396 411.038 7.04264 421.089C6.89207 419.216 6.74315 417.344 6.59591 415.471C6.70991 411.075 6.8214 406.679 6.93032 402.283ZM6.94225 434.894C6.91635 417.292 7.30266 435.667 7.10937 440.059C6.99088 442.689 6.94494 436.691 6.94225 434.894ZM25.675 464.437C20.5451 464.613 12.1426 464.665 8 464.544L6.48093 464.568L6.45602 463C6.52894 460.514 6.66304 459.562 6.87638 461.774C6.86287 462.189 6.85044 462.597 6.83901 463L6.85774 464.179L8 464.161C16.1966 464.396 21.966 464.206 34.227 464.386C32.3488 464.498 30.4706 464.609 28.5923 464.719C28.5835 464.719 28.5749 464.719 28.5662 464.719C27.6025 464.625 26.6387 464.531 25.675 464.437ZM6.62752 426.854C6.96653 415.325 6.78682 448.701 6.59865 438.21C6.59013 437.718 6.61434 427.308 6.62752 426.854ZM216.096 10.0619C214.707 10.1659 223.574 10.132 226.524 10.1285C239.31 10.1151 255.709 10.0105 269.006 9.98061C268.004 9.94411 267.003 9.90802 266.002 9.87233C249.367 9.93329 232.731 9.99646 216.096 10.0619ZM310.602 9.84339C319.739 9.81383 328.876 9.78475 338.012 9.75615C338.864 9.75388 342.858 9.61245 339.888 9.59155C330.126 9.67882 320.364 9.76284 310.602 9.84339ZM696.372 197.514C696.521 190.509 697.359 210.681 696.485 209.773C696.447 205.687 696.409 201.601 696.372 197.514ZM696.785 262.7C696.697 258.307 696.609 253.914 696.521 249.521C696.623 249.515 696.724 249.509 696.826 249.503C696.813 253.902 696.799 258.301 696.785 262.7ZM180.178 10.1514C184.831 10.2315 195.933 10.1739 202.856 10.1481C198.087 10.0706 186.722 10.1666 180.178 10.1514ZM696.573 92.5544C696.354 93.1219 696.365 65.256 696.763 74.9034C696.701 80.7871 696.638 86.6707 696.573 92.5544ZM696.786 35.9548C696.845 41.9317 696.782 46.5611 696.445 45.3316C696.453 42.1626 696.461 38.9936 696.469 35.8246C696.575 35.868 696.68 35.9114 696.786 35.9548ZM56.9225 465.011C66.9938 465.017 77.0653 465.02 87.1367 465.022C86.7633 465.096 86.3901 465.171 86.0167 465.245C76.307 465.241 66.5974 465.235 56.8877 465.227C56.8993 465.155 56.911 465.083 56.9225 465.011ZM174.482 9.92007C167.565 9.9801 160.648 10.0384 153.732 10.095C160.654 10.0719 167.577 10.0515 174.5 10.0337C174.5 9.99561 174.5 9.95754 174.5 9.91947C174.494 9.91967 174.488 9.91987 174.482 9.92007ZM5.69603 373.953C5.25998 404.72 5.20582 365.462 5.63308 357.344C5.63281 357.335 5.63254 357.326 5.63228 357.318C5.6691 356.607 5.82081 358.11 5.89123 356.927C5.80351 360.058 5.71427 363.19 5.62355 366.321C5.69964 369.178 5.77762 372.034 5.85746 374.891C5.81625 375.831 5.77482 376.772 5.73316 377.712C5.72061 376.459 5.70823 375.206 5.69603 373.953ZM6.28271 249.779C6.47669 221.881 6.59067 250.427 6.27858 264.235C6.22247 264.136 6.26396 252.349 6.28271 249.779ZM5.91621 322.892C5.9247 327.289 5.93457 331.685 5.9458 336.081C5.8995 336.642 5.85302 337.204 5.80636 337.765C5.78199 334.391 5.75885 331.016 5.73696 327.642C5.79733 326.059 5.85708 324.476 5.91621 322.892ZM12.4693 466.701C19.3103 466.806 27.9746 466.255 8 466.26L4.7922 466.311L4.73958 463C4.73951 462.318 4.73883 461.603 4.73751 460.853C4.67047 460.865 4.60342 460.877 4.53637 460.888C4.53906 461.336 4.55204 462.211 4.56387 463L4.61933 466.49L8 466.436C8.80654 466.424 9.52207 466.413 9.59552 466.416C10.0115 466.435 9.52083 466.657 12.4693 466.701ZM5.78067 198.12C5.77467 197.326 5.45418 196.893 5.88313 188.63C5.89017 186.133 5.8981 183.635 5.90692 181.137C5.9821 180.492 6.05658 179.847 6.13035 179.201C5.97727 188.868 6.10979 189.893 6.10661 190.592C6.08924 193.806 6.03749 191.428 6.01595 193.501C5.95995 198.853 5.89385 211.017 5.72075 205.5C5.6607 203.514 5.78473 198.914 5.78067 198.12ZM5.36998 217.021C5.41358 215.849 5.47916 219.626 5.51973 218.74C5.55632 217.965 5.78437 206.314 5.92645 209.468C5.90099 211.381 5.87539 213.294 5.84965 215.207C5.79425 215.855 5.73843 216.503 5.6822 217.151C5.7093 219.004 5.73757 220.856 5.76699 222.708C5.61391 225.829 5.37289 232.472 5.35565 224.583C5.33426 227.483 5.31342 230.383 5.29311 233.283C5.33962 234.785 5.38731 236.287 5.43616 237.789C5.34661 237.002 5.25797 236.215 5.17025 235.428C5.23589 229.292 5.30247 223.157 5.36998 217.021ZM6.47341 127.125C6.4962 127.478 6.51924 127.831 6.5425 128.184C6.61791 117.534 6.80839 100.949 6.84074 110.368C6.69235 124.795 6.55238 139.222 6.42053 153.649C6.38582 154.607 6.35066 155.565 6.31505 156.523C6.52303 145.76 6.09532 149.087 6.32118 139.723C6.35841 138.145 6.43163 142.725 6.46752 132.803C6.43476 133.156 6.40178 133.509 6.36856 133.863C6.40378 131.617 6.43873 129.371 6.47341 127.125ZM7.67229 35.5708C7.41815 53.8062 7.66581 33.7198 7.73153 30.3527C7.73145 30.3586 7.73137 30.3643 7.73129 30.3701C7.88725 21.1422 7.6193 40.9847 7.60249 42.1953C7.57824 43.8044 7.59797 47.5518 7.39733 56.304C7.48873 49.3929 7.58039 42.4819 7.67229 35.5708ZM6.87822 95.105C6.89401 93.5728 6.913 94.4209 6.92089 93.7592C6.92097 93.7535 6.92104 93.7476 6.92111 93.7419C7.03301 83.981 7.32522 60.7647 7.41042 58.2488C7.32201 65.4741 6.9681 97.8039 6.87411 99.7587C6.8745 98.2074 6.87587 96.6562 6.87822 95.105ZM6.15347 163.79C5.97189 169.783 6.1181 156.292 6.20863 152.755C6.22483 152.087 6.33447 157.582 6.15347 163.79ZM168.455 469.698C181.639 469.577 164.316 469.252 170.313 468.963C167.795 468.976 165.277 468.988 162.759 469C164.658 469.231 166.556 469.464 168.455 469.698ZM703.313 387.438C703.359 384.365 703.107 385.821 703.103 385.554C703.108 383.536 703.312 381.632 703.289 380.857C702.856 366.533 702.656 376.059 702.606 376.204C702.357 376.506 702.06 372.741 701.78 377.957C701.872 381.123 701.964 384.29 702.055 387.456C701.918 389.027 701.78 390.599 701.642 392.17C701.946 398.46 702.021 390.229 702.416 389.296C702.572 388.937 702.764 394.854 703.313 387.438ZM192.079 470.536C194.217 470.197 199.456 469.778 194.31 469.388C194.305 469.388 194.299 469.388 194.293 469.388C193.342 469.316 189.467 469.257 188.276 469.158C179.789 469.579 183.04 470.078 192.079 470.536ZM704.143 444.229C704.041 449.334 703.939 454.439 703.836 459.544C703.571 459.458 703.306 459.371 703.041 459.284C703.112 456.552 703.184 453.82 703.255 451.088C703.134 450.13 703.013 449.172 702.891 448.214C702.59 451.606 702.288 454.998 701.987 458.39C702.026 459.927 702.066 461.463 702.106 463V471.106H694C691.45 471.172 688.901 471.237 686.351 471.303C688.229 471.443 690.107 471.583 691.986 471.723C681.998 471.876 684.173 471.232 675.906 470.985C673.076 471.229 670.245 471.474 667.415 471.718C663.317 471.47 659.219 471.222 655.121 470.974C648.235 471.085 647.63 471.272 652.264 471.556C648.841 471.874 645.092 471.368 640.969 471.496C640.629 471.506 641.27 471.808 640.969 471.812C619.65 471.998 620.784 471.206 617.379 471.169C614.976 471.144 605.384 471.667 605.233 471.848C605.048 472.091 624.998 473.087 593.755 473.067C609.908 473.761 628.272 473.1 616.398 472.105C621.51 472.211 644.055 471.984 645.492 472.014C647.588 472.06 646.853 472.433 649.477 472.444C651.029 472.451 655.138 471.6 667.415 472.351C668.984 472.211 670.552 472.072 672.121 471.932C673.591 472.048 675.061 472.163 676.531 472.279C673.504 472.69 670.477 473.1 667.45 473.51C678.028 473.12 687.016 473.728 694 473.391H704.391V463C704.346 462.067 704.284 461.169 704.2 460.309C704.282 453.996 704.363 450.928 704.725 453.641C704.725 451.745 704.724 449.849 704.724 447.954C704.53 446.712 704.336 445.471 704.143 444.229ZM230.819 470.279C237.094 470.663 239.349 469.933 238.373 469.885C232.87 469.623 227.554 470.081 230.819 470.279ZM702.856 398.829C702.634 405.752 702.411 412.675 702.187 419.597C702.467 419.597 702.747 419.597 703.026 419.597C702.97 412.675 702.913 405.752 702.856 398.829ZM166.527 470.179C165.891 470.01 165.254 469.841 164.617 469.672C157.034 470.216 149.506 469.306 145.759 469.456C144.946 469.489 146.588 469.785 148.138 469.858C149.103 469.903 165.184 470.225 166.527 470.179ZM3.9208 305.867C3.95114 308.691 3.9832 311.516 4.01696 314.34C3.90956 314.184 3.8023 314.028 3.69518 313.872C3.69169 312.477 3.68847 311.082 3.68554 309.687C3.76462 308.413 3.84304 307.14 3.9208 305.867ZM3.73427 338.008C3.67026 343.047 3.6064 348.086 3.54271 353.124C3.64256 333.906 3.41526 349.678 3.39636 338.008C3.509 338.008 3.62164 338.008 3.73427 338.008ZM2.93328 389.008C2.86182 388.388 2.79068 387.769 2.71985 387.15C2.77657 382.111 2.83386 377.073 2.89171 372.034C2.59381 375.22 2.29052 378.407 1.98195 381.593C1.95713 383.44 1.93239 385.286 1.90773 387.132C2.24818 387.758 2.59003 388.383 2.93328 389.008ZM704.047 251.335C704.045 248.29 703.596 237.693 703.447 238.147C703.276 242.549 703.104 246.951 702.93 251.353C703.201 251.373 703.472 251.393 703.743 251.414C703.611 252.036 703.478 252.658 703.344 253.28C703.454 255.784 703.563 258.287 703.673 260.79C703.439 262.052 703.205 263.314 702.971 264.576C703.246 265.843 703.521 267.111 703.797 268.379C704.241 256.292 703.76 256.707 703.758 254.192C703.756 252.916 703.921 252.109 704.004 251.657C704.018 251.55 704.033 251.442 704.047 251.335ZM704.642 403.613C704.696 389.181 703.95 380.932 704.549 370.491C703.254 377.188 704.654 420.43 703.559 435.677C703.771 437.26 703.983 438.843 704.195 440.426C704.004 432.124 704.435 426.372 704.495 422.324C704.542 419.108 704.321 419.444 704.324 419.198C704.324 419.186 704.324 419.175 704.324 419.163C704.409 411.635 704.62 409.306 704.642 403.613ZM155.805 470.9C159.683 471.192 166.469 471.226 166.545 470.844C162.768 470.702 158.991 470.562 155.214 470.422C155.99 470.525 155.143 470.851 155.805 470.9ZM2.10761 394.868C1.981 397.895 1.97269 405.045 2.24942 401.962C2.29822 401.407 2.2138 394.286 2.59447 398.463C2.66416 391.523 2.1806 393.147 2.10761 394.868ZM506.759 472.411C504.212 472.418 501.665 472.424 499.118 472.43C498.525 472.619 497.932 472.808 497.338 472.997C500.478 472.803 503.619 472.607 506.759 472.411ZM123.072 470.867C119.687 470.119 113.902 470.762 107.549 470.122C105.201 470.097 102.854 470.071 100.507 470.046C100.502 470.046 100.496 470.046 100.49 470.046C100.426 470.236 100.363 470.427 100.299 470.617C107.89 470.702 115.481 470.785 123.072 470.867ZM665.557 473.141C663.988 473.018 662.42 472.896 660.851 472.773C658.058 472.913 655.266 473.054 652.473 473.194C653.984 473.297 655.494 473.4 657.005 473.502C659.856 473.382 662.706 473.262 665.557 473.141ZM81.8144 470.53C90.0243 470.699 93.1117 470.125 82.6133 470.027C78.1874 469.987 73.2131 470.354 81.8144 470.53ZM703.037 94.4992C702.99 97.3123 702.941 100.125 702.893 102.938C703.056 103.896 703.22 104.854 703.384 105.812C703.268 102.041 703.152 98.2702 703.037 94.4992ZM2.64523 355.937C2.73144 356.267 2.81785 356.597 2.90449 356.927C2.8559 359.436 2.80713 361.945 2.75819 364.454C2.67423 363.824 2.59069 363.193 2.50755 362.562C2.5536 360.354 2.5995 358.145 2.64523 355.937ZM703.045 113.427C703.027 115.675 703.009 117.924 702.99 120.173C703.076 121.683 703.161 123.194 703.247 124.705C703.313 122.601 703.379 120.497 703.445 118.393C703.311 116.737 703.178 115.082 703.045 113.427ZM1.35053 458.995C1.30455 459.855 1.29124 461.414 1.30149 463L1.4096 469.803L8 469.699C12.2443 469.672 16.6803 469.471 8.40607 469.307C8.26708 469.304 8.13194 469.302 8 469.299L1.80247 469.398L1.7008 463C1.81892 456.253 1.37618 458.531 1.35053 458.995ZM1.41438 441.97C1.02828 454 2.38528 444.979 1.73888 430.622C1.68383 445.075 1.43773 441.263 1.41438 441.97ZM2.22947 336.176C2.23448 335.874 2.38203 335.624 2.4221 333.207C2.56664 324.506 2.78856 313.019 2.88794 306.796C3.11063 291.834 3.63317 246.005 4.03015 240.646C4.11156 239.529 4.26732 242.098 4.28429 241.644C4.3305 240.312 4.34895 232.647 4.46754 234.064C4.36029 241.586 4.25425 249.108 4.14943 256.63C4.06817 254.783 3.9891 252.937 3.91224 251.09C3.69003 269.832 3.77566 263.628 3.94087 269.019C3.80337 272.191 3.66308 275.363 3.52005 278.535C3.51732 285.44 3.52232 292.345 3.53483 299.251C3.47807 297.685 3.42244 296.119 3.36796 294.554C3.0795 304.957 3.21079 302.067 3.32637 307.759C3.24677 307.771 3.16716 307.782 3.08755 307.794C3.14335 317.839 2.87541 319.795 2.84026 321.99C2.76045 326.491 3.7165 332.229 2.46381 349.399C2.875 356.639 1.83955 356.475 2.3119 360.73C1.55835 372.984 2.0984 349.679 2.27687 338.651C2.27695 338.645 2.27704 338.639 2.27712 338.633C2.29083 337.801 2.17872 339.122 2.22947 336.176ZM1.91585 399.123C1.49911 391.704 1.06073 421.012 1.95 411.313C1.99194 409.868 2.03371 408.424 2.07533 406.98C2.02072 404.355 1.96763 401.73 1.91606 399.105C1.91599 399.111 1.91592 399.117 1.91585 399.123ZM219.489 472.383C246.634 472.293 231.2 471.73 222.007 472.084C220.173 472.153 219.167 472.26 219.489 472.383ZM705.314 382.993C705.205 382.597 705.096 382.2 704.986 381.804C705.102 390.906 704.699 408.509 705.434 408.267C705.396 399.842 705.356 391.418 705.314 382.993ZM705.851 455.004C705.896 453.049 705.998 445.062 705.723 446.026C705.529 449.488 705.334 452.949 705.139 456.41C705.262 458.022 705.384 459.634 705.506 461.246C705.547 458.995 705.84 455.533 705.851 455.004Z" fill="url(#paint0_linear_843_62)"/>
<defs>
<linearGradient id="paint0_linear_843_62" x1="180.826" y1="463" x2="590.599" y2="86.5759" gradientUnits="userSpaceOnUse">
<stop stop-color="#FFAE00"/>
<stop offset="1" stop-color="#996900"/>
</linearGradient>
</defs>
</svg>
