<svg width="313" height="75" viewBox="0 0 313 75" fill="none" xmlns="http://www.w3.org/2000/svg">
<g filter="url(#filter0_d_426_80)">
<path d="M5.08364 3.36778C7.15129 1.56957 10.419 1.59297 12.8797 2.33732C13.6558 2.56368 13.883 4.54241 14.4304 4.78875C15.4935 5.27135 16.015 4.12328 17.0753 4.77265C17.4282 4.99757 17.9198 8.08461 18.2666 8.25323C20.1418 9.16204 21.3311 8.03556 22.9734 8.30689C30.9795 9.68217 37.7139 9.54982 44.603 9.6531C46.8678 9.68779 50.0104 11.9587 51.9752 10.3262C52.2042 10.1329 51.5372 7.48424 51.5437 7.25415C51.6584 3.72858 52.4427 9.1836 53.079 9.80604C55.6008 12.2619 57.8383 12.0828 59.4996 10.6785C60.2044 10.0731 58.3486 4.92062 59.739 7.74269C59.8347 7.93298 60.2038 10.8124 60.4815 11.0717C61.1099 11.6543 61.9444 10.9569 62.3671 11.1043C63.1896 11.402 63.308 11.3478 64.0021 11.2371C64.1259 11.2206 64.2572 11.2261 64.3939 11.2462C65.4275 11.356 66.7118 12.1341 67.587 11.384C67.8019 11.1913 66.9165 8.33856 67.2142 7.76707C67.5178 7.19479 68.5993 7.24893 69.0777 7.87356C69.5505 8.49901 69.8189 10.8218 69.9755 11.3369C71.2692 15.6887 71.3412 9.32854 71.4755 9.149C73.8246 6.07012 76.7536 9.21944 79.2946 8.83927C81.2264 8.54304 83.1328 7.09693 84.981 7.01917C87.1879 6.93768 89.213 8.30885 91.2696 7.78531C91.4886 7.73333 90.8159 4.29844 91.084 4.22781C93.9171 3.48291 96.8002 3.54227 99.8889 5.57679C100.2 5.7838 100.163 8.87021 100.493 9.25925C102.495 11.5746 105.85 17.3038 105.485 3.9276C106.713 4.32303 108.195 4.71103 109.506 7.28028C110.357 8.9331 110.04 12.3214 110.727 10.8192C110.883 10.4843 110.342 7.60072 110.597 7.31846C111.654 6.13463 113.045 6.9489 114.056 5.32881C114.262 4.99227 113.935 2.39236 113.955 1.91619C114.144 -1.94255 115.701 4.24816 115.955 4.68394C116.306 5.28237 116.627 5.72112 116.927 6.0383C118.344 7.4348 119.316 6.4634 120.609 6.43165C120.978 6.42435 120.277 2.94875 120.621 2.81605C122.41 2.17505 124.335 2.36118 126.15 3.83177C126.558 4.16719 126.352 7.17892 126.553 7.49249C127.429 8.8399 127.329 3.17722 128.17 4.36384C128.345 4.60692 128.365 7.1745 128.408 7.45472C129.066 11.8538 129.195 5.57511 129.311 5.43186C130.757 3.48119 131.941 9.98806 133.349 9.01837C133.517 8.89589 133.033 5.66204 133.512 5.51618C136.73 4.52521 140.173 5.35831 143.356 7.92418C143.852 8.31879 143.524 10.7611 143.558 11.0614C144.102 15.7542 144.371 9.45732 144.529 9.21898C145.778 7.50237 146.978 12.7752 147.803 5.27494C153.149 7.85751 158.47 3.68107 163.653 10.4502C163.719 10.5287 163.569 13.6273 163.7 13.7705C165.273 15.5275 165.023 10.7068 166.148 4.82623C166.432 3.34964 167.157 10.4727 167.225 10.995C167.465 12.9197 167.14 17.5282 167.223 17.9013C167.913 20.832 167.976 5.57939 168.95 5.58619C168.98 5.61198 168.818 8.41761 168.896 8.6977C169.137 9.57701 169.408 8.46468 169.645 9.43405C170.189 11.6771 170.299 19.0902 171.217 14.7881C171.334 14.2297 171.276 5.57656 172.144 5.99626C172.489 6.17089 174.024 6.0421 174.448 6.60817C174.869 7.17354 174.54 9.9576 174.569 10.0787C175.671 13.7796 175.217 15.3019 175.731 20.7669C176.246 26.2112 176.245 13.2412 176.499 11.7967C176.753 10.3564 177.556 13.4082 177.757 14.468C177.954 15.5283 177.671 17.2967 177.85 17.8975C179.033 21.823 178.465 11.467 178.89 9.41345C179.895 4.55088 180.525 14.1762 181.39 15.1275C181.626 15.3843 181.454 13.192 181.667 12.9893C182.505 12.2151 182.973 15.2206 183.943 12.4766C184.032 12.2216 184.331 10.2335 184.649 9.35924C184.904 8.70049 185.172 8.67449 185.374 10.4997C185.44 11.1121 185.222 13.5073 185.574 14.0468C186.089 14.8564 187.061 15.3883 187.63 14.5923C188.053 14.0034 187.603 10.0498 188.129 11.2816C188.364 11.8316 187.898 14.1377 188.34 14.9783C188.778 15.8185 189.9 15.7285 190.334 15.6537C190.761 15.5769 190.561 12.5788 190.598 12.3774C190.812 11.2235 191.669 9.78896 191.739 9.79344C195.434 9.47235 198.742 14.5788 202.34 12.9812C202.625 12.8602 202.502 9.69795 202.546 9.64693C203.536 8.34359 202.605 16.7251 203.212 19.5497C203.248 13.1385 203.625 14.3074 204.312 13.6189C204.643 13.2819 204.52 10.7965 204.555 10.5431C205.121 6.78417 205.351 11.66 205.415 12.6578C205.655 16.3284 206.097 12.0071 206.26 14.4607C206.424 16.8959 205.847 20.4883 206.493 20.4562C206.725 18.1659 206.375 12.16 206.888 11.1991C208.82 7.56467 212.154 12.3414 213.626 12.8567C215.096 13.3724 215.574 12.9567 216.429 13.8002C217.953 15.3241 217.461 10.8664 218.447 8.84418C219.45 6.82185 218.82 17.7613 218.929 20.1164C219.032 22.4704 219.214 20.0512 219.368 21.3465C219.522 22.6415 219.13 24.2365 219.527 24.7273C219.936 25.2178 221.069 21.0464 221.248 18.5875C221.61 13.3781 221.183 7.90159 222.206 9.83554C222.265 9.95028 222.037 12.8265 222.266 13.1199C222.945 13.9356 223.597 14.4738 224.298 14.9247L224.262 14.9245C225.474 15.7003 226.683 16.2121 227.848 17.4598C228.1 17.7343 227.866 20.9361 228.013 21.1321C229.562 23.1841 229.02 17.7834 229.887 11.7875C229.673 19.7692 230.132 24.6539 231.295 24.7047C231.992 24.7381 231.885 21.2515 232.353 18.796C232.493 18.0557 232.986 20.4513 233.083 18.8121C233.401 13.4539 232.954 7.45257 234.156 9.84616C234.209 9.9599 234.029 12.8929 234.211 13.0712C235.388 14.2389 235.549 8.63368 236.847 7.96079C237.862 7.43277 239.62 10.8604 240.773 11.4233C240.698 20.3973 241.787 18.3488 242.26 12.1641C242.99 12.4221 243.818 12.0778 244.526 12.9382C244.771 13.2315 244.59 15.8286 244.62 16.1096C245.064 20.517 245.428 14.4997 245.589 14.2649C247.354 11.984 248.712 16.5581 250.428 12.1148C250.488 11.9547 250.644 5.72205 251.046 10.2778C251.071 10.5918 250.496 13.4227 251.275 13.6495C252.048 13.8767 253.489 17.2333 254.605 14.3569C254.876 13.6644 255.587 8.6114 256.076 12.5713C256.142 13.109 256.042 14.8959 256.134 15.8919C256.431 19.0658 256.689 12.7675 257.015 18.1248C257.345 23.4819 258.082 27.4999 259.223 23.8216C259.259 23.7147 259.587 18.7246 259.931 18.8082C260.481 18.946 261.24 19.9972 261.802 19.9729C262.077 19.9595 261.947 16.8562 261.996 16.8002C263.888 15.0904 265.149 17.8754 267.093 19.1099C267.429 19.3419 268.585 15.1336 269.212 18.4898C269.91 22.1641 268.802 37.3688 270.642 33.7785C271.381 32.3428 272.676 13.0511 273.754 23.0858C276.288 20.6647 278.431 25.8448 281.022 22.3851C281.138 22.2318 281.66 16.8553 281.918 16.9373C282.318 17.0701 282.449 19.5955 282.724 19.7711C283.844 20.5695 285.018 18.4567 286.133 18.839C286.563 18.9791 286.302 21.5754 286.8 21.7429C287.281 21.9075 287.806 18.4972 288.416 20.1856C288.861 21.4717 289.043 28.5018 289.645 29.3539C290.048 22.4496 290.515 22.6169 291.471 20.8474C291.652 20.5039 291.633 18.0906 291.727 17.8043C292.109 16.5852 292.291 18.5967 292.688 17.2704C292.785 16.952 292.954 14.5961 293.043 14.2029C293.799 10.768 294.332 16.1404 294.368 17.0728C294.614 20.6199 295.184 17.5885 295.456 19.007C295.76 20.4302 294.926 22.0804 295.33 22.9681C295.778 24.2024 296.712 24.5442 296.839 24.6349C296.891 24.666 297.078 24.6818 297.133 24.7079C297.565 24.8137 297.954 24.8607 298.274 24.9479C298.673 25.0415 298.903 21.8848 298.971 21.8259C299.991 21.1787 300.04 24.6065 301.937 18.602C298.737 34.5352 302.825 17.1806 303.328 20.7005C303.365 20.9856 301.252 28.3677 300.665 29.3709C300.093 30.3774 300.288 27.9438 299.502 29.5639C299.276 29.9329 297.368 36.8823 297.292 37.3131C296.407 40.6101 298.274 29.2905 298.341 28.662C299.107 21.8916 296.984 29.4064 296.502 29.8598C296.34 30.0466 296.175 30.2011 296.01 30.3279C295.86 30.2564 295.348 30.2131 295.205 30.1281C295.429 30.6213 295.421 30.8466 295.37 30.9852C295.322 31.1219 295.213 31.1582 295.108 31.1959C294.866 31.2666 294.584 31.3316 294.189 32.094C293.632 33.1748 292.904 40.6571 292.598 40.3984C291.629 39.5518 291.736 29.0499 289.969 38.05C289.589 39.9702 289.348 48.1844 288.807 41.6838C288.789 41.2747 288.334 35.3319 287.748 39.0459C287.673 39.514 287.556 41.9055 287.478 42.103C286.966 43.3804 286.719 41.4592 286.179 42.3493C285.648 43.2399 284.948 44.5732 284.407 43.7388C284.083 43.2397 283.795 38.7644 283.66 37.6664C283.27 34.5031 282.58 39.6401 282.41 35.8219C282.235 31.9844 283.052 26.1943 282.312 23.6932C282.068 29.9091 281.78 36.2878 281.519 42.5384C279.789 42.2604 278.105 40.1984 276.315 40.426C276.095 40.4605 276.231 43.8094 275.994 43.9327C274.985 44.4378 274.17 42.0331 273.113 42.9583C272.275 43.6868 271.342 47.208 270.479 48.0822C270.101 40.9546 268.819 43.3458 267.916 42.6784C267.6 42.4477 267.656 40.5473 267.437 39.9229C266.614 37.6137 266.91 43.9104 266.658 44.8959C265.59 49.1025 265.753 34.8655 264.535 35.1972C264.467 35.2099 263.587 42.786 263.474 43.2569C262.755 46.3278 263.405 40.6139 262.992 40.0467C262.24 39.0103 261.705 37.1896 260.785 39.3996C260.514 40.0542 259.818 44.7753 259.35 41.1098C259.289 40.6298 259.36 38.1221 259.307 37.9744C258.336 35.5125 258.228 43.394 257.634 46.0561C257.045 48.7177 256.24 43.2665 256.078 41.6963C255.658 37.6342 256.457 39.9669 256.486 39.5692C256.84 34.8354 256.192 35.6433 255.704 35.2373C255.722 27.5085 255.045 27.9646 255.21 34.8477C255.23 35.5995 255.609 34.8831 255.704 35.2373C255.192 42.8145 254.453 43.7773 253.702 36.6829C253.349 33.3579 253.761 29.4897 252.557 30.8938C252.025 31.5279 252.174 36.8511 251.695 38.2973C250.605 41.5967 249.228 36.6199 248.134 37.3928C247.732 37.6734 248.097 40.5895 247.821 40.8816C247.091 41.666 246.454 39.4752 245.716 40.5892C245.65 40.6939 245.787 43.7442 245.562 43.7814C243.858 44.1227 242.348 42.1594 240.562 42.0947C239.687 42.0647 238.129 43.7381 237.233 43.3957C235.662 42.8199 233.781 38.3782 232.428 39.4507C231.546 40.1372 231.732 43.1877 231.355 45.2645C230.631 49.2902 229.378 42.0716 229.207 40.9539C229.202 40.9169 229.955 40.2 229.559 38.6333C229.335 35.3706 229.216 40.9398 229.207 40.9539C229.097 40.2318 227.591 39.5359 227.3 40.1183C227.139 40.4366 227.223 43.3264 227.139 43.4377C226.173 44.6872 225.201 45.5033 224.219 45.8596C224.18 45.8498 224.058 45.8686 224.019 45.8585C222.935 46.2301 221.875 46.0773 220.806 45.3675C220.77 45.3087 220.863 42.0774 220.777 41.9795C219.593 40.5282 218.777 44.4715 217.733 46.8043C216.706 49.136 215.921 48.3373 215.418 42.7795C214.661 43.4656 213.628 40.9936 213.035 39.4937C212.45 37.994 212.242 44.2827 212.185 44.406C210.41 48.3531 209.504 44.7319 207.778 44.1341C206.957 43.8391 205.308 44.7157 204.411 45.3845C203.699 45.9235 203.315 44.4405 202.652 45.3695C202.563 45.4936 202.591 48.2962 202.563 48.4034C201.784 51.7396 202.267 44.8998 202.145 43.6739C201.7 39.2159 201.421 36.8407 200.463 38.9145C200.247 39.3895 199.436 49.2364 199.052 49.806C198.546 50.5284 198.799 46.998 198.261 47.8445C198.214 47.9137 198.185 50.094 197.87 49.9922C196.398 49.5482 194.807 48.2539 193.262 48.4512C193.055 48.4699 193.272 51.9318 192.972 52.0157C191.535 52.4062 190.001 52.2603 188.621 50.6276C188.285 50.2149 188.522 47.7955 188.455 47.0758C188.04 42.7208 187.323 49.0359 187.222 49.1555C186.194 50.3561 185.29 50.1698 184.368 49.6815C182.943 48.9434 181.544 47.5113 179.908 49.1327C179.764 49.2911 178.539 56.0545 178.114 50.2371C178.084 49.8501 177.66 43.8985 177.168 47.9584C177.138 48.2124 177.414 51.2771 176.872 50.9585C176.342 50.6408 175.452 52.6742 174.75 49.3016C174.533 48.2393 174.061 42.3014 173.303 47.0204C173.25 47.3498 172.049 58.0266 171.762 50.646C171.715 49.4311 171.88 41.6266 170.999 45.618C170.831 46.3919 171.096 48.1365 170.666 49.2184C170.016 50.886 169.196 48.7849 168.375 52.2525C168.232 52.8665 167.595 58.1573 167.179 54.1309C167.114 53.5002 167.283 50.896 167.041 50.6015C165.895 49.1891 164.658 50.9186 163.509 49.1037C163.101 48.4659 163.356 44.2554 162.932 43.1221C162.507 41.9892 161.644 40.8953 161.173 42.8165C160.702 44.7384 161.138 51.4568 160.456 51.9883C157.504 54.2968 154.645 50.3418 151.744 49.7628C151.315 49.6764 151.669 52.0792 151.038 52.1246C148.702 52.3005 144.764 54.574 142.729 49.495C141.079 45.4259 143.06 42.2879 141.807 40.6396C141.196 39.8537 140.676 47.6688 140.542 47.9167C139.201 50.4348 138.191 46.9961 136.983 48.0852C136.736 48.3113 137.057 51.4685 136.848 51.6259C136.136 52.1918 135.328 50.8007 134.651 51.0793C134.346 51.2117 134.474 53.6254 134.186 53.4477C133.491 53.0509 132.881 52.0554 132.13 49.8169C132.061 49.6129 132.359 46.5936 131.849 46.5009C131.032 46.3591 129.914 44.1697 129.106 46.5188C128.867 47.2253 129.134 52.7412 128.361 48.9617C128.201 48.1725 128 41.5416 127.633 47.2998C127.562 48.2568 126.918 56.0348 126.093 51.0964C125.874 49.7964 125.156 44.4049 124.889 45.2781C124.856 45.4168 125.228 48.3647 124.99 48.6711C124.163 49.699 123.214 49.4558 122.441 50.4578C122.236 50.7314 122.847 53.7584 122.54 54.0679C122.3 54.3147 122.039 54.4343 121.772 54.4586C120.828 54.5471 119.807 54.0539 118.903 53.458C118.438 53.1429 118.479 50.583 118.42 50.3108C117.467 45.8831 117.785 51.9574 117.656 52.3264C116.843 54.5407 115.769 51.7814 114.902 52.6292C114.66 52.8557 115.141 55.7184 115.115 55.9807C114.831 58.5468 114.704 53.3303 114.304 52.7949C113.19 51.2768 112.136 51.6196 111.224 52.0867C110.885 52.2629 111.631 55.5623 111.321 55.6821C109.507 56.453 107.534 56.3388 105.53 54.6934C105.148 54.378 105.085 51.7832 104.95 51.2036C104.007 47.1485 103.906 52.8309 103.802 53.3827C103.314 55.9031 102.776 53.6615 102.169 54.1588C99.1745 56.6305 95.1181 55.5836 92.0625 55.0338C88.1049 54.3296 84.8389 52.3045 81.4814 53.4919C81.2691 53.5642 82.0395 56.925 81.8662 57.0306C79.6198 58.2368 77.1015 57.3249 75.0729 58.7533C74.9069 58.8643 75.8191 62.007 75.5805 62.2915C75.4568 62.447 75.3152 62.5611 75.1601 62.6298C74.523 62.8682 73.7449 62.7263 72.9905 62.0904C72.4996 61.6787 72.4604 58.8297 71.9796 58.4709C70.86 57.6287 69.8475 57.5958 69.0288 58.2921C68.6807 58.5956 69.926 61.7493 69.4212 61.889C66.0031 62.9057 62.7781 64.106 58.6319 60.5014C58.3476 60.2538 56.8714 53.633 56.6314 55.0029C56.9491 56.858 57.3677 59.0315 57.7303 61.0098C53.1576 62.9896 48.147 61.5647 43.6746 62.1514C43.4868 62.1768 44.5583 65.6211 44.2016 65.6877C42.1387 66.0778 40.4801 67.4726 37.7011 64.475C37.4261 64.1829 36.0194 58.0198 35.6654 59.0922C35.6068 59.2859 34.936 60.3242 35.0663 61.7082C35.0894 61.916 35.9735 64.7344 35.7312 64.8857C34.3011 65.7179 32.6357 65.4831 30.7668 64.1734C30.4633 63.9568 29.767 60.8838 29.5381 60.7051C27.8685 59.477 27.5153 62.1191 25.6337 59.7821C24.3367 58.2216 22.6117 53.0676 20.2399 48.2573C19.8993 47.5805 19.3774 47.6642 18.1558 44.8048C15.0684 37.619 12.1113 29.5752 8.79686 21.9255C8.08027 20.2768 7.76279 22.5102 6.71005 18.2448C6.63968 17.9581 6.89198 16.2947 6.55039 14.8467C6.31513 13.8443 4.86298 11.0194 4.68466 9.68703C4.52039 8.35082 5.81496 10.6892 5.75513 9.07172C5.69511 7.43586 4.19963 4.15155 5.08364 3.36778ZM210.406 32.7874C209.901 29.7548 209.585 40.8171 210.257 38.1828C210.29 38.0424 210.432 32.9362 210.406 32.7874ZM278.352 31.8566C277.766 26.9567 277.057 34.1175 277.471 37.9C277.878 41.6784 278.527 33.3419 278.352 31.8566ZM285.957 28.5554C285.255 24.6741 284.489 40.3487 285.516 37.2164C285.575 37.0394 285.996 28.7808 285.957 28.5554ZM21.6977 46.0826C21.6415 45.9463 21.2171 45.9466 21.2587 46.0868C22.2695 49.4583 23.0725 49.4713 21.6977 46.0826ZM293.504 25.1044C293.424 22.967 292.47 25.3529 292.593 28.0093C292.701 30.1461 293.587 27.7609 293.504 25.1044ZM181.359 20.5293C181.352 20.3643 181.023 20.2124 181.02 21.1446C181.012 24.147 181.481 23.3044 181.359 20.5293ZM304.916 27.466C303.58 26.3323 306.357 13.5999 308.153 15.7728C308.448 16.159 305.927 19.3678 306.027 20.6438C306.131 22.9403 309.596 15.5489 308.916 19.9666C308.758 20.7612 304.959 27.5468 304.906 27.4818C304.909 27.4765 304.912 27.4713 304.916 27.466ZM210.356 19.4912C210.347 19.3447 209.9 19.1965 209.886 19.3413C209.567 22.8487 210.471 23.1493 210.356 19.4912ZM162.41 13.4643C162.389 13.1521 161.343 12.8509 161.306 13.138C160.71 18.878 162.817 19.5039 162.41 13.4643ZM240.79 11.6627C241.305 8.13131 241.897 7.71882 242.258 12.1596C241.774 11.9209 241.282 11.8831 240.79 11.6627Z" fill="#0E0E0E"/>
</g>
<g filter="url(#filter1_d_426_80)">
<path d="M26.6447 34.7859C27.0787 34.7859 27.3867 34.9049 27.5687 35.1429C27.7507 35.3669 27.8417 35.6049 27.8417 35.8569C27.8417 36.2069 27.6667 36.5779 27.3167 36.9699C26.9667 37.3619 26.5117 37.7259 25.9517 38.0619C25.4057 38.3839 24.8177 38.6499 24.1877 38.8599C23.5577 39.0699 22.9557 39.1749 22.3817 39.1749C21.5277 39.1749 20.7087 38.9439 19.9247 38.4819C19.1547 38.0059 18.5247 37.3409 18.0347 36.4869C17.5587 35.6329 17.3207 34.6179 17.3207 33.4419C17.3207 32.4759 17.5027 31.5169 17.8667 30.5649C18.2447 29.6129 18.7417 28.6959 19.3577 27.8139C19.9877 26.9319 20.6737 26.1129 21.4157 25.3569C22.1717 24.6009 22.9277 23.9429 23.6837 23.3829C24.4537 22.8229 25.1607 22.3889 25.8047 22.0809C26.4487 21.7589 26.9667 21.5979 27.3587 21.5979C27.8487 21.5979 28.2127 21.7239 28.4507 21.9759C28.7027 22.2139 28.8287 22.5499 28.8287 22.9839C28.8287 23.3339 28.7587 23.6069 28.6187 23.8029C28.4927 23.9849 28.2897 24.1459 28.0097 24.2859C27.1137 24.7479 26.2037 25.3079 25.2797 25.9659C24.3697 26.6239 23.5367 27.3519 22.7807 28.1499C22.0247 28.9339 21.4157 29.7599 20.9537 30.6279C20.4917 31.4959 20.2607 32.3779 20.2607 33.2739C20.2607 34.2539 20.4567 34.9959 20.8487 35.4999C21.2407 36.0039 21.7727 36.2559 22.4447 36.2559C22.7807 36.2559 23.1447 36.1859 23.5367 36.0459C23.9287 35.8919 24.3137 35.7169 24.6917 35.5209C25.0837 35.3249 25.4477 35.1569 25.7837 35.0169C26.1337 34.8629 26.4207 34.7859 26.6447 34.7859ZM46.2943 39.6159C45.7483 39.6159 45.3493 39.4689 45.0973 39.1749C44.8453 38.8949 44.7193 38.3279 44.7193 37.4739C44.7193 36.7459 44.8383 35.8009 45.0763 34.6389C45.3143 33.4769 45.5803 32.2239 45.8743 30.8799C44.3203 32.6159 42.5283 33.7219 40.4983 34.1979C40.0923 35.0379 39.6163 35.8079 39.0703 36.5079C38.5243 37.2079 37.9293 37.7749 37.2853 38.2089C36.6553 38.6289 35.9973 38.8389 35.3113 38.8389C34.4573 38.8389 33.7223 38.5589 33.1063 37.9989C32.5043 37.4389 32.2033 36.5779 32.2033 35.4159C32.2033 34.6319 32.3223 33.9669 32.5603 33.4209C32.7983 32.8609 33.0713 32.4409 33.3793 32.1609C33.1273 31.6289 33.0013 31.0199 33.0013 30.3339C33.0013 29.4099 33.2533 28.5909 33.7573 27.8769C34.2613 27.1629 34.9263 26.6029 35.7523 26.1969C36.5923 25.7909 37.5023 25.5879 38.4823 25.5879C39.0283 25.5879 39.5463 25.7279 40.0363 26.0079C40.5403 26.2739 40.9463 26.6869 41.2543 27.2469C41.5763 27.7929 41.7373 28.4859 41.7373 29.3259C41.7373 30.0259 41.6323 30.7959 41.4223 31.6359C42.4163 31.0479 43.3963 30.2429 44.3623 29.2209C45.3423 28.1989 46.2173 27.0509 46.9873 25.7769C47.2253 25.3989 47.5613 25.2099 47.9953 25.2099C48.3593 25.2099 48.6463 25.3219 48.8563 25.5459C49.0803 25.7559 49.1923 26.0359 49.1923 26.3859C49.1923 26.4559 49.1503 26.6869 49.0663 27.0789C48.9823 27.4709 48.8703 27.9819 48.7303 28.6119C48.5903 29.2279 48.4363 29.9069 48.2683 30.6489C48.1143 31.3909 47.9603 32.1469 47.8063 32.9169C47.6523 33.6869 47.5123 34.4149 47.3863 35.1009C47.7503 34.4429 48.1423 33.7429 48.5623 33.0009C48.9963 32.2449 49.4443 31.5029 49.9063 30.7749C50.3683 30.0329 50.8233 29.3609 51.2713 28.7589C51.7193 28.1569 52.1323 27.6809 52.5103 27.3309C52.8883 26.9669 53.2103 26.7849 53.4763 26.7849C54.0083 26.7849 54.4563 26.9389 54.8203 27.2469C55.1843 27.5549 55.3663 27.8699 55.3663 28.1919C55.3663 28.5139 55.3313 29.0109 55.2613 29.6829C55.1913 30.3549 55.1003 31.1109 54.9883 31.9509C54.8903 32.7769 54.7853 33.6099 54.6733 34.4499C54.5613 35.2899 54.4703 36.0529 54.4003 36.7389C54.3303 37.4109 54.2953 37.9149 54.2953 38.2509C54.2953 38.5309 54.1623 38.7969 53.8963 39.0489C53.6303 39.3009 53.3293 39.4269 52.9933 39.4269C52.9653 39.4269 52.9163 39.4269 52.8463 39.4269C52.6783 39.4409 52.5243 39.4129 52.3843 39.3429C52.2443 39.2869 52.1253 39.0769 52.0273 38.7129C51.9433 38.3489 51.9013 37.7329 51.9013 36.8649C51.9013 36.2769 51.9293 35.6329 51.9853 34.9329C52.0413 34.2329 52.1113 33.5329 52.1953 32.8329C52.2933 32.1189 52.3983 31.4539 52.5103 30.8379C52.1463 31.4399 51.7403 32.1259 51.2923 32.8959C50.8583 33.6519 50.4033 34.4289 49.9273 35.2269C49.4513 36.0109 48.9823 36.7389 48.5203 37.4109C48.0723 38.0689 47.6523 38.6009 47.2603 39.0069C46.8823 39.4129 46.5603 39.6159 46.2943 39.6159ZM38.3983 32.6019C38.5803 32.0559 38.7273 31.4889 38.8393 30.9009C38.9513 30.2989 39.0073 29.7109 39.0073 29.1369C39.0073 28.8989 38.9583 28.6679 38.8603 28.4439C38.7623 28.2199 38.5943 28.1079 38.3563 28.1079C37.8803 28.1079 37.4113 28.2059 36.9493 28.4019C36.5013 28.5979 36.1303 28.8779 35.8363 29.2419C35.5423 29.6059 35.3953 30.0399 35.3953 30.5439C35.3953 30.9919 35.5423 31.3699 35.8363 31.6779C36.1443 31.9859 36.5223 32.2169 36.9703 32.3709C37.4323 32.5249 37.8873 32.6019 38.3353 32.6019C38.3493 32.6019 38.3703 32.6019 38.3983 32.6019ZM37.5373 34.4499C37.0473 34.4359 36.5713 34.3729 36.1093 34.2609C35.6473 34.1349 35.2273 33.9599 34.8493 33.7359C34.8073 33.9599 34.7653 34.1769 34.7233 34.3869C34.6813 34.5829 34.6603 34.7719 34.6603 34.9539C34.6603 35.2619 34.7093 35.5419 34.8073 35.7939C34.9193 36.0319 35.1433 36.1509 35.4793 36.1509C35.8293 36.1509 36.1793 35.9969 36.5293 35.6889C36.8933 35.3809 37.2293 34.9679 37.5373 34.4499ZM73.1953 27.9609C73.1953 28.1289 73.1393 28.2759 73.0273 28.4019C72.9153 28.5279 72.7753 28.6259 72.6073 28.6959C72.3693 28.7939 71.9563 28.9199 71.3683 29.0739C70.7803 29.2279 70.0663 29.4029 69.2263 29.5989C68.4003 29.7949 67.5113 29.9979 66.5593 30.2079C65.6073 30.4039 64.6553 30.5929 63.7033 30.7749C63.3393 32.1189 62.9683 33.5049 62.5903 34.9329C62.2123 36.3469 61.8343 37.7399 61.4563 39.1119C61.3163 39.6019 61.1483 39.9729 60.9523 40.2249C60.7563 40.4909 60.4203 40.6239 59.9443 40.6239C59.4263 40.6239 59.0763 40.4559 58.8943 40.1199C58.7263 39.7979 58.7053 39.3569 58.8313 38.7969C59.1953 37.2709 59.5313 35.8499 59.8393 34.5339C60.1613 33.2179 60.4203 32.1539 60.6163 31.3419C59.7763 31.4819 59.0413 31.5939 58.4113 31.6779C57.7813 31.7479 57.3333 31.7759 57.0673 31.7619C56.7733 31.7339 56.5283 31.6149 56.3323 31.4049C56.1363 31.1949 56.0453 30.9359 56.0593 30.6279C56.0873 30.3479 56.2133 30.1099 56.4373 29.9139C56.6613 29.7039 56.9273 29.5779 57.2353 29.5359C57.6693 29.4939 58.2293 29.4309 58.9153 29.3469C59.6013 29.2629 60.3573 29.1649 61.1833 29.0529C61.3653 28.3389 61.5753 27.6039 61.8133 26.8479C62.0513 26.0779 62.2963 25.3429 62.5483 24.6429C62.8143 23.9289 63.0663 23.3059 63.3043 22.7739C63.5423 22.2419 63.7593 21.8569 63.9553 21.6189C64.1093 21.4369 64.2983 21.2969 64.5223 21.1989C64.7603 21.1009 64.9913 21.0519 65.2153 21.0519C65.5093 21.0519 65.7473 21.1569 65.9293 21.3669C66.1113 21.5769 66.2023 21.8219 66.2023 22.1019C66.2023 22.2139 66.1953 22.3329 66.1813 22.4589C66.1673 22.5709 66.1393 22.6829 66.0973 22.7949C65.8313 23.4949 65.5443 24.3419 65.2363 25.3359C64.9423 26.3299 64.6343 27.4219 64.3123 28.6119C65.3623 28.4579 66.3913 28.3039 67.3993 28.1499C68.4213 27.9819 69.3453 27.8279 70.1713 27.6879C71.0113 27.5339 71.6833 27.4009 72.1873 27.2889C72.4673 27.1909 72.7053 27.2119 72.9013 27.3519C73.0973 27.4779 73.1953 27.6809 73.1953 27.9609ZM70.9118 39.3429C70.4638 39.3429 70.0578 39.2169 69.6938 38.9649C69.3298 38.7269 69.0428 38.4119 68.8328 38.0199C68.6228 37.6139 68.5178 37.1799 68.5178 36.7179C68.5178 35.8499 68.7068 35.0029 69.0848 34.1769C69.4768 33.3509 69.9878 32.5669 70.6178 31.8249C71.2478 31.0829 71.9338 30.4039 72.6758 29.7879C73.4318 29.1579 74.1808 28.6189 74.9228 28.1709C75.6788 27.7229 76.3648 27.3729 76.9808 27.1209C77.6108 26.8689 78.1008 26.7429 78.4508 26.7429C78.8568 26.7429 79.1858 26.8339 79.4378 27.0159C79.7038 27.1839 79.8368 27.4499 79.8368 27.8139C79.8368 27.9259 79.8088 28.0169 79.7528 28.0869C79.9348 28.1289 80.0818 28.2339 80.1938 28.4019C80.3058 28.5699 80.3618 28.8219 80.3618 29.1579C80.3618 29.2979 80.3268 29.6619 80.2568 30.2499C80.1868 30.8379 80.1098 31.5519 80.0258 32.3919C79.9558 33.2319 79.9208 34.1069 79.9208 35.0169C79.9208 35.1569 79.9418 35.2829 79.9838 35.3949C80.0258 35.4929 80.1168 35.5419 80.2568 35.5419C80.8168 35.5419 81.3838 35.4299 81.9578 35.2059C82.5458 34.9679 83.1128 34.6809 83.6588 34.3449C84.2188 33.9949 84.7228 33.6519 85.1708 33.3159C85.6328 32.9659 86.0178 32.6789 86.3258 32.4549C86.6478 32.2169 86.8578 32.0979 86.9558 32.0979C87.4318 32.0979 87.6698 32.3359 87.6698 32.8119C87.6698 32.9379 87.5158 33.2039 87.2078 33.6099C86.9138 34.0019 86.5078 34.4569 85.9898 34.9749C85.4718 35.4789 84.8908 35.9829 84.2468 36.4869C83.6168 36.9769 82.9588 37.3829 82.2728 37.7049C81.6008 38.0269 80.9498 38.1879 80.3198 38.1879C79.5498 38.1879 78.9618 38.0059 78.5558 37.6419C78.1638 37.2779 77.8838 36.7879 77.7158 36.1719C77.5618 35.5419 77.4778 34.8349 77.4638 34.0509C76.7498 35.0729 76.0078 35.9829 75.2378 36.7809C74.4818 37.5649 73.7328 38.1879 72.9908 38.6499C72.2488 39.1119 71.5558 39.3429 70.9118 39.3429ZM78.3458 28.8219C76.9738 29.4799 75.7418 30.2359 74.6498 31.0899C73.5578 31.9299 72.6898 32.8119 72.0458 33.7359C71.4158 34.6599 71.1008 35.5489 71.1008 36.4029C71.1008 36.6409 71.2128 36.7599 71.4368 36.7599C71.7028 36.7599 72.0528 36.6059 72.4868 36.2979C72.9348 35.9899 73.4178 35.5839 73.9358 35.0799C74.4538 34.5619 74.9718 33.9879 75.4898 33.3579C76.0078 32.7139 76.4908 32.0559 76.9388 31.3839C77.3868 30.7119 77.7438 30.0679 78.0098 29.4519C78.1078 29.2279 78.2198 29.0179 78.3458 28.8219ZM89.5675 39.1329C88.7835 39.1329 88.1045 38.9509 87.5305 38.5869C86.9565 38.2369 86.5155 37.7819 86.2075 37.2219C85.8995 36.6479 85.7455 36.0599 85.7455 35.4579C85.7455 34.4499 85.8995 33.5189 86.2075 32.6649C86.5155 31.7969 86.9215 31.0129 87.4255 30.3129C87.9295 29.5989 88.4755 28.9689 89.0635 28.4229C89.6655 27.8769 90.2465 27.4219 90.8065 27.0579C91.3805 26.6799 91.8915 26.3999 92.3395 26.2179C92.7875 26.0219 93.1165 25.9239 93.3265 25.9239C93.7045 25.9239 93.9705 26.0079 94.1245 26.1759C94.2925 26.3299 94.3765 26.5889 94.3765 26.9529C94.3765 27.1629 94.2225 27.4149 93.9145 27.7089C93.6205 28.0029 93.2285 28.3389 92.7385 28.7169C92.2625 29.0949 91.7585 29.5219 91.2265 29.9979C90.6945 30.4739 90.1835 31.0059 89.6935 31.5939C89.2175 32.1819 88.8255 32.8259 88.5175 33.5259C88.2235 34.2259 88.0765 34.9889 88.0765 35.8149C88.0765 36.1229 88.1325 36.3609 88.2445 36.5289C88.3705 36.6969 88.5735 36.7809 88.8535 36.7809C89.6515 36.7809 90.5055 36.6409 91.4155 36.3609C92.3395 36.0669 93.2565 35.7029 94.1665 35.2689C95.0905 34.8209 95.9585 34.3589 96.7705 33.8829C97.5965 33.4069 98.3035 32.9799 98.8915 32.6019C99.1295 32.4339 99.3325 32.3009 99.5005 32.2029C99.6685 32.1049 99.7875 32.0559 99.8575 32.0559C100.277 32.0559 100.487 32.2729 100.487 32.7069C100.487 32.9309 100.319 33.2319 99.9835 33.6099C99.5915 34.0999 99.0595 34.6039 98.3875 35.1219C97.7295 35.6399 96.9945 36.1369 96.1825 36.6129C95.3845 37.0889 94.5655 37.5159 93.7255 37.8939C92.8995 38.2719 92.1225 38.5729 91.3945 38.7969C90.6665 39.0209 90.0575 39.1329 89.5675 39.1329ZM114.088 27.9609C114.088 28.1289 114.032 28.2759 113.92 28.4019C113.808 28.5279 113.668 28.6259 113.5 28.6959C113.262 28.7939 112.849 28.9199 112.261 29.0739C111.673 29.2279 110.959 29.4029 110.119 29.5989C109.293 29.7949 108.404 29.9979 107.452 30.2079C106.5 30.4039 105.548 30.5929 104.596 30.7749C104.232 32.1189 103.861 33.5049 103.483 34.9329C103.105 36.3469 102.727 37.7399 102.349 39.1119C102.209 39.6019 102.041 39.9729 101.845 40.2249C101.649 40.4909 101.313 40.6239 100.837 40.6239C100.319 40.6239 99.9689 40.4559 99.7869 40.1199C99.6189 39.7979 99.5979 39.3569 99.7239 38.7969C100.088 37.2709 100.424 35.8499 100.732 34.5339C101.054 33.2179 101.313 32.1539 101.509 31.3419C100.669 31.4819 99.9339 31.5939 99.3039 31.6779C98.6739 31.7479 98.2259 31.7759 97.9599 31.7619C97.6659 31.7339 97.4209 31.6149 97.2249 31.4049C97.0289 31.1949 96.9379 30.9359 96.9519 30.6279C96.9799 30.3479 97.1059 30.1099 97.3299 29.9139C97.5539 29.7039 97.8199 29.5779 98.1279 29.5359C98.5619 29.4939 99.1219 29.4309 99.8079 29.3469C100.494 29.2629 101.25 29.1649 102.076 29.0529C102.258 28.3389 102.468 27.6039 102.706 26.8479C102.944 26.0779 103.189 25.3429 103.441 24.6429C103.707 23.9289 103.959 23.3059 104.197 22.7739C104.435 22.2419 104.652 21.8569 104.848 21.6189C105.002 21.4369 105.191 21.2969 105.415 21.1989C105.653 21.1009 105.884 21.0519 106.108 21.0519C106.402 21.0519 106.64 21.1569 106.822 21.3669C107.004 21.5769 107.095 21.8219 107.095 22.1019C107.095 22.2139 107.088 22.3329 107.074 22.4589C107.06 22.5709 107.032 22.6829 106.99 22.7949C106.724 23.4949 106.437 24.3419 106.129 25.3359C105.835 26.3299 105.527 27.4219 105.205 28.6119C106.255 28.4579 107.284 28.3039 108.292 28.1499C109.314 27.9819 110.238 27.8279 111.064 27.6879C111.904 27.5339 112.576 27.4009 113.08 27.2889C113.36 27.1909 113.598 27.2119 113.794 27.3519C113.99 27.4779 114.088 27.6809 114.088 27.9609ZM125.158 27.3309C124.486 27.3309 124.01 27.2609 123.73 27.1209C123.45 26.9809 123.282 26.8129 123.226 26.6169C123.17 26.4209 123.142 26.2529 123.142 26.1129C123.142 26.0989 123.142 26.0919 123.142 26.0919C123.142 25.7839 123.282 25.4899 123.562 25.2099C123.842 24.9159 124.234 24.7129 124.738 24.6009C125.158 24.5169 125.655 24.4329 126.229 24.3489C126.817 24.2509 127.433 24.1669 128.077 24.0969C128.735 24.0129 129.365 23.9499 129.967 23.9079C130.569 23.8659 131.101 23.8449 131.563 23.8449C132.179 23.8449 132.655 23.9359 132.991 24.1179C133.327 24.2859 133.558 24.4819 133.684 24.7059C133.824 24.9299 133.894 25.1189 133.894 25.2729C133.894 25.4129 133.859 25.5529 133.789 25.6929C133.719 25.8329 133.544 25.9729 133.264 26.1129C132.998 26.2529 132.571 26.3859 131.983 26.5119C131.395 26.6379 130.583 26.7569 129.547 26.8689C129.449 26.8829 129.344 26.8969 129.232 26.9109C129.134 27.5129 129.015 28.2339 128.875 29.0739C128.735 29.8999 128.581 30.7679 128.413 31.6779C128.259 32.5739 128.105 33.4349 127.951 34.2609C127.811 35.0729 127.685 35.7659 127.573 36.3399C128.147 36.2839 128.651 36.2419 129.085 36.2139C129.533 36.1859 129.834 36.1719 129.988 36.1719C130.478 36.1719 130.814 36.2769 130.996 36.4869C131.178 36.6829 131.269 36.9419 131.269 37.2639C131.269 37.3899 131.045 37.5859 130.597 37.8519C130.149 38.1179 129.526 38.4049 128.728 38.7129C127.944 39.0209 127.041 39.2939 126.019 39.5319C125.347 39.6859 124.682 39.8049 124.024 39.8889C123.366 39.9729 122.89 40.0149 122.596 40.0149C122.022 40.0149 121.651 39.9099 121.483 39.6999C121.329 39.4899 121.252 39.2239 121.252 38.9019C121.252 38.6219 121.336 38.3349 121.504 38.0409C121.686 37.7469 121.938 37.5369 122.26 37.4109C122.596 37.2849 122.967 37.1659 123.373 37.0539C123.779 36.9419 124.199 36.8439 124.633 36.7599C124.661 36.3959 124.717 35.9129 124.801 35.3109C124.885 34.7089 124.976 34.0509 125.074 33.3369C125.186 32.6089 125.298 31.8739 125.41 31.1319C125.536 30.3759 125.655 29.6689 125.767 29.0109C125.893 28.3389 125.998 27.7579 126.082 27.2679C125.676 27.3099 125.368 27.3309 125.158 27.3309ZM136.723 38.5449C136.387 38.5449 136.051 38.4329 135.715 38.2089C135.393 37.9709 135.127 37.6349 134.917 37.2009C134.707 36.7529 134.602 36.2139 134.602 35.5839C134.602 34.7439 134.714 33.8479 134.938 32.8959C135.176 31.9439 135.463 30.9919 135.799 30.0399C136.135 29.0879 136.464 28.1919 136.786 27.3519C136.94 26.9459 137.129 26.6729 137.353 26.5329C137.577 26.3789 137.871 26.3019 138.235 26.3019C139.061 26.3019 139.474 26.7149 139.474 27.5409C139.474 27.6809 139.411 27.9539 139.285 28.3599C139.159 28.7519 138.991 29.2349 138.781 29.8089C138.585 30.3829 138.375 31.0059 138.151 31.6779C137.941 32.3359 137.745 33.0079 137.563 33.6939C137.395 34.3659 137.262 35.0029 137.164 35.6049C137.486 35.1149 137.843 34.5059 138.235 33.7779C138.641 33.0359 139.068 32.2589 139.516 31.4469C139.978 30.6349 140.44 29.8789 140.902 29.1789C141.364 28.4649 141.819 27.8839 142.267 27.4359C142.715 26.9879 143.142 26.7639 143.548 26.7639C143.898 26.7639 144.227 26.8339 144.535 26.9739C144.857 27.0999 145.137 27.3519 145.375 27.7299C145.613 28.0939 145.795 28.6189 145.921 29.3049C146.061 29.9909 146.131 30.8939 146.131 32.0139C146.131 32.5739 146.18 33.1199 146.278 33.6519C146.39 34.1699 146.572 34.6039 146.824 34.9539C147.076 35.2899 147.433 35.4579 147.895 35.4579C148.693 35.4579 149.407 35.3109 150.037 35.0169C150.667 34.7229 151.22 34.3799 151.696 33.9879C152.172 33.5959 152.571 33.2529 152.893 32.9589C153.089 32.7629 153.257 32.6089 153.397 32.4969C153.551 32.3849 153.677 32.3289 153.775 32.3289C154.069 32.3289 154.279 32.4059 154.405 32.5599C154.545 32.7139 154.615 32.9239 154.615 33.1899C154.615 33.3299 154.496 33.5889 154.258 33.9669C154.02 34.3449 153.684 34.7789 153.25 35.2689C152.83 35.7449 152.347 36.2069 151.801 36.6549C151.255 37.1029 150.667 37.4739 150.037 37.7679C149.407 38.0619 148.763 38.2089 148.105 38.2089C146.999 38.2089 146.082 38.0129 145.354 37.6209C144.64 37.2149 144.108 36.5429 143.758 35.6049C143.408 34.6529 143.233 33.3579 143.233 31.7199C143.233 31.6779 143.233 31.6079 143.233 31.5099C143.233 31.0759 143.226 30.6909 143.212 30.3549C143.212 30.0189 143.191 29.7459 143.149 29.5359C142.911 29.9699 142.624 30.4879 142.288 31.0899C141.966 31.6919 141.616 32.3359 141.238 33.0219C140.86 33.6939 140.468 34.3589 140.062 35.0169C139.656 35.6609 139.25 36.2489 138.844 36.7809C138.452 37.3129 138.074 37.7399 137.71 38.0619C137.346 38.3839 137.017 38.5449 136.723 38.5449ZM154.842 40.8969C154.492 40.8969 154.191 40.7919 153.939 40.5819C153.687 40.3859 153.575 39.9799 153.603 39.3639C153.631 38.6779 153.68 37.9639 153.75 37.2219C153.82 36.4799 153.897 35.7869 153.981 35.1429C154.163 33.7289 154.205 32.6369 154.107 31.8669C154.023 31.0829 153.806 30.5229 153.456 30.1869C153.12 29.8509 152.665 29.6269 152.091 29.5149C151.811 29.4589 151.587 29.3539 151.419 29.1999C151.251 29.0319 151.167 28.8149 151.167 28.5489C151.167 28.1989 151.307 27.9679 151.587 27.8559C151.853 27.7439 152.196 27.6879 152.616 27.6879C152.938 27.6879 153.351 27.7089 153.855 27.7509C154.373 27.7789 154.926 27.7999 155.514 27.8139C156.004 26.2039 156.557 24.8739 157.173 23.8239C157.789 22.7739 158.461 21.9479 159.189 21.3459C159.917 20.7299 160.687 20.3029 161.499 20.0649C162.311 19.8129 163.151 19.6869 164.019 19.6869C165.097 19.6869 165.636 20.0719 165.636 20.8419C165.636 21.2199 165.454 21.5069 165.09 21.7029C164.726 21.8989 164.173 22.0599 163.431 22.1859C162.549 22.3399 161.772 22.6269 161.1 23.0469C160.442 23.4669 159.861 24.0619 159.357 24.8319C158.867 25.6019 158.433 26.5959 158.055 27.8139C160.001 27.7719 161.597 27.6669 162.843 27.4989C164.089 27.3309 165.048 27.1699 165.72 27.0159C166.406 26.8479 166.882 26.7639 167.148 26.7639C167.526 26.7639 167.757 26.8549 167.841 27.0369C167.939 27.2189 167.988 27.4149 167.988 27.6249C167.988 27.8629 167.764 28.1079 167.316 28.3599C167.022 28.5279 166.553 28.7169 165.909 28.9269C165.265 29.1229 164.509 29.3189 163.641 29.5149C162.773 29.6969 161.856 29.8509 160.89 29.9769C159.938 30.0889 159.007 30.1449 158.097 30.1449C157.873 30.1449 157.67 30.1449 157.488 30.1449C157.334 30.9569 157.18 31.8179 157.026 32.7279C156.886 33.6239 156.76 34.4989 156.648 35.3529C156.536 36.2069 156.438 36.9839 156.354 37.6839C156.284 38.3839 156.242 38.9439 156.228 39.3639C156.214 39.8819 156.081 40.2669 155.829 40.5189C155.577 40.7709 155.248 40.8969 154.842 40.8969ZM166.63 39.2379C165.636 39.2379 164.838 38.8879 164.236 38.1879C163.634 37.4739 163.333 36.5219 163.333 35.3319C163.333 34.9539 163.382 34.5689 163.48 34.1769C163.592 33.7849 163.725 33.4209 163.879 33.0849C163.795 32.9589 163.725 32.7979 163.669 32.6019C163.627 32.3919 163.606 32.1469 163.606 31.8669C163.606 30.9569 163.767 30.1239 164.089 29.3679C164.411 28.5979 164.845 27.9329 165.391 27.3729C165.937 26.8129 166.539 26.3789 167.197 26.0709C167.855 25.7629 168.52 25.6089 169.192 25.6089C170.34 25.6089 171.278 25.9939 172.006 26.7639C172.748 27.5339 173.119 28.7309 173.119 30.3549C173.119 31.1669 172.993 31.9929 172.741 32.8329C172.489 33.6729 172.146 34.4779 171.712 35.2479C171.292 36.0039 170.802 36.6829 170.242 37.2849C169.696 37.8869 169.108 38.3629 168.478 38.7129C167.862 39.0629 167.246 39.2379 166.63 39.2379ZM166.294 32.1399C166.364 32.2939 166.399 32.4759 166.399 32.6859C166.399 32.8959 166.357 33.1129 166.273 33.3369C166.189 33.5609 166.105 33.8619 166.021 34.2399C165.937 34.6039 165.895 35.1289 165.895 35.8149C165.895 35.9969 165.916 36.1509 165.958 36.2769C166.014 36.3889 166.133 36.4449 166.315 36.4449C166.791 36.4449 167.239 36.2909 167.659 35.9829C168.093 35.6749 168.478 35.2689 168.814 34.7649C169.164 34.2609 169.458 33.7009 169.696 33.0849C169.948 32.4549 170.137 31.8179 170.263 31.1739C170.403 30.5159 170.473 29.9069 170.473 29.3469C170.473 28.9829 170.403 28.7309 170.263 28.5909C170.123 28.4509 169.878 28.3809 169.528 28.3809C169.052 28.3809 168.562 28.5349 168.058 28.8429C167.568 29.1369 167.155 29.5429 166.819 30.0609C166.483 30.5649 166.315 31.1389 166.315 31.7829C166.315 31.9089 166.308 32.0279 166.294 32.1399ZM176.375 39.4689C176.025 39.4689 175.724 39.3429 175.472 39.0909C175.234 38.8389 175.115 38.4749 175.115 37.9989C175.115 37.7889 175.143 37.4459 175.199 36.9699C175.269 36.4799 175.353 35.9199 175.451 35.2899C175.563 34.6599 175.668 34.0019 175.766 33.3159C175.878 32.6299 175.969 31.9789 176.039 31.3629C176.123 30.7469 176.179 30.2219 176.207 29.7879C176.235 29.2559 176.375 28.8779 176.627 28.6539C176.879 28.4159 177.18 28.2969 177.53 28.2969C177.81 28.2969 178.062 28.3669 178.286 28.5069C178.524 28.6329 178.671 28.9059 178.727 29.3259C178.797 29.7319 178.804 30.3199 178.748 31.0899C179.364 29.9699 179.987 28.9689 180.617 28.0869C181.261 27.2049 181.933 26.5049 182.633 25.9869C183.795 25.1049 184.845 24.6639 185.783 24.6639C186.315 24.6639 186.665 24.7829 186.833 25.0209C187.001 25.2589 187.085 25.5039 187.085 25.7559C187.085 25.9239 187.043 26.0779 186.959 26.2179C186.889 26.3579 186.735 26.5049 186.497 26.6589C186.259 26.8129 185.895 27.0159 185.405 27.2679C184.747 27.6039 184.096 28.0449 183.452 28.5909C182.822 29.1369 182.192 29.8369 181.562 30.6909C180.932 31.5449 180.295 32.5949 179.651 33.8409C179.007 35.0869 178.342 36.5709 177.656 38.2929C177.53 38.7689 177.348 39.0839 177.11 39.2379C176.886 39.3919 176.641 39.4689 176.375 39.4689ZM204.042 38.0619C203.958 38.8179 203.51 39.1959 202.698 39.1959C202.278 39.1959 201.942 39.0699 201.69 38.8179C201.452 38.5659 201.333 38.2019 201.333 37.7259C201.333 36.9139 201.368 36.0459 201.438 35.1219C201.522 34.1839 201.62 33.2389 201.732 32.2869C201.858 31.3349 201.977 30.4249 202.089 29.5569C201.585 30.2849 201.053 31.0339 200.493 31.8039C199.933 32.5739 199.373 33.3229 198.813 34.0509C198.253 34.7789 197.714 35.4369 197.196 36.0249C196.692 36.5989 196.23 37.0609 195.81 37.4109C195.39 37.7469 195.04 37.9149 194.76 37.9149C194.088 37.9149 193.507 37.6699 193.017 37.1799C192.527 36.6759 192.282 36.0389 192.282 35.2689C192.282 35.0029 192.31 34.6459 192.366 34.1979C192.422 33.7359 192.492 33.2459 192.576 32.7279C192.66 32.2099 192.73 31.7199 192.786 31.2579C192.842 30.7959 192.87 30.4319 192.87 30.1659C192.87 30.1659 192.87 30.1519 192.87 30.1239C192.884 30.0539 192.87 30.0189 192.828 30.0189C192.772 30.0189 192.618 30.2079 192.366 30.5859C192.114 30.9499 191.806 31.4259 191.442 32.0139C191.078 32.6019 190.693 33.2179 190.287 33.8619C189.895 34.5059 189.524 35.1079 189.174 35.6679C188.838 36.2279 188.558 36.6619 188.334 36.9699C188.026 37.4459 187.739 37.7469 187.473 37.8729C187.207 37.9989 186.899 38.0619 186.549 38.0619C186.059 38.0619 185.674 37.9009 185.394 37.5789C185.128 37.2429 184.995 36.7739 184.995 36.1719C184.995 35.9199 185.037 35.5279 185.121 34.9959C185.219 34.4639 185.338 33.8759 185.478 33.2319C185.618 32.5739 185.758 31.9369 185.898 31.3209C186.052 30.6909 186.185 30.1589 186.297 29.7249C186.423 29.1509 186.598 28.7519 186.822 28.5279C187.06 28.2899 187.361 28.1709 187.725 28.1709C188.579 28.1709 189.006 28.5909 189.006 29.4309C189.006 29.5849 188.957 29.8369 188.859 30.1869C188.761 30.5369 188.642 30.9429 188.502 31.4049C188.362 31.8669 188.215 32.3429 188.061 32.8329C187.907 33.3089 187.781 33.7569 187.683 34.1769C188.019 33.5889 188.383 32.9589 188.775 32.2869C189.167 31.6149 189.566 30.9569 189.972 30.3129C190.392 29.6689 190.805 29.0809 191.211 28.5489C191.631 28.0169 192.044 27.5969 192.45 27.2889C192.856 26.9669 193.241 26.8059 193.605 26.8059C193.969 26.8059 194.326 26.9389 194.676 27.2049C195.026 27.4569 195.313 27.7859 195.537 28.1919C195.775 28.5839 195.894 29.0039 195.894 29.4519C195.894 29.8719 195.838 30.3759 195.726 30.9639C195.614 31.5519 195.488 32.1679 195.348 32.8119C195.208 33.4559 195.11 34.0859 195.054 34.7019C195.53 34.1699 196.034 33.5679 196.566 32.8959C197.098 32.2099 197.644 31.5029 198.204 30.7749C198.764 30.0469 199.31 29.3399 199.842 28.6539C200.388 27.9679 200.892 27.3449 201.354 26.7849C201.83 26.2249 202.25 25.7839 202.614 25.4619C202.978 25.1259 203.258 24.9579 203.454 24.9579C204.028 24.9579 204.476 25.1119 204.798 25.4199C205.134 25.7139 205.302 26.2319 205.302 26.9739C205.302 27.4359 205.267 28.0379 205.197 28.7799C205.141 29.5219 205.057 30.3269 204.945 31.1949C204.847 32.0489 204.735 32.9169 204.609 33.7989C204.497 34.6669 204.392 35.4719 204.294 36.2139C204.196 36.9559 204.112 37.5719 204.042 38.0619ZM209.729 39.3429C209.281 39.3429 208.875 39.2169 208.511 38.9649C208.147 38.7269 207.86 38.4119 207.65 38.0199C207.44 37.6139 207.335 37.1799 207.335 36.7179C207.335 35.8499 207.524 35.0029 207.902 34.1769C208.294 33.3509 208.805 32.5669 209.435 31.8249C210.065 31.0829 210.751 30.4039 211.493 29.7879C212.249 29.1579 212.998 28.6189 213.74 28.1709C214.496 27.7229 215.182 27.3729 215.798 27.1209C216.428 26.8689 216.918 26.7429 217.268 26.7429C217.674 26.7429 218.003 26.8339 218.255 27.0159C218.521 27.1839 218.654 27.4499 218.654 27.8139C218.654 27.9259 218.626 28.0169 218.57 28.0869C218.752 28.1289 218.899 28.2339 219.011 28.4019C219.123 28.5699 219.179 28.8219 219.179 29.1579C219.179 29.2979 219.144 29.6619 219.074 30.2499C219.004 30.8379 218.927 31.5519 218.843 32.3919C218.773 33.2319 218.738 34.1069 218.738 35.0169C218.738 35.1569 218.759 35.2829 218.801 35.3949C218.843 35.4929 218.934 35.5419 219.074 35.5419C219.634 35.5419 220.201 35.4299 220.775 35.2059C221.363 34.9679 221.93 34.6809 222.476 34.3449C223.036 33.9949 223.54 33.6519 223.988 33.3159C224.45 32.9659 224.835 32.6789 225.143 32.4549C225.465 32.2169 225.675 32.0979 225.773 32.0979C226.249 32.0979 226.487 32.3359 226.487 32.8119C226.487 32.9379 226.333 33.2039 226.025 33.6099C225.731 34.0019 225.325 34.4569 224.807 34.9749C224.289 35.4789 223.708 35.9829 223.064 36.4869C222.434 36.9769 221.776 37.3829 221.09 37.7049C220.418 38.0269 219.767 38.1879 219.137 38.1879C218.367 38.1879 217.779 38.0059 217.373 37.6419C216.981 37.2779 216.701 36.7879 216.533 36.1719C216.379 35.5419 216.295 34.8349 216.281 34.0509C215.567 35.0729 214.825 35.9829 214.055 36.7809C213.299 37.5649 212.55 38.1879 211.808 38.6499C211.066 39.1119 210.373 39.3429 209.729 39.3429ZM217.163 28.8219C215.791 29.4799 214.559 30.2359 213.467 31.0899C212.375 31.9299 211.507 32.8119 210.863 33.7359C210.233 34.6599 209.918 35.5489 209.918 36.4029C209.918 36.6409 210.03 36.7599 210.254 36.7599C210.52 36.7599 210.87 36.6059 211.304 36.2979C211.752 35.9899 212.235 35.5839 212.753 35.0799C213.271 34.5619 213.789 33.9879 214.307 33.3579C214.825 32.7139 215.308 32.0559 215.756 31.3839C216.204 30.7119 216.561 30.0679 216.827 29.4519C216.925 29.2279 217.037 29.0179 217.163 28.8219ZM239.842 27.9609C239.842 28.1289 239.786 28.2759 239.674 28.4019C239.562 28.5279 239.422 28.6259 239.254 28.6959C239.016 28.7939 238.603 28.9199 238.015 29.0739C237.427 29.2279 236.713 29.4029 235.873 29.5989C235.047 29.7949 234.158 29.9979 233.206 30.2079C232.254 30.4039 231.302 30.5929 230.35 30.7749C229.986 32.1189 229.615 33.5049 229.237 34.9329C228.859 36.3469 228.481 37.7399 228.103 39.1119C227.963 39.6019 227.795 39.9729 227.599 40.2249C227.403 40.4909 227.067 40.6239 226.591 40.6239C226.073 40.6239 225.723 40.4559 225.541 40.1199C225.373 39.7979 225.352 39.3569 225.478 38.7969C225.842 37.2709 226.178 35.8499 226.486 34.5339C226.808 33.2179 227.067 32.1539 227.263 31.3419C226.423 31.4819 225.688 31.5939 225.058 31.6779C224.428 31.7479 223.98 31.7759 223.714 31.7619C223.42 31.7339 223.175 31.6149 222.979 31.4049C222.783 31.1949 222.692 30.9359 222.706 30.6279C222.734 30.3479 222.86 30.1099 223.084 29.9139C223.308 29.7039 223.574 29.5779 223.882 29.5359C224.316 29.4939 224.876 29.4309 225.562 29.3469C226.248 29.2629 227.004 29.1649 227.83 29.0529C228.012 28.3389 228.222 27.6039 228.46 26.8479C228.698 26.0779 228.943 25.3429 229.195 24.6429C229.461 23.9289 229.713 23.3059 229.951 22.7739C230.189 22.2419 230.406 21.8569 230.602 21.6189C230.756 21.4369 230.945 21.2969 231.169 21.1989C231.407 21.1009 231.638 21.0519 231.862 21.0519C232.156 21.0519 232.394 21.1569 232.576 21.3669C232.758 21.5769 232.849 21.8219 232.849 22.1019C232.849 22.2139 232.842 22.3329 232.828 22.4589C232.814 22.5709 232.786 22.6829 232.744 22.7949C232.478 23.4949 232.191 24.3419 231.883 25.3359C231.589 26.3299 231.281 27.4219 230.959 28.6119C232.009 28.4579 233.038 28.3039 234.046 28.1499C235.068 27.9819 235.992 27.8279 236.818 27.6879C237.658 27.5339 238.33 27.4009 238.834 27.2889C239.114 27.1909 239.352 27.2119 239.548 27.3519C239.744 27.4779 239.842 27.6809 239.842 27.9609ZM237.312 38.8599C236.92 38.8599 236.57 38.7269 236.262 38.4609C235.968 38.1949 235.821 37.7609 235.821 37.1589C235.821 36.8369 235.863 36.3819 235.947 35.7939C236.045 35.2059 236.171 34.5689 236.325 33.8829C236.479 33.1829 236.647 32.4899 236.829 31.8039C237.025 31.1179 237.214 30.5089 237.396 29.9769C237.578 29.4309 237.739 29.0249 237.879 28.7589C238.061 28.4369 238.229 28.2409 238.383 28.1709C238.551 28.0869 238.712 28.0449 238.866 28.0449C239.146 28.0449 239.405 28.1289 239.643 28.2969C239.895 28.4649 240.021 28.8359 240.021 29.4099C240.021 29.6339 239.979 29.9979 239.895 30.5019C239.811 30.9919 239.706 31.5659 239.58 32.2239C239.454 32.8819 239.314 33.5609 239.16 34.2609C239.02 34.9609 238.88 35.6259 238.74 36.2559C238.614 36.8719 238.509 37.3899 238.425 37.8099C238.355 38.1599 238.208 38.4189 237.984 38.5869C237.774 38.7689 237.55 38.8599 237.312 38.8599ZM239.727 25.9659C239.265 25.9659 238.838 25.8329 238.446 25.5669C238.054 25.2869 237.858 24.8599 237.858 24.2859C237.858 23.8099 237.977 23.4249 238.215 23.1309C238.453 22.8369 238.733 22.6269 239.055 22.5009C239.391 22.3609 239.685 22.2909 239.937 22.2909C240.189 22.2909 240.469 22.3469 240.777 22.4589C241.085 22.5569 241.351 22.7459 241.575 23.0259C241.813 23.2919 241.932 23.6769 241.932 24.1809C241.932 24.5169 241.813 24.8249 241.575 25.1049C241.337 25.3709 241.043 25.5809 240.693 25.7349C240.357 25.8889 240.035 25.9659 239.727 25.9659ZM256.992 39.6159C256.446 39.6159 256.047 39.4689 255.795 39.1749C255.543 38.8949 255.417 38.3279 255.417 37.4739C255.417 36.7459 255.536 35.8009 255.774 34.6389C256.012 33.4769 256.278 32.2239 256.572 30.8799C255.018 32.6159 253.226 33.7219 251.196 34.1979C250.79 35.0379 250.314 35.8079 249.768 36.5079C249.222 37.2079 248.627 37.7749 247.983 38.2089C247.353 38.6289 246.695 38.8389 246.009 38.8389C245.155 38.8389 244.42 38.5589 243.804 37.9989C243.202 37.4389 242.901 36.5779 242.901 35.4159C242.901 34.6319 243.02 33.9669 243.258 33.4209C243.496 32.8609 243.769 32.4409 244.077 32.1609C243.825 31.6289 243.699 31.0199 243.699 30.3339C243.699 29.4099 243.951 28.5909 244.455 27.8769C244.959 27.1629 245.624 26.6029 246.45 26.1969C247.29 25.7909 248.2 25.5879 249.18 25.5879C249.726 25.5879 250.244 25.7279 250.734 26.0079C251.238 26.2739 251.644 26.6869 251.952 27.2469C252.274 27.7929 252.435 28.4859 252.435 29.3259C252.435 30.0259 252.33 30.7959 252.12 31.6359C253.114 31.0479 254.094 30.2429 255.06 29.2209C256.04 28.1989 256.915 27.0509 257.685 25.7769C257.923 25.3989 258.259 25.2099 258.693 25.2099C259.057 25.2099 259.344 25.3219 259.554 25.5459C259.778 25.7559 259.89 26.0359 259.89 26.3859C259.89 26.4559 259.848 26.6869 259.764 27.0789C259.68 27.4709 259.568 27.9819 259.428 28.6119C259.288 29.2279 259.134 29.9069 258.966 30.6489C258.812 31.3909 258.658 32.1469 258.504 32.9169C258.35 33.6869 258.21 34.4149 258.084 35.1009C258.448 34.4429 258.84 33.7429 259.26 33.0009C259.694 32.2449 260.142 31.5029 260.604 30.7749C261.066 30.0329 261.521 29.3609 261.969 28.7589C262.417 28.1569 262.83 27.6809 263.208 27.3309C263.586 26.9669 263.908 26.7849 264.174 26.7849C264.706 26.7849 265.154 26.9389 265.518 27.2469C265.882 27.5549 266.064 27.8699 266.064 28.1919C266.064 28.5139 266.029 29.0109 265.959 29.6829C265.889 30.3549 265.798 31.1109 265.686 31.9509C265.588 32.7769 265.483 33.6099 265.371 34.4499C265.259 35.2899 265.168 36.0529 265.098 36.7389C265.028 37.4109 264.993 37.9149 264.993 38.2509C264.993 38.5309 264.86 38.7969 264.594 39.0489C264.328 39.3009 264.027 39.4269 263.691 39.4269C263.663 39.4269 263.614 39.4269 263.544 39.4269C263.376 39.4409 263.222 39.4129 263.082 39.3429C262.942 39.2869 262.823 39.0769 262.725 38.7129C262.641 38.3489 262.599 37.7329 262.599 36.8649C262.599 36.2769 262.627 35.6329 262.683 34.9329C262.739 34.2329 262.809 33.5329 262.893 32.8329C262.991 32.1189 263.096 31.4539 263.208 30.8379C262.844 31.4399 262.438 32.1259 261.99 32.8959C261.556 33.6519 261.101 34.4289 260.625 35.2269C260.149 36.0109 259.68 36.7389 259.218 37.4109C258.77 38.0689 258.35 38.6009 257.958 39.0069C257.58 39.4129 257.258 39.6159 256.992 39.6159ZM249.096 32.6019C249.278 32.0559 249.425 31.4889 249.537 30.9009C249.649 30.2989 249.705 29.7109 249.705 29.1369C249.705 28.8989 249.656 28.6679 249.558 28.4439C249.46 28.2199 249.292 28.1079 249.054 28.1079C248.578 28.1079 248.109 28.2059 247.647 28.4019C247.199 28.5979 246.828 28.8779 246.534 29.2419C246.24 29.6059 246.093 30.0399 246.093 30.5439C246.093 30.9919 246.24 31.3699 246.534 31.6779C246.842 31.9859 247.22 32.2169 247.668 32.3709C248.13 32.5249 248.585 32.6019 249.033 32.6019C249.047 32.6019 249.068 32.6019 249.096 32.6019ZM248.235 34.4499C247.745 34.4359 247.269 34.3729 246.807 34.2609C246.345 34.1349 245.925 33.9599 245.547 33.7359C245.505 33.9599 245.463 34.1769 245.421 34.3869C245.379 34.5829 245.358 34.7719 245.358 34.9539C245.358 35.2619 245.407 35.5419 245.505 35.7939C245.617 36.0319 245.841 36.1509 246.177 36.1509C246.527 36.1509 246.877 35.9969 247.227 35.6889C247.591 35.3809 247.927 34.9679 248.235 34.4499Z" fill="white"/>
</g>
<defs>
<filter id="filter0_d_426_80" x="0.670166" y="0.655762" width="312.334" height="73.6968" filterUnits="userSpaceOnUse" color-interpolation-filters="sRGB">
<feFlood flood-opacity="0" result="BackgroundImageFix"/>
<feColorMatrix in="SourceAlpha" type="matrix" values="0 0 0 0 0 0 0 0 0 0 0 0 0 0 0 0 0 0 127 0" result="hardAlpha"/>
<feOffset dy="4"/>
<feGaussianBlur stdDeviation="2"/>
<feComposite in2="hardAlpha" operator="out"/>
<feColorMatrix type="matrix" values="0 0 0 0 0.968627 0 0 0 0 0.494118 0 0 0 0 0 0 0 0 1 0"/>
<feBlend mode="normal" in2="BackgroundImageFix" result="effect1_dropShadow_426_80"/>
<feBlend mode="normal" in="SourceGraphic" in2="effect1_dropShadow_426_80" result="shape"/>
</filter>
<filter id="filter1_d_426_80" x="13.3208" y="19.687" width="256.743" height="29.21" filterUnits="userSpaceOnUse" color-interpolation-filters="sRGB">
<feFlood flood-opacity="0" result="BackgroundImageFix"/>
<feColorMatrix in="SourceAlpha" type="matrix" values="0 0 0 0 0 0 0 0 0 0 0 0 0 0 0 0 0 0 127 0" result="hardAlpha"/>
<feOffset dy="4"/>
<feGaussianBlur stdDeviation="2"/>
<feComposite in2="hardAlpha" operator="out"/>
<feColorMatrix type="matrix" values="0 0 0 0 0 0 0 0 0 0 0 0 0 0 0 0 0 0 0.25 0"/>
<feBlend mode="normal" in2="BackgroundImageFix" result="effect1_dropShadow_426_80"/>
<feBlend mode="normal" in="SourceGraphic" in2="effect1_dropShadow_426_80" result="shape"/>
</filter>
</defs>
</svg>
