<svg width="183" height="67" viewBox="0 0 183 67" fill="none" xmlns="http://www.w3.org/2000/svg">
<g filter="url(#filter0_d_426_172)">
<path d="M4.43474 2.77839C5.62758 0.924886 8.26315 0.574727 10.3351 1.03366C10.9842 1.17147 11.6053 2.94885 12.0786 3.12725C12.9972 3.47872 13.1277 2.39997 14.065 2.9154C14.3758 3.09644 15.4156 5.87199 15.7058 6.00398C17.2611 6.72168 17.8606 5.64039 19.063 5.82222C24.8993 6.77868 28.9631 6.72547 32.9955 6.93663C34.3185 7.00928 36.4698 9.18217 37.2858 7.73312C37.3805 7.56136 36.5701 5.0986 36.5354 4.88652C36.0125 1.63731 37.3545 6.69256 37.8095 7.28567C39.6085 9.62687 40.7939 9.53708 41.4393 8.30744C41.7098 7.77748 39.8254 2.96727 41.0554 5.61665C41.1396 5.79533 41.8381 8.45745 42.0316 8.70649C42.4701 9.26572 42.7869 8.65902 43.0379 8.81137C43.5262 9.11828 43.5771 9.07403 43.9229 9.00179C44.4004 8.92648 45.3606 10.0608 45.6462 9.31563C45.6983 9.16391 44.8621 6.95883 44.7197 6.18619C44.7112 6.10943 44.7104 6.04584 44.7188 5.99856C44.8144 5.46425 45.5471 5.48865 45.9579 6.06054C46.3713 6.63126 46.9291 8.77823 47.1159 9.2527C48.6599 13.2665 47.6428 7.38135 47.7158 7.20929C48.7529 4.32416 51.0805 7.2451 52.5608 6.91629C53.7029 6.65535 54.6951 5.32662 55.7952 5.28523C57.108 5.24697 58.4164 6.58103 59.5544 6.14241C59.6761 6.09924 58.9951 2.85329 59.1454 2.79361C60.7406 2.16335 62.4092 2.30263 64.2851 4.31871C64.4741 4.52376 64.6669 7.42888 64.878 7.8061C66.1621 10.0514 68.3289 15.5726 67.2981 2.95525C67.9971 3.37187 68.8375 3.79109 69.714 6.26028C70.2788 7.84947 70.3079 11.0311 70.5864 9.64158C70.6498 9.33186 70.1861 6.59368 70.3074 6.33729C70.8254 5.25972 71.6206 6.08077 72.08 4.59185C72.1718 4.28261 71.8475 1.81902 71.8313 1.37092C71.7122 -2.2593 72.923 3.63503 73.0768 4.05652C74.2411 7.08003 74.7054 5.95281 75.4464 5.86667C75.4832 5.86252 75.5205 5.85986 75.5582 5.85898C75.8037 5.85478 75.1465 2.56666 75.3821 2.44265C76.6479 1.84173 77.945 2.06005 79.1338 3.50385C79.3927 3.8334 79.2865 6.67733 79.4126 6.98017C79.9435 8.2826 79.8882 2.92015 80.4103 4.0716C80.5173 4.3077 80.5184 6.73826 80.5431 7.00491C80.9087 11.1909 81.0246 5.25415 81.1039 5.12281C82.0252 3.33028 82.6089 9.535 83.4217 8.67651C83.5239 8.56782 83.3305 5.4882 83.621 5.37089C85.558 4.57209 87.526 5.52941 89.1379 8.11236C89.3885 8.50986 89.0506 10.7988 89.0509 11.084C89.0477 15.5408 89.5987 9.61057 89.7055 9.39392C90.5195 7.83809 90.7953 12.8736 91.801 5.84301C94.5634 8.55944 97.8556 4.92564 99.9908 11.5851C100.018 11.6626 99.6354 14.5689 99.6913 14.7109C100.357 16.4511 100.696 11.9028 101.886 6.43662C102.188 5.06435 101.865 11.8036 101.847 12.2984C101.781 14.1215 101.144 18.4364 101.151 18.792C101.219 21.5859 102.793 7.2487 103.315 7.31071C103.329 7.33667 102.957 9.96517 102.971 10.2329C103.01 11.0733 103.268 10.0429 103.295 10.9677C103.357 13.1073 102.653 20.0818 103.582 16.0898C103.702 15.5716 104.561 7.4344 104.979 7.8784C105.145 8.06213 105.975 8.02885 106.139 8.58494C106.304 9.14031 105.841 11.7382 105.843 11.8537C106.041 15.3947 105.646 16.8 105.349 21.9654C105.054 27.1116 106.401 14.9216 106.685 13.5784C106.967 12.239 107.076 15.1534 107.071 16.1609C107.065 17.1687 106.733 18.8146 106.765 19.3895C106.982 23.1467 107.754 13.3806 108.191 11.4747C109.223 6.96172 108.553 16.0441 108.915 16.9885C109.013 17.2435 109.147 15.1727 109.279 14.9942C109.794 14.314 109.739 17.1671 110.519 14.642C110.647 14.2307 111.63 8.84271 111.451 12.8628C111.425 13.4425 111.079 15.6835 111.208 16.2104C111.276 16.492 111.375 16.7432 111.49 16.9171C111.716 17.2335 111.993 17.2983 112.238 16.8367C112.52 16.3062 112.661 12.5617 112.825 13.7499C112.897 14.2805 112.425 16.4239 112.579 17.2393C112.731 18.054 113.335 18.0316 113.574 17.9855C113.808 17.937 114 15.1064 114.039 14.9191C114.268 13.8459 114.871 12.5453 114.91 12.5536C116.94 12.4624 118.172 17.449 120.266 16.1571C120.431 16.0599 120.724 13.085 120.754 13.0396C121.435 11.8746 119.983 19.6863 119.982 22.3721C120.734 16.3577 120.8 17.4762 121.245 16.8703C121.46 16.5734 121.681 14.2342 121.729 13.9984C122.465 10.5047 122.026 15.0931 121.944 16.0329C121.644 19.4905 122.382 15.4624 122.183 17.7737C121.986 20.0678 121.264 23.4044 121.608 23.4117C121.998 21.2767 122.511 15.622 122.895 14.7505C124.349 11.4546 125.531 16.1284 126.242 16.697C126.948 17.2653 127.246 16.9028 127.593 17.7431C128.228 19.2625 128.448 15.0465 129.18 13.2032C129.902 11.3582 128.415 21.601 128.218 23.8195C128.022 26.0371 128.377 23.7749 128.322 25.001C128.267 26.2268 127.887 27.7023 128.049 28.187C128.205 28.6705 129.265 24.8188 129.602 22.5163C130.33 17.6404 130.672 12.4686 131.007 14.3443C131.027 14.4556 130.612 17.1464 130.702 17.4352C131.045 18.5056 131.459 19.1159 131.888 19.6856L131.824 19.6783C132.294 20.2746 132.763 20.8253 133.174 21.8281C133.283 22.1006 132.875 25.1027 132.936 25.2954C133.559 27.3116 133.761 22.1971 134.756 16.5994C133.93 24.103 133.736 28.7277 134.344 28.8395C134.709 28.9094 134.966 25.6208 135.431 23.3343C135.572 22.6452 135.617 24.9279 135.816 23.39C136.471 18.3633 136.778 12.6885 137.202 15.0091C137.219 15.1191 136.856 17.8701 136.937 18.0482C137.459 19.2133 138.047 13.9447 138.806 13.3845C139.4 12.9449 140.011 16.2687 140.575 16.8635C139.693 25.3045 140.459 23.4373 141.297 17.6442C141.659 17.9278 142.132 17.6504 142.427 18.4998C142.529 18.7896 142.184 21.2229 142.172 21.4889C141.986 25.6605 142.756 20.0197 142.865 19.8079C144.02 17.7612 144.298 22.1409 145.645 18.0588C145.693 17.9117 146.393 12.0589 146.157 16.3663C146.139 16.663 145.552 19.2927 145.944 19.5502C146.333 19.8079 146.76 23.0457 147.643 20.4048C147.857 19.7691 148.75 15.0594 148.608 18.8104C148.588 19.3196 148.352 20.9936 148.299 21.9352C148.131 24.9356 148.915 19.03 148.536 24.0842C148.16 29.1387 148.121 32.9555 149.109 29.5638C149.139 29.4653 149.834 24.7946 150.008 24.8929C150.285 25.0539 150.568 26.0841 150.874 26.0943C151.022 26.0977 151.283 23.1746 151.315 23.1248C152.497 21.6269 152.878 24.3176 153.759 25.5879C153.922 25.8269 154.999 21.9426 154.951 25.1293C154.895 28.6174 152.592 42.8244 153.941 39.5576C154.467 38.2492 157.445 20.234 156.809 29.7061C158.446 27.5869 158.902 32.5633 160.696 29.4787C160.777 29.3423 161.782 24.3467 161.915 24.4405C162.108 24.5892 161.831 26.9582 161.949 27.1387C162.445 27.9567 163.349 26.0539 163.9 26.485C164.105 26.6429 163.566 29.0447 163.812 29.2346C164.053 29.4213 164.842 26.2751 164.905 27.8885C164.965 29.1213 163.846 35.6555 163.984 36.4793C165.393 30.1022 165.572 30.2794 166.414 28.7126C166.576 28.4086 167.01 26.1744 167.116 25.9169C167.574 24.8243 167.262 26.689 167.759 25.5023C167.878 25.2171 168.435 23.0582 168.568 22.7045C169.735 19.6171 169.015 24.634 168.811 25.4869C168.156 28.7561 169.194 26.0502 169.036 27.3841C168.821 28.6995 167.932 30.1022 167.854 30.9222C167.724 31.6013 167.763 32.0377 167.375 31.9724C167.422 32.0564 167.715 32.1531 167.774 32.2289C168.212 32.7168 168.589 32.7581 168.75 32.9062C168.869 32.9944 170.072 30.2772 170.118 30.2272C170.937 29.7979 169.539 32.6442 173.045 27.8832C164.715 40.698 174.137 26.8234 173.024 29.8234C172.929 30.0633 168.454 35.731 167.726 36.5072C167.017 37.2963 168.226 35.3822 167.209 36.6892C166.913 36.9579 163.325 42.7035 163.215 43.1176C161.961 46.1028 167.132 36.6085 167.366 36.0621C170.201 30.3143 166.745 36.7545 166.486 37.1943C165.924 37.966 165.393 38.0705 164.785 37.9089C164.598 37.6682 163.667 37.3613 163.52 37.0943C164.203 37.7356 164.543 37.8944 164.683 38.0966C164.85 38.3031 164.833 38.5198 164.725 39.0065C164.427 40.0359 162.194 46.765 162.394 46.6028C162.892 46.0031 164.891 36.2788 162.514 44.5373C162.007 46.2988 160.424 53.8952 161.441 47.8686C161.513 47.4903 162.39 41.9668 161.5 45.3867C161.39 45.8184 160.941 48.0349 160.877 48.2155C160.451 49.3808 160.694 47.5909 160.316 48.3944C159.936 49.1975 159.466 50.416 159.346 49.6115C159.274 49.1303 159.805 44.9415 159.901 43.9096C160.184 40.9383 159.107 45.6963 159.564 42.1206C160.013 38.5253 161.227 33.1608 161.198 30.7805C160.22 36.5767 159.2 42.5231 158.214 48.3518C157.434 48.0027 156.912 45.9874 155.985 46.1012C155.874 46.122 155.52 49.2662 155.39 49.3693C154.851 49.7914 154.724 47.4908 154.1 48.3028C153.606 48.9419 152.71 52.1916 152.193 52.9673C152.845 46.2617 151.908 48.4328 151.538 47.7586C151.406 47.525 151.649 45.7443 151.609 45.1463C151.45 42.9332 150.891 48.8601 150.653 49.7713C149.651 53.6633 151.316 40.3053 150.653 40.5489C150.614 40.5567 149.334 47.6227 149.228 48.0592C148.532 50.9045 149.481 45.5732 149.332 45.0179C149.064 44.0034 148.979 42.2627 148.273 44.2885C148.064 44.8885 147.211 49.2866 147.359 45.8168C147.378 45.3624 147.678 43.0098 147.667 42.8681C147.427 40.5012 146.541 47.9013 145.964 50.3712C145.39 52.8409 145.544 47.6736 145.622 46.1886C145.823 42.3472 145.994 44.5838 146.05 44.2115C146.72 39.7814 146.303 40.5051 146.092 40.0964C146.891 32.8317 146.492 33.2229 145.875 39.7027C145.809 40.4106 146.077 39.7579 146.092 40.0964C145.048 47.1906 144.579 48.0563 144.908 41.3448C145.062 38.1991 145.666 34.5849 144.897 35.8383C144.556 36.4049 144.101 41.4188 143.709 42.7523C142.817 45.7952 142.601 41.0394 141.955 41.706C141.719 41.9478 141.623 44.7108 141.452 44.9705C140.999 45.6685 140.879 43.5724 140.394 44.5805C140.349 44.6753 140.125 47.5524 140.006 47.5751C139.092 47.8031 138.505 45.8743 137.582 45.7157C137.128 45.6394 136.173 47.1304 135.737 46.7591C134.974 46.1315 134.41 41.8487 133.603 42.7843C133.088 43.3833 132.908 46.2653 132.525 48.2001C131.788 51.9512 131.784 45.0867 131.794 44.0249C131.794 43.9897 132.251 43.3557 132.184 41.8589C132.358 38.7745 131.799 44.012 131.794 44.0249C131.797 43.3385 131.086 42.6027 130.879 43.135C130.766 43.4259 130.555 46.1517 130.501 46.252C130.031 47.1126 129.583 47.734 129.155 48.1048C129.087 48.0658 128.837 48.1007 128.77 48.0607C127.96 48.6701 127.24 48.5562 126.59 47.6609C126.577 47.6035 126.963 44.572 126.926 44.4749C126.413 43.0377 125.543 46.6928 124.708 48.8192C123.874 50.9445 123.509 50.1434 123.848 44.8939C123.345 45.4902 123.051 43.1055 122.898 41.6616C122.747 40.2179 121.919 46.1073 121.872 46.2194C120.443 49.8136 120.366 46.3601 119.523 45.6982C119.121 45.3731 118.16 46.1014 117.626 46.6797C117.2 47.146 117.177 45.7337 116.736 46.5698C116.677 46.6814 116.37 49.3128 116.343 49.4119C115.571 52.5009 116.596 46.1083 116.675 44.9513C116.959 40.7438 117.083 38.4989 116.367 40.3944C116.201 40.8283 114.696 50.0296 114.448 50.5452C114.12 51.1976 114.633 47.8954 114.276 48.6628C114.246 48.7255 113.992 50.7713 113.85 50.6597C113.18 50.1681 112.539 48.8713 111.757 48.9779C111.653 48.9848 111.402 52.2498 111.247 52.3135C110.506 52.6081 109.77 52.3936 109.248 50.7875C109.121 50.3821 109.476 48.1186 109.513 47.4381C109.73 43.3202 108.755 49.2234 108.695 49.3309C108.434 49.7844 108.202 50.0073 107.988 50.0754C106.713 50.3876 106.102 46.895 104.637 48.8683C104.544 49.0089 103.181 55.2934 103.556 49.8008C103.579 49.4353 103.969 43.8167 103.287 47.6043C103.245 47.8412 103.073 50.7376 102.819 50.407C102.566 50.0773 101.888 51.9379 101.868 48.7283C101.863 47.7175 102.232 42.11 101.347 46.5028C101.284 46.8094 99.5531 56.7775 100.169 49.8248C100.271 48.6803 101.162 41.3537 100.294 45.0569C100.128 45.775 100.085 47.4295 99.751 48.4227C99.2439 49.9546 99.0393 47.9352 98.2667 51.1509C98.1309 51.7203 97.2715 56.6607 97.4706 52.8533C97.5015 52.2569 97.8504 49.8174 97.7579 49.5277C97.3185 48.1387 96.5261 49.7007 96.1308 47.9344C95.9891 47.3134 96.5296 43.3663 96.4268 42.2783C96.3233 41.1905 95.9916 40.1164 95.5714 41.8997C95.1526 43.684 94.726 50.0271 94.3412 50.4931C92.6828 52.5187 91.6818 48.6596 90.3594 47.9796C90.1655 47.8785 90.1349 50.159 89.839 50.1732C88.7241 50.2314 86.8577 52.2121 86.2917 47.3336C85.8021 43.4224 86.8614 40.5415 86.3884 38.9318C86.1466 38.1631 85.5016 45.5246 85.4359 45.7537C84.7482 48.0796 84.4844 44.79 83.9516 45.773C83.8438 45.9773 83.861 48.9751 83.7738 49.1161C83.4804 49.6243 83.2278 48.2787 82.9676 48.5169C82.8533 48.6308 82.8507 50.9192 82.7558 50.7405C82.5299 50.3396 82.3368 49.3751 82.1022 47.2289C82.0783 47.0334 82.2053 44.1874 82.0244 44.0806C81.7392 43.9159 81.3255 41.8026 81.0963 43.994C81.029 44.6533 81.2349 49.8813 80.9331 46.2754C80.873 45.5223 80.6125 39.2441 80.6818 44.6743C80.6579 45.578 80.9125 52.8974 80.5094 48.1926C80.4003 46.9542 79.9045 41.8324 79.8983 42.6436C79.9026 42.7727 80.1785 45.5718 80.1603 45.8483C80.1309 46.2761 80.0983 46.4439 80.0821 46.5871C79.7934 46.7811 79.5023 46.9438 79.2573 47.4454C79.1366 47.6999 79.6888 50.5692 79.4992 50.8561C78.9681 51.6504 78.1309 50.9926 77.4367 50.1499C77.1815 49.8335 77.0481 47.4229 77.0019 47.1639C76.2493 42.9517 76.7696 48.6899 76.7266 49.0323C76.4436 51.0854 75.7256 48.4411 75.3367 49.2041C75.2294 49.4074 75.6532 52.1243 75.6569 52.3704C75.6797 54.7755 75.2835 49.8561 75.0458 49.3352C74.3756 47.86 73.8744 48.1384 73.4403 48.5413C73.283 48.6932 73.8768 51.8314 73.7324 51.931C72.8797 52.5812 71.9167 52.389 70.8221 50.7562C70.6137 50.4432 70.3822 47.9999 70.2719 47.449C69.4965 43.5956 69.888 48.9362 69.8859 49.4501C69.8588 51.7987 69.4186 49.6685 69.1727 50.1097C67.9674 52.3033 66.0849 51.1334 64.7401 50.4684C63.0206 49.6097 61.4104 47.561 60.4059 48.4391C60.3441 48.4915 61.2512 51.6325 61.2132 51.7171C60.8402 52.4117 60.2465 52.0201 59.8495 52.2021C59.3948 52.3671 58.9661 52.6007 58.5905 52.9769C58.4712 53.0888 59.6172 55.9787 59.4543 56.2584C59.1257 56.8531 58.4857 56.8711 57.7377 56.0619C57.3751 55.6726 56.8863 53.0432 56.5399 52.7026C55.7343 51.9026 55.1372 51.8483 54.7764 52.4709C54.6245 52.7424 55.864 55.6824 55.5936 55.7992C53.7697 56.6569 52.1908 57.6661 49.3873 54.1984C49.1953 53.9601 47.2685 47.8117 47.3792 49.0648C47.8693 50.7839 48.4682 52.7997 49.0036 54.6338C46.9758 56.2846 44.308 54.751 42.5002 55.0034C42.4262 55.0141 43.6747 58.1956 43.5427 58.2309C42.7698 58.4435 42.5535 59.5318 40.7199 56.6103C40.5388 56.3255 38.2683 50.7611 38.4255 51.6791C38.4544 51.8462 38.4945 52.6987 38.9623 53.9183C39.0344 54.1015 40.1977 56.655 40.1646 56.7583C39.9502 57.3155 39.4358 56.8532 38.4357 55.4417C38.2697 55.2103 36.895 52.5561 36.7578 52.3721C35.7388 51.1181 36.7538 53.1583 35.203 50.9295C34.1212 49.4531 31.2822 45.1335 28.2859 41.0183C27.8588 40.4403 27.6307 40.4605 25.9007 38.0587C21.5387 32.0262 16.9903 25.2596 12.335 18.8336C11.3296 17.4494 11.7537 19.4119 9.72481 15.7837C9.58848 15.5401 9.29548 14.0684 8.63155 12.8257C8.17318 11.9652 6.28239 9.612 5.77918 8.4531C5.28543 7.28964 6.92734 9.22465 6.44456 7.79721C5.96415 6.34867 3.92817 3.58388 4.43474 2.77839ZM122.244 35.2092C122.327 32.3341 120.873 42.6936 121.539 40.2623C121.573 40.1325 122.24 35.3504 122.244 35.2092ZM158.089 38.1883C158.423 33.5677 157.158 40.2344 156.881 43.7991C156.593 47.3581 157.983 39.5882 158.089 38.1883ZM162.348 35.5336C162.587 31.8751 159.899 46.4559 160.823 43.5829C160.875 43.4206 162.332 35.7457 162.348 35.5336ZM28.2153 39.3398C28.1395 39.222 27.9251 39.1942 27.9959 39.3137C29.7141 42.184 30.0903 42.269 28.2153 39.3398ZM166.537 32.7591C166.983 30.7997 166.029 32.9329 165.515 35.3768C165.07 37.3327 165.931 35.1794 166.537 32.7591ZM108.347 22.0649C108.36 21.9094 108.202 21.7477 108.105 22.6238C107.793 25.4458 108.128 24.6808 108.347 22.0649ZM170.822 35.2693C170.687 34.3679 177.972 24.5491 178.177 26.5827C178.186 26.9286 175.176 29.1042 174.663 30.1243C173.657 31.9153 179.202 26.6317 176.739 29.9612C176.26 30.5422 170.796 35.3229 170.81 35.2805C170.814 35.2768 170.818 35.273 170.822 35.2693ZM123.76 22.7319C123.773 22.594 123.554 22.4287 123.53 22.5638C122.953 25.8355 123.396 26.1706 123.76 22.7319ZM99.0338 14.3512C99.0527 14.0563 98.5225 13.7149 98.4752 13.983C97.6132 19.3512 98.6656 20.0552 99.0338 14.3512ZM140.561 17.0898C141.167 13.7954 141.524 13.4408 141.296 17.6398C141.061 17.388 140.803 17.3248 140.561 17.0898Z" fill="#E5B80B"/>
</g>
<g filter="url(#filter1_d_426_172)">
<path d="M34.271 24.786C33.599 24.786 33.123 24.716 32.843 24.576C32.563 24.436 32.395 24.268 32.339 24.072C32.283 23.876 32.255 23.708 32.255 23.568C32.255 23.554 32.255 23.547 32.255 23.547C32.255 23.239 32.395 22.945 32.675 22.665C32.955 22.371 33.347 22.168 33.851 22.056C34.271 21.972 34.768 21.888 35.342 21.804C35.93 21.706 36.546 21.622 37.19 21.552C37.848 21.468 38.478 21.405 39.08 21.363C39.682 21.321 40.214 21.3 40.676 21.3C41.292 21.3 41.768 21.391 42.104 21.573C42.44 21.741 42.671 21.937 42.797 22.161C42.937 22.385 43.007 22.574 43.007 22.728C43.007 22.868 42.972 23.008 42.902 23.148C42.832 23.288 42.657 23.428 42.377 23.568C42.111 23.708 41.684 23.841 41.096 23.967C40.508 24.093 39.696 24.212 38.66 24.324C38.562 24.338 38.457 24.352 38.345 24.366C38.247 24.968 38.128 25.689 37.988 26.529C37.848 27.355 37.694 28.223 37.526 29.133C37.372 30.029 37.218 30.89 37.064 31.716C36.924 32.528 36.798 33.221 36.686 33.795C37.26 33.739 37.764 33.697 38.198 33.669C38.646 33.641 38.947 33.627 39.101 33.627C39.591 33.627 39.927 33.732 40.109 33.942C40.291 34.138 40.382 34.397 40.382 34.719C40.382 34.845 40.158 35.041 39.71 35.307C39.262 35.573 38.639 35.86 37.841 36.168C37.057 36.476 36.154 36.749 35.132 36.987C34.46 37.141 33.795 37.26 33.137 37.344C32.479 37.428 32.003 37.47 31.709 37.47C31.135 37.47 30.764 37.365 30.596 37.155C30.442 36.945 30.365 36.679 30.365 36.357C30.365 36.077 30.449 35.79 30.617 35.496C30.799 35.202 31.051 34.992 31.373 34.866C31.709 34.74 32.08 34.621 32.486 34.509C32.892 34.397 33.312 34.299 33.746 34.215C33.774 33.851 33.83 33.368 33.914 32.766C33.998 32.164 34.089 31.506 34.187 30.792C34.299 30.064 34.411 29.329 34.523 28.587C34.649 27.831 34.768 27.124 34.88 26.466C35.006 25.794 35.111 25.213 35.195 24.723C34.789 24.765 34.481 24.786 34.271 24.786ZM52.9151 24.765C53.6851 22.931 54.3641 21.041 54.9521 19.095C55.0641 18.703 55.2251 18.402 55.4351 18.192C55.6591 17.982 55.9671 17.877 56.3591 17.877C56.6811 17.877 56.9261 17.975 57.0941 18.171C57.2621 18.353 57.3461 18.605 57.3461 18.927C57.3461 19.193 57.2341 19.669 57.0101 20.355C56.7861 21.027 56.5131 21.881 56.1911 22.917C55.8691 23.953 55.5471 25.15 55.2251 26.508C54.9031 27.866 54.6301 29.357 54.4061 30.981C54.1821 32.605 54.0701 34.341 54.0701 36.189C54.0701 36.693 53.9721 37.106 53.7761 37.428C53.5941 37.764 53.2721 37.932 52.8101 37.932C52.3061 37.932 51.9351 37.757 51.6971 37.407C51.4731 37.057 51.3611 36.609 51.3611 36.063C51.3611 34.985 51.3961 34.089 51.4661 33.375C51.5501 32.647 51.6341 32.024 51.7181 31.506C51.0321 32.682 50.3041 33.697 49.5341 34.551C48.7781 35.391 48.0501 36.035 47.3501 36.483C46.6501 36.945 46.0481 37.176 45.5441 37.176C44.7181 37.176 44.0461 36.945 43.5281 36.483C43.0101 36.021 42.7511 35.321 42.7511 34.383C42.7511 33.655 42.9261 32.906 43.2761 32.136C43.6261 31.352 44.0881 30.582 44.6621 29.826C45.2361 29.07 45.8661 28.363 46.5521 27.705C47.2521 27.033 47.9521 26.445 48.6521 25.941C49.3521 25.423 50.0031 25.017 50.6051 24.723C51.2071 24.429 51.6971 24.282 52.0751 24.282C52.4951 24.282 52.7751 24.443 52.9151 24.765ZM52.4321 25.899C52.3481 25.955 52.2571 26.011 52.1591 26.067C52.0751 26.109 51.9911 26.158 51.9071 26.214C51.3751 26.55 50.8081 26.956 50.2061 27.432C49.6041 27.894 49.0091 28.412 48.4211 28.986C47.8331 29.546 47.2941 30.134 46.8041 30.75C46.3281 31.352 45.9431 31.954 45.6491 32.556C45.3691 33.144 45.2291 33.711 45.2291 34.257C45.2291 34.355 45.2711 34.425 45.3551 34.467C45.4391 34.509 45.5161 34.53 45.5861 34.53C46.0761 34.53 46.6011 34.313 47.1611 33.879C47.7351 33.445 48.3161 32.843 48.9041 32.073C49.5061 31.289 50.1011 30.372 50.6891 29.322C51.2911 28.272 51.8721 27.131 52.4321 25.899ZM61.3339 36.714C60.4659 36.714 59.7659 36.413 59.2339 35.811C58.7019 35.195 58.4359 34.208 58.4359 32.85C58.4359 31.982 58.5339 31.114 58.7299 30.246C58.9399 29.364 59.2269 28.531 59.5909 27.747C59.9689 26.949 60.4029 26.242 60.8929 25.626C61.3969 25.01 61.9499 24.527 62.5519 24.177C63.1539 23.813 63.7769 23.631 64.4209 23.631C65.5129 23.631 66.3669 23.925 66.9829 24.513C67.5989 25.101 67.9069 25.85 67.9069 26.76C67.9069 27.46 67.7109 28.097 67.3189 28.671C66.9409 29.231 66.4229 29.735 65.7649 30.183C65.1069 30.631 64.3719 31.037 63.5599 31.401C62.7479 31.765 61.9149 32.094 61.0609 32.388C60.9909 32.892 60.9559 33.34 60.9559 33.732C60.9559 33.97 61.0889 34.089 61.3549 34.089C61.9849 34.089 62.6569 33.991 63.3709 33.795C64.0989 33.585 64.8339 33.319 65.5759 32.997C66.3179 32.661 67.0319 32.318 67.7179 31.968C68.4039 31.604 69.0269 31.261 69.5869 30.939C70.1609 30.603 70.6299 30.337 70.9939 30.141C71.3719 29.931 71.6169 29.826 71.7289 29.826C72.0369 29.826 72.2609 29.917 72.4009 30.099C72.5409 30.281 72.6109 30.477 72.6109 30.687C72.6109 30.785 72.4219 31.002 72.0439 31.338C71.6799 31.674 71.1759 32.073 70.5319 32.535C69.9019 32.983 69.1879 33.452 68.3899 33.942C67.6059 34.418 66.7869 34.873 65.9329 35.307C65.0929 35.727 64.2739 36.063 63.4759 36.315C62.6919 36.581 61.9779 36.714 61.3339 36.714ZM61.4179 30.519C61.9919 30.183 62.5589 29.833 63.1189 29.469C63.6929 29.091 64.1689 28.671 64.5469 28.209C64.9249 27.733 65.1139 27.18 65.1139 26.55C65.1139 26.368 65.0649 26.249 64.9669 26.193C64.8689 26.123 64.7289 26.088 64.5469 26.088C64.0569 26.088 63.6089 26.305 63.2029 26.739C62.8109 27.173 62.4609 27.733 62.1529 28.419C61.8589 29.091 61.6139 29.791 61.4179 30.519ZM73.1725 36C72.8365 36 72.5005 35.888 72.1645 35.664C71.8425 35.426 71.5765 35.09 71.3665 34.656C71.1565 34.208 71.0515 33.669 71.0515 33.039C71.0515 32.199 71.1635 31.303 71.3875 30.351C71.6255 29.399 71.9125 28.447 72.2485 27.495C72.5845 26.543 72.9135 25.647 73.2355 24.807C73.3895 24.401 73.5785 24.128 73.8025 23.988C74.0265 23.834 74.3205 23.757 74.6845 23.757C75.5105 23.757 75.9235 24.17 75.9235 24.996C75.9235 25.136 75.8605 25.409 75.7345 25.815C75.6085 26.207 75.4405 26.69 75.2305 27.264C75.0345 27.838 74.8245 28.461 74.6005 29.133C74.3905 29.791 74.1945 30.463 74.0125 31.149C73.8445 31.821 73.7115 32.458 73.6135 33.06C73.9355 32.57 74.2925 31.961 74.6845 31.233C75.0905 30.491 75.5175 29.714 75.9655 28.902C76.4275 28.09 76.8895 27.334 77.3515 26.634C77.8135 25.92 78.2685 25.339 78.7165 24.891C79.1645 24.443 79.5915 24.219 79.9975 24.219C80.3475 24.219 80.6765 24.289 80.9845 24.429C81.3065 24.555 81.5865 24.807 81.8245 25.185C82.0625 25.549 82.2445 26.074 82.3705 26.76C82.5105 27.446 82.5805 28.349 82.5805 29.469C82.5805 30.029 82.6295 30.575 82.7275 31.107C82.8395 31.625 83.0215 32.059 83.2735 32.409C83.5255 32.745 83.8825 32.913 84.3445 32.913C85.1425 32.913 85.8565 32.766 86.4865 32.472C87.1165 32.178 87.6695 31.835 88.1455 31.443C88.6215 31.051 89.0205 30.708 89.3425 30.414C89.5385 30.218 89.7065 30.064 89.8465 29.952C90.0005 29.84 90.1265 29.784 90.2245 29.784C90.5185 29.784 90.7285 29.861 90.8545 30.015C90.9945 30.169 91.0645 30.379 91.0645 30.645C91.0645 30.785 90.9455 31.044 90.7075 31.422C90.4695 31.8 90.1335 32.234 89.6995 32.724C89.2795 33.2 88.7965 33.662 88.2505 34.11C87.7045 34.558 87.1165 34.929 86.4865 35.223C85.8565 35.517 85.2125 35.664 84.5545 35.664C83.4485 35.664 82.5315 35.468 81.8035 35.076C81.0895 34.67 80.5575 33.998 80.2075 33.06C79.8575 32.108 79.6825 30.813 79.6825 29.175C79.6825 29.133 79.6825 29.063 79.6825 28.965C79.6825 28.531 79.6755 28.146 79.6615 27.81C79.6615 27.474 79.6405 27.201 79.5985 26.991C79.3605 27.425 79.0735 27.943 78.7375 28.545C78.4155 29.147 78.0655 29.791 77.6875 30.477C77.3095 31.149 76.9175 31.814 76.5115 32.472C76.1055 33.116 75.6995 33.704 75.2935 34.236C74.9015 34.768 74.5235 35.195 74.1595 35.517C73.7955 35.839 73.4665 36 73.1725 36ZM104.617 25.416C104.617 25.584 104.561 25.731 104.449 25.857C104.337 25.983 104.197 26.081 104.029 26.151C103.791 26.249 103.378 26.375 102.79 26.529C102.202 26.683 101.488 26.858 100.648 27.054C99.8217 27.25 98.9327 27.453 97.9807 27.663C97.0287 27.859 96.0767 28.048 95.1247 28.23C94.7607 29.574 94.3897 30.96 94.0117 32.388C93.6337 33.802 93.2557 35.195 92.8777 36.567C92.7377 37.057 92.5697 37.428 92.3737 37.68C92.1777 37.946 91.8417 38.079 91.3657 38.079C90.8477 38.079 90.4977 37.911 90.3157 37.575C90.1477 37.253 90.1267 36.812 90.2527 36.252C90.6167 34.726 90.9527 33.305 91.2607 31.989C91.5827 30.673 91.8417 29.609 92.0377 28.797C91.1977 28.937 90.4627 29.049 89.8327 29.133C89.2027 29.203 88.7547 29.231 88.4887 29.217C88.1947 29.189 87.9497 29.07 87.7537 28.86C87.5577 28.65 87.4667 28.391 87.4807 28.083C87.5087 27.803 87.6347 27.565 87.8587 27.369C88.0827 27.159 88.3487 27.033 88.6567 26.991C89.0907 26.949 89.6507 26.886 90.3367 26.802C91.0227 26.718 91.7787 26.62 92.6047 26.508C92.7867 25.794 92.9967 25.059 93.2347 24.303C93.4727 23.533 93.7177 22.798 93.9697 22.098C94.2357 21.384 94.4877 20.761 94.7257 20.229C94.9637 19.697 95.1807 19.312 95.3767 19.074C95.5307 18.892 95.7197 18.752 95.9437 18.654C96.1817 18.556 96.4127 18.507 96.6367 18.507C96.9307 18.507 97.1687 18.612 97.3507 18.822C97.5327 19.032 97.6237 19.277 97.6237 19.557C97.6237 19.669 97.6167 19.788 97.6027 19.914C97.5887 20.026 97.5607 20.138 97.5187 20.25C97.2527 20.95 96.9657 21.797 96.6577 22.791C96.3637 23.785 96.0557 24.877 95.7337 26.067C96.7837 25.913 97.8127 25.759 98.8207 25.605C99.8427 25.437 100.767 25.283 101.593 25.143C102.433 24.989 103.105 24.856 103.609 24.744C103.889 24.646 104.127 24.667 104.323 24.807C104.519 24.933 104.617 25.136 104.617 25.416ZM104.499 36.924C103.729 36.924 103.043 36.714 102.441 36.294C101.839 35.888 101.363 35.314 101.013 34.572C100.677 33.83 100.509 32.962 100.509 31.968C100.509 30.904 100.635 29.868 100.887 28.86C101.139 27.838 101.461 26.921 101.853 26.109C102.245 25.283 102.637 24.632 103.029 24.156C103.435 23.666 103.785 23.421 104.079 23.421C104.387 23.421 104.639 23.512 104.835 23.694C105.045 23.876 105.15 24.149 105.15 24.513C105.15 24.569 105.087 24.772 104.961 25.122C104.849 25.458 104.702 25.892 104.52 26.424C104.338 26.942 104.156 27.523 103.974 28.167C103.792 28.797 103.638 29.441 103.512 30.099C103.4 30.757 103.344 31.387 103.344 31.989C103.344 32.717 103.456 33.298 103.68 33.732C103.904 34.166 104.387 34.383 105.129 34.383C105.885 34.383 106.62 34.166 107.334 33.732C108.062 33.298 108.762 32.717 109.434 31.989C110.106 31.247 110.75 30.421 111.366 29.511C110.638 29.567 109.952 29.595 109.308 29.595C108.874 29.595 108.559 29.553 108.363 29.469C108.167 29.371 108.041 29.245 107.985 29.091C107.943 28.937 107.922 28.755 107.922 28.545C107.922 28.251 108.055 27.985 108.321 27.747C108.587 27.509 108.881 27.383 109.203 27.369C109.805 27.327 110.414 27.278 111.03 27.222C111.66 27.166 112.283 27.103 112.899 27.033C113.361 26.207 113.788 25.388 114.18 24.576C114.586 23.75 114.957 22.973 115.293 22.245C115.615 21.335 115.958 20.495 116.322 19.725C116.7 18.941 117.064 18.311 117.414 17.835C117.764 17.359 118.093 17.121 118.401 17.121C118.765 17.121 119.038 17.219 119.22 17.415C119.416 17.611 119.514 17.87 119.514 18.192C119.514 18.29 119.444 18.577 119.304 19.053C119.164 19.529 118.968 20.145 118.716 20.901C118.478 21.657 118.205 22.511 117.897 23.463C117.603 24.401 117.288 25.395 116.952 26.445C118.282 26.221 119.493 26.004 120.585 25.794C121.691 25.584 122.594 25.409 123.294 25.269C123.994 25.129 124.414 25.059 124.554 25.059C124.834 25.059 125.065 25.192 125.247 25.458C125.429 25.71 125.52 25.955 125.52 26.193C125.52 26.333 125.261 26.515 124.743 26.739C124.239 26.963 123.546 27.208 122.664 27.474C121.796 27.726 120.802 27.985 119.682 28.251C118.576 28.503 117.414 28.727 116.196 28.923C115.86 30.029 115.538 31.114 115.23 32.178C114.936 33.228 114.684 34.201 114.474 35.097C114.376 35.489 114.215 35.79 113.991 36C113.781 36.196 113.494 36.294 113.13 36.294C112.752 36.294 112.472 36.203 112.29 36.021C112.108 35.853 112.017 35.545 112.017 35.097C112.017 35.055 112.059 34.824 112.143 34.404C112.241 33.97 112.36 33.438 112.5 32.808C112.654 32.164 112.801 31.506 112.941 30.834C112.115 31.982 111.24 33.018 110.316 33.942C109.392 34.866 108.44 35.594 107.46 36.126C106.48 36.658 105.493 36.924 104.499 36.924ZM104.562 21.972C104.1 21.972 103.722 21.832 103.428 21.552C103.134 21.258 102.987 20.915 102.987 20.523C102.987 20.047 103.162 19.641 103.512 19.305C103.876 18.969 104.303 18.801 104.793 18.801C105.339 18.801 105.752 18.948 106.032 19.242C106.326 19.536 106.473 19.928 106.473 20.418C106.473 20.768 106.291 21.118 105.927 21.468C105.563 21.804 105.108 21.972 104.562 21.972ZM124.334 43.775C123.55 43.775 122.836 43.726 122.192 43.628C121.548 43.544 120.918 43.404 120.302 43.208C119.686 43.012 119.021 42.753 118.307 42.431C118.013 42.291 117.768 42.144 117.572 41.99C117.376 41.836 117.278 41.605 117.278 41.297C117.278 40.849 117.418 40.506 117.698 40.268C117.964 40.044 118.335 39.932 118.811 39.932C119.063 39.932 119.385 40.016 119.777 40.184C120.169 40.366 120.617 40.569 121.121 40.793C121.639 41.031 122.213 41.234 122.843 41.402C123.473 41.584 124.152 41.675 124.88 41.675C125.622 41.675 126.315 41.367 126.959 40.751C127.603 40.135 128.121 39.267 128.513 38.147C128.919 37.041 129.122 35.732 129.122 34.22C129.122 33.87 129.115 33.492 129.101 33.086C129.087 32.666 129.073 32.225 129.059 31.763C128.555 32.715 128.009 33.604 127.421 34.43C126.833 35.256 126.224 35.928 125.594 36.446C124.978 36.95 124.355 37.202 123.725 37.202C122.955 37.202 122.395 37.02 122.045 36.656C121.709 36.278 121.541 35.683 121.541 34.871C121.541 34.185 121.59 33.436 121.688 32.624C121.8 31.798 121.947 30.965 122.129 30.125C122.311 29.285 122.521 28.487 122.759 27.731C123.011 26.961 123.277 26.296 123.557 25.736C123.767 25.33 124.089 25.127 124.523 25.127C124.803 25.127 125.083 25.26 125.363 25.526C125.657 25.792 125.804 26.149 125.804 26.597C125.804 26.849 125.741 27.213 125.615 27.689C125.489 28.165 125.335 28.704 125.153 29.306C124.985 29.894 124.81 30.517 124.628 31.175C124.446 31.819 124.292 32.456 124.166 33.086C124.04 33.702 123.977 34.262 123.977 34.766C123.977 34.822 124.019 34.85 124.103 34.85C124.271 34.85 124.495 34.71 124.775 34.43C125.069 34.136 125.391 33.758 125.741 33.296C126.105 32.82 126.469 32.302 126.833 31.742C127.211 31.168 127.575 30.601 127.925 30.041C128.275 29.481 128.59 28.97 128.87 28.508C128.828 28.284 128.8 28.088 128.786 27.92C128.786 27.738 128.786 27.584 128.786 27.458C128.786 26.884 128.884 26.408 129.08 26.03C129.29 25.652 129.696 25.463 130.298 25.463C130.69 25.463 130.991 25.61 131.201 25.904C131.411 26.184 131.516 26.583 131.516 27.101C131.516 27.325 131.481 27.584 131.411 27.878C131.341 28.158 131.201 28.606 130.991 29.222L131.222 28.571C131.348 29.831 131.453 30.951 131.537 31.931C131.635 32.911 131.684 33.884 131.684 34.85C131.684 36.67 131.376 38.245 130.76 39.575C130.158 40.919 129.304 41.955 128.198 42.683C127.106 43.411 125.818 43.775 124.334 43.775Z" fill="#0E0E0E"/>
</g>
<defs>
<filter id="filter0_d_426_172" x="0.354492" y="0.194824" width="181.823" height="66.4099" filterUnits="userSpaceOnUse" color-interpolation-filters="sRGB">
<feFlood flood-opacity="0" result="BackgroundImageFix"/>
<feColorMatrix in="SourceAlpha" type="matrix" values="0 0 0 0 0 0 0 0 0 0 0 0 0 0 0 0 0 0 127 0" result="hardAlpha"/>
<feOffset dy="4"/>
<feGaussianBlur stdDeviation="2"/>
<feComposite in2="hardAlpha" operator="out"/>
<feColorMatrix type="matrix" values="0 0 0 0 0 0 0 0 0 0 0 0 0 0 0 0 0 0 0.25 0"/>
<feBlend mode="normal" in2="BackgroundImageFix" result="effect1_dropShadow_426_172"/>
<feBlend mode="normal" in="SourceGraphic" in2="effect1_dropShadow_426_172" result="shape"/>
</filter>
<filter id="filter1_d_426_172" x="26.3652" y="17.1211" width="109.319" height="34.6538" filterUnits="userSpaceOnUse" color-interpolation-filters="sRGB">
<feFlood flood-opacity="0" result="BackgroundImageFix"/>
<feColorMatrix in="SourceAlpha" type="matrix" values="0 0 0 0 0 0 0 0 0 0 0 0 0 0 0 0 0 0 127 0" result="hardAlpha"/>
<feOffset dy="4"/>
<feGaussianBlur stdDeviation="2"/>
<feComposite in2="hardAlpha" operator="out"/>
<feColorMatrix type="matrix" values="0 0 0 0 0 0 0 0 0 0 0 0 0 0 0 0 0 0 0.25 0"/>
<feBlend mode="normal" in2="BackgroundImageFix" result="effect1_dropShadow_426_172"/>
<feBlend mode="normal" in="SourceGraphic" in2="effect1_dropShadow_426_172" result="shape"/>
</filter>
</defs>
</svg>
