<svg width="198" height="68" viewBox="0 0 198 68" fill="none" xmlns="http://www.w3.org/2000/svg">
<g filter="url(#filter0_d_426_213)">
<path d="M4.62537 3.25352C5.89625 1.36935 8.62965 1.00696 10.7759 1.46176C11.4485 1.5982 12.0547 3.39369 12.5442 3.57166C13.4951 3.92195 13.6559 2.8303 14.6251 3.34606C14.9465 3.52727 15.9689 6.32875 16.2704 6.46027C17.8854 7.17556 18.5461 6.0767 19.8115 6.25172C25.9617 7.17231 30.3515 7.07908 34.7263 7.25039C36.1625 7.30979 38.4539 9.47717 39.3866 8.00535C39.4949 7.83092 38.6738 5.35636 38.6415 5.14283C38.1564 1.87137 39.4899 6.95477 39.9723 7.54748C41.8804 9.88696 43.1845 9.7806 43.9316 8.52929C44.2452 7.99009 42.3118 3.16084 43.5889 5.81765C43.6764 5.99681 44.3667 8.67475 44.5724 8.92332C45.0388 9.48151 45.4067 8.86356 45.679 9.01342C46.2084 9.31555 46.2654 9.27013 46.6501 9.19107C47.1798 9.10678 48.2043 10.2367 48.5448 9.47726C48.5628 9.43331 48.5068 9.22306 48.4145 8.92667C48.1562 8.07684 47.5724 6.53001 47.657 6.13056C47.7716 5.59128 48.5518 5.61266 48.9793 6.18658C49.409 6.75942 49.9591 8.91928 50.1487 9.39627C51.7149 13.4311 50.7583 7.50774 50.8367 7.33516C52.0074 4.42644 54.4489 7.3583 56.0582 7.0231C57.2972 6.75785 58.3919 5.42185 59.5849 5.37932C61.009 5.33967 62.415 6.67777 63.6616 6.23754C63.7951 6.1942 63.0927 2.93774 63.2573 2.87786C64.9979 2.24644 66.8185 2.38754 68.8516 4.41132C69.0566 4.61714 69.2386 7.53026 69.4651 7.90887C70.8492 10.1616 73.1802 15.6995 72.1658 3.04889C72.9294 3.46768 73.8466 3.88964 74.7899 6.36627C75.3937 7.96064 75.3995 11.1497 75.7183 9.75742C75.791 9.44706 75.3049 6.70146 75.4408 6.44467C76.021 5.36539 76.8885 6.19001 77.4047 4.69875C77.5085 4.38898 77.1722 1.91897 77.1583 1.46979C77.0586 -2.16921 78.3387 3.74168 78.5058 4.16436C79.7266 7.10703 80.2513 6.13208 81.0289 5.99404C81.0984 5.98307 81.1693 5.97624 81.2418 5.97514C81.5043 5.97275 80.8214 2.67376 81.0728 2.55137C82.4165 1.95993 83.8038 2.19034 85.0801 3.64822C85.3593 3.98084 85.2457 6.82726 85.382 7.13177C85.9581 8.44128 85.8956 3.07167 86.4563 4.23031C86.5724 4.46789 86.5787 6.9014 86.6059 7.16865C87.0125 11.3638 87.125 5.42128 87.2097 5.29071C88.1972 3.50679 88.8589 9.72644 89.7442 8.87797C89.855 8.77053 89.6259 5.68439 89.9413 5.57086C92.0421 4.79732 94.1903 5.78642 95.987 8.40181C96.2663 8.80435 95.9237 11.0914 95.9274 11.3772C95.9787 15.8419 96.5109 9.91078 96.6248 9.6956C97.4955 8.15115 97.8673 13.2017 98.8735 6.17573C101.939 8.94871 105.49 5.373 107.958 12.0963C107.99 12.1746 107.621 15.0806 107.685 15.2242C108.45 16.9836 108.74 12.4303 109.948 6.97445C110.254 5.60478 110.025 12.3561 110.014 12.8519C109.976 14.6788 109.356 18.9921 109.37 19.3488C109.498 22.1522 110.961 7.80855 111.536 7.88212C111.551 7.90845 111.192 10.5364 111.212 10.8052C111.273 11.649 111.535 10.6212 111.584 11.5493C111.692 13.6964 111.05 20.6756 111.998 16.6928C112.12 16.1757 112.909 8.03368 113.379 8.48823C113.564 8.67607 114.478 8.66133 114.67 9.22267C114.862 9.78333 114.402 12.3786 114.407 12.4945C114.694 16.0505 114.287 17.4512 114.059 22.6253C113.835 27.7802 115.082 15.584 115.368 14.2432C115.653 12.906 115.832 15.8318 115.846 16.8421C115.858 17.8527 115.524 19.4961 115.571 20.0734C115.882 23.8464 116.544 14.0687 116.988 12.1669C118.041 7.66399 117.476 16.7578 117.896 17.7133C118.008 17.9711 118.116 15.8972 118.258 15.7212C118.813 15.0502 118.809 17.9106 119.621 15.3953C119.753 14.9855 120.74 9.60434 120.617 13.6316C120.6 14.2123 120.26 16.4521 120.411 16.9831C120.485 17.2437 120.588 17.4792 120.705 17.6528C120.965 18.0126 121.287 18.1118 121.56 17.6333C121.861 17.1074 121.948 13.3558 122.151 14.5509C122.24 15.0844 121.76 17.2236 121.944 18.0444C122.124 18.8645 122.792 18.8555 123.052 18.8142C123.31 18.7708 123.468 15.9364 123.508 15.7494C123.739 14.6781 124.38 13.3872 124.422 13.3963C126.651 13.3488 128.104 18.3787 130.382 17.1316C130.563 17.0382 130.822 14.0599 130.854 14.0152C131.578 12.862 130.145 20.6661 130.201 23.361C130.901 17.3439 130.998 18.4679 131.475 17.8703C131.705 17.5774 131.898 15.2354 131.946 15C132.682 11.5118 132.295 16.1055 132.226 17.0466C131.971 20.5091 132.696 16.4845 132.527 18.7991C132.36 21.0966 131.636 24.4276 132.016 24.4432C132.398 22.31 132.842 16.6478 133.246 15.7824C134.774 12.5096 136.182 17.2285 136.979 17.816C137.771 18.403 138.093 18.0464 138.494 18.8976C139.227 20.4368 139.381 16.212 140.154 14.3802C140.915 12.5461 139.48 22.7867 139.307 25.0076C139.136 27.2276 139.483 24.9665 139.446 26.1951C139.41 27.4234 139.021 28.8949 139.208 29.3846C139.39 29.873 140.481 26.0333 140.808 23.7316C141.516 18.8575 141.791 13.6779 142.2 15.567C142.223 15.679 141.819 18.3686 141.923 18.6601C142.32 19.7308 142.783 20.3503 143.262 20.9261L143.199 20.9184C143.732 21.5322 144.264 22.0948 144.738 23.118C144.863 23.3934 144.465 26.3944 144.534 26.5888C145.257 28.6228 145.393 23.4999 146.394 17.9089C145.611 25.414 145.476 30.0461 146.149 30.1708C146.553 30.2484 146.78 26.9569 147.253 24.6744C147.397 23.9866 147.486 26.2758 147.679 24.7383C148.315 19.7125 148.555 14.0299 149.062 16.3651C149.083 16.4757 148.73 19.2261 148.823 19.4063C149.418 20.5852 149.975 15.3155 150.801 14.7697C151.447 14.3412 152.179 17.6864 152.81 18.2945C151.988 26.739 152.8 24.8831 153.62 19.0926C154.023 19.3845 154.539 19.1164 154.88 19.9744C154.997 20.2672 154.661 22.6996 154.653 22.966C154.523 27.1449 155.27 21.5053 155.386 21.2953C156.621 19.2678 157.008 23.6654 158.417 19.6012C158.467 19.4547 159.129 13.6008 158.948 17.915C158.934 18.2122 158.337 20.8365 158.773 21.1032C159.207 21.37 159.738 24.6264 160.661 21.9973C160.884 21.3645 161.778 16.6608 161.694 20.4195C161.681 20.9298 161.454 22.6035 161.413 23.5466C161.286 26.552 162.036 20.6465 161.716 25.7072C161.399 30.7681 161.432 34.5956 162.454 31.216C162.486 31.1179 163.161 26.4487 163.353 26.5512C163.662 26.7189 163.995 27.7588 164.332 27.7759C164.495 27.7827 164.725 24.8565 164.759 24.8073C166.031 23.3315 166.504 26.0393 167.502 27.3343C167.687 27.5778 168.792 23.7058 168.806 26.9021C168.819 30.4007 166.582 44.6013 168.004 41.3563C168.559 40.0565 171.444 22.0485 170.954 31.5395C172.71 29.4524 173.33 34.4598 175.236 31.4094C175.32 31.2742 176.305 26.2833 176.452 26.3808C176.668 26.5351 176.423 28.9074 176.557 29.0918C177.124 29.9265 178.069 28.0388 178.685 28.487C178.915 28.6513 178.389 31.0509 178.664 31.2484C178.935 31.4431 179.715 28.3021 179.828 29.9259C179.929 31.1674 178.898 37.7094 179.083 38.5445C180.433 32.168 180.641 32.3528 181.512 30.8003C181.68 30.4992 182.082 28.2619 182.19 28.0058C182.653 26.9186 182.377 28.7887 182.874 27.6065C182.994 27.3227 183.529 25.1639 183.661 24.8113C184.823 21.7333 184.194 26.7645 184.009 27.6209C183.412 30.8984 184.443 28.2015 184.314 29.5413C184.141 30.8675 183.236 32.2561 183.199 33.0889C183.1 33.7943 183.184 34.249 182.815 34.1932C182.865 34.2753 183.152 34.376 183.214 34.4495C183.686 34.9384 184.093 34.9993 184.286 35.1612C184.429 35.261 185.578 32.534 185.626 32.4856C186.481 32.0776 185.168 34.9533 188.619 30.2012C180.523 43.0508 189.718 29.1557 188.707 32.2021C188.619 32.4455 184.241 38.1239 183.51 38.888C182.798 39.6658 183.951 37.7302 182.931 39.0228C182.634 39.2875 179.106 45.0193 178.997 45.4307C177.751 48.3965 182.765 38.8884 182.99 38.3405C185.715 32.5748 182.305 38.9966 182.03 39.4262C181.465 40.1596 180.922 40.2647 180.312 40.107C180.116 39.8748 179.211 39.5567 179.052 39.2973C179.74 39.9493 180.053 40.0888 180.182 40.2833C180.333 40.4792 180.298 40.686 180.174 41.1752C179.845 42.1882 177.698 48.9202 177.858 48.7458C178.239 48.1125 180.12 38.3827 177.741 46.6169C177.235 48.3737 175.743 55.9748 176.638 49.931C176.701 49.5512 177.485 44.0161 176.599 47.4288C176.49 47.8596 176.061 50.0762 175.994 50.2556C175.548 51.4129 175.759 49.6186 175.356 50.4139C174.949 51.2083 174.457 52.4182 174.293 51.6044C174.193 51.1174 174.664 46.922 174.741 45.8874C174.97 42.9087 173.901 47.659 174.312 44.0788C174.714 40.4788 175.916 35.1223 175.822 32.7301C174.891 38.5266 173.917 44.4727 172.977 50.3015C172.091 49.927 171.455 47.8879 170.427 47.9775C170.304 47.9954 169.987 51.1431 169.845 51.2431C169.253 51.6523 169.057 49.3392 168.381 50.1381C167.846 50.7668 166.926 54.0058 166.368 54.771C166.938 48.0571 165.947 50.2128 165.522 49.527C165.37 49.2892 165.6 47.5084 165.543 46.9073C165.318 44.6827 164.827 50.6163 164.583 51.5249C163.555 55.4056 165.113 42.0427 164.385 42.2715C164.342 42.2784 163.073 49.3371 162.965 49.7725C162.252 52.6104 163.192 47.2843 163.016 46.7237C162.697 45.6996 162.567 43.9513 161.827 45.967C161.608 46.564 160.753 50.9559 160.846 47.4787C160.858 47.0234 161.143 44.6704 161.127 44.5281C160.815 42.1484 159.983 49.5507 159.394 52.0148C158.806 54.4787 158.873 49.2992 158.93 47.8116C159.077 43.9633 159.31 46.2105 159.365 45.8384C160.018 41.4102 159.571 42.1266 159.33 41.7119C160.07 34.4437 159.637 34.8271 159.082 41.3121C159.023 42.0206 159.306 41.372 159.33 41.7119C158.315 48.8035 157.811 49.661 158.045 42.9372C158.154 39.7858 158.752 36.1746 157.927 37.4145C157.561 37.9751 157.154 42.9933 156.745 44.3218C155.817 47.3535 155.487 42.5794 154.786 43.2337C154.53 43.4709 154.476 46.2395 154.291 46.4961C153.803 47.1861 153.632 45.0816 153.113 46.0818C153.066 46.1759 152.872 49.056 152.74 49.0761C151.733 49.2847 151.047 47.3378 150.024 47.1589C149.521 47.0725 148.49 48.5469 148.002 48.1653C147.147 47.5198 146.447 43.214 145.572 44.135C145.013 44.7247 144.864 47.6102 144.474 49.5418C143.724 53.2868 143.601 46.405 143.593 45.3407C143.593 45.3056 144.087 44.6794 143.988 43.1776C144.127 40.0891 143.599 45.328 143.593 45.3407C143.585 44.6528 142.786 43.9003 142.566 44.4296C142.447 44.7189 142.26 47.447 142.202 47.5464C141.691 48.4097 141.2 49.0278 140.728 49.3888C140.66 49.3522 140.417 49.3798 140.349 49.3422C139.482 49.9221 138.7 49.7887 137.978 48.8837C137.962 48.8257 138.328 45.7938 138.286 45.6956C137.699 44.2436 136.815 47.8906 135.945 50.0056C135.074 52.1194 134.662 51.3082 134.929 46.05C134.39 46.637 134.021 44.2383 133.825 42.7862C133.629 41.3344 132.843 47.2244 132.794 47.3357C131.302 50.9094 131.146 47.4425 130.202 46.7582C129.752 46.4223 128.708 47.1298 128.129 47.6969C127.667 48.1543 127.611 46.7364 127.14 47.5644C127.077 47.675 126.794 50.3081 126.767 50.4069C125.979 53.4877 126.974 47.0978 127.036 45.9387C127.258 41.7233 127.347 39.4737 126.593 41.358C126.42 41.7894 124.948 50.9852 124.683 51.4964C124.332 52.1427 124.832 48.8422 124.45 49.603C124.418 49.6652 124.18 51.7117 124.018 51.5962C123.261 51.086 122.517 49.769 121.648 49.8571C121.533 49.8616 121.321 53.1308 121.149 53.1909C120.327 53.4683 119.504 53.2359 118.889 51.6128C118.741 51.2034 119.091 48.9414 119.119 48.2598C119.281 44.1351 118.31 50.0327 118.246 50.1393C117.949 50.6114 117.684 50.8284 117.438 50.8785C116.084 51.0859 115.35 47.6644 113.795 49.5914C113.696 49.7304 112.316 56.0033 112.624 50.5031C112.643 50.137 112.964 44.5106 112.287 48.2942C112.245 48.5309 112.112 51.4321 111.825 51.0949C111.539 50.7583 110.83 52.6096 110.745 49.39C110.718 48.3758 111.016 42.76 110.126 47.146C110.064 47.4522 108.346 57.4108 108.89 50.4512C108.98 49.3056 109.82 41.9773 108.934 45.6719C108.764 46.3883 108.75 48.0468 108.4 49.0354C107.868 50.5601 107.603 48.5302 106.81 51.7376C106.67 52.3056 105.815 57.2409 105.96 53.4267C105.983 52.8293 106.322 50.3905 106.213 50.0979C105.698 48.6944 104.85 50.2429 104.374 48.4622C104.205 47.8362 104.729 43.89 104.594 42.7965C104.458 41.7033 104.069 40.6186 103.636 42.3974C103.205 44.1771 102.851 50.5285 102.431 50.9869C100.619 52.9797 99.4233 49.0868 97.9268 48.3758C97.7069 48.2701 97.7128 50.5555 97.3796 50.5631C96.1287 50.5965 94.0339 52.5399 93.3172 47.6408C92.7068 43.7125 93.8712 40.8474 93.3148 39.2255C93.0329 38.4508 92.3933 45.8127 92.3196 46.0409C91.5598 48.3572 91.2178 45.0572 90.6144 46.0322C90.4915 46.2348 90.5405 49.2374 90.4402 49.3769C90.1014 49.8805 89.7948 48.5286 89.4892 48.7628C89.355 48.8749 89.3673 51.1662 89.2526 50.9857C88.9795 50.5805 88.7422 49.6118 88.4535 47.4597C88.4246 47.2636 88.5659 44.416 88.3513 44.3066C88.0133 44.1377 87.5216 42.0169 87.2391 44.209C87.1554 44.8685 87.3793 50.1052 87.0236 46.4922C86.9513 45.7378 86.6833 39.4485 86.7218 44.8873C86.6929 45.7919 86.8885 53.1258 86.4291 48.4128C86.3056 47.1722 85.7694 42.0395 85.7425 42.8531C85.7439 42.9826 86.0389 45.7877 86.0021 46.0655C85.9356 46.5301 85.8635 46.6915 85.8127 46.8468C85.5133 47.025 85.2147 47.1982 84.9577 47.6659C84.8216 47.9209 85.4081 50.7978 85.1952 51.0851C84.6015 51.8802 83.6791 51.2196 82.9158 50.3741C82.6355 50.0567 82.5106 47.6401 82.4617 47.3804C81.6687 43.1568 82.1907 48.9097 82.1394 49.2529C81.8037 51.3109 81.0352 48.6591 80.5937 49.4239C80.4722 49.6276 80.9155 52.3518 80.9171 52.5984C80.9175 55.0097 80.526 50.0777 80.2702 49.555C79.5388 48.0757 78.9811 48.3543 78.4914 48.7585C78.3142 48.9108 78.9409 52.0574 78.7786 52.1573C77.8204 52.8094 76.7471 52.6173 75.5397 50.9816C75.3133 50.6677 75.0853 48.2175 74.9696 47.665C74.154 43.8009 74.5187 49.1576 74.5083 49.6733C74.4463 52.0292 73.9805 49.8934 73.6973 50.3369C72.309 52.5413 70.187 51.3787 68.6582 50.7254C66.6997 49.8821 64.903 47.8443 63.6736 48.7626C63.5978 48.8175 64.52 51.9719 64.47 52.059C63.9693 52.7915 63.24 52.3942 62.7268 52.6327C62.2639 52.8013 61.8253 53.0353 61.4334 53.398C61.3023 53.512 62.4687 56.4158 62.287 56.6993C61.92 57.3019 61.2294 57.3261 60.4407 56.5173C60.0582 56.1283 59.5926 53.4816 59.2262 53.1415C58.3733 52.343 57.7278 52.2943 57.3198 52.9262C57.1482 53.2016 58.4212 56.1535 58.1248 56.2741C56.1235 57.158 54.3678 58.1949 51.3776 54.7347C51.1727 54.4969 49.2297 48.3176 49.3147 49.5811C49.8043 51.3096 50.4049 53.336 50.9411 55.18C48.6497 56.8777 45.7157 55.3795 43.6402 55.6936C43.5549 55.707 44.8227 58.9042 44.6686 58.9448C43.7687 59.1883 43.4275 60.3185 41.4678 57.4157C41.2742 57.1328 39.0148 51.5242 39.1342 52.4605C39.1564 52.6308 39.14 53.5076 39.5921 54.742C39.662 54.9274 40.8327 57.4977 40.7815 57.6082C40.4615 58.2067 39.839 57.7854 38.7419 56.4073C38.5602 56.1812 37.2074 53.4929 37.0591 53.3123C35.9621 52.0819 36.8879 54.1895 35.2711 51.9777C34.1454 50.5121 31.3333 46.1297 28.321 41.9772C27.8916 41.3939 27.6352 41.4298 25.9089 38.9981C21.5561 32.8899 17.0358 26.0317 12.3887 19.5261C11.385 18.1246 11.7674 20.1236 9.76843 16.4419C9.63412 16.1947 9.37172 14.6969 8.71734 13.4371C8.26557 12.5648 6.37125 10.1839 5.88026 9.00867C5.39878 7.82897 7.04717 9.78577 6.58337 8.33809C6.12209 6.86936 4.08485 4.07255 4.62537 3.25352ZM132.971 36.2971C133.001 33.4141 131.623 43.7751 132.303 41.351C132.338 41.2216 132.97 36.4387 132.971 36.2971ZM172.569 40.0876C172.825 35.4564 171.586 42.1175 171.366 45.6897C171.136 49.2563 172.486 41.4906 172.569 40.0876ZM177.225 37.5396C177.385 33.8682 174.817 48.448 175.767 45.5883C175.821 45.4267 177.214 37.7525 177.225 37.5396ZM28.37 40.2216C28.294 40.1027 28.0585 40.0843 28.1285 40.2054C29.8294 43.114 30.2481 43.1794 28.37 40.2216ZM181.809 34.89C182.214 32.9244 181.245 35.0445 180.775 37.4943C180.363 39.4541 181.252 37.3178 181.809 34.89ZM117.367 22.7918C117.378 22.6361 117.201 22.4705 117.111 23.347C116.822 26.1703 117.175 25.4104 117.367 22.7918ZM186.748 37.7939C186.522 36.8179 193.598 26.9457 193.922 29.0613C193.952 29.422 190.929 31.5536 190.453 32.5934C189.511 34.4194 194.993 29.1548 192.619 32.5228C192.156 33.1105 186.727 37.8516 186.735 37.805C186.74 37.8013 186.744 37.7976 186.748 37.7939ZM134.373 23.8126C134.383 23.6745 134.138 23.5034 134.115 23.6383C133.55 26.9077 134.046 27.2546 134.373 23.8126ZM106.955 14.8493C106.97 14.5541 106.381 14.2004 106.333 14.4682C105.48 19.8322 106.653 20.5609 106.955 14.8493ZM152.799 18.5211C153.409 15.2309 153.795 14.8829 153.619 19.0882C153.355 18.8306 153.07 18.7619 152.799 18.5211Z" fill="#E5B80B"/>
</g>
<g filter="url(#filter1_d_426_213)">
<path d="M31.179 37.1286C30.661 37.1286 30.276 36.9256 30.024 36.5196C29.772 36.0996 29.646 35.3436 29.646 34.2516C29.646 32.8516 29.772 31.4726 30.024 30.1146C30.29 28.7566 30.661 27.4826 31.137 26.2926C31.627 25.1026 32.215 24.0596 32.901 23.1636C33.601 22.2536 34.392 21.5466 35.274 21.0426C36.156 20.5246 37.115 20.2656 38.151 20.2656C39.691 20.2656 40.832 20.6786 41.574 21.5046C42.33 22.3166 42.708 23.5136 42.708 25.0956C42.708 25.9356 42.54 26.6846 42.204 27.3426C41.868 27.9866 41.427 28.4976 40.881 28.8756C40.349 29.2396 39.775 29.4216 39.159 29.4216C38.809 29.4216 38.438 29.3586 38.046 29.2326C38.802 30.2126 39.558 31.0666 40.314 31.7946C41.084 32.5226 41.847 33.1946 42.603 33.8106C43.373 34.4126 44.143 35.0286 44.913 35.6586C45.319 35.9806 45.55 36.3236 45.606 36.6876C45.662 37.0516 45.564 37.3596 45.312 37.6116C45.074 37.8776 44.703 38.0106 44.199 38.0106C43.807 38.0106 43.31 37.8356 42.708 37.4856C42.106 37.1496 41.455 36.6946 40.755 36.1206C40.055 35.5326 39.355 34.8816 38.655 34.1676C37.969 33.4536 37.339 32.7256 36.765 31.9836C36.205 31.2416 35.75 30.5346 35.4 29.8626C35.064 29.1906 34.896 28.6166 34.896 28.1406C34.896 27.6926 35.015 27.3496 35.253 27.1116C35.491 26.8596 35.799 26.7336 36.177 26.7336C36.485 26.7336 36.765 26.7756 37.017 26.8596C37.283 26.9436 37.563 26.9856 37.857 26.9856C38.165 26.9856 38.487 26.9016 38.823 26.7336C39.173 26.5656 39.467 26.3066 39.705 25.9566C39.943 25.5926 40.062 25.1306 40.062 24.5706C40.062 23.9546 39.887 23.5416 39.537 23.3316C39.201 23.1216 38.746 23.0166 38.172 23.0166C37.374 23.0166 36.653 23.2966 36.009 23.8566C35.365 24.4166 34.805 25.2076 34.329 26.2296C33.853 27.2516 33.468 28.4556 33.174 29.8416C32.894 31.2276 32.705 32.7396 32.607 34.3776C32.551 35.4416 32.411 36.1696 32.187 36.5616C31.963 36.9396 31.627 37.1286 31.179 37.1286ZM51.1718 37.9476C50.3038 37.9476 49.6038 37.6466 49.0718 37.0446C48.5398 36.4286 48.2738 35.4416 48.2738 34.0836C48.2738 33.2156 48.3718 32.3476 48.5678 31.4796C48.7778 30.5976 49.0648 29.7646 49.4288 28.9806C49.8068 28.1826 50.2408 27.4756 50.7308 26.8596C51.2348 26.2436 51.7878 25.7606 52.3898 25.4106C52.9918 25.0466 53.6148 24.8646 54.2588 24.8646C55.3508 24.8646 56.2048 25.1586 56.8208 25.7466C57.4368 26.3346 57.7448 27.0836 57.7448 27.9936C57.7448 28.6936 57.5488 29.3306 57.1568 29.9046C56.7788 30.4646 56.2608 30.9686 55.6028 31.4166C54.9448 31.8646 54.2098 32.2706 53.3978 32.6346C52.5858 32.9986 51.7528 33.3276 50.8988 33.6216C50.8288 34.1256 50.7938 34.5736 50.7938 34.9656C50.7938 35.2036 50.9268 35.3226 51.1928 35.3226C51.8228 35.3226 52.4948 35.2246 53.2088 35.0286C53.9368 34.8186 54.6718 34.5526 55.4138 34.2306C56.1558 33.8946 56.8698 33.5516 57.5558 33.2016C58.2418 32.8376 58.8648 32.4946 59.4248 32.1726C59.9988 31.8366 60.4678 31.5706 60.8318 31.3746C61.2098 31.1646 61.4548 31.0596 61.5668 31.0596C61.8748 31.0596 62.0988 31.1506 62.2388 31.3326C62.3788 31.5146 62.4488 31.7106 62.4488 31.9206C62.4488 32.0186 62.2598 32.2356 61.8818 32.5716C61.5178 32.9076 61.0138 33.3066 60.3698 33.7686C59.7398 34.2166 59.0258 34.6856 58.2278 35.1756C57.4438 35.6516 56.6248 36.1066 55.7708 36.5406C54.9308 36.9606 54.1118 37.2966 53.3138 37.5486C52.5298 37.8146 51.8158 37.9476 51.1718 37.9476ZM51.2558 31.7526C51.8298 31.4166 52.3968 31.0666 52.9568 30.7026C53.5308 30.3246 54.0068 29.9046 54.3848 29.4426C54.7628 28.9666 54.9518 28.4136 54.9518 27.7836C54.9518 27.6016 54.9028 27.4826 54.8048 27.4266C54.7068 27.3566 54.5668 27.3216 54.3848 27.3216C53.8948 27.3216 53.4468 27.5386 53.0408 27.9726C52.6488 28.4066 52.2988 28.9666 51.9908 29.6526C51.6968 30.3246 51.4518 31.0246 51.2558 31.7526ZM63.1282 38.3046C62.5262 38.3046 62.0992 38.2206 61.8472 38.0526C61.6092 37.8846 61.4902 37.6396 61.4902 37.3176C61.4902 37.0376 61.5882 36.7996 61.7842 36.6036C61.9802 36.3936 62.4142 36.1836 63.0862 35.9736C63.8702 35.7356 64.6122 35.4626 65.3122 35.1546C66.0262 34.8326 66.6072 34.4826 67.0552 34.1046C67.5172 33.7266 67.7482 33.3276 67.7482 32.9076C67.7482 32.6276 67.6502 32.4246 67.4542 32.2986C67.2722 32.1726 67.0552 32.1096 66.8032 32.1096C66.5932 32.1096 66.2852 32.1446 65.8792 32.2146C65.4872 32.2706 65.0532 32.3476 64.5772 32.4456C64.1012 32.5296 63.6392 32.6066 63.1912 32.6766C62.7572 32.7326 62.3862 32.7606 62.0782 32.7606C61.3502 32.7606 60.8112 32.5996 60.4612 32.2776C60.1112 31.9416 59.9362 31.5146 59.9362 30.9966C59.9362 30.7166 60.0832 30.3316 60.3772 29.8416C60.6712 29.3516 61.0632 28.8126 61.5532 28.2246C62.0432 27.6366 62.5892 27.0486 63.1912 26.4606C63.7932 25.8726 64.4022 25.3336 65.0182 24.8436C65.6482 24.3396 66.2432 23.9406 66.8032 23.6466C67.3632 23.3386 67.8392 23.1846 68.2312 23.1846C68.6792 23.1846 69.0362 23.3246 69.3022 23.6046C69.5822 23.8846 69.7222 24.2626 69.7222 24.7386C69.7222 24.9626 69.7012 25.2076 69.6592 25.4736C69.6172 25.7256 69.5122 25.9566 69.3442 26.1666C69.1762 26.3626 68.9172 26.5026 68.5672 26.5866C68.2172 26.6706 67.7412 26.6566 67.1392 26.5446C66.6632 26.8946 66.1662 27.2796 65.6482 27.6996C65.1442 28.1056 64.6682 28.5326 64.2202 28.9806C63.7722 29.4146 63.4012 29.8416 63.1072 30.2616C63.6252 30.0936 64.2132 29.9606 64.8712 29.8626C65.5292 29.7506 66.1942 29.6946 66.8662 29.6946C67.6782 29.6946 68.3362 29.8416 68.8402 30.1356C69.3582 30.4156 69.7362 30.7936 69.9742 31.2696C70.2262 31.7456 70.3522 32.2706 70.3522 32.8446C70.3522 33.4886 70.1422 34.1326 69.7222 34.7766C69.3022 35.4206 68.7422 36.0086 68.0422 36.5406C67.3422 37.0726 66.5652 37.4996 65.7112 37.8216C64.8572 38.1436 63.9962 38.3046 63.1282 38.3046ZM73.8164 37.5486C73.4244 37.5486 73.0744 37.4156 72.7664 37.1496C72.4724 36.8836 72.3254 36.4496 72.3254 35.8476C72.3254 35.5256 72.3674 35.0706 72.4514 34.4826C72.5494 33.8946 72.6754 33.2576 72.8294 32.5716C72.9834 31.8716 73.1514 31.1786 73.3334 30.4926C73.5294 29.8066 73.7184 29.1976 73.9004 28.6656C74.0824 28.1196 74.2434 27.7136 74.3834 27.4476C74.5654 27.1256 74.7334 26.9296 74.8874 26.8596C75.0554 26.7756 75.2164 26.7336 75.3704 26.7336C75.6504 26.7336 75.9094 26.8176 76.1474 26.9856C76.3994 27.1536 76.5254 27.5246 76.5254 28.0986C76.5254 28.3226 76.4834 28.6866 76.3994 29.1906C76.3154 29.6806 76.2104 30.2546 76.0844 30.9126C75.9584 31.5706 75.8184 32.2496 75.6644 32.9496C75.5244 33.6496 75.3844 34.3146 75.2444 34.9446C75.1184 35.5606 75.0134 36.0786 74.9294 36.4986C74.8594 36.8486 74.7124 37.1076 74.4884 37.2756C74.2784 37.4576 74.0544 37.5486 73.8164 37.5486ZM76.2314 24.6546C75.7694 24.6546 75.3424 24.5216 74.9504 24.2556C74.5584 23.9756 74.3624 23.5486 74.3624 22.9746C74.3624 22.4986 74.4814 22.1136 74.7194 21.8196C74.9574 21.5256 75.2374 21.3156 75.5594 21.1896C75.8954 21.0496 76.1894 20.9796 76.4414 20.9796C76.6934 20.9796 76.9734 21.0356 77.2814 21.1476C77.5894 21.2456 77.8554 21.4346 78.0794 21.7146C78.3174 21.9806 78.4364 22.3656 78.4364 22.8696C78.4364 23.2056 78.3174 23.5136 78.0794 23.7936C77.8414 24.0596 77.5474 24.2696 77.1974 24.4236C76.8614 24.5776 76.5394 24.6546 76.2314 24.6546ZM83.7463 38.2836C82.4863 38.2836 81.4923 37.8986 80.7643 37.1286C80.0503 36.3446 79.6933 35.2316 79.6933 33.7896C79.6933 33.0056 79.7983 32.0886 80.0083 31.0386C80.2183 29.9746 80.4913 28.8546 80.8273 27.6786C81.1773 26.4886 81.5483 25.3126 81.9403 24.1506C82.3463 22.9886 82.7453 21.9106 83.1373 20.9166C83.5293 19.9226 83.8723 19.0896 84.1663 18.4176C84.4183 17.8996 84.7753 17.6406 85.2373 17.6406C85.5313 17.6406 85.7693 17.7316 85.9513 17.9136C86.1473 18.0956 86.2453 18.3896 86.2453 18.7956C86.2453 18.9916 86.1473 19.4186 85.9513 20.0766C85.7553 20.7346 85.4963 21.5466 85.1743 22.5126C84.8663 23.4646 84.5303 24.4936 84.1663 25.5996C83.8163 26.7056 83.4803 27.8186 83.1583 28.9386C82.8503 30.0586 82.5983 31.1156 82.4023 32.1096C82.2063 33.0896 82.1083 33.9226 82.1083 34.6086C82.1083 34.8886 82.1853 35.1126 82.3393 35.2806C82.5073 35.4486 82.7243 35.5326 82.9903 35.5326C83.5643 35.5326 84.1523 35.4276 84.7543 35.2176C85.3703 35.0076 85.9723 34.7416 86.5603 34.4196C87.1623 34.0976 87.7293 33.7546 88.2613 33.3906C88.7933 33.0266 89.2693 32.6836 89.6893 32.3616C90.1233 32.0256 90.4733 31.7596 90.7393 31.5636C91.0893 31.2976 91.3273 31.1646 91.4533 31.1646C91.9293 31.1646 92.1673 31.3956 92.1673 31.8576C92.1673 31.9696 92.0273 32.2006 91.7473 32.5506C91.5093 32.8586 91.1733 33.2506 90.7393 33.7266C90.3053 34.2026 89.8013 34.7066 89.2273 35.2386C88.6673 35.7566 88.0653 36.2466 87.4213 36.7086C86.7913 37.1706 86.1613 37.5486 85.5313 37.8426C84.9013 38.1366 84.3063 38.2836 83.7463 38.2836ZM92.2939 37.5486C91.9019 37.5486 91.5519 37.4156 91.2439 37.1496C90.9499 36.8836 90.8029 36.4496 90.8029 35.8476C90.8029 35.5256 90.8449 35.0706 90.9289 34.4826C91.0269 33.8946 91.1529 33.2576 91.3069 32.5716C91.4609 31.8716 91.6289 31.1786 91.8109 30.4926C92.0069 29.8066 92.1959 29.1976 92.3779 28.6656C92.5599 28.1196 92.7209 27.7136 92.8609 27.4476C93.0429 27.1256 93.2109 26.9296 93.3649 26.8596C93.5329 26.7756 93.6939 26.7336 93.8479 26.7336C94.1279 26.7336 94.3869 26.8176 94.6249 26.9856C94.8769 27.1536 95.0029 27.5246 95.0029 28.0986C95.0029 28.3226 94.9609 28.6866 94.8769 29.1906C94.7929 29.6806 94.6879 30.2546 94.5619 30.9126C94.4359 31.5706 94.2959 32.2496 94.1419 32.9496C94.0019 33.6496 93.8619 34.3146 93.7219 34.9446C93.5959 35.5606 93.4909 36.0786 93.4069 36.4986C93.3369 36.8486 93.1899 37.1076 92.9659 37.2756C92.7559 37.4576 92.5319 37.5486 92.2939 37.5486ZM94.7089 24.6546C94.2469 24.6546 93.8199 24.5216 93.4279 24.2556C93.0359 23.9756 92.8399 23.5486 92.8399 22.9746C92.8399 22.4986 92.9589 22.1136 93.1969 21.8196C93.4349 21.5256 93.7149 21.3156 94.0369 21.1896C94.3729 21.0496 94.6669 20.9796 94.9189 20.9796C95.1709 20.9796 95.4509 21.0356 95.7589 21.1476C96.0669 21.2456 96.3329 21.4346 96.5569 21.7146C96.7949 21.9806 96.9139 22.3656 96.9139 22.8696C96.9139 23.2056 96.7949 23.5136 96.5569 23.7936C96.3189 24.0596 96.0249 24.2696 95.6749 24.4236C95.3389 24.5776 95.0169 24.6546 94.7089 24.6546ZM100.903 37.9476C100.035 37.9476 99.3353 37.6466 98.8033 37.0446C98.2713 36.4286 98.0053 35.4416 98.0053 34.0836C98.0053 33.2156 98.1033 32.3476 98.2993 31.4796C98.5093 30.5976 98.7963 29.7646 99.1603 28.9806C99.5383 28.1826 99.9723 27.4756 100.462 26.8596C100.966 26.2436 101.519 25.7606 102.121 25.4106C102.723 25.0466 103.346 24.8646 103.99 24.8646C105.082 24.8646 105.936 25.1586 106.552 25.7466C107.168 26.3346 107.476 27.0836 107.476 27.9936C107.476 28.6936 107.28 29.3306 106.888 29.9046C106.51 30.4646 105.992 30.9686 105.334 31.4166C104.676 31.8646 103.941 32.2706 103.129 32.6346C102.317 32.9986 101.484 33.3276 100.63 33.6216C100.56 34.1256 100.525 34.5736 100.525 34.9656C100.525 35.2036 100.658 35.3226 100.924 35.3226C101.554 35.3226 102.226 35.2246 102.94 35.0286C103.668 34.8186 104.403 34.5526 105.145 34.2306C105.887 33.8946 106.601 33.5516 107.287 33.2016C107.973 32.8376 108.596 32.4946 109.156 32.1726C109.73 31.8366 110.199 31.5706 110.563 31.3746C110.941 31.1646 111.186 31.0596 111.298 31.0596C111.606 31.0596 111.83 31.1506 111.97 31.3326C112.11 31.5146 112.18 31.7106 112.18 31.9206C112.18 32.0186 111.991 32.2356 111.613 32.5716C111.249 32.9076 110.745 33.3066 110.101 33.7686C109.471 34.2166 108.757 34.6856 107.959 35.1756C107.175 35.6516 106.356 36.1066 105.502 36.5406C104.662 36.9606 103.843 37.2966 103.045 37.5486C102.261 37.8146 101.547 37.9476 100.903 37.9476ZM100.987 31.7526C101.561 31.4166 102.128 31.0666 102.688 30.7026C103.262 30.3246 103.738 29.9046 104.116 29.4426C104.494 28.9666 104.683 28.4136 104.683 27.7836C104.683 27.6016 104.634 27.4826 104.536 27.4266C104.438 27.3566 104.298 27.3216 104.116 27.3216C103.626 27.3216 103.178 27.5386 102.772 27.9726C102.38 28.4066 102.03 28.9666 101.722 29.6526C101.428 30.3246 101.183 31.0246 100.987 31.7526ZM112.742 37.2336C112.406 37.2336 112.07 37.1216 111.734 36.8976C111.412 36.6596 111.146 36.3236 110.936 35.8896C110.726 35.4416 110.621 34.9026 110.621 34.2726C110.621 33.4326 110.733 32.5366 110.957 31.5846C111.195 30.6326 111.482 29.6806 111.818 28.7286C112.154 27.7766 112.483 26.8806 112.805 26.0406C112.959 25.6346 113.148 25.3616 113.372 25.2216C113.596 25.0676 113.89 24.9906 114.254 24.9906C115.08 24.9906 115.493 25.4036 115.493 26.2296C115.493 26.3696 115.43 26.6426 115.304 27.0486C115.178 27.4406 115.01 27.9236 114.8 28.4976C114.604 29.0716 114.394 29.6946 114.17 30.3666C113.96 31.0246 113.764 31.6966 113.582 32.3826C113.414 33.0546 113.281 33.6916 113.183 34.2936C113.505 33.8036 113.862 33.1946 114.254 32.4666C114.66 31.7246 115.087 30.9476 115.535 30.1356C115.997 29.3236 116.459 28.5676 116.921 27.8676C117.383 27.1536 117.838 26.5726 118.286 26.1246C118.734 25.6766 119.161 25.4526 119.567 25.4526C119.917 25.4526 120.246 25.5226 120.554 25.6626C120.876 25.7886 121.156 26.0406 121.394 26.4186C121.632 26.7826 121.814 27.3076 121.94 27.9936C122.08 28.6796 122.15 29.5826 122.15 30.7026C122.15 31.2626 122.199 31.8086 122.297 32.3406C122.409 32.8586 122.591 33.2926 122.843 33.6426C123.095 33.9786 123.452 34.1466 123.914 34.1466C124.712 34.1466 125.426 33.9996 126.056 33.7056C126.686 33.4116 127.239 33.0686 127.715 32.6766C128.191 32.2846 128.59 31.9416 128.912 31.6476C129.108 31.4516 129.276 31.2976 129.416 31.1856C129.57 31.0736 129.696 31.0176 129.794 31.0176C130.088 31.0176 130.298 31.0946 130.424 31.2486C130.564 31.4026 130.634 31.6126 130.634 31.8786C130.634 32.0186 130.515 32.2776 130.277 32.6556C130.039 33.0336 129.703 33.4676 129.269 33.9576C128.849 34.4336 128.366 34.8956 127.82 35.3436C127.274 35.7916 126.686 36.1626 126.056 36.4566C125.426 36.7506 124.782 36.8976 124.124 36.8976C123.018 36.8976 122.101 36.7016 121.373 36.3096C120.659 35.9036 120.127 35.2316 119.777 34.2936C119.427 33.3416 119.252 32.0466 119.252 30.4086C119.252 30.3666 119.252 30.2966 119.252 30.1986C119.252 29.7646 119.245 29.3796 119.231 29.0436C119.231 28.7076 119.21 28.4346 119.168 28.2246C118.93 28.6586 118.643 29.1766 118.307 29.7786C117.985 30.3806 117.635 31.0246 117.257 31.7106C116.879 32.3826 116.487 33.0476 116.081 33.7056C115.675 34.3496 115.269 34.9376 114.863 35.4696C114.471 36.0016 114.093 36.4286 113.729 36.7506C113.365 37.0726 113.036 37.2336 112.742 37.2336ZM132.504 37.8216C131.72 37.8216 131.041 37.6396 130.467 37.2756C129.893 36.9256 129.452 36.4706 129.144 35.9106C128.836 35.3366 128.682 34.7486 128.682 34.1466C128.682 33.1386 128.836 32.2076 129.144 31.3536C129.452 30.4856 129.858 29.7016 130.362 29.0016C130.866 28.2876 131.412 27.6576 132 27.1116C132.602 26.5656 133.183 26.1106 133.743 25.7466C134.317 25.3686 134.828 25.0886 135.276 24.9066C135.724 24.7106 136.053 24.6126 136.263 24.6126C136.641 24.6126 136.907 24.6966 137.061 24.8646C137.229 25.0186 137.313 25.2776 137.313 25.6416C137.313 25.8516 137.159 26.1036 136.851 26.3976C136.557 26.6916 136.165 27.0276 135.675 27.4056C135.199 27.7836 134.695 28.2106 134.163 28.6866C133.631 29.1626 133.12 29.6946 132.63 30.2826C132.154 30.8706 131.762 31.5146 131.454 32.2146C131.16 32.9146 131.013 33.6776 131.013 34.5036C131.013 34.8116 131.069 35.0496 131.181 35.2176C131.307 35.3856 131.51 35.4696 131.79 35.4696C132.588 35.4696 133.442 35.3296 134.352 35.0496C135.276 34.7556 136.193 34.3916 137.103 33.9576C138.027 33.5096 138.895 33.0476 139.707 32.5716C140.533 32.0956 141.24 31.6686 141.828 31.2906C142.066 31.1226 142.269 30.9896 142.437 30.8916C142.605 30.7936 142.724 30.7446 142.794 30.7446C143.214 30.7446 143.424 30.9616 143.424 31.3956C143.424 31.6196 143.256 31.9206 142.92 32.2986C142.528 32.7886 141.996 33.2926 141.324 33.8106C140.666 34.3286 139.931 34.8256 139.119 35.3016C138.321 35.7776 137.502 36.2046 136.662 36.5826C135.836 36.9606 135.059 37.2616 134.331 37.4856C133.603 37.7096 132.994 37.8216 132.504 37.8216ZM144.564 37.9476C143.696 37.9476 142.996 37.6466 142.464 37.0446C141.932 36.4286 141.666 35.4416 141.666 34.0836C141.666 33.2156 141.764 32.3476 141.96 31.4796C142.17 30.5976 142.457 29.7646 142.821 28.9806C143.199 28.1826 143.633 27.4756 144.123 26.8596C144.627 26.2436 145.18 25.7606 145.782 25.4106C146.384 25.0466 147.007 24.8646 147.651 24.8646C148.743 24.8646 149.597 25.1586 150.213 25.7466C150.829 26.3346 151.137 27.0836 151.137 27.9936C151.137 28.6936 150.941 29.3306 150.549 29.9046C150.171 30.4646 149.653 30.9686 148.995 31.4166C148.337 31.8646 147.602 32.2706 146.79 32.6346C145.978 32.9986 145.145 33.3276 144.291 33.6216C144.221 34.1256 144.186 34.5736 144.186 34.9656C144.186 35.2036 144.319 35.3226 144.585 35.3226C145.215 35.3226 145.887 35.2246 146.601 35.0286C147.329 34.8186 148.064 34.5526 148.806 34.2306C149.548 33.8946 150.262 33.5516 150.948 33.2016C151.634 32.8376 152.257 32.4946 152.817 32.1726C153.391 31.8366 153.86 31.5706 154.224 31.3746C154.602 31.1646 154.847 31.0596 154.959 31.0596C155.267 31.0596 155.491 31.1506 155.631 31.3326C155.771 31.5146 155.841 31.7106 155.841 31.9206C155.841 32.0186 155.652 32.2356 155.274 32.5716C154.91 32.9076 154.406 33.3066 153.762 33.7686C153.132 34.2166 152.418 34.6856 151.62 35.1756C150.836 35.6516 150.017 36.1066 149.163 36.5406C148.323 36.9606 147.504 37.2966 146.706 37.5486C145.922 37.8146 145.208 37.9476 144.564 37.9476ZM144.648 31.7526C145.222 31.4166 145.789 31.0666 146.349 30.7026C146.923 30.3246 147.399 29.9046 147.777 29.4426C148.155 28.9666 148.344 28.4136 148.344 27.7836C148.344 27.6016 148.295 27.4826 148.197 27.4266C148.099 27.3566 147.959 27.3216 147.777 27.3216C147.287 27.3216 146.839 27.5386 146.433 27.9726C146.041 28.4066 145.691 28.9666 145.383 29.6526C145.089 30.3246 144.844 31.0246 144.648 31.7526Z" fill="#0E0E0E"/>
</g>
<defs>
<filter id="filter0_d_426_213" x="0.534668" y="0.29126" width="197.388" height="67.0737" filterUnits="userSpaceOnUse" color-interpolation-filters="sRGB">
<feFlood flood-opacity="0" result="BackgroundImageFix"/>
<feColorMatrix in="SourceAlpha" type="matrix" values="0 0 0 0 0 0 0 0 0 0 0 0 0 0 0 0 0 0 127 0" result="hardAlpha"/>
<feOffset dy="4"/>
<feGaussianBlur stdDeviation="2"/>
<feComposite in2="hardAlpha" operator="out"/>
<feColorMatrix type="matrix" values="0 0 0 0 0 0 0 0 0 0 0 0 0 0 0 0 0 0 0.25 0"/>
<feBlend mode="normal" in2="BackgroundImageFix" result="effect1_dropShadow_426_213"/>
<feBlend mode="normal" in="SourceGraphic" in2="effect1_dropShadow_426_213" result="shape"/>
</filter>
<filter id="filter1_d_426_213" x="25.646" y="17.6406" width="134.195" height="28.6641" filterUnits="userSpaceOnUse" color-interpolation-filters="sRGB">
<feFlood flood-opacity="0" result="BackgroundImageFix"/>
<feColorMatrix in="SourceAlpha" type="matrix" values="0 0 0 0 0 0 0 0 0 0 0 0 0 0 0 0 0 0 127 0" result="hardAlpha"/>
<feOffset dy="4"/>
<feGaussianBlur stdDeviation="2"/>
<feComposite in2="hardAlpha" operator="out"/>
<feColorMatrix type="matrix" values="0 0 0 0 0 0 0 0 0 0 0 0 0 0 0 0 0 0 0.25 0"/>
<feBlend mode="normal" in2="BackgroundImageFix" result="effect1_dropShadow_426_213"/>
<feBlend mode="normal" in="SourceGraphic" in2="effect1_dropShadow_426_213" result="shape"/>
</filter>
</defs>
</svg>
