<svg width="202" height="70" viewBox="0 0 202 70" fill="none" xmlns="http://www.w3.org/2000/svg">
<g filter="url(#filter0_d_426_190)">
<path d="M4.65151 8.69222C5.70208 6.70494 8.40396 6.07452 10.6163 6.31779C11.3099 6.38723 12.0863 8.1349 12.5972 8.2655C13.5857 8.52646 13.6622 7.40441 14.6887 7.82947C15.0308 7.98019 16.3175 10.6995 16.6348 10.8023C18.3457 11.3583 18.9235 10.1876 20.2347 10.2397C26.612 10.5657 31.1349 10.112 35.6096 9.96574C37.0819 9.9202 39.562 11.9384 40.4075 10.3995C40.5056 10.2172 39.503 7.78825 39.4557 7.57609C38.7412 4.32455 40.441 9.33812 40.9709 9.90116C43.066 12.1233 44.3766 11.9342 45.0469 10.6321C45.3283 10.0712 43.0492 5.34716 44.5186 7.9328C44.619 8.1071 45.4966 10.7507 45.721 10.9873C46.229 11.5184 46.5602 10.8752 46.8443 11.009C47.3984 11.2796 47.4536 11.2303 47.8363 11.1274C48.3645 11.0104 49.4728 12.0814 49.7658 11.2986C49.8243 11.1241 48.6087 8.52818 48.6013 8.01205C48.5956 7.59254 48.9549 7.55035 49.3084 7.85368C49.414 7.91349 49.5156 7.993 49.6066 8.09249C50.096 8.62822 50.8401 10.7479 51.0744 11.2097C53.0146 15.1205 51.5439 9.25762 51.6137 9.07637C52.5953 6.04649 55.3564 8.7855 56.9912 8.33073C58.2544 7.9717 59.302 6.55539 60.5363 6.43622C62.0092 6.30549 63.5394 7.5667 64.7958 7.05863C64.9303 7.00812 64.0226 3.77975 64.1887 3.71092C65.9565 2.98292 67.8384 3.03781 70.0229 4.97826C70.243 5.17572 70.5773 8.08831 70.8289 8.45796C72.3589 10.6563 74.9891 16.1168 73.3405 3.4763C74.141 3.86601 75.0944 4.25445 76.1703 6.7021C76.8559 8.27843 77.0146 11.4743 77.2721 10.0673C77.3313 9.75358 76.7083 7.01937 76.8345 6.75704C77.3715 5.65448 78.2955 6.4496 78.7448 4.93781C78.8362 4.62369 78.3814 2.15982 78.3468 1.7101C78.0831 -1.93423 79.6448 3.94683 79.8361 4.36444C81.3062 7.47279 81.7649 6.12038 82.6356 6.09383C82.8377 6.08912 82.0597 2.79975 82.2353 2.67597C82.4445 2.53992 82.6633 2.44299 82.8913 2.39034C84.0307 2.16681 85.2285 2.50508 86.3391 3.59272C86.657 3.91439 86.674 6.77162 86.8352 7.07117C87.5112 8.36065 87.19 2.98251 87.8442 4.12444C87.9792 4.35865 88.0938 6.79692 88.1347 7.06381C88.7494 11.2544 88.6081 5.29693 88.6952 5.16359C89.6707 3.34831 90.6026 9.56605 91.4925 8.70043C91.6048 8.59093 91.2585 5.50264 91.5864 5.38369C93.7556 4.57404 96.0312 5.55679 97.9285 8.17818C98.2246 8.58175 97.9162 10.8725 97.9258 11.1588C98.0648 15.6313 98.4941 9.69033 98.6074 9.47503C99.4768 7.93007 99.9322 12.9901 100.857 5.95819C104.04 8.75292 107.642 5.22028 110.186 11.992C110.219 12.0709 109.859 14.9751 109.925 15.1199C110.714 16.8945 110.979 12.3384 112.186 6.89581C112.493 5.52973 112.288 12.2865 112.278 12.7826C112.244 14.6111 111.632 18.9196 111.647 19.277C111.782 22.0856 113.217 7.7483 113.807 7.8329C113.822 7.85955 113.466 10.4845 113.487 10.7541C113.552 11.6001 113.813 10.5754 113.864 11.5054C113.976 13.6567 113.35 20.6342 114.299 16.6631C114.421 16.1475 115.202 8.00952 115.676 8.4728C115.868 8.665 116.792 8.66665 116.988 9.23253C117.186 9.79792 116.722 12.3875 116.728 12.5036C117.032 16.0705 116.613 17.4641 116.388 22.64C116.163 27.796 117.414 15.6095 117.703 14.2725C117.993 12.9397 118.176 15.8722 118.188 16.8835C118.2 17.8953 117.865 19.5346 117.911 20.1133C118.233 23.8972 118.893 14.1204 119.342 12.2251C120.396 7.73594 119.846 16.8318 120.261 17.795C120.373 18.0549 120.482 15.981 120.624 15.8072C121.188 15.1467 121.183 18.0098 122.001 15.507C122.139 15.0999 123.133 9.73124 123.004 13.7597C122.986 14.3408 122.641 16.5762 122.799 17.1113C122.969 17.6925 123.281 18.153 123.586 18.0931C123.711 18.0715 123.835 17.9744 123.949 17.78C124.255 17.2585 124.327 13.5034 124.533 14.7025C124.623 15.2377 124.152 17.3731 124.336 18.197C124.513 19.0196 125.203 19.0231 125.458 18.9848C125.724 18.9462 125.87 16.1103 125.911 15.9237C126.149 14.8561 126.782 13.5723 126.824 13.5821C129.092 13.5731 130.569 18.6353 132.884 17.4361C133.066 17.3463 133.331 14.3701 133.362 14.3259C134.094 13.1864 132.639 20.9691 132.697 23.6689C133.411 17.6599 133.505 18.7867 133.99 18.1992C134.226 17.9115 134.423 15.5707 134.472 15.3361C135.221 11.86 134.824 16.4505 134.752 17.3914C134.491 20.8525 135.228 16.839 135.054 19.1527C134.881 21.449 134.142 24.7673 134.527 24.7917C134.918 22.6647 135.379 17.0062 135.789 16.149C137.346 12.9078 138.758 17.6654 139.557 18.2706C140.356 18.8763 140.677 18.5253 141.081 19.3863C141.807 20.941 141.987 16.7179 142.756 14.898C143.531 13.0785 142.069 23.3 141.894 25.52C141.718 27.7388 142.069 25.4822 142.03 26.7112C141.992 27.94 141.599 29.4054 141.787 29.8993C141.986 30.3944 143.069 26.569 143.41 24.2727C144.123 19.4066 144.403 14.2271 144.806 16.1244C144.83 16.2369 144.423 18.9219 144.528 19.2158C144.99 20.4463 145.527 21.0899 146.079 21.751L146.007 21.7411C146.479 22.2785 146.945 22.8272 147.368 23.7252C147.497 24.0027 147.11 27.0022 147.182 27.1978C147.921 29.2441 148.028 24.1161 149.012 18.5318C148.26 26.0359 148.149 30.6721 148.83 30.8065C149.239 30.8899 149.451 27.5973 149.918 25.3186C150.057 24.6314 150.158 26.9249 150.346 25.3881C150.963 20.365 151.177 14.6783 151.703 17.024C151.725 17.1352 151.382 19.884 151.476 20.0658C152.085 21.255 152.625 15.9868 153.455 15.4522C154.11 15.0332 154.862 18.3934 155.505 19.0125C154.708 27.455 155.522 25.6093 156.328 19.8243C156.74 20.1232 157.257 19.8625 157.606 20.7273C157.726 21.0223 157.394 23.4524 157.388 23.7191C157.27 27.9011 158.006 22.2665 158.123 22.0582C159.364 20.0479 159.772 24.4581 161.184 20.4127C161.234 20.2669 161.889 14.4171 161.718 18.7337C161.704 19.031 161.107 21.6482 161.549 21.9228C161.989 22.1976 162.532 25.4671 163.461 22.8516C163.685 22.222 164.581 17.5288 164.503 21.2908C164.492 21.8015 164.264 23.473 164.225 24.4165C164.1 27.4232 164.85 21.5244 164.533 26.5852C164.22 31.6465 164.253 35.4783 165.285 32.1143C165.316 32.0167 165.994 27.3549 166.189 27.4612C166.501 27.6351 166.835 28.6821 167.179 28.7065C167.344 28.7164 167.576 25.7915 167.61 25.7429C168.895 24.2905 169.375 27.0116 170.382 28.3295C170.57 28.5775 171.691 24.7249 171.698 27.9249C171.7 31.427 169.421 45.5949 170.851 42.3759C171.403 41.0854 174.39 23.1289 173.853 32.6167C175.636 30.5706 176.232 35.5985 178.174 32.5995C178.262 32.467 179.296 27.5003 179.445 27.6024C179.66 27.7631 179.388 30.1295 179.521 30.3179C180.095 31.173 181.077 29.3167 181.682 29.7845C181.912 29.9572 181.362 32.3432 181.629 32.5489C181.891 32.7518 182.728 29.6383 182.827 31.2711C182.891 32.5133 181.741 39.0203 181.866 39.8527C183.373 33.5352 183.595 33.7338 184.502 32.2217C184.678 31.9285 185.154 29.714 185.269 29.4632C185.753 28.3957 185.469 30.267 185.998 29.1103C186.129 28.8336 186.747 26.7081 186.894 26.364C188.208 23.3662 187.416 28.374 187.197 29.2215C186.853 30.8514 186.921 30.9932 187.097 30.9123C187.286 30.8368 187.582 30.541 187.462 31.2021C187.158 32.4949 186.153 33.7862 186.005 34.5917C185.879 35.0625 185.77 35.3832 185.474 35.386C185.519 35.4749 185.804 35.6044 185.863 35.6847C186.328 36.5228 186.795 36.5584 186.977 36.7622C187.094 36.866 188.495 34.2892 188.545 34.2446C189.442 33.9382 187.859 36.6459 191.761 32.3299C182.456 44.1531 192.958 31.4209 191.659 34.3269C191.551 34.5607 186.662 39.7125 185.854 40.3827C185.066 41.0693 186.39 39.271 185.241 40.4299C184.919 40.6577 180.831 45.9246 180.683 46.3213C179.153 49.1191 185.092 40.2786 185.363 39.7561C188.62 34.3395 184.695 40.3808 184.514 40.8571C183.816 41.9346 183.29 41.7782 182.425 41.371C182.221 41.094 181.238 40.6477 181.083 40.3413C182.089 41.3375 182.306 41.4911 182.246 42.2854C182.016 43.3537 179.443 49.8817 179.769 49.7874C180.667 49.3725 182.78 39.6959 180.266 47.8495C179.722 49.5855 177.997 57.1078 179.138 51.1311C179.229 50.7594 180.155 45.2608 179.22 48.6452C179.104 49.0723 178.628 51.272 178.562 51.4498C178.126 52.5989 178.36 50.8094 177.973 51.5978C177.582 52.3853 177.068 53.5785 176.945 52.7659C176.873 52.2802 177.389 48.0952 177.489 47.0649C177.767 44.094 176.653 48.8176 177.105 45.2476C177.546 41.657 178.815 36.3339 178.744 33.9368C177.747 39.7093 176.707 45.6305 175.703 51.4355C174.854 51.0428 174.238 48.9864 173.229 49.0551C173.102 49.0693 172.767 52.2123 172.62 52.3082C172.038 52.7057 171.856 50.3866 171.182 51.172C170.652 51.7907 169.712 55.0113 169.159 55.7671C169.763 49.0607 168.758 51.1965 168.341 50.5027C168.19 50.2619 168.426 48.484 168.371 47.8814C168.154 45.6505 167.647 51.5797 167.4 52.4843C166.359 56.3478 167.954 43.0039 167.222 43.2186C167.181 43.2249 165.894 50.2654 165.787 50.6995C165.071 53.527 166.018 48.2133 165.843 47.6488C165.526 46.6178 165.4 44.8658 164.653 46.8695C164.433 47.4631 163.575 51.8442 163.67 48.3652C163.682 47.9096 163.968 45.5593 163.952 45.4165C163.64 43.0289 162.803 50.4238 162.214 52.8804C161.627 55.3368 161.693 50.1532 161.749 48.6649C161.894 44.815 162.13 47.0686 162.184 46.6971C162.837 42.2755 162.389 42.9848 162.146 42.5655C162.884 35.3021 162.448 35.6782 161.896 42.1609C161.837 42.8691 162.123 42.2249 162.146 42.5655C161.131 49.6472 160.63 50.4975 160.856 43.7701C160.961 40.617 161.558 37.0118 160.729 38.2391C160.362 38.7942 159.961 43.8113 159.553 45.1346C158.625 48.1544 158.286 43.3698 157.582 44.0135C157.324 44.2469 157.276 47.0179 157.092 47.2719C156.603 47.955 156.423 45.8451 155.907 46.8388C155.86 46.9323 155.673 49.8128 155.54 49.8309C154.528 50.0241 153.837 48.0651 152.806 47.8707C152.297 47.7766 151.271 49.2385 150.777 48.8494C149.915 48.191 149.191 43.8701 148.316 44.7804C147.759 45.3636 147.621 48.2504 147.238 50.1793C146.502 53.9188 146.343 47.0267 146.329 45.961C146.329 45.9257 146.824 45.3055 146.716 43.8004C146.84 40.7098 146.335 45.9483 146.329 45.961C146.317 45.2719 145.514 44.5086 145.293 45.0355C145.175 45.3236 145 48.0527 144.943 48.1515C144.518 48.8655 144.107 49.4096 143.707 49.7769C143.626 49.7323 143.335 49.7609 143.254 49.7148C142.269 50.4936 141.362 50.4113 140.555 49.3979C140.537 49.3395 140.908 46.3115 140.864 46.212C140.261 44.7454 139.367 48.3785 138.467 50.4746C137.577 52.5713 137.152 51.7485 137.427 46.4895C136.879 47.0652 136.5 44.6534 136.306 43.1956C136.111 41.7376 135.297 47.6152 135.249 47.7257C133.728 51.2683 133.579 47.7939 132.635 47.0885C132.186 46.7426 131.141 47.4295 130.562 47.9858C130.105 48.4356 130.049 47.0148 129.581 47.8352C129.518 47.9447 129.229 50.5747 129.202 50.6731C128.408 53.7417 129.417 47.3652 129.482 46.2063C129.718 41.9923 129.806 39.7413 129.051 41.6139C128.872 42.0416 127.407 51.2224 127.137 51.7285C126.788 52.3698 127.29 49.0748 126.912 49.8306C126.88 49.8922 126.641 51.9367 126.479 51.818C125.732 51.296 124.996 49.9669 124.135 50.043C124.018 50.0455 123.813 53.3153 123.639 53.3725C122.835 53.6403 121.999 53.3939 121.389 51.7619C121.236 51.3494 121.581 49.09 121.606 48.4079C121.758 44.2811 120.815 50.1735 120.745 50.2784C120.648 50.431 120.553 50.5564 120.461 50.6578C118.647 52.2761 117.925 47.4566 116.136 49.6316C116.026 49.7673 114.663 56.0253 114.959 50.5228C114.978 50.1567 115.294 44.5292 114.62 48.3055C114.578 48.5417 114.443 51.4432 114.159 51.1011C113.874 50.7596 113.152 52.5986 113.075 49.3756C113.051 48.3603 113.336 42.7418 112.451 47.1182C112.39 47.4238 110.679 57.3646 111.216 50.4063C111.305 49.261 112.139 41.9384 111.26 45.6231C111.091 46.3377 111.077 47.9974 110.73 48.9818C110.198 50.4994 109.931 48.4631 109.148 51.6627C109.01 52.2292 108.162 57.1566 108.305 53.3411C108.327 52.7434 108.66 50.3069 108.552 50.0126C108.041 48.6009 107.203 50.1398 106.727 48.3514C106.557 47.7226 107.067 43.7789 106.93 42.6826C106.794 41.5868 106.402 40.496 105.978 42.2717C105.558 44.0487 105.229 50.4026 104.818 50.8574C103.046 52.8349 101.867 48.9309 100.409 48.2144C100.196 48.108 100.219 50.3959 99.8987 50.4029C98.6852 50.4327 96.7481 52.3876 96.006 47.4886C95.3671 43.5595 96.4178 40.6813 95.8574 39.0608C95.5685 38.2866 95.1096 45.6661 95.0495 45.8956C94.3933 48.2239 94.0145 44.9238 93.4904 45.9099C93.3873 46.1149 93.509 49.1219 93.4258 49.2634C93.1459 49.7739 92.8367 48.4253 92.5892 48.6661C92.4789 48.7812 92.5666 51.0766 92.4665 50.8982C92.2275 50.4981 92.0095 49.5327 91.6843 47.3831C91.6514 47.1873 91.6499 44.3309 91.4656 44.2262C91.1853 44.0646 90.6606 41.9526 90.5739 44.1549C90.5472 44.8175 91.0447 50.0561 90.5653 46.4457C90.4686 45.6916 89.8362 39.4022 90.2497 44.845C90.2707 45.7529 91.0747 53.0783 90.4162 48.369C90.2386 47.1297 89.4101 42.0107 89.4819 42.8221C89.4973 42.9397 89.8857 45.2803 89.9719 45.8968C89.9704 45.9569 89.9644 46.0014 89.9531 46.027C89.4876 47.0149 88.8152 46.793 88.3387 47.7461C88.2144 48.0059 88.9355 50.8699 88.736 51.1646C88.188 51.9792 87.2389 51.3465 86.4376 50.5241C86.1433 50.2152 85.902 47.7979 85.8408 47.5393C84.8443 43.3335 85.6505 49.0797 85.6145 49.4254C85.3801 51.4985 84.493 48.8659 84.0924 49.6469C83.9824 49.855 84.5584 52.5696 84.5723 52.8167C84.6952 55.2323 84.0583 50.3042 83.7789 49.789C82.9845 48.3306 82.4476 48.6284 81.9873 49.0498C81.8211 49.2082 82.6032 52.3392 82.4493 52.4447C81.5465 53.1295 80.4939 52.9729 79.231 51.3766C78.9926 51.0703 78.6289 48.6247 78.4844 48.0756C77.4663 44.235 78.1346 49.5862 78.1568 50.1026C78.2381 52.4638 77.662 50.3416 77.4173 50.7957C76.2231 53.0512 74.1617 51.9637 72.7067 51.3671C70.8464 50.5953 69.0246 48.6362 68.0266 49.5974C67.9651 49.6549 69.145 52.7495 69.1118 52.8374C68.856 53.3861 68.4292 53.3215 68.0464 53.3566C67.1769 53.5998 66.3517 53.8852 65.6988 54.5736C65.5756 54.6954 66.9435 57.5381 66.7823 57.8326C66.4594 58.4572 65.772 58.5212 64.9297 57.7557C64.5212 57.3878 63.8688 54.7629 63.4797 54.443C62.573 53.692 61.9269 53.6801 61.5663 54.3365C61.4154 54.6222 62.8944 57.5062 62.6087 57.6438C60.6843 58.643 59.0361 59.7767 55.8297 56.4833C55.6102 56.2569 53.21 50.1863 53.3939 51.4455C54.0127 53.1465 54.7644 55.1392 55.4381 56.953C53.3357 58.7777 50.3813 57.4427 48.4441 57.8685C48.3652 57.8861 49.8953 60.998 49.7557 61.0459C48.9352 61.334 48.766 62.4619 46.6017 59.6872C46.388 59.4171 43.6121 53.9871 43.8302 54.9093C43.8694 55.0774 43.9566 55.9465 44.5303 57.1416C44.6184 57.3209 46.0257 59.7979 45.9922 59.9093C45.7743 60.5133 45.1534 60.1229 43.938 58.8325C43.737 58.621 42.1188 56.0522 41.9546 55.8839C40.7483 54.7455 41.8775 56.7747 40.0236 54.7241C38.7417 53.37 35.5116 49.2296 32.0973 45.3443C31.6117 44.7988 31.3529 44.8642 29.3963 42.5809C24.4663 36.8465 19.2937 30.3767 14.0312 24.2706C12.8951 22.9556 13.4862 24.9133 11.1283 21.4076C10.9699 21.1722 10.5495 19.704 9.77056 18.5027C9.23249 17.6708 7.11705 15.4512 6.50691 14.3216C5.90504 13.1873 7.73472 15.0031 7.12338 13.5984C6.5121 12.1726 4.20802 9.55358 4.65151 8.69222ZM135.457 36.6792C135.496 33.794 134.075 44.1342 134.768 41.723C134.803 41.5942 135.456 36.8209 135.457 36.6792ZM175.418 41.2104C175.714 36.5833 174.426 43.2187 174.176 46.787C173.912 50.349 175.322 42.612 175.418 41.2104ZM180.078 38.7902C180.297 35.1237 177.517 49.6258 178.487 46.7909C178.543 46.631 180.064 39.0029 180.078 38.7902ZM31.9891 43.5651C31.9015 43.4528 31.6633 43.4576 31.7446 43.5729C33.7277 46.3332 34.1567 46.3558 31.9891 43.5651ZM184.594 36.3072C185.128 34.3848 184.063 36.4392 183.482 38.8543C182.974 40.7816 183.877 38.6768 184.594 36.3072ZM119.729 22.8692C119.741 22.7136 119.565 22.5448 119.474 23.4206C119.183 26.2416 119.536 25.487 119.729 22.8692ZM189.222 39.689C189.063 38.6747 197.012 29.6412 197.145 31.777C197.144 32.1394 193.934 33.9267 193.369 34.9106C192.272 36.6285 198.202 31.98 195.543 35.078C195.031 35.6143 189.198 39.7475 189.208 39.6986C189.213 39.6954 189.217 39.6922 189.222 39.689ZM136.909 24.214C136.92 24.076 136.673 23.8991 136.649 24.0336C136.069 27.2934 136.569 27.652 136.909 24.214ZM109.185 14.7337C109.199 14.4383 108.596 14.0751 108.551 14.3428C107.717 19.7019 108.909 20.4485 109.185 14.7337ZM155.495 19.2392C156.098 15.9542 156.489 15.612 156.327 19.8199C156.059 19.5579 155.77 19.4845 155.495 19.2392Z" fill="#E5B80B"/>
</g>
<g filter="url(#filter1_d_426_190)">
<path d="M41.1867 30.6821C40.3747 30.6821 39.5767 30.5841 38.7927 30.3881C38.0227 30.1921 37.2947 29.9401 36.6087 29.6321C36.3007 30.8921 36.0347 32.2711 35.8107 33.7691C35.7547 34.1891 35.6707 34.5741 35.5587 34.9241C35.4467 35.2601 35.2717 35.5331 35.0337 35.7431C34.7957 35.9531 34.4457 36.0581 33.9837 36.0581C33.5497 36.0581 33.2627 35.8901 33.1227 35.5541C32.9827 35.2181 32.9127 34.8051 32.9127 34.3151C32.9127 34.1611 32.9687 33.7621 33.0807 33.1181C33.1927 32.4741 33.3327 31.6971 33.5007 30.7871C33.6687 29.8631 33.8437 28.9111 34.0257 27.9311C33.4517 27.3571 33.1647 26.8321 33.1647 26.3561C33.1647 26.1181 33.2347 25.8941 33.3747 25.6841C33.5287 25.4601 33.8227 25.3481 34.2567 25.3481C34.3127 25.3481 34.3897 25.3691 34.4877 25.4111C34.6277 24.6271 34.7467 23.9271 34.8447 23.3111C34.9567 22.6811 35.0197 22.2261 35.0337 21.9461C35.0617 21.4141 35.1457 21.0221 35.2857 20.7701C35.4257 20.5041 35.6007 20.3291 35.8107 20.2451C36.0347 20.1471 36.2587 20.0981 36.4827 20.0981C36.7767 20.0981 37.0007 20.1611 37.1547 20.2871C37.3087 20.4131 37.3857 20.6931 37.3857 21.1271C37.3857 21.5471 37.3787 21.9321 37.3647 22.2821C38.0507 21.1061 38.7647 20.2801 39.5067 19.8041C40.2487 19.3141 41.0607 19.0691 41.9427 19.0691C42.8107 19.0691 43.5667 19.3071 44.2107 19.7831C44.8547 20.2591 45.3517 20.9451 45.7017 21.8411C46.0657 22.7231 46.2477 23.7871 46.2477 25.0331C46.2477 26.9371 45.8067 28.3581 44.9247 29.2961C44.0567 30.2201 42.8107 30.6821 41.1867 30.6821ZM37.3227 27.1541C37.8407 27.4341 38.3937 27.6791 38.9817 27.8891C39.5697 28.0851 40.1717 28.1831 40.7877 28.1831C41.7817 28.1831 42.5097 27.9241 42.9717 27.4061C43.4477 26.8881 43.6857 26.0341 43.6857 24.8441C43.6857 22.7301 43.0487 21.6731 41.7747 21.6731C40.9627 21.6731 40.1717 22.1281 39.4017 23.0381C38.6457 23.9481 37.9527 25.3201 37.3227 27.1541ZM52.1415 36.7091C51.1475 36.7091 50.3495 36.3591 49.7475 35.6591C49.1455 34.9451 48.8445 33.9931 48.8445 32.8031C48.8445 32.4251 48.8935 32.0401 48.9915 31.6481C49.1035 31.2561 49.2365 30.8921 49.3905 30.5561C49.3065 30.4301 49.2365 30.2691 49.1805 30.0731C49.1385 29.8631 49.1175 29.6181 49.1175 29.3381C49.1175 28.4281 49.2785 27.5951 49.6005 26.8391C49.9225 26.0691 50.3565 25.4041 50.9025 24.8441C51.4485 24.2841 52.0505 23.8501 52.7085 23.5421C53.3665 23.2341 54.0315 23.0801 54.7035 23.0801C55.8515 23.0801 56.7895 23.4651 57.5175 24.2351C58.2595 25.0051 58.6305 26.2021 58.6305 27.8261C58.6305 28.6381 58.5045 29.4641 58.2525 30.3041C58.0005 31.1441 57.6575 31.9491 57.2235 32.7191C56.8035 33.4751 56.3135 34.1541 55.7535 34.7561C55.2075 35.3581 54.6195 35.8341 53.9895 36.1841C53.3735 36.5341 52.7575 36.7091 52.1415 36.7091ZM51.8055 29.6111C51.8755 29.7651 51.9105 29.9471 51.9105 30.1571C51.9105 30.3671 51.8685 30.5841 51.7845 30.8081C51.7005 31.0321 51.6165 31.3331 51.5325 31.7111C51.4485 32.0751 51.4065 32.6001 51.4065 33.2861C51.4065 33.4681 51.4275 33.6221 51.4695 33.7481C51.5255 33.8601 51.6445 33.9161 51.8265 33.9161C52.3025 33.9161 52.7505 33.7621 53.1705 33.4541C53.6045 33.1461 53.9895 32.7401 54.3255 32.2361C54.6755 31.7321 54.9695 31.1721 55.2075 30.5561C55.4595 29.9261 55.6485 29.2891 55.7745 28.6451C55.9145 27.9871 55.9845 27.3781 55.9845 26.8181C55.9845 26.4541 55.9145 26.2021 55.7745 26.0621C55.6345 25.9221 55.3895 25.8521 55.0395 25.8521C54.5635 25.8521 54.0735 26.0061 53.5695 26.3141C53.0795 26.6081 52.6665 27.0141 52.3305 27.5321C51.9945 28.0361 51.8265 28.6101 51.8265 29.2541C51.8265 29.3801 51.8195 29.4991 51.8055 29.6111ZM78.6026 37.9271C78.0286 37.9271 77.6226 37.8711 77.3846 37.7591C77.1466 37.6611 76.9996 37.5421 76.9436 37.4021C76.9016 37.2621 76.8806 37.1291 76.8806 37.0031C76.8806 36.9891 76.8806 36.9751 76.8806 36.9611C76.8806 36.7651 76.9646 36.5551 77.1326 36.3311C77.3006 36.1211 77.4966 35.9531 77.7206 35.8271C78.0146 35.6591 78.3086 35.4771 78.6026 35.2811C78.9106 35.0851 79.1626 34.8821 79.3586 34.6721C79.5686 34.4481 79.6736 34.2241 79.6736 34.0001C79.6736 33.8461 79.5126 33.6781 79.1906 33.4961C78.8686 33.3001 78.4696 33.0761 77.9936 32.8241C77.5316 32.5721 77.0626 32.2851 76.5866 31.9631C76.1106 31.6411 75.7116 31.2701 75.3896 30.8501C75.0676 30.4301 74.9066 29.9611 74.9066 29.4431C74.9066 29.2471 74.9276 29.0441 74.9696 28.8341C74.5076 29.0861 74.0526 29.3381 73.6046 29.5901C73.1706 29.8421 72.7436 30.0941 72.3236 30.3461C72.3236 30.4021 72.3236 30.4581 72.3236 30.5141C72.3236 31.3121 72.1626 32.1031 71.8406 32.8871C71.5326 33.6571 71.1196 34.3571 70.6016 34.9871C70.0976 35.6171 69.5306 36.1211 68.9006 36.4991C68.2706 36.8771 67.6406 37.0661 67.0106 37.0661C65.9186 37.0661 65.1066 36.8211 64.5746 36.3311C64.0566 35.8411 63.7976 35.2671 63.7976 34.6091C63.7976 33.9651 64.0146 33.4191 64.4486 32.9711C64.8826 32.5231 65.5266 32.0611 66.3806 31.5851C66.6886 31.3891 67.1156 31.1441 67.6616 30.8501C68.2216 30.5421 68.8446 30.1991 69.5306 29.8211C69.4326 29.7931 69.3136 29.7791 69.1736 29.7791C68.9916 29.7791 68.6976 29.8421 68.2916 29.9681C67.8856 30.0801 67.4166 30.2271 66.8846 30.4091C66.3666 30.5771 65.8346 30.7451 65.2886 30.9131C64.7566 31.0811 64.2666 31.2281 63.8186 31.3541C63.3706 31.4661 63.0206 31.5221 62.7686 31.5221C62.0826 31.5221 61.5646 31.3471 61.2146 30.9971C60.8786 30.6471 60.7106 30.2131 60.7106 29.6951C60.7106 29.3731 60.8436 28.9881 61.1096 28.5401C61.3756 28.0921 61.7256 27.6161 62.1596 27.1121C62.6076 26.6081 63.0976 26.1111 63.6296 25.6211C64.1616 25.1311 64.7006 24.6901 65.2466 24.2981C65.7926 23.9061 66.3106 23.5911 66.8006 23.3531C67.2906 23.1151 67.6966 22.9961 68.0186 22.9961C68.4246 22.9961 68.7466 23.1361 68.9846 23.4161C69.2226 23.6821 69.3416 24.0461 69.3416 24.5081C69.3416 24.7461 69.2856 24.9701 69.1736 25.1801C69.0756 25.3901 68.8796 25.5651 68.5856 25.7051C68.2916 25.8311 67.8576 25.9081 67.2836 25.9361C67.0176 26.1041 66.6956 26.3281 66.3176 26.6081C65.9396 26.8881 65.5616 27.1821 65.1836 27.4901C64.8196 27.7981 64.4906 28.0921 64.1966 28.3721C63.9166 28.6521 63.7276 28.8901 63.6296 29.0861C63.8536 29.0441 64.1756 28.9461 64.5956 28.7921C65.0156 28.6381 65.4916 28.4771 66.0236 28.3091C66.5696 28.1271 67.1226 27.9731 67.6826 27.8471C68.2426 27.7071 68.7606 27.6371 69.2366 27.6371C70.3986 27.6371 71.2386 27.9591 71.7566 28.6031C72.4986 28.1971 73.2546 27.7911 74.0246 27.3851C74.7946 26.9651 75.5436 26.5591 76.2716 26.1671C76.7056 25.6071 77.2026 25.0891 77.7626 24.6131C78.3226 24.1231 78.9036 23.6891 79.5056 23.3111C80.1216 22.9331 80.7096 22.6391 81.2696 22.4291C81.8436 22.2191 82.3616 22.1141 82.8236 22.1141C83.2016 22.1141 83.4886 22.2261 83.6846 22.4501C83.8806 22.6601 83.9786 22.8841 83.9786 23.1221C83.9786 23.2201 83.9576 23.3181 83.9156 23.4161C83.8876 23.5141 83.7966 23.6401 83.6426 23.7941C83.4886 23.9341 83.2226 24.1231 82.8446 24.3611C82.4806 24.5851 81.9626 24.8861 81.2906 25.2641C80.9406 25.4601 80.5696 25.6701 80.1776 25.8941C79.7856 26.1041 79.3796 26.3281 78.9596 26.5661C78.5396 27.0001 78.1826 27.4621 77.8886 27.9521C77.5946 28.4281 77.4476 28.8971 77.4476 29.3591C77.4476 29.6251 77.6016 29.8771 77.9096 30.1151C78.2316 30.3531 78.6236 30.5981 79.0856 30.8501C79.5616 31.0881 80.0306 31.3611 80.4926 31.6691C80.9546 31.9771 81.3396 32.3341 81.6476 32.7401C81.9696 33.1461 82.1306 33.6291 82.1306 34.1891C82.1306 34.6091 82.0186 35.0431 81.7946 35.4911C81.5846 35.9251 81.3046 36.3241 80.9546 36.6881C80.6186 37.0661 80.2406 37.3671 79.8206 37.5911C79.4146 37.8151 79.0086 37.9271 78.6026 37.9271ZM69.7406 31.8161C68.7046 32.4181 67.9346 32.8661 67.4306 33.1601C67.1646 33.3141 66.9336 33.4611 66.7376 33.6011C66.5416 33.7271 66.4436 33.9231 66.4436 34.1891C66.4436 34.5671 66.6956 34.7561 67.1996 34.7561C67.5356 34.7561 67.8646 34.6021 68.1866 34.2941C68.5226 33.9861 68.8236 33.6081 69.0896 33.1601C69.3696 32.7121 69.5866 32.2641 69.7406 31.8161ZM63.5876 29.2331C63.5876 29.2471 63.5876 29.2611 63.5876 29.2751C63.5876 29.2611 63.5876 29.2471 63.5876 29.2331ZM86.9345 36.3311C86.5425 36.3311 86.1925 36.1981 85.8845 35.9321C85.5905 35.6661 85.4435 35.2321 85.4435 34.6301C85.4435 34.3081 85.4855 33.8531 85.5695 33.2651C85.6675 32.6771 85.7935 32.0401 85.9475 31.3541C86.1015 30.6541 86.2695 29.9611 86.4515 29.2751C86.6475 28.5891 86.8365 27.9801 87.0185 27.4481C87.2005 26.9021 87.3615 26.4961 87.5015 26.2301C87.6835 25.9081 87.8515 25.7121 88.0055 25.6421C88.1735 25.5581 88.3345 25.5161 88.4885 25.5161C88.7685 25.5161 89.0275 25.6001 89.2655 25.7681C89.5175 25.9361 89.6435 26.3071 89.6435 26.8811C89.6435 27.1051 89.6015 27.4691 89.5175 27.9731C89.4335 28.4631 89.3285 29.0371 89.2025 29.6951C89.0765 30.3531 88.9365 31.0321 88.7825 31.7321C88.6425 32.4321 88.5025 33.0971 88.3625 33.7271C88.2365 34.3431 88.1315 34.8611 88.0475 35.2811C87.9775 35.6311 87.8305 35.8901 87.6065 36.0581C87.3965 36.2401 87.1725 36.3311 86.9345 36.3311ZM89.3495 23.4371C88.8875 23.4371 88.4605 23.3041 88.0685 23.0381C87.6765 22.7581 87.4805 22.3311 87.4805 21.7571C87.4805 21.2811 87.5995 20.8961 87.8375 20.6021C88.0755 20.3081 88.3555 20.0981 88.6775 19.9721C89.0135 19.8321 89.3075 19.7621 89.5595 19.7621C89.8115 19.7621 90.0915 19.8181 90.3995 19.9301C90.7075 20.0281 90.9735 20.2171 91.1975 20.4971C91.4355 20.7631 91.5545 21.1481 91.5545 21.6521C91.5545 21.9881 91.4355 22.2961 91.1975 22.5761C90.9595 22.8421 90.6655 23.0521 90.3155 23.2061C89.9795 23.3601 89.6575 23.4371 89.3495 23.4371ZM94.9584 36.6671C94.1184 36.6671 93.5374 36.4991 93.2154 36.1631C92.9074 35.8411 92.7534 35.3931 92.7534 34.8191C92.7534 32.3831 93.2084 29.8421 94.1184 27.1961C95.0424 24.5361 96.3374 21.8691 98.0034 19.1951C98.2834 18.7331 98.5144 18.4601 98.6964 18.3761C98.8784 18.2921 99.0814 18.2501 99.3054 18.2501C99.6274 18.2501 99.9074 18.3621 100.145 18.5861C100.397 18.8101 100.523 19.1041 100.523 19.4681C100.523 19.5801 100.404 19.8881 100.166 20.3921C99.9284 20.8961 99.6134 21.5401 99.2214 22.3241C98.8434 23.1081 98.4304 23.9971 97.9824 24.9911C97.5344 25.9711 97.0934 27.0071 96.6594 28.0991C96.2394 29.1911 95.8754 30.2901 95.5674 31.3961C96.0434 30.7941 96.5824 30.1781 97.1844 29.5481C97.8004 28.9041 98.4374 28.3161 99.0954 27.7841C99.7534 27.2381 100.39 26.8041 101.006 26.4821C101.622 26.1461 102.175 25.9781 102.665 25.9781C103.127 25.9781 103.554 26.0901 103.946 26.3141C104.352 26.5381 104.681 26.8881 104.933 27.3641C105.185 27.8401 105.311 28.4561 105.311 29.2121C105.311 30.0381 105.073 30.8851 104.597 31.7531C104.135 32.6211 103.456 33.4261 102.56 34.1681C101.678 34.9101 100.593 35.5121 99.3054 35.9741C98.0314 36.4361 96.5824 36.6671 94.9584 36.6671ZM95.8404 34.2731C96.9184 34.1891 97.8914 33.9581 98.7594 33.5801C99.6414 33.2021 100.397 32.7331 101.027 32.1731C101.657 31.6131 102.14 31.0251 102.476 30.4091C102.812 29.7791 102.98 29.1841 102.98 28.6241C102.98 28.4981 102.945 28.4351 102.875 28.4351C102.581 28.4351 102.21 28.5681 101.762 28.8341C101.314 29.0861 100.824 29.4291 100.292 29.8631C99.7604 30.2971 99.2214 30.7731 98.6754 31.2911C98.1294 31.8091 97.6114 32.3271 97.1214 32.8451C96.6314 33.3631 96.2044 33.8391 95.8404 34.2731ZM108.427 36.3311C108.035 36.3311 107.685 36.1981 107.377 35.9321C107.083 35.6661 106.936 35.2321 106.936 34.6301C106.936 34.3081 106.978 33.8531 107.062 33.2651C107.16 32.6771 107.286 32.0401 107.44 31.3541C107.594 30.6541 107.762 29.9611 107.944 29.2751C108.14 28.5891 108.329 27.9801 108.511 27.4481C108.693 26.9021 108.854 26.4961 108.994 26.2301C109.176 25.9081 109.344 25.7121 109.498 25.6421C109.666 25.5581 109.827 25.5161 109.981 25.5161C110.261 25.5161 110.52 25.6001 110.758 25.7681C111.01 25.9361 111.136 26.3071 111.136 26.8811C111.136 27.1051 111.094 27.4691 111.01 27.9731C110.926 28.4631 110.821 29.0371 110.695 29.6951C110.569 30.3531 110.429 31.0321 110.275 31.7321C110.135 32.4321 109.995 33.0971 109.855 33.7271C109.729 34.3431 109.624 34.8611 109.54 35.2811C109.47 35.6311 109.323 35.8901 109.099 36.0581C108.889 36.2401 108.665 36.3311 108.427 36.3311ZM110.842 23.4371C110.38 23.4371 109.953 23.3041 109.561 23.0381C109.169 22.7581 108.973 22.3311 108.973 21.7571C108.973 21.2811 109.092 20.8961 109.33 20.6021C109.568 20.3081 109.848 20.0981 110.17 19.9721C110.506 19.8321 110.8 19.7621 111.052 19.7621C111.304 19.7621 111.584 19.8181 111.892 19.9301C112.2 20.0281 112.466 20.2171 112.69 20.4971C112.928 20.7631 113.047 21.1481 113.047 21.6521C113.047 21.9881 112.928 22.2961 112.69 22.5761C112.452 22.8421 112.158 23.0521 111.808 23.2061C111.472 23.3601 111.15 23.4371 110.842 23.4371ZM118.357 37.0661C117.097 37.0661 116.103 36.6811 115.375 35.9111C114.661 35.1271 114.304 34.0141 114.304 32.5721C114.304 31.7881 114.409 30.8711 114.619 29.8211C114.829 28.7571 115.102 27.6371 115.438 26.4611C115.788 25.2711 116.159 24.0951 116.551 22.9331C116.957 21.7711 117.356 20.6931 117.748 19.6991C118.14 18.7051 118.483 17.8721 118.777 17.2001C119.029 16.6821 119.386 16.4231 119.848 16.4231C120.142 16.4231 120.38 16.5141 120.562 16.6961C120.758 16.8781 120.856 17.1721 120.856 17.5781C120.856 17.7741 120.758 18.2011 120.562 18.8591C120.366 19.5171 120.107 20.3291 119.785 21.2951C119.477 22.2471 119.141 23.2761 118.777 24.3821C118.427 25.4881 118.091 26.6011 117.769 27.7211C117.461 28.8411 117.209 29.8981 117.013 30.8921C116.817 31.8721 116.719 32.7051 116.719 33.3911C116.719 33.6711 116.796 33.8951 116.95 34.0631C117.118 34.2311 117.335 34.3151 117.601 34.3151C118.175 34.3151 118.763 34.2101 119.365 34.0001C119.981 33.7901 120.583 33.5241 121.171 33.2021C121.773 32.8801 122.34 32.5371 122.872 32.1731C123.404 31.8091 123.88 31.4661 124.3 31.1441C124.734 30.8081 125.084 30.5421 125.35 30.3461C125.7 30.0801 125.938 29.9471 126.064 29.9471C126.54 29.9471 126.778 30.1781 126.778 30.6401C126.778 30.7521 126.638 30.9831 126.358 31.3331C126.12 31.6411 125.784 32.0331 125.35 32.5091C124.916 32.9851 124.412 33.4891 123.838 34.0211C123.278 34.5391 122.676 35.0291 122.032 35.4911C121.402 35.9531 120.772 36.3311 120.142 36.6251C119.512 36.9191 118.917 37.0661 118.357 37.0661ZM128.927 36.9401C128.157 36.9401 127.471 36.7301 126.869 36.3101C126.267 35.9041 125.791 35.3301 125.441 34.5881C125.105 33.8461 124.937 32.9781 124.937 31.9841C124.937 30.9201 125.063 29.8841 125.315 28.8761C125.567 27.8541 125.889 26.9371 126.281 26.1251C126.673 25.2991 127.065 24.6481 127.457 24.1721C127.863 23.6821 128.213 23.4371 128.507 23.4371C128.815 23.4371 129.067 23.5281 129.263 23.7101C129.473 23.8921 129.578 24.1651 129.578 24.5291C129.578 24.5851 129.515 24.7881 129.389 25.1381C129.277 25.4741 129.13 25.9081 128.948 26.4401C128.766 26.9581 128.584 27.5391 128.402 28.1831C128.22 28.8131 128.066 29.4571 127.94 30.1151C127.828 30.7731 127.772 31.4031 127.772 32.0051C127.772 32.7331 127.884 33.3141 128.108 33.7481C128.332 34.1821 128.815 34.3991 129.557 34.3991C130.313 34.3991 131.048 34.1821 131.762 33.7481C132.49 33.3141 133.19 32.7331 133.862 32.0051C134.534 31.2631 135.178 30.4371 135.794 29.5271C135.066 29.5831 134.38 29.6111 133.736 29.6111C133.302 29.6111 132.987 29.5691 132.791 29.4851C132.595 29.3871 132.469 29.2611 132.413 29.1071C132.371 28.9531 132.35 28.7711 132.35 28.5611C132.35 28.2671 132.483 28.0011 132.749 27.7631C133.015 27.5251 133.309 27.3991 133.631 27.3851C134.233 27.3431 134.842 27.2941 135.458 27.2381C136.088 27.1821 136.711 27.1191 137.327 27.0491C137.789 26.2231 138.216 25.4041 138.608 24.5921C139.014 23.7661 139.385 22.9891 139.721 22.2611C140.043 21.3511 140.386 20.5111 140.75 19.7411C141.128 18.9571 141.492 18.3271 141.842 17.8511C142.192 17.3751 142.521 17.1371 142.829 17.1371C143.193 17.1371 143.466 17.2351 143.648 17.4311C143.844 17.6271 143.942 17.8861 143.942 18.2081C143.942 18.3061 143.872 18.5931 143.732 19.0691C143.592 19.5451 143.396 20.1611 143.144 20.9171C142.906 21.6731 142.633 22.5271 142.325 23.4791C142.031 24.4171 141.716 25.4111 141.38 26.4611C142.71 26.2371 143.921 26.0201 145.013 25.8101C146.119 25.6001 147.022 25.4251 147.722 25.2851C148.422 25.1451 148.842 25.0751 148.982 25.0751C149.262 25.0751 149.493 25.2081 149.675 25.4741C149.857 25.7261 149.948 25.9711 149.948 26.2091C149.948 26.3491 149.689 26.5311 149.171 26.7551C148.667 26.9791 147.974 27.2241 147.092 27.4901C146.224 27.7421 145.23 28.0011 144.11 28.2671C143.004 28.5191 141.842 28.7431 140.624 28.9391C140.288 30.0451 139.966 31.1301 139.658 32.1941C139.364 33.2441 139.112 34.2171 138.902 35.1131C138.804 35.5051 138.643 35.8061 138.419 36.0161C138.209 36.2121 137.922 36.3101 137.558 36.3101C137.18 36.3101 136.9 36.2191 136.718 36.0371C136.536 35.8691 136.445 35.5611 136.445 35.1131C136.445 35.0711 136.487 34.8401 136.571 34.4201C136.669 33.9861 136.788 33.4541 136.928 32.8241C137.082 32.1801 137.229 31.5221 137.369 30.8501C136.543 31.9981 135.668 33.0341 134.744 33.9581C133.82 34.8821 132.868 35.6101 131.888 36.1421C130.908 36.6741 129.921 36.9401 128.927 36.9401ZM128.99 21.9881C128.528 21.9881 128.15 21.8481 127.856 21.5681C127.562 21.2741 127.415 20.9311 127.415 20.5391C127.415 20.0631 127.59 19.6571 127.94 19.3211C128.304 18.9851 128.731 18.8171 129.221 18.8171C129.767 18.8171 130.18 18.9641 130.46 19.2581C130.754 19.5521 130.901 19.9441 130.901 20.4341C130.901 20.7841 130.719 21.1341 130.355 21.4841C129.991 21.8201 129.536 21.9881 128.99 21.9881ZM148.762 43.7911C147.978 43.7911 147.264 43.7421 146.62 43.6441C145.976 43.5601 145.346 43.4201 144.73 43.2241C144.114 43.0281 143.449 42.7691 142.735 42.4471C142.441 42.3071 142.196 42.1601 142 42.0061C141.804 41.8521 141.706 41.6211 141.706 41.3131C141.706 40.8651 141.846 40.5221 142.126 40.2841C142.392 40.0601 142.763 39.9481 143.239 39.9481C143.491 39.9481 143.813 40.0321 144.205 40.2001C144.597 40.3821 145.045 40.5851 145.549 40.8091C146.067 41.0471 146.641 41.2501 147.271 41.4181C147.901 41.6001 148.58 41.6911 149.308 41.6911C150.05 41.6911 150.743 41.3831 151.387 40.7671C152.031 40.1511 152.549 39.2831 152.941 38.1631C153.347 37.0571 153.55 35.7481 153.55 34.2361C153.55 33.8861 153.543 33.5081 153.529 33.1021C153.515 32.6821 153.501 32.2411 153.487 31.7791C152.983 32.7311 152.437 33.6201 151.849 34.4461C151.261 35.2721 150.652 35.9441 150.022 36.4621C149.406 36.9661 148.783 37.2181 148.153 37.2181C147.383 37.2181 146.823 37.0361 146.473 36.6721C146.137 36.2941 145.969 35.6991 145.969 34.8871C145.969 34.2011 146.018 33.4521 146.116 32.6401C146.228 31.8141 146.375 30.9811 146.557 30.1411C146.739 29.3011 146.949 28.5031 147.187 27.7471C147.439 26.9771 147.705 26.3121 147.985 25.7521C148.195 25.3461 148.517 25.1431 148.951 25.1431C149.231 25.1431 149.511 25.2761 149.791 25.5421C150.085 25.8081 150.232 26.1651 150.232 26.6131C150.232 26.8651 150.169 27.2291 150.043 27.7051C149.917 28.1811 149.763 28.7201 149.581 29.3221C149.413 29.9101 149.238 30.5331 149.056 31.1911C148.874 31.8351 148.72 32.4721 148.594 33.1021C148.468 33.7181 148.405 34.2781 148.405 34.7821C148.405 34.8381 148.447 34.8661 148.531 34.8661C148.699 34.8661 148.923 34.7261 149.203 34.4461C149.497 34.1521 149.819 33.7741 150.169 33.3121C150.533 32.8361 150.897 32.3181 151.261 31.7581C151.639 31.1841 152.003 30.6171 152.353 30.0571C152.703 29.4971 153.018 28.9861 153.298 28.5241C153.256 28.3001 153.228 28.1041 153.214 27.9361C153.214 27.7541 153.214 27.6001 153.214 27.4741C153.214 26.9001 153.312 26.4241 153.508 26.0461C153.718 25.6681 154.124 25.4791 154.726 25.4791C155.118 25.4791 155.419 25.6261 155.629 25.9201C155.839 26.2001 155.944 26.5991 155.944 27.1171C155.944 27.3411 155.909 27.6001 155.839 27.8941C155.769 28.1741 155.629 28.6221 155.419 29.2381L155.65 28.5871C155.776 29.8471 155.881 30.9671 155.965 31.9471C156.063 32.9271 156.112 33.9001 156.112 34.8661C156.112 36.6861 155.804 38.2611 155.188 39.5911C154.586 40.9351 153.732 41.9711 152.626 42.6991C151.534 43.4271 150.246 43.7911 148.762 43.7911Z" fill="#0E0E0E"/>
</g>
<defs>
<filter id="filter0_d_426_190" x="0.595215" y="0.524414" width="200.55" height="68.9924" filterUnits="userSpaceOnUse" color-interpolation-filters="sRGB">
<feFlood flood-opacity="0" result="BackgroundImageFix"/>
<feColorMatrix in="SourceAlpha" type="matrix" values="0 0 0 0 0 0 0 0 0 0 0 0 0 0 0 0 0 0 127 0" result="hardAlpha"/>
<feOffset dy="4"/>
<feGaussianBlur stdDeviation="2"/>
<feComposite in2="hardAlpha" operator="out"/>
<feColorMatrix type="matrix" values="0 0 0 0 0 0 0 0 0 0 0 0 0 0 0 0 0 0 0.25 0"/>
<feBlend mode="normal" in2="BackgroundImageFix" result="effect1_dropShadow_426_190"/>
<feBlend mode="normal" in="SourceGraphic" in2="effect1_dropShadow_426_190" result="shape"/>
</filter>
<filter id="filter1_d_426_190" x="28.9126" y="16.4231" width="131.199" height="35.3679" filterUnits="userSpaceOnUse" color-interpolation-filters="sRGB">
<feFlood flood-opacity="0" result="BackgroundImageFix"/>
<feColorMatrix in="SourceAlpha" type="matrix" values="0 0 0 0 0 0 0 0 0 0 0 0 0 0 0 0 0 0 127 0" result="hardAlpha"/>
<feOffset dy="4"/>
<feGaussianBlur stdDeviation="2"/>
<feComposite in2="hardAlpha" operator="out"/>
<feColorMatrix type="matrix" values="0 0 0 0 0 0 0 0 0 0 0 0 0 0 0 0 0 0 0.25 0"/>
<feBlend mode="normal" in2="BackgroundImageFix" result="effect1_dropShadow_426_190"/>
<feBlend mode="normal" in="SourceGraphic" in2="effect1_dropShadow_426_190" result="shape"/>
</filter>
</defs>
</svg>
