<svg width="179" height="69" viewBox="0 0 179 69" fill="none" xmlns="http://www.w3.org/2000/svg">
<g filter="url(#filter0_d_426_196)">
<path d="M4.15549 10.716C4.88167 8.77453 7.34461 8.0462 9.45457 8.18224C10.1161 8.21763 11.0581 9.8891 11.555 9.99265C12.5148 10.2029 12.4505 9.10217 13.4684 9.46779C13.8074 9.59937 15.341 12.2019 15.6504 12.2881C17.3173 12.7558 17.7209 11.5791 18.9532 11.569C24.9576 11.588 29.0656 10.9692 33.0953 10.6999C34.4229 10.613 36.858 12.5459 37.4457 11.0133C37.5137 10.8317 36.3623 8.45756 36.2976 8.24938C35.317 5.05821 37.3631 9.9664 37.8942 10.5113C39.9935 12.662 41.128 12.4575 41.5781 11.1687C41.765 10.6139 39.2501 5.99375 40.8219 8.52006C40.929 8.69037 41.9865 11.2803 42.2093 11.5105C42.7133 12.0273 42.9346 11.3918 43.1981 11.5209C43.7133 11.7822 43.7569 11.733 44.0804 11.6294C44.53 11.511 45.6173 12.5559 45.7869 11.7876C45.8185 11.6165 44.4688 9.07615 44.4046 8.57059C44.3413 8.06572 44.8189 8.11849 45.2395 8.6705C45.6602 9.22308 46.59 11.2782 46.838 11.7334C48.2191 14.268 47.7433 12.6711 47.2384 11.252C47.0235 10.4987 46.8031 9.79277 46.8112 9.73317C47.3734 6.68117 50.2326 9.24727 51.6862 8.71886C52.8107 8.30183 53.6391 6.84559 54.7624 6.67427C56.1027 6.48176 57.6034 7.68092 58.6957 7.13242C58.8126 7.07768 57.7253 3.89152 57.8702 3.81722C59.4199 3.02926 61.1404 3.02342 63.2298 4.90235C63.44 5.09372 63.9526 7.99007 64.2027 8.35253C65.7302 10.5052 68.4087 15.8991 66.0766 3.3224C66.8113 3.69338 67.6818 4.06015 68.7921 6.48116C69.5008 8.04047 69.8558 11.2267 69.9851 9.8177C70.0156 9.50352 69.2857 6.78703 69.3786 6.52275C69.7765 5.41162 70.638 6.18768 70.9321 4.67034C70.9917 4.35507 70.4327 1.90414 70.3732 1.45586C69.907 -2.17739 71.6556 3.66448 71.8495 4.07795C73.3358 7.15422 73.6474 5.79649 74.4023 5.75552C74.5782 5.74735 73.6909 2.47682 73.8365 2.35019C74.3031 1.98056 74.8184 1.88715 75.4197 2.1593C76.026 2.30628 76.6584 2.62899 77.2542 3.1584C77.5865 3.46263 77.7889 6.32282 77.9643 6.61398C78.6889 7.87021 78.0522 2.50067 78.7544 3.6126C78.8981 3.84081 79.148 6.27727 79.2027 6.54264C80.0235 10.7114 79.5486 4.75269 79.6287 4.61513C80.4753 2.75557 81.6403 8.95018 82.4102 8.05527C82.5092 7.94209 82.0648 4.85987 82.3626 4.73052C84.3545 3.85204 86.4837 4.78858 88.2212 7.37588C88.4931 7.77418 88.2489 10.0726 88.2621 10.359C88.4428 14.8321 88.7438 8.87823 88.8441 8.66079C89.6095 7.0993 90.045 12.1528 90.8227 5.1032C93.6741 7.84589 96.8854 4.27194 99.0438 11.0035C99.0713 11.0819 98.7222 13.9863 98.7777 14.13C99.4387 15.891 99.7293 11.3391 100.861 5.89155C101.149 4.5243 100.874 11.2716 100.858 11.7668C100.803 13.5925 100.205 17.9005 100.213 18.257C100.289 21.0588 101.754 6.73095 102.268 6.80867C102.282 6.83508 101.93 9.45916 101.944 9.72796C101.987 10.5715 102.232 9.54578 102.262 10.4736C102.33 12.62 101.665 19.5896 102.554 15.6154C102.668 15.0994 103.485 6.96935 103.896 7.42724C104.058 7.61654 104.865 7.60847 105.027 8.17112C105.187 8.73285 104.738 11.3219 104.741 11.4377C104.935 14.9924 104.547 16.3878 104.257 21.5545C103.968 26.7016 105.279 14.5289 105.555 13.1919C105.831 11.8588 105.931 14.782 105.925 15.7915C105.918 16.801 105.595 18.4398 105.625 19.0168C105.828 22.7879 106.59 13.0272 107.014 11.1314C108.017 6.64193 107.36 15.7217 107.702 16.6787C107.795 16.9372 107.929 14.8667 108.057 14.6922C108.557 14.0274 108.494 16.8835 109.252 14.3788C109.379 13.9711 110.334 8.60343 110.153 12.6257C110.126 13.2057 109.788 15.44 109.911 15.972C110.09 16.7697 110.523 17.3371 110.877 16.6264C111.135 16.1035 111.271 12.3976 111.407 13.5241C111.408 13.5308 111.409 13.5377 111.41 13.5447C111.484 14.0784 111.041 16.2154 111.197 17.0366C111.352 17.8576 111.929 17.8489 112.164 17.8093C112.391 17.7669 112.561 14.9345 112.598 14.7477C112.817 13.6783 113.389 12.3893 113.429 12.3992C115.409 12.3631 116.615 17.3968 118.652 16.1736C118.812 16.0818 119.108 13.1115 119.136 13.0671C119.804 11.9236 118.363 19.6994 118.351 22.3896C119.108 16.3912 119.162 17.5128 119.601 16.9224C119.813 16.6328 120.039 14.2975 120.087 14.0631C120.819 10.5895 120.371 15.1708 120.285 16.109C119.973 19.5613 120.713 15.5534 120.506 17.8613C120.299 20.1517 119.576 23.4671 119.907 23.4867C120.3 21.3628 120.841 15.7186 121.219 14.8599C122.662 11.6147 123.761 16.341 124.433 16.9357C125.104 17.5305 125.392 17.178 125.715 18.0314C126.307 19.5744 126.556 15.3608 127.263 13.5385C127.96 11.7138 126.474 21.9231 126.271 24.1383C126.07 26.353 126.427 24.0995 126.366 25.3256C126.305 26.5513 125.934 28.0169 126.085 28.5073C126.24 28.9983 127.274 25.1743 127.609 22.879C128.325 18.0177 128.681 12.8492 128.981 14.7363C128.999 14.8482 128.596 17.5314 128.678 17.823C129.107 19.218 129.626 19.8487 130.154 20.6126L130.074 20.6011C130.407 21.0532 130.732 21.5527 131.028 22.2925C131.136 22.5682 130.769 25.5688 130.829 25.7634C131.449 27.7988 131.589 22.6743 132.506 17.0855C131.772 24.5895 131.624 29.2216 132.211 29.3475C132.564 29.4259 132.785 26.135 133.216 23.8536C133.347 23.166 133.4 25.4544 133.583 23.9176C134.177 18.8937 134.429 13.2117 134.859 15.5486C134.877 15.6594 134.546 18.4086 134.626 18.5891C135.139 19.7696 135.676 14.5029 136.398 13.9589C136.975 13.5334 137.585 16.8804 138.134 17.4911C137.328 25.9299 138.057 24.0775 138.838 18.2926C139.192 18.5866 139.641 18.3199 139.933 19.1796C140.033 19.4728 139.71 21.9026 139.7 22.1689C139.538 26.3452 140.258 20.7118 140.363 20.5025C141.467 18.4815 141.756 22.8797 143.045 18.826C143.09 18.6799 143.755 12.8342 143.536 17.1444C143.52 17.4413 142.958 20.06 143.338 20.3293C143.716 20.5989 144.13 23.8555 144.982 21.2353C145.188 20.6046 146.05 15.912 145.916 19.6668C145.897 20.1765 145.669 21.8468 145.617 22.7887C145.453 25.79 146.214 19.8963 145.844 24.9491C145.479 30.0024 145.428 33.8239 146.387 30.4565C146.416 30.3588 147.095 25.7009 147.262 25.8048C147.529 25.9749 147.794 27.0151 148.094 27.0362C148.236 27.0443 148.499 24.1246 148.53 24.0757C149.674 22.6135 150.033 25.3223 150.878 26.6262C151.034 26.8712 152.099 23.0193 152.026 26.2087C151.948 29.7007 149.613 43.844 150.915 40.6179C151.411 39.323 154.502 21.4057 153.765 30.8612C155.371 28.8061 155.718 33.8033 157.499 30.8015C157.578 30.6686 158.66 25.7211 158.786 25.8216C158.965 25.9791 158.642 28.3349 158.756 28.5227C159.208 29.3651 160.147 27.5158 160.665 27.9803C160.864 28.1524 160.265 30.5208 160.481 30.7218C160.679 30.9161 161.608 27.8374 161.589 29.4498C161.572 30.6784 160.198 37.1236 160.2 37.9287C161.923 31.6865 162.095 31.8794 162.995 30.3904C163.176 30.1042 163.754 27.9221 163.877 27.6769C164.415 26.6399 163.99 28.4696 164.57 27.3444C164.714 27.0761 165.441 24.9946 165.609 24.6614C167.093 21.757 166.065 26.7236 165.734 27.5272C164.734 30.679 166.134 28.1998 165.853 29.5486C165.371 30.7761 164.234 31.9268 163.881 32.6296C163.749 32.8196 163.601 32.9478 163.428 32.9933C163.458 33.0787 163.717 33.2119 163.762 33.2909C163.821 33.9162 164.071 34.2647 164.207 34.4294C164.353 34.5988 164.47 34.6318 164.544 34.7411C164.617 34.8311 166.296 32.4488 166.346 32.4064C167.211 32.1524 165.328 34.6305 169.601 30.7214C159.171 41.4612 170.851 29.9139 169.209 32.5718C169.073 32.7844 163.738 37.4295 162.889 38.0353C162.052 38.6541 163.56 37.0266 162.323 38.078C161.988 38.2797 157.417 43.0876 157.227 43.4614C155.427 46.0728 162.255 37.9744 162.58 37.4884C166.396 32.4974 161.949 38.1133 161.827 38.637C161.008 40.1367 160.897 39.6155 159.622 39.1697C159.436 38.8445 158.371 38.2965 158.246 37.9453C158.688 38.5958 159.03 39.1214 159.066 39.6365C159.128 40.9589 155.885 47.1128 156.558 47.2396C158.321 47.3105 160.779 37.6813 158.184 45.796C157.618 47.5181 155.588 54.9391 157.113 49.0803C157.232 48.7181 158.452 43.3031 157.461 46.6608C157.341 47.0855 156.802 49.2649 156.741 49.4433C156.348 50.5976 156.676 48.832 156.33 49.624C155.994 50.4192 155.528 51.6158 155.496 50.8201C155.479 50.3447 156.144 46.1939 156.271 45.1689C156.644 42.2175 155.511 46.9259 156.058 43.3774C156.59 39.807 157.906 34.5075 157.934 32.1243C156.842 37.8698 155.708 43.7636 154.612 49.5422C153.978 49.1791 153.529 47.1417 152.703 47.2305C152.598 47.247 152.203 50.3778 152.08 50.4761C151.573 50.8797 151.525 48.5802 150.924 49.3703C150.466 49.9957 149.572 53.2155 149.095 53.9783C149.808 47.2922 148.893 49.4329 148.565 48.7488C148.446 48.5113 148.693 46.7366 148.663 46.137C148.539 43.9175 147.953 49.8325 147.721 50.7376C146.739 54.6021 148.436 41.2826 147.806 41.5059C147.771 41.5128 146.503 48.5477 146.404 48.9823C145.73 51.8111 146.66 46.5008 146.526 45.9406C146.281 44.9172 146.215 43.1725 145.532 45.1798C145.331 45.7746 144.507 50.1553 144.664 46.6848C144.684 46.2303 144.978 43.8826 144.968 43.7405C144.752 41.3635 143.881 48.7494 143.33 51.2079C142.781 53.6661 142.946 48.4953 143.023 47.0099C143.224 43.1677 143.38 45.4125 143.433 45.0412C144.08 40.6221 143.683 41.3355 143.483 40.9203C144.256 33.6651 143.873 34.0454 143.277 40.5198C143.212 41.2271 143.47 40.5809 143.483 40.9203C142.475 47.9978 142.036 48.8535 142.356 42.1387C142.505 38.9915 143.082 35.3867 142.349 36.6217C142.023 37.1802 141.59 42.1914 141.217 43.5171C140.369 46.5424 140.166 41.7727 139.55 42.4239C139.326 42.6602 139.238 45.4263 139.076 45.6822C138.647 46.3704 138.528 44.2668 138.072 45.2656C138.03 45.3596 137.823 48.2371 137.71 48.2569C136.841 48.463 136.284 46.5172 135.402 46.3363C134.967 46.2487 134.073 47.7224 133.654 47.3401C132.933 46.6951 132.357 42.3883 131.602 43.3096C131.116 43.8991 130.962 46.7838 130.611 48.7151C129.935 52.4593 129.88 45.578 129.882 44.5141C129.88 44.4786 130.314 43.853 130.238 42.3511C130.38 39.2628 129.888 44.5014 129.882 44.5141C129.885 43.8269 129.2 43.0741 129.005 43.6033C128.9 43.8926 128.72 46.6207 128.67 46.7201C128.383 47.2723 128.105 47.7243 127.834 48.0728C127.742 48.0156 127.399 48.0557 127.309 47.9965C126.311 49.0623 125.399 49.0843 124.618 47.9705C124.603 47.9123 124.988 44.8883 124.95 44.7894C124.444 43.3299 123.569 46.9583 122.732 49.0554C121.889 51.1504 121.525 50.3314 121.886 45.0852C121.384 45.6617 121.111 43.2604 120.973 41.808C120.839 40.3562 119.981 46.2218 119.935 46.3322C118.514 49.8754 118.477 46.4149 117.689 45.7245C117.314 45.3857 116.407 46.0851 115.91 46.6497C115.513 47.1053 115.503 45.6907 115.093 46.5169C115.037 46.6271 114.725 49.2519 114.7 49.3504C113.957 52.4219 114.968 46.0515 115.053 44.8958C115.365 40.6943 115.487 38.4482 114.811 40.3281C114.65 40.7575 113.195 49.9318 112.963 50.4423C112.658 51.088 113.152 47.7943 112.823 48.5553C112.796 48.6173 112.548 50.6594 112.418 50.5446C111.814 50.0392 111.231 48.7282 110.51 48.8195C110.414 48.8244 110.176 52.0888 110.033 52.1495C109.355 52.4311 108.671 52.2017 108.186 50.5835C108.067 50.1749 108.392 47.9141 108.425 47.2331C108.511 45.3836 108.376 45.551 108.197 46.3074C107.944 47.2314 107.624 49.0435 107.581 49.1003C105.707 51.7114 105.195 46.1614 103.51 48.484C103.418 48.6216 102.103 54.8771 102.477 49.3862C102.501 49.0207 102.889 43.404 102.229 47.1783C102.188 47.4144 102.015 50.3106 101.775 49.9723C101.54 49.6355 100.889 51.48 100.885 48.2656C100.885 47.2533 101.247 41.6462 100.401 46.0232C100.34 46.3282 98.6941 56.2694 99.2902 49.3214C99.3887 48.1777 100.24 40.8613 99.4191 44.5494C99.2621 45.2648 99.2167 46.9204 98.9054 47.9078C98.4307 49.4306 98.2421 47.4033 97.5259 50.6085C97.3986 51.1758 96.601 56.1066 96.7919 52.298C96.8212 51.7014 97.1452 49.265 97.0606 48.9732C96.6597 47.5742 95.9356 49.1251 95.5759 47.3506C95.4463 46.7266 95.9337 42.7815 95.8364 41.6901C95.739 40.5989 95.4292 39.5177 95.0518 41.2983C94.6773 43.0801 94.3113 49.4282 93.9689 49.8909C92.5029 51.9042 91.6202 48.0373 90.478 47.3596C90.3117 47.259 90.3144 49.544 90.0673 49.56C89.1141 49.6222 87.7279 51.6406 87.1641 46.763C86.6568 42.8511 87.3827 39.9386 86.9441 38.3335C86.7063 37.5665 86.5009 44.9671 86.4683 45.199C86.0675 47.5508 85.7421 44.2588 85.435 45.2621C85.3781 45.4706 85.5567 48.4784 85.5132 48.6227C85.3753 49.1425 85.1508 47.8007 85.0384 48.0481C84.9894 48.1661 85.1567 50.4624 85.105 50.2859C84.982 49.8905 84.8469 48.9274 84.5549 46.7811C84.5239 46.5857 84.3119 43.7285 84.218 43.6265C84.0872 43.4681 83.6414 41.3646 83.885 43.5553C83.957 44.2144 84.7827 49.433 84.2219 45.828C84.1105 45.0743 83.0215 38.8197 83.9619 44.224C84.059 44.7902 84.6585 47.8893 84.9802 48.9092C84.9497 49.5418 84.7755 49.4677 84.3095 47.7563C83.9779 46.5377 82.7278 41.4743 82.7176 42.3031C82.7204 42.4347 83.3879 45.205 83.3001 45.4997C82.9721 46.4914 82.3874 46.2788 82.0488 47.236C81.9615 47.4967 82.7673 50.3444 82.6194 50.6408C82.2157 51.46 81.3754 50.8405 80.6465 50.0301C80.3783 49.7256 80.0021 47.3184 79.9324 47.0613C78.7945 42.8802 79.884 48.5995 79.8796 48.9445C79.8366 51.0138 78.904 48.4 78.6312 49.1828C78.5561 49.3913 79.239 52.09 79.2693 52.336C79.5566 54.7414 78.6531 49.838 78.383 49.3277C77.6143 47.8835 77.1926 48.1864 76.8511 48.6103C76.7283 48.7697 77.6199 51.8796 77.5036 51.986C76.8259 52.6758 75.9732 52.5268 74.8277 50.9474C74.6092 50.6446 74.0956 48.2166 73.93 47.672C72.7639 43.8627 73.7931 49.1747 73.8598 49.6874C74.1486 52.0316 73.498 49.9259 73.3481 50.3781C72.6495 52.6177 71.0213 51.5251 69.9115 50.9106C68.5043 50.112 66.9221 48.1545 66.4394 49.0213C66.4108 49.0724 67.8204 52.0858 67.8193 52.1663C67.7982 52.4697 67.6942 52.5489 67.5625 52.5643C66.4317 52.9979 65.2363 53.142 64.4874 54.158C64.3913 54.279 65.9034 57.0594 65.7915 57.3506C65.5719 57.9678 64.973 58.0372 64.15 57.2927C63.7514 56.9349 62.8937 54.3614 62.5174 54.0507C61.6404 53.3206 61.073 53.3149 60.8322 53.9624C60.7325 54.2442 62.3419 57.065 62.1083 57.2025C60.5435 58.1994 59.2776 59.3151 56.1657 56.0952C55.9527 55.8737 53.1616 49.9414 53.4747 51.1727C54.2121 52.8347 55.0986 54.7817 55.8969 56.5539C54.3751 58.3316 51.8004 56.9991 50.357 57.3437C50.299 57.3577 52.036 60.3745 51.9383 60.4139C51.3624 60.6539 51.5021 61.679 49.3183 58.9552C49.103 58.6901 45.8706 53.4868 46.223 54.3576C46.2868 54.5164 46.5315 55.3275 47.2255 56.463C47.3316 56.6333 48.9285 59.0064 48.9321 59.1032C48.9244 59.6257 48.423 59.1819 47.218 57.9032C47.0184 57.6939 45.1659 55.2741 45.0013 55.1091C43.7993 53.9967 45.1802 55.863 43.2217 53.9075C41.8727 52.6192 38.3021 48.7465 34.6121 45.1035C34.0883 44.5923 33.8652 44.6502 31.7365 42.5145C26.3755 37.1512 20.6876 31.0959 14.9677 25.3847C13.7334 24.155 14.5473 26.0019 11.8799 22.7141C11.7008 22.4936 11.112 21.1064 10.2257 19.9776C9.61314 19.196 7.34535 17.1239 6.62619 16.0599C5.91472 14.9906 7.8601 16.6854 7.10581 15.3551C6.34795 14.0049 3.85235 11.5565 4.15549 10.716ZM120.399 35.3212C120.509 32.4457 119.006 42.7638 119.67 40.3541C119.703 40.2254 120.395 35.4624 120.399 35.3212ZM154.825 39.3959C155.231 34.7874 153.917 41.4074 153.571 44.9585C153.207 48.5019 154.697 40.7919 154.825 39.3959ZM158.84 36.9241C159.202 33.2843 156.13 47.6978 157.076 44.871C157.129 44.7111 158.816 37.1347 158.84 36.9241ZM34.2275 43.4469C34.1315 43.3413 33.919 43.3448 34.0104 43.4528C36.2284 46.0431 36.6104 46.0711 34.2275 43.4469ZM162.622 34.3623C163.319 32.5059 162.226 34.5196 161.455 36.8651C160.78 38.7278 161.655 36.6225 162.622 34.3623ZM107.142 21.7466C107.155 21.5912 107.003 21.4242 106.908 22.2989C106.601 25.1164 106.925 24.3605 107.142 21.7466ZM166.142 37.4366C166.143 36.5238 174.911 28.3725 174.742 30.3407C174.689 30.6723 171.405 32.2502 170.734 33.1428C169.454 34.6938 175.716 30.549 172.77 33.333C172.209 33.8119 166.111 37.4893 166.127 37.4452C166.132 37.4423 166.137 37.4395 166.142 37.4366ZM121.985 22.8853C121.999 22.7476 121.789 22.5739 121.765 22.7083C121.177 25.9625 121.6 26.3146 121.985 22.8853ZM98.1364 13.754C98.1521 13.4588 97.632 13.1043 97.5888 13.3721C96.8092 18.7358 97.8289 19.4638 98.1364 13.754ZM138.122 17.7176C138.69 14.4308 139.036 14.085 138.837 18.2881C138.608 18.0295 138.357 17.9595 138.122 17.7176Z" fill="#E5B80B"/>
</g>
<g filter="url(#filter1_d_426_196)">
<path d="M45.3626 29.1722C44.5893 29.1722 43.8293 29.0789 43.0826 28.8922C42.3493 28.7055 41.656 28.4655 41.0026 28.1722C40.7093 29.3722 40.456 30.6855 40.2426 32.1122C40.1893 32.5122 40.1093 32.8789 40.0026 33.2122C39.896 33.5322 39.7293 33.7922 39.5026 33.9922C39.276 34.1922 38.9426 34.2922 38.5026 34.2922C38.0893 34.2922 37.816 34.1322 37.6826 33.8122C37.5493 33.4922 37.4826 33.0989 37.4826 32.6322C37.4826 32.4855 37.536 32.1055 37.6426 31.4922C37.7493 30.8789 37.8826 30.1389 38.0426 29.2722C38.2026 28.3922 38.3693 27.4855 38.5426 26.5522C37.996 26.0055 37.7226 25.5055 37.7226 25.0522C37.7226 24.8255 37.7893 24.6122 37.9226 24.4122C38.0693 24.1989 38.3493 24.0922 38.7626 24.0922C38.816 24.0922 38.8893 24.1122 38.9826 24.1522C39.116 23.4055 39.2293 22.7389 39.3226 22.1522C39.4293 21.5522 39.4893 21.1189 39.5026 20.8522C39.5293 20.3455 39.6093 19.9722 39.7426 19.7322C39.876 19.4789 40.0426 19.3122 40.2426 19.2322C40.456 19.1389 40.6693 19.0922 40.8826 19.0922C41.1626 19.0922 41.376 19.1522 41.5226 19.2722C41.6693 19.3922 41.7426 19.6589 41.7426 20.0722C41.7426 20.4722 41.736 20.8389 41.7226 21.1722C42.376 20.0522 43.056 19.2655 43.7626 18.8122C44.4693 18.3455 45.2426 18.1122 46.0826 18.1122C46.9093 18.1122 47.6293 18.3389 48.2426 18.7922C48.856 19.2455 49.3293 19.8989 49.6626 20.7522C50.0093 21.5922 50.1826 22.6055 50.1826 23.7922C50.1826 25.6055 49.7626 26.9589 48.9226 27.8522C48.096 28.7322 46.9093 29.1722 45.3626 29.1722ZM41.6826 25.8122C42.176 26.0789 42.7026 26.3122 43.2626 26.5122C43.8226 26.6989 44.396 26.7922 44.9826 26.7922C45.9293 26.7922 46.6226 26.5455 47.0626 26.0522C47.516 25.5589 47.7426 24.7455 47.7426 23.6122C47.7426 21.5989 47.136 20.5922 45.9226 20.5922C45.1493 20.5922 44.396 21.0255 43.6626 21.8922C42.9426 22.7589 42.2826 24.0655 41.6826 25.8122ZM60.2679 35.1522C59.9613 35.1522 59.6813 35.0255 59.4279 34.7722C59.1879 34.5322 59.0679 34.1255 59.0679 33.5522C59.0679 33.1255 59.1013 32.5322 59.1679 31.7722C59.2479 30.9989 59.3946 30.0055 59.6079 28.7922C59.1413 29.7522 58.6546 30.6055 58.1479 31.3522C57.6413 32.0989 57.1413 32.6855 56.6479 33.1122C56.1679 33.5255 55.7079 33.7322 55.2679 33.7322C54.5613 33.7322 54.0013 33.5189 53.5879 33.0922C53.1746 32.6522 52.9679 31.8322 52.9679 30.6322C52.9679 30.0589 53.0146 29.4122 53.1079 28.6922C53.2146 27.9722 53.3479 27.2522 53.5079 26.5322C53.6679 25.8122 53.8279 25.1722 53.9879 24.6122C54.1613 24.0389 54.3146 23.6122 54.4479 23.3322C54.5546 23.0922 54.6879 22.9055 54.8479 22.7722C55.0213 22.6389 55.2413 22.5722 55.5079 22.5722C55.9346 22.5722 56.2613 22.7122 56.4879 22.9922C56.7146 23.2722 56.8279 23.5589 56.8279 23.8522C56.8279 24.0789 56.7746 24.4055 56.6679 24.8322C56.5746 25.2589 56.4546 25.7322 56.3079 26.2522C56.1746 26.7722 56.0346 27.3055 55.8879 27.8522C55.7413 28.3989 55.6146 28.9122 55.5079 29.3922C55.4146 29.8722 55.3679 30.2789 55.3679 30.6122C55.3679 31.0255 55.5279 31.2322 55.8479 31.2322C56.0346 31.2322 56.2746 31.0522 56.5679 30.6922C56.8746 30.3322 57.1946 29.8522 57.5279 29.2522C57.8746 28.6389 58.2213 27.9722 58.5679 27.2522C58.9279 26.5189 59.2546 25.7789 59.5479 25.0322C59.8546 24.2722 60.1146 23.5722 60.3279 22.9322C60.4613 22.5322 60.6413 22.2522 60.8679 22.0922C61.0946 21.9322 61.3546 21.8522 61.6479 21.8522C62.1013 21.8522 62.4479 21.9789 62.6879 22.2322C62.9413 22.4855 63.0679 22.8455 63.0679 23.3122C63.0679 23.5255 63.0346 23.8855 62.9679 24.3922C62.9013 24.8989 62.8146 25.4922 62.7079 26.1722C62.6146 26.8522 62.5013 27.5722 62.3679 28.3322C62.2346 29.0922 62.1013 29.8389 61.9679 30.5722C61.8479 31.3055 61.7279 31.9789 61.6079 32.5922C61.4879 33.1922 61.3879 33.6722 61.3079 34.0322C61.1746 34.5655 61.0146 34.8855 60.8279 34.9922C60.6413 35.0989 60.4546 35.1522 60.2679 35.1522ZM66.444 35.1322C66.1107 35.1322 65.824 35.0122 65.584 34.7722C65.3574 34.5322 65.244 34.1855 65.244 33.7322C65.244 33.5322 65.2707 33.2055 65.324 32.7522C65.3907 32.2855 65.4707 31.7522 65.564 31.1522C65.6707 30.5522 65.7707 29.9255 65.864 29.2722C65.9707 28.6189 66.0574 27.9989 66.124 27.4122C66.204 26.8255 66.2574 26.3255 66.284 25.9122C66.3107 25.4055 66.444 25.0455 66.684 24.8322C66.924 24.6055 67.2107 24.4922 67.544 24.4922C67.8107 24.4922 68.0507 24.5589 68.264 24.6922C68.4907 24.8122 68.6307 25.0722 68.684 25.4722C68.7507 25.8589 68.7574 26.4189 68.704 27.1522C69.2907 26.0855 69.884 25.1322 70.484 24.2922C71.0974 23.4522 71.7374 22.7855 72.404 22.2922C73.5107 21.4522 74.5107 21.0322 75.404 21.0322C75.9107 21.0322 76.244 21.1455 76.404 21.3722C76.564 21.5989 76.644 21.8322 76.644 22.0722C76.644 22.2322 76.604 22.3789 76.524 22.5122C76.4574 22.6455 76.3107 22.7855 76.084 22.9322C75.8574 23.0789 75.5107 23.2722 75.044 23.5122C74.4174 23.8322 73.7974 24.2522 73.184 24.7722C72.584 25.2922 71.984 25.9589 71.384 26.7722C70.784 27.5855 70.1774 28.5855 69.564 29.7722C68.9507 30.9589 68.3174 32.3722 67.664 34.0122C67.544 34.4655 67.3707 34.7655 67.144 34.9122C66.9307 35.0589 66.6974 35.1322 66.444 35.1322ZM75.8939 40.6722C75.5205 40.6722 75.2272 40.5389 75.0139 40.2722C74.8139 40.0189 74.7139 39.6255 74.7139 39.0922C74.7139 38.3589 74.7805 37.4855 74.9139 36.4722C75.0472 35.4589 75.2272 34.3855 75.4539 33.2522C75.6805 32.1189 75.9272 31.0055 76.1939 29.9122C76.5139 28.6589 76.8272 27.5189 77.1339 26.4922C77.4539 25.4655 77.7739 24.6455 78.0939 24.0322C78.4272 23.4055 78.7605 23.0922 79.0939 23.0922C79.4005 23.0922 79.6672 23.2055 79.8939 23.4322C80.1339 23.6455 80.2539 23.9655 80.2539 24.3922C80.2539 24.6989 80.1739 25.1389 80.0139 25.7122C79.8539 26.2722 79.6539 26.9722 79.4139 27.8122C79.8672 27.0655 80.3339 26.3322 80.8139 25.6122C81.3072 24.8922 81.8072 24.2389 82.3139 23.6522C82.8205 23.0655 83.3139 22.5989 83.7939 22.2522C84.2739 21.9055 84.7272 21.7322 85.1539 21.7322C85.6605 21.7322 86.1072 21.8789 86.4939 22.1722C86.8939 22.4655 87.2072 22.8655 87.4339 23.3722C87.6605 23.8789 87.7739 24.4522 87.7739 25.0922C87.7739 26.2789 87.5605 27.4322 87.1339 28.5522C86.7072 29.6589 86.1139 30.6522 85.3539 31.5322C84.6072 32.4122 83.7339 33.1122 82.7339 33.6322C81.7339 34.1389 80.6539 34.3922 79.4939 34.3922C79.1605 34.3922 78.8539 34.3589 78.5739 34.2922C78.3072 34.2389 78.0605 34.1722 77.8339 34.0922C77.6739 34.9455 77.5205 35.8189 77.3739 36.7122C77.2405 37.6189 77.1005 38.5722 76.9539 39.5722C76.7939 40.3055 76.4405 40.6722 75.8939 40.6722ZM85.3539 24.0922C85.0605 24.0922 84.6872 24.2922 84.2339 24.6922C83.7939 25.0922 83.3139 25.6189 82.7939 26.2722C82.2739 26.9122 81.7472 27.6122 81.2139 28.3722C80.6939 29.1189 80.1939 29.8522 79.7139 30.5722C79.2472 31.2922 78.8472 31.9189 78.5139 32.4522C79.5272 32.3455 80.4205 32.0789 81.1939 31.6522C81.9672 31.2122 82.6272 30.6789 83.1739 30.0522C83.7205 29.4255 84.1605 28.7655 84.4939 28.0722C84.8405 27.3655 85.0939 26.6789 85.2539 26.0122C85.4139 25.3455 85.4939 24.7655 85.4939 24.2722C85.4939 24.1522 85.4472 24.0922 85.3539 24.0922ZM93.0418 34.9122C92.0952 34.9122 91.3352 34.5789 90.7618 33.9122C90.1885 33.2322 89.9018 32.3255 89.9018 31.1922C89.9018 30.8322 89.9485 30.4655 90.0418 30.0922C90.1485 29.7189 90.2752 29.3722 90.4218 29.0522C90.3418 28.9322 90.2752 28.7789 90.2218 28.5922C90.1818 28.3922 90.1618 28.1589 90.1618 27.8922C90.1618 27.0255 90.3152 26.2322 90.6218 25.5122C90.9285 24.7789 91.3418 24.1455 91.8618 23.6122C92.3818 23.0789 92.9552 22.6655 93.5818 22.3722C94.2085 22.0789 94.8418 21.9322 95.4818 21.9322C96.5752 21.9322 97.4685 22.2989 98.1618 23.0322C98.8685 23.7655 99.2218 24.9055 99.2218 26.4522C99.2218 27.2255 99.1018 28.0122 98.8618 28.8122C98.6218 29.6122 98.2952 30.3789 97.8818 31.1122C97.4818 31.8322 97.0152 32.4789 96.4818 33.0522C95.9618 33.6255 95.4018 34.0789 94.8018 34.4122C94.2152 34.7455 93.6285 34.9122 93.0418 34.9122ZM92.7218 28.1522C92.7885 28.2989 92.8218 28.4722 92.8218 28.6722C92.8218 28.8722 92.7818 29.0789 92.7018 29.2922C92.6218 29.5055 92.5418 29.7922 92.4618 30.1522C92.3818 30.4989 92.3418 30.9989 92.3418 31.6522C92.3418 31.8255 92.3618 31.9722 92.4018 32.0922C92.4552 32.1989 92.5685 32.2522 92.7418 32.2522C93.1952 32.2522 93.6218 32.1055 94.0218 31.8122C94.4352 31.5189 94.8018 31.1322 95.1218 30.6522C95.4552 30.1722 95.7352 29.6389 95.9618 29.0522C96.2018 28.4522 96.3818 27.8455 96.5018 27.2322C96.6352 26.6055 96.7018 26.0255 96.7018 25.4922C96.7018 25.1455 96.6352 24.9055 96.5018 24.7722C96.3685 24.6389 96.1352 24.5722 95.8018 24.5722C95.3485 24.5722 94.8818 24.7189 94.4018 25.0122C93.9352 25.2922 93.5418 25.6789 93.2218 26.1722C92.9018 26.6522 92.7418 27.1989 92.7418 27.8122C92.7418 27.9322 92.7352 28.0455 92.7218 28.1522ZM103.87 35.2722C103.297 35.2722 102.89 35.1922 102.65 35.0322C102.423 34.8722 102.31 34.6389 102.31 34.3322C102.31 34.0655 102.403 33.8389 102.59 33.6522C102.777 33.4522 103.19 33.2522 103.83 33.0522C104.577 32.8255 105.283 32.5655 105.95 32.2722C106.63 31.9655 107.183 31.6322 107.61 31.2722C108.05 30.9122 108.27 30.5322 108.27 30.1322C108.27 29.8655 108.177 29.6722 107.99 29.5522C107.817 29.4322 107.61 29.3722 107.37 29.3722C107.17 29.3722 106.877 29.4055 106.49 29.4722C106.117 29.5255 105.703 29.5989 105.25 29.6922C104.797 29.7722 104.357 29.8455 103.93 29.9122C103.517 29.9655 103.163 29.9922 102.87 29.9922C102.177 29.9922 101.663 29.8389 101.33 29.5322C100.997 29.2122 100.83 28.8055 100.83 28.3122C100.83 28.0455 100.97 27.6789 101.25 27.2122C101.53 26.7455 101.903 26.2322 102.37 25.6722C102.837 25.1122 103.357 24.5522 103.93 23.9922C104.503 23.4322 105.083 22.9189 105.67 22.4522C106.27 21.9722 106.837 21.5922 107.37 21.3122C107.903 21.0189 108.357 20.8722 108.73 20.8722C109.157 20.8722 109.497 21.0055 109.75 21.2722C110.017 21.5389 110.15 21.8989 110.15 22.3522C110.15 22.5655 110.13 22.7989 110.09 23.0522C110.05 23.2922 109.95 23.5122 109.79 23.7122C109.63 23.8989 109.383 24.0322 109.05 24.1122C108.717 24.1922 108.263 24.1789 107.69 24.0722C107.237 24.4055 106.763 24.7722 106.27 25.1722C105.79 25.5589 105.337 25.9655 104.91 26.3922C104.483 26.8055 104.13 27.2122 103.85 27.6122C104.343 27.4522 104.903 27.3255 105.53 27.2322C106.157 27.1255 106.79 27.0722 107.43 27.0722C108.203 27.0722 108.83 27.2122 109.31 27.4922C109.803 27.7589 110.163 28.1189 110.39 28.5722C110.63 29.0255 110.75 29.5255 110.75 30.0722C110.75 30.6855 110.55 31.2989 110.15 31.9122C109.75 32.5255 109.217 33.0855 108.55 33.5922C107.883 34.0989 107.143 34.5055 106.33 34.8122C105.517 35.1189 104.697 35.2722 103.87 35.2722ZM115.979 34.9322C115.152 34.9322 114.486 34.6455 113.979 34.0722C113.472 33.4855 113.219 32.5455 113.219 31.2522C113.219 30.4255 113.312 29.5989 113.499 28.7722C113.699 27.9322 113.972 27.1389 114.319 26.3922C114.679 25.6322 115.092 24.9589 115.559 24.3722C116.039 23.7855 116.566 23.3255 117.139 22.9922C117.712 22.6455 118.306 22.4722 118.919 22.4722C119.959 22.4722 120.772 22.7522 121.359 23.3122C121.946 23.8722 122.239 24.5855 122.239 25.4522C122.239 26.1189 122.052 26.7255 121.679 27.2722C121.319 27.8055 120.826 28.2855 120.199 28.7122C119.572 29.1389 118.872 29.5255 118.099 29.8722C117.326 30.2189 116.532 30.5322 115.719 30.8122C115.652 31.2922 115.619 31.7189 115.619 32.0922C115.619 32.3189 115.746 32.4322 115.999 32.4322C116.599 32.4322 117.239 32.3389 117.919 32.1522C118.612 31.9522 119.312 31.6989 120.019 31.3922C120.726 31.0722 121.406 30.7455 122.059 30.4122C122.712 30.0655 123.306 29.7389 123.839 29.4322C124.386 29.1122 124.832 28.8589 125.179 28.6722C125.539 28.4722 125.772 28.3722 125.879 28.3722C126.172 28.3722 126.386 28.4589 126.519 28.6322C126.652 28.8055 126.719 28.9922 126.719 29.1922C126.719 29.2855 126.539 29.4922 126.179 29.8122C125.832 30.1322 125.352 30.5122 124.739 30.9522C124.139 31.3789 123.459 31.8255 122.699 32.2922C121.952 32.7455 121.172 33.1789 120.359 33.5922C119.559 33.9922 118.779 34.3122 118.019 34.5522C117.272 34.8055 116.592 34.9322 115.979 34.9322ZM116.059 29.0322C116.606 28.7122 117.146 28.3789 117.679 28.0322C118.226 27.6722 118.679 27.2722 119.039 26.8322C119.399 26.3789 119.579 25.8522 119.579 25.2522C119.579 25.0789 119.532 24.9655 119.439 24.9122C119.346 24.8455 119.212 24.8122 119.039 24.8122C118.572 24.8122 118.146 25.0189 117.759 25.4322C117.386 25.8455 117.052 26.3789 116.759 27.0322C116.479 27.6722 116.246 28.3389 116.059 29.0322Z" fill="#0E0E0E"/>
</g>
<defs>
<filter id="filter0_d_426_196" x="0.130127" y="0.270752" width="178.614" height="68.5315" filterUnits="userSpaceOnUse" color-interpolation-filters="sRGB">
<feFlood flood-opacity="0" result="BackgroundImageFix"/>
<feColorMatrix in="SourceAlpha" type="matrix" values="0 0 0 0 0 0 0 0 0 0 0 0 0 0 0 0 0 0 127 0" result="hardAlpha"/>
<feOffset dy="4"/>
<feGaussianBlur stdDeviation="2"/>
<feComposite in2="hardAlpha" operator="out"/>
<feColorMatrix type="matrix" values="0 0 0 0 0 0 0 0 0 0 0 0 0 0 0 0 0 0 0.25 0"/>
<feBlend mode="normal" in2="BackgroundImageFix" result="effect1_dropShadow_426_196"/>
<feBlend mode="normal" in="SourceGraphic" in2="effect1_dropShadow_426_196" result="shape"/>
</filter>
<filter id="filter1_d_426_196" x="33.4827" y="18.1123" width="97.2363" height="30.5598" filterUnits="userSpaceOnUse" color-interpolation-filters="sRGB">
<feFlood flood-opacity="0" result="BackgroundImageFix"/>
<feColorMatrix in="SourceAlpha" type="matrix" values="0 0 0 0 0 0 0 0 0 0 0 0 0 0 0 0 0 0 127 0" result="hardAlpha"/>
<feOffset dy="4"/>
<feGaussianBlur stdDeviation="2"/>
<feComposite in2="hardAlpha" operator="out"/>
<feColorMatrix type="matrix" values="0 0 0 0 0 0 0 0 0 0 0 0 0 0 0 0 0 0 0.25 0"/>
<feBlend mode="normal" in2="BackgroundImageFix" result="effect1_dropShadow_426_196"/>
<feBlend mode="normal" in="SourceGraphic" in2="effect1_dropShadow_426_196" result="shape"/>
</filter>
</defs>
</svg>
