<svg width="52" height="48" viewBox="0 0 52 48" fill="none" xmlns="http://www.w3.org/2000/svg">
<path d="M23.7588 0.000124021C23.3178 0.00101201 22.8768 0.0114339 22.4362 0.0313826C21.4893 0.205077 21.0521 0.63283 20.8147 1.12243C20.5532 1.66225 20.5634 2.38862 20.855 3.03452C21.1469 3.68075 21.6822 4.20904 22.4295 4.40634C23.1769 4.60365 24.2058 4.50167 25.5582 3.6097L26.6391 5.35551C24.9399 6.47616 23.2957 6.77178 21.9327 6.41187C20.5697 6.05195 19.5583 5.06809 19.0357 3.91086C18.5433 2.82059 18.4529 1.54143 18.9251 0.405486C14.3149 1.17475 10.1404 2.99905 6.93401 5.56667C5.8802 6.75139 5.77707 8.12831 6.23899 9.06872C6.75784 10.1246 7.9803 10.8955 10.4252 10.0974L11.0328 12.0719C7.96268 13.0739 5.43214 12.0067 4.44998 10.0074C4.21043 9.51997 4.06413 8.99246 4.00665 8.44854C3.48953 9.08169 3.02267 9.74078 2.61017 10.4265L2.62371 10.4331C1.69837 12.6075 1.67732 14.1135 2.04621 15.0922C2.41531 16.0709 3.18864 16.6928 4.37941 17.0355C6.76074 17.7205 10.6169 16.894 13.3323 14.8013C14.4946 13.9057 15.5964 11.7334 15.6923 10.0488C15.7401 9.20639 15.5672 8.54088 15.2256 8.1159C14.884 7.69091 14.337 7.3729 13.2046 7.38498L13.1846 5.31372C14.7408 5.2971 16.0044 5.84068 16.7698 6.79284C17.535 7.74501 17.7645 8.97118 17.6963 10.1701C17.5599 12.568 16.3433 15.0663 14.534 16.4606C11.3247 18.934 7.08579 19.9639 3.8423 19.0308C2.33968 18.5986 1.00959 17.6579 0.324234 16.201C-0.701215 21.2384 0.788619 25.9177 3.62402 29.1559C3.99462 29.5793 4.38908 29.9795 4.80244 30.3508C4.5066 29.4766 4.37103 28.5662 4.40283 27.6802C4.45976 26.0924 5.05617 24.5382 6.25263 23.4648C7.23382 22.584 8.58927 22.0759 10.2104 22.0792C10.3184 22.0792 10.4289 22.0812 10.5393 22.0859C10.7917 22.0969 11.0509 22.1196 11.3149 22.1552L11.0528 24.2094C9.37828 23.9824 8.2915 24.3781 7.56844 25.0269C6.84549 25.6758 6.44663 26.6468 6.40689 27.7565C6.3274 29.9761 7.70347 32.5678 10.6705 33.3196L10.667 33.3404C13.588 33.9157 16.8476 33.3817 20.1201 31.3208C20.1221 31.3195 20.1248 31.319 20.1268 31.3175C20.8079 30.8242 21.1747 30.3412 21.3555 29.925C21.5687 29.4337 21.5642 29.0058 21.4124 28.5463C21.1091 27.6274 20.0224 26.6827 19.0257 26.4195C17.4142 25.9938 16.3905 26.5786 15.9105 27.2752C15.4305 27.9713 15.4013 28.6552 16.1421 29.2494L14.91 30.8843C13.386 29.6614 13.2888 27.505 14.2756 26.0731C15.016 24.9992 16.315 24.2634 17.8812 24.2164C17.9472 24.214 18.0132 24.2129 18.0792 24.2131C18.5418 24.2164 19.0235 24.282 19.5227 24.4137C21.1882 24.8538 22.7281 26.1071 23.3125 27.8776C23.4684 28.3523 23.5368 28.8528 23.514 29.3534C25.309 28.407 27.202 27.5666 29.1303 26.9355C32.3697 25.408 33.7741 22.7302 33.7193 20.4754C33.664 18.2038 32.3027 16.2921 29.1672 15.9722L29.3653 13.9111C33.304 14.313 35.6454 17.2196 35.7234 20.4233C35.7687 22.2899 35.1053 24.2323 33.7696 25.8858C35.4961 25.6862 37.2118 25.72 38.8754 26.0661C38.5368 25.3487 38.3726 24.5721 38.3955 23.8006C38.4682 21.358 40.4816 19.0794 43.6457 19.0447C43.8619 19.0426 44.078 19.0506 44.2935 19.0689L44.1324 21.1334C41.4547 20.9119 40.4478 22.3622 40.4029 23.8664C40.3586 25.3539 41.3208 27.019 44.0789 27.2401C47.1189 27.2678 49.2983 25.5665 50.3663 23.0384C51.7961 19.6536 51.1179 14.579 46.6233 9.93775C46.5382 9.84985 46.4538 9.76118 46.3681 9.67449C46.321 10.0879 46.2182 10.4924 46.0628 10.8765C45.284 12.8041 43.4597 14.1052 41.5646 14.4687C38.9504 14.9699 36.8068 13.876 35.8175 12.2068C34.8281 10.5378 35.0879 8.17753 36.8681 6.93495L37.9928 8.65305C37.0353 9.32123 36.9959 10.226 37.5295 11.126C38.063 12.0263 39.2665 12.806 41.1986 12.4355C42.4131 12.2025 43.7655 11.1797 44.2096 10.0801C44.432 9.53028 44.4749 8.98692 44.2534 8.3653C44.0735 7.8604 43.6962 7.283 42.9944 6.6749L42.9744 6.65772C40.04 4.37575 36.9224 2.73457 33.7629 1.65228C33.7649 1.65582 33.7678 1.65893 33.7697 1.66258C34.4877 3.01712 34.541 4.55366 34.0987 5.91284C33.2143 8.63133 30.4389 10.7732 27.0055 10.6548C26.2591 10.6293 25.5488 11.0006 24.9445 11.7252C24.34 12.4498 23.8987 13.5113 23.7963 14.6419C23.5917 16.9032 24.54 19.3956 28.2376 20.6276L27.6193 22.5986C23.2061 21.1284 21.5145 17.5501 21.7949 14.4515C21.9353 12.9024 22.5152 11.4629 23.423 10.3746C24.3309 9.28631 25.6225 8.53423 27.0722 8.58377C29.6546 8.67267 31.6186 7.02263 32.1948 5.25143C32.4829 4.36599 32.4456 3.48488 32.0068 2.65709C31.5806 1.85324 30.736 1.05837 29.2239 0.478312C27.4192 0.154902 25.5906 -0.00510296 23.7588 0.000124021ZM34.6318 27.9263C30.1292 28.3043 25.2467 30.5201 21.174 33.0875C15.1605 36.8782 8.83226 36.0507 4.34224 32.6131C6.10869 39.1357 12.3679 40.4596 18.8979 38.8099C19.5513 38.5566 20.1934 38.0852 20.7409 37.4764C21.499 36.6332 22.0483 35.5399 22.2212 34.636L24.1918 35.0378C23.9291 36.4104 23.2166 37.7719 22.2145 38.8864C21.2531 39.9555 20.0006 40.8095 18.5521 41.0339C17.8253 42.7043 17.2272 44.3238 16.9844 45.4573C16.603 47.2375 18.5104 47.9208 19.3644 46.1257C21.4078 41.8312 24.2919 38.0085 27.8944 34.7123C30.6942 32.8109 33.0942 30.4666 34.6319 27.9263H34.6318Z" fill="#F5C518"/>
</svg>
