<svg width="181" height="68" viewBox="0 0 181 68" fill="none" xmlns="http://www.w3.org/2000/svg">
<g filter="url(#filter0_d_426_210)">
<path d="M4.76028 2.27169C6.08287 0.498612 8.69401 0.315556 10.688 0.897153C11.3147 1.07285 11.8105 2.87178 12.2629 3.07687C13.1382 3.4809 13.3299 2.42023 14.214 2.98601C14.504 3.18466 15.3535 5.99618 15.6267 6.1449C17.101 6.94737 17.7514 5.90802 18.9073 6.15614C24.5305 7.42596 28.5083 7.53966 32.4671 7.9025C33.766 8.02446 35.7803 10.2643 36.6635 8.84831C36.7661 8.68042 36.0901 6.19953 36.0666 5.98708C35.7152 2.73265 36.7849 7.81409 37.2052 8.42029C38.8674 10.8132 40.0514 10.7618 40.7563 9.55737C41.0535 9.03778 39.4281 4.18392 40.514 6.86361C40.5885 7.04436 41.1457 9.71956 41.3251 9.97396C41.7311 10.5456 42.0808 9.95039 42.3216 10.1105C42.7905 10.4323 42.8457 10.3892 43.1937 10.3283C43.5727 10.281 44.2142 10.9986 44.6263 10.9358C44.7762 10.9077 44.9101 10.8262 45.0199 10.6628C45.1318 10.4874 44.2246 7.83426 44.348 7.3079C44.4734 6.78118 45.181 6.84228 45.55 7.43016C45.9197 8.01761 46.3441 10.1789 46.4995 10.6596C47.7806 14.7242 47.1182 8.82211 47.1955 8.65486C48.3574 5.83199 50.4677 8.83353 51.9276 8.55833C53.0539 8.33895 54.082 7.04689 55.1586 7.03773C56.4415 7.03802 57.6683 8.40146 58.8053 7.99117C58.9256 7.95114 58.3926 4.69873 58.5411 4.64299C60.126 4.05327 61.7665 4.22594 63.5346 6.2722C63.7119 6.48037 63.7924 9.381 63.9851 9.76126C65.1671 12.0244 67.1236 17.566 66.5615 4.96527C67.2473 5.39139 68.0608 5.82322 68.8344 8.3001C69.3339 9.89414 69.2471 13.0681 69.5784 11.6859C69.6539 11.3778 69.292 8.6397 69.4235 8.38564C69.9692 7.31931 70.737 8.14922 71.2435 6.6709C71.3471 6.36363 71.1131 3.90155 71.1136 3.45431C71.1343 -0.169354 72.1064 5.72924 72.2518 6.15115C73.0663 8.47634 73.5367 8.36131 74.0592 8.14607C74.2954 8.06562 74.5378 7.97447 74.8012 7.97559C75.0378 7.9781 74.5491 4.68208 74.7797 4.56491C75.9694 4.00311 77.2213 4.24235 78.2923 5.69833C78.5327 6.03024 78.3335 8.86615 78.4463 9.16978C78.9297 10.4752 79.0293 5.12479 79.5004 6.27823C79.5974 6.5147 79.5229 8.93973 79.5386 9.20598C79.769 13.3856 80.0639 7.46291 80.1413 7.3324C81.0797 5.54982 81.4712 11.7426 82.3008 10.8875C82.4024 10.7792 82.2955 7.7061 82.5784 7.58928C84.481 6.79396 86.3873 7.73943 87.9303 10.3049C88.1712 10.6998 87.7962 12.9862 87.7914 13.2709C87.7111 17.7184 88.3593 11.7964 88.4676 11.5793C89.2973 10.0202 89.488 15.0424 90.5948 8.01709C93.2813 10.7003 96.583 7.02837 98.6339 13.6409C98.6604 13.7178 98.2505 16.6236 98.3045 16.7644C98.9528 18.4912 99.3327 13.9473 100.567 8.47417C100.879 7.1 100.497 13.8302 100.474 14.324C100.39 16.1442 99.717 20.4599 99.7203 20.8146C99.7625 23.6015 101.456 9.2697 101.98 9.32369C101.993 9.3494 101.599 11.9781 101.61 12.2451C101.644 13.0833 101.907 12.0507 101.926 12.973C101.967 15.1068 101.203 22.0776 102.168 18.0796C102.291 17.5605 103.217 9.42687 103.627 9.86273C103.786 10.0429 104.62 9.99675 104.774 10.5484C104.932 11.0997 104.45 13.6998 104.452 13.815C104.628 17.346 104.216 18.7542 103.878 23.9135C103.541 29.0534 104.983 16.8671 105.276 15.522C105.568 14.1807 105.658 17.0877 105.642 18.0927C105.627 19.0984 105.284 20.7464 105.31 21.3195C105.491 25.0645 106.344 15.3067 106.795 13.3978C107.862 8.87745 107.12 17.9514 107.475 18.8879C107.568 19.1406 107.72 17.0721 107.852 16.8917C108.363 16.2034 108.301 19.0531 109.089 16.5195C109.219 16.1068 110.253 10.7153 110.035 14.7291C110.004 15.308 109.642 17.55 109.764 18.0734C109.786 18.1687 109.812 18.2605 109.84 18.3468C110.071 18.9739 110.45 19.3171 110.794 18.684C111.086 18.151 111.263 14.4123 111.412 15.5955C111.477 16.1236 110.989 18.2698 111.131 19.0808C111.266 19.8907 111.882 19.8608 112.112 19.8101C112.343 19.758 112.564 16.9308 112.604 16.7431C112.85 15.6697 113.457 14.3618 113.494 14.3694C115.514 14.2466 116.69 19.2007 118.79 17.8742C118.955 17.7743 119.267 14.8005 119.297 14.7547C119.979 13.5793 118.48 21.4005 118.464 24.0807C119.253 18.0658 119.311 19.1806 119.758 18.5676C119.975 18.2675 120.209 15.9292 120.259 15.6931C121.014 12.1932 120.544 16.7795 120.458 17.719C120.14 21.1748 120.897 17.1413 120.685 19.4513C120.475 21.7442 119.734 25.087 120.079 25.0881C120.479 22.9503 121.026 17.2983 121.413 16.4213C122.879 13.1047 124.031 17.7456 124.739 18.3002C125.439 18.8541 125.744 18.4876 126.081 19.3194C126.703 20.824 126.956 16.6137 127.698 14.7613C128.434 12.9079 126.877 23.1546 126.664 25.3718C126.453 27.5882 126.825 25.3248 126.76 26.5491C126.695 27.773 126.31 29.2525 126.462 29.7326C126.617 30.2127 127.696 26.3505 128.054 24.0477C128.818 19.17 129.201 14.0036 129.52 15.8698C129.538 15.9804 129.105 18.6726 129.19 18.959C129.504 19.9431 129.874 20.532 130.266 21.0601L130.208 21.0543C130.701 21.6938 131.2 22.2411 131.625 23.3061C131.731 23.5765 131.293 26.5778 131.35 26.7693C131.954 28.7731 132.208 23.6664 133.26 18.0668C132.355 25.566 132.113 30.1836 132.718 30.2867C133.081 30.3514 133.37 27.066 133.86 24.7782C134.009 24.0886 134.029 26.3657 134.244 24.8283C134.949 19.803 135.315 14.136 135.712 16.4456C135.728 16.5551 135.338 19.3054 135.416 19.482C135.923 20.6371 136.566 15.3715 137.326 14.8015C137.921 14.3541 138.497 17.6622 139.051 18.2472C138.088 26.6833 138.871 24.8088 139.762 19.0156C140.119 19.2931 140.594 19.0094 140.879 19.8525C140.978 20.1401 140.611 22.5735 140.597 22.839C140.371 27.0046 141.192 21.3641 141.302 21.1511C142.473 19.0913 142.708 23.4573 144.088 19.3628C144.137 19.2153 144.887 13.364 144.612 17.6659C144.592 17.9623 143.984 20.5956 144.372 20.8463C144.757 21.0973 145.154 24.3214 146.056 21.6719C146.275 21.0341 147.204 16.3199 147.031 20.0651C147.007 20.5736 146.757 22.2479 146.697 23.1883C146.504 26.185 147.335 20.2792 146.915 25.3288C146.498 30.3786 146.43 34.1883 147.441 30.7872C147.472 30.6885 148.203 26.0161 148.375 26.1112C148.649 26.2672 148.926 27.2907 149.228 27.2953C149.376 27.2962 149.659 24.3749 149.691 24.3247C150.881 22.8097 151.238 25.4875 152.109 26.7394C152.267 26.9744 153.369 23.0792 153.3 26.2598C153.225 29.7416 150.834 43.96 152.207 40.6761C152.745 39.3614 155.807 21.327 155.127 30.7913C156.77 28.6445 157.199 33.5996 159.011 30.4838C159.087 30.3451 160.101 25.3379 160.234 25.4286C160.426 25.5725 160.147 27.9427 160.265 28.1202C160.752 28.9238 161.652 27.0026 162.207 27.4193C162.41 27.5713 161.886 29.9837 162.118 30.164C162.359 30.344 163.152 27.186 163.205 28.7909C163.266 30.0185 162.198 36.5742 162.337 37.3912C163.701 30.9844 163.905 31.161 164.713 29.5657C164.874 29.2571 165.285 27.0131 165.389 26.7527C165.831 25.6459 165.56 27.5217 166.015 26.3134C166.125 26.0234 166.656 23.8495 166.783 23.4914C167.911 20.3687 167.208 25.3844 167.04 26.2485C166.443 29.5354 167.418 26.7868 167.278 28.1171C167.083 29.432 166.267 30.8914 166.227 31.7156C166.136 32.5321 166.279 32.9866 165.888 32.911C165.936 32.987 166.216 33.0602 166.274 33.1283C166.68 33.4635 167.022 33.5115 167.191 33.6395C167.33 33.7263 168.407 30.9342 168.453 30.8825C169.247 30.396 167.998 33.3356 171.25 28.3244C163.606 41.7274 172.284 27.1847 171.328 30.2546C171.247 30.5023 167.076 36.4909 166.39 37.3204C165.725 38.1621 166.833 36.1637 165.885 37.5436C165.606 37.8354 162.317 43.8282 162.223 44.2459C161.089 47.2954 165.767 37.4515 165.981 36.8927C168.542 30.9642 165.313 37.5923 164.987 38.0108C164.512 38.6016 164.047 38.7933 163.564 38.7766C163.387 38.5684 162.529 38.3445 162.385 38.1124C162.746 38.4772 163.009 38.6706 163.186 38.804C163.328 38.9188 163.429 38.992 163.49 39.0725C163.604 39.2281 163.564 39.4165 163.4 39.9651C163.044 40.9792 161.003 47.8065 161.112 47.6103C161.384 46.9342 163.304 37.176 160.954 45.4826C160.452 47.2544 158.935 54.8852 159.863 48.8314C159.931 48.4515 160.762 42.9114 159.875 46.3468C159.765 46.7803 159.325 49.0046 159.259 49.1861C158.835 50.3604 159.056 48.5648 158.67 49.3747C158.279 50.184 157.804 51.4105 157.669 50.6084C157.587 50.1285 158.12 45.9363 158.211 44.9037C158.49 41.9313 157.398 46.7022 157.865 43.1248C158.316 39.5266 159.538 34.1462 159.508 31.7712C158.523 37.5772 157.495 43.5339 156.5 49.3724C155.707 49.0395 155.172 47.037 154.24 47.1689C154.128 47.1916 153.763 50.3365 153.631 50.4418C153.08 50.8725 152.965 48.5795 152.329 49.4008C151.826 50.0473 150.915 53.3071 150.387 54.09C151.071 47.3859 150.122 49.5698 149.752 48.903C149.62 48.672 149.874 46.8908 149.837 46.2947C149.689 44.0888 149.094 50.0131 148.851 50.9269C147.821 54.8279 149.571 41.4688 148.906 41.7232C148.866 41.7316 147.54 48.805 147.429 49.2422C146.712 52.0931 147.699 46.757 147.554 46.2053C147.291 45.1974 147.216 43.4616 146.497 45.495C146.283 46.0972 145.396 50.5 145.569 47.0349C145.592 46.5811 145.91 44.2285 145.899 44.0874C145.676 41.7292 144.735 49.1284 144.138 51.6023C143.542 54.076 143.736 48.9168 143.825 47.4337C144.057 43.5971 144.211 45.8263 144.27 45.454C144.975 41.0224 144.552 41.7512 144.344 41.3467C145.202 34.0846 144.8 34.4812 144.13 40.9573C144.058 41.6647 144.332 41.0092 144.344 41.3467C143.243 48.4428 142.765 49.3138 143.15 42.6111C143.329 39.4696 143.964 35.8535 143.185 37.1163C142.839 37.6871 142.342 42.6975 141.938 44.0343C141.02 47.0846 140.844 42.3419 140.193 43.0168C139.955 43.2617 139.834 46.0203 139.661 46.282C139.201 46.9853 139.101 44.8955 138.605 45.9085C138.56 46.0038 138.31 48.8783 138.19 48.9027C137.274 49.1437 136.702 47.2272 135.782 47.0822C135.33 47.0126 134.358 48.5138 133.927 48.1495C133.171 47.534 132.648 43.2678 131.833 44.2126C131.31 44.8171 131.102 47.6957 130.699 49.6317C129.923 53.385 129.991 46.5348 130.012 45.4751C130.013 45.44 130.476 44.8011 130.425 43.3084C130.631 40.2281 130.017 45.4622 130.012 45.4751C130.023 44.7903 129.317 44.0652 129.106 44.5993C128.991 44.8911 128.75 47.614 128.695 47.7148C128.173 48.6589 127.679 49.3183 127.213 49.6783C127.154 49.6447 126.933 49.6786 126.874 49.6443C126.119 50.1586 125.456 50.0239 124.855 49.1893C124.841 49.1322 125.25 46.1007 125.214 46.0044C124.724 44.5802 123.827 48.2422 122.991 50.3801C122.146 52.5158 121.795 51.7239 122.172 46.4802C121.668 47.0845 121.394 44.7109 121.255 43.2735C121.113 41.8358 120.252 47.7281 120.205 47.8409C118.765 51.455 118.708 48.0106 117.869 47.366C117.47 47.0491 116.503 47.7934 115.962 48.3796C115.533 48.8527 115.515 47.4434 115.067 48.2852C115.007 48.3976 114.683 51.029 114.656 51.1283C113.86 54.224 114.928 47.827 115.014 46.671C115.325 42.4674 115.462 40.2249 114.728 42.1281C114.558 42.5638 112.995 51.7721 112.734 52.2897C112.4 52.9461 112.939 49.6425 112.574 50.4139C112.543 50.4769 112.273 52.5226 112.128 52.4132C111.453 51.9325 110.815 50.6479 110.028 50.766C109.921 50.7742 109.647 54.0367 109.486 54.1021C108.743 54.4076 107.996 54.2031 107.48 52.607C107.359 52.2044 107.734 49.9404 107.777 49.2609C108.036 45.1486 107.005 51.0535 106.938 51.1611C106.564 51.7984 106.26 51.9863 105.981 51.9304C104.911 51.7309 104.312 48.937 102.953 50.7707C102.858 50.9124 101.46 57.2075 101.866 51.7192C101.893 51.354 102.328 45.7411 101.619 49.5321C101.575 49.7692 101.38 52.6622 101.13 52.3367C100.877 52.0114 100.185 53.8793 100.192 50.6771C100.194 49.6682 100.603 44.0661 99.6863 48.4643C99.6247 48.7716 97.8053 58.7456 98.4792 51.7978C98.59 50.6541 99.54 43.3287 98.6434 47.038C98.471 47.7573 98.4149 49.4089 98.0729 50.4054C97.5453 51.9412 97.3628 49.9298 96.5594 53.1503C96.4172 53.7205 95.5119 58.6634 95.7435 54.8608C95.7794 54.2652 96.1497 51.8255 96.0593 51.5378C95.6271 50.1578 94.8197 51.7282 94.4312 49.9703C94.2939 49.3526 94.8724 45.4059 94.7789 44.3215C94.686 43.2375 94.3581 42.1696 93.92 43.9551C93.4818 45.7413 92.9939 52.0774 92.6008 52.5473C90.901 54.5894 89.9159 50.7481 88.5731 50.0811C88.3758 49.9819 88.3191 52.2584 88.016 52.2751C86.8756 52.3429 84.9089 54.3294 84.3883 49.4614C83.9431 45.5593 85.0889 42.6808 84.626 41.0758C84.3902 40.3094 83.5942 47.6578 83.5211 47.8865C82.7556 50.2086 82.542 46.9255 81.9537 47.9056C81.8356 48.1093 81.7901 51.101 81.6943 51.2415C81.3716 51.7482 81.1163 50.4041 80.833 50.6409C80.7059 50.754 80.6451 53.0374 80.543 52.8586C80.2954 52.4573 80.1131 51.4939 79.9068 49.3509C79.8861 49.1556 80.1113 46.3168 79.913 46.209C79.6035 46.0428 79.2114 43.9311 78.8744 46.1155C78.7737 46.7727 78.796 51.9909 78.5842 48.3906C78.5424 47.6387 78.5165 41.3719 78.3553 46.7909C78.3028 47.6919 78.1798 55.0003 77.9227 50.3023C77.8523 49.0657 77.5436 43.9489 77.4801 44.7592C77.4753 44.8882 77.6432 47.6848 77.5916 47.9614C77.4618 48.6492 77.3221 48.6695 77.2554 48.9964C77.1162 49.1198 76.9808 49.2803 76.8532 49.5181C76.7214 49.7706 77.1725 52.64 76.9696 52.924C76.418 53.7086 75.595 53.042 74.9257 52.1923C74.6787 51.8736 74.6364 49.4667 74.5993 49.2078C73.9975 44.9958 74.3119 50.7267 74.2556 51.0678C73.8888 53.1127 73.2745 50.4641 72.8476 51.2206C72.7301 51.422 73.054 54.1383 73.0479 54.3838C72.9754 56.784 72.7658 51.8706 72.5472 51.3476C71.9389 49.8656 71.4098 50.1375 70.9598 50.5329C70.7926 50.6824 71.271 53.8214 71.1189 53.919C70.235 54.5552 69.2541 54.3505 68.2065 52.705C68.0083 52.3896 67.8765 49.9482 67.7878 49.3969C67.1674 45.5398 67.3349 50.8746 67.3077 51.3877C67.1766 53.7307 66.8257 51.5977 66.5478 52.0349C65.2211 54.2041 63.3014 53.0082 61.9273 52.3204C60.1567 51.4347 58.5785 49.356 57.4161 50.2181C57.344 50.2696 58.0737 53.4314 58.0242 53.5158C57.48 54.3084 56.7133 53.6736 56.2526 54.1107C55.9938 54.2399 55.7458 54.4041 55.5119 54.6193C55.3868 54.7271 56.3782 57.6434 56.2008 57.9171C55.8431 58.4991 55.2043 58.4968 54.5014 57.6667C54.1608 57.2672 53.8105 54.6313 53.4835 54.2807C52.7222 53.458 52.1298 53.3851 51.7357 53.9947C51.5691 54.2608 52.652 57.2298 52.375 57.338C50.5079 58.1362 48.8624 59.0965 46.2294 55.5542C46.0491 55.3109 44.4596 49.1197 44.4994 50.373C44.8945 52.1026 45.382 54.1315 45.8161 55.9773C43.665 57.5651 41.0266 55.9575 39.1256 56.1605C39.0478 56.1691 40.1043 59.3871 39.9628 59.4192C39.1352 59.6125 38.7934 60.7049 37.1059 57.7303C36.9389 57.4403 35.0485 51.7939 35.1312 52.7198C35.1458 52.8886 35.1113 53.7453 35.4878 54.9844C35.5463 55.1706 36.5359 57.7669 36.4882 57.871C36.1933 58.4314 35.6649 57.9648 34.7398 56.5216C34.5861 56.2848 33.4155 53.5682 33.2888 53.3793C32.3445 52.0865 33.1868 54.1808 31.8083 51.8778C30.8415 50.3488 28.3373 45.8938 25.6604 41.6336C25.2781 41.0349 25.0512 41.0411 23.5066 38.5562C19.6099 32.3144 15.5833 25.3319 11.424 18.6823C10.5255 17.2497 10.796 19.2282 9.04802 15.5055C8.9306 15.2555 8.75296 13.7732 8.18538 12.4998C7.79378 11.6181 6.0843 9.17313 5.67132 7.99164C5.26871 6.80577 6.75961 8.82209 6.3863 7.37521C6.01656 5.90769 4.19548 3.04411 4.76028 2.27169ZM120.643 36.8479C120.744 33.9777 119.235 44.3424 119.911 41.9035C119.946 41.7733 120.639 36.9888 120.643 36.8479ZM156.378 39.2303C156.723 34.6122 155.434 41.2905 155.148 44.8537C154.852 48.4117 156.269 40.6296 156.378 39.2303ZM160.669 36.4879C160.897 32.8304 158.219 47.4457 159.155 44.5585C159.208 44.3953 160.654 36.7001 160.669 36.4879ZM25.7157 39.9606C25.649 39.8393 25.4367 39.8001 25.4983 39.9228C26.995 42.8735 27.3655 42.978 25.7157 39.9606ZM164.914 33.6026C165.305 31.625 164.397 33.7941 163.922 36.2526C163.515 38.2233 164.373 36.0476 164.914 33.6026ZM106.867 23.9629C106.882 23.8075 106.727 23.649 106.623 24.5249C106.29 27.346 106.627 26.5768 106.867 23.9629ZM169.409 35.8404C169.233 34.9599 175.987 24.6169 176.303 26.6274C176.33 26.9712 173.434 29.3673 172.98 30.4253C172.066 32.284 177.33 26.5975 175.042 30.0999C174.593 30.7148 169.383 35.8949 169.396 35.8526C169.4 35.8485 169.404 35.8445 169.409 35.8404ZM122.228 24.3689C122.242 24.231 122.024 24.0702 121.999 24.2054C121.405 27.481 121.846 27.8071 122.228 24.3689ZM97.6552 16.4154C97.6763 16.1209 97.1519 15.7879 97.1025 16.0561C96.1874 21.4252 97.2308 22.1127 97.6552 16.4154ZM139.036 18.4733C139.672 15.1769 140.03 14.8178 139.762 19.0112C139.53 18.7634 139.274 18.7042 139.036 18.4733Z" fill="#E5B80B"/>
</g>
<g filter="url(#filter1_d_426_210)">
<path d="M43.674 36.908C43.268 36.908 42.96 36.782 42.75 36.53C42.554 36.278 42.456 35.935 42.456 35.501C42.456 35.151 42.47 34.85 42.498 34.598C42.526 34.346 42.582 34.08 42.666 33.8C42.75 33.506 42.855 33.149 42.981 32.729C43.121 32.295 43.296 31.742 43.506 31.07C43.632 30.678 43.786 30.167 43.968 29.537C44.164 28.893 44.36 28.193 44.556 27.437C44.752 26.667 44.913 25.897 45.039 25.127C45.179 24.343 45.249 23.622 45.249 22.964C45.249 22.516 45.151 22.103 44.955 21.725C43.653 23.013 42.421 24.693 41.259 26.765C40.111 28.837 39.089 31.245 38.193 33.989C37.927 34.675 37.619 35.137 37.269 35.375C36.919 35.599 36.583 35.711 36.261 35.711C36.163 35.711 36.016 35.655 35.82 35.543C35.624 35.417 35.442 35.193 35.274 34.871C35.106 34.549 35.022 34.094 35.022 33.506C35.022 33.366 35.057 33.191 35.127 32.981C35.197 32.757 35.302 32.519 35.442 32.267C35.568 31.539 35.659 30.762 35.715 29.936C35.785 29.096 35.827 28.263 35.841 27.437C35.869 26.597 35.883 25.813 35.883 25.085C35.883 24.525 35.841 24.035 35.757 23.615C35.071 24.483 34.42 25.533 33.804 26.765C33.188 27.997 32.628 29.306 32.124 30.692C31.634 32.078 31.228 33.436 30.906 34.766C30.822 35.088 30.724 35.389 30.612 35.669C30.5 35.935 30.332 36.152 30.108 36.32C29.898 36.474 29.59 36.551 29.184 36.551C28.736 36.551 28.4 36.369 28.176 36.005C27.952 35.641 27.84 35.158 27.84 34.556C27.84 34.094 27.938 33.499 28.134 32.771C28.33 32.029 28.596 31.224 28.932 30.356C29.268 29.474 29.653 28.578 30.087 27.668C30.535 26.744 31.004 25.855 31.494 25.001C31.984 24.147 32.481 23.384 32.985 22.712C33.503 22.026 33.993 21.487 34.455 21.095C34.931 20.689 35.365 20.486 35.757 20.486C35.771 20.486 35.792 20.486 35.82 20.486C36.128 20.486 36.408 20.514 36.66 20.57C36.926 20.612 37.157 20.759 37.353 21.011C37.563 21.249 37.745 21.648 37.899 22.208C38.053 22.768 38.186 23.559 38.298 24.581C38.326 24.833 38.347 25.134 38.361 25.484C38.375 25.82 38.382 26.17 38.382 26.534C38.844 25.498 39.348 24.525 39.894 23.615C40.454 22.705 41.028 21.9 41.616 21.2C42.218 20.5 42.813 19.954 43.401 19.562C43.989 19.17 44.535 18.974 45.039 18.974C45.627 18.974 46.173 19.121 46.677 19.415C47.181 19.695 47.587 20.171 47.895 20.843C48.203 21.515 48.357 22.432 48.357 23.594C48.357 24.826 48.245 26.023 48.021 27.185C47.797 28.333 47.517 29.418 47.181 30.44C46.845 31.462 46.509 32.4 46.173 33.254C45.837 34.094 45.557 34.822 45.333 35.438C45.151 35.872 44.941 36.229 44.703 36.509C44.465 36.775 44.122 36.908 43.674 36.908ZM52.0576 36.929C51.6656 36.929 51.3156 36.796 51.0076 36.53C50.7136 36.264 50.5666 35.83 50.5666 35.228C50.5666 34.906 50.6086 34.451 50.6926 33.863C50.7906 33.275 50.9166 32.638 51.0706 31.952C51.2246 31.252 51.3926 30.559 51.5746 29.873C51.7706 29.187 51.9596 28.578 52.1416 28.046C52.3236 27.5 52.4846 27.094 52.6246 26.828C52.8066 26.506 52.9746 26.31 53.1286 26.24C53.2966 26.156 53.4576 26.114 53.6116 26.114C53.8916 26.114 54.1506 26.198 54.3886 26.366C54.6406 26.534 54.7666 26.905 54.7666 27.479C54.7666 27.703 54.7246 28.067 54.6406 28.571C54.5566 29.061 54.4516 29.635 54.3256 30.293C54.1996 30.951 54.0596 31.63 53.9056 32.33C53.7656 33.03 53.6256 33.695 53.4856 34.325C53.3596 34.941 53.2546 35.459 53.1706 35.879C53.1006 36.229 52.9536 36.488 52.7296 36.656C52.5196 36.838 52.2956 36.929 52.0576 36.929ZM54.4726 24.035C54.0106 24.035 53.5836 23.902 53.1916 23.636C52.7996 23.356 52.6036 22.929 52.6036 22.355C52.6036 21.879 52.7226 21.494 52.9606 21.2C53.1986 20.906 53.4786 20.696 53.8006 20.57C54.1366 20.43 54.4306 20.36 54.6826 20.36C54.9346 20.36 55.2146 20.416 55.5226 20.528C55.8306 20.626 56.0966 20.815 56.3206 21.095C56.5586 21.361 56.6776 21.746 56.6776 22.25C56.6776 22.586 56.5586 22.894 56.3206 23.174C56.0826 23.44 55.7886 23.65 55.4386 23.804C55.1026 23.958 54.7806 24.035 54.4726 24.035ZM59.6881 36.614C59.3521 36.614 59.0161 36.502 58.6801 36.278C58.3581 36.04 58.0921 35.704 57.8821 35.27C57.6721 34.822 57.5671 34.283 57.5671 33.653C57.5671 32.813 57.6791 31.917 57.9031 30.965C58.1411 30.013 58.4281 29.061 58.7641 28.109C59.1001 27.157 59.4291 26.261 59.7511 25.421C59.9051 25.015 60.0941 24.742 60.3181 24.602C60.5421 24.448 60.8361 24.371 61.2001 24.371C62.0261 24.371 62.4391 24.784 62.4391 25.61C62.4391 25.75 62.3761 26.023 62.2501 26.429C62.1241 26.821 61.9561 27.304 61.7461 27.878C61.5501 28.452 61.3401 29.075 61.1161 29.747C60.9061 30.405 60.7101 31.077 60.5281 31.763C60.3601 32.435 60.2271 33.072 60.1291 33.674C60.4511 33.184 60.8081 32.575 61.2001 31.847C61.6061 31.105 62.0331 30.328 62.4811 29.516C62.9431 28.704 63.4051 27.948 63.8671 27.248C64.3291 26.534 64.7841 25.953 65.2321 25.505C65.6801 25.057 66.1071 24.833 66.5131 24.833C66.8631 24.833 67.1921 24.903 67.5001 25.043C67.8221 25.169 68.1021 25.421 68.3401 25.799C68.5781 26.163 68.7601 26.688 68.8861 27.374C69.0261 28.06 69.0961 28.963 69.0961 30.083C69.0961 30.643 69.1451 31.189 69.2431 31.721C69.3551 32.239 69.5371 32.673 69.7891 33.023C70.0411 33.359 70.3981 33.527 70.8601 33.527C71.6581 33.527 72.3721 33.38 73.0021 33.086C73.6321 32.792 74.1851 32.449 74.6611 32.057C75.1371 31.665 75.5361 31.322 75.8581 31.028C76.0541 30.832 76.2221 30.678 76.3621 30.566C76.5161 30.454 76.6421 30.398 76.7401 30.398C77.0341 30.398 77.2441 30.475 77.3701 30.629C77.5101 30.783 77.5801 30.993 77.5801 31.259C77.5801 31.399 77.4611 31.658 77.2231 32.036C76.9851 32.414 76.6491 32.848 76.2151 33.338C75.7951 33.814 75.3121 34.276 74.7661 34.724C74.2201 35.172 73.6321 35.543 73.0021 35.837C72.3721 36.131 71.7281 36.278 71.0701 36.278C69.9641 36.278 69.0471 36.082 68.3191 35.69C67.6051 35.284 67.0731 34.612 66.7231 33.674C66.3731 32.722 66.1981 31.427 66.1981 29.789C66.1981 29.747 66.1981 29.677 66.1981 29.579C66.1981 29.145 66.1911 28.76 66.1771 28.424C66.1771 28.088 66.1561 27.815 66.1141 27.605C65.8761 28.039 65.5891 28.557 65.2531 29.159C64.9311 29.761 64.5811 30.405 64.2031 31.091C63.8251 31.763 63.4331 32.428 63.0271 33.086C62.6211 33.73 62.2151 34.318 61.8091 34.85C61.4171 35.382 61.0391 35.809 60.6751 36.131C60.3111 36.453 59.9821 36.614 59.6881 36.614ZM84.3428 25.379C85.1128 23.545 85.7918 21.655 86.3798 19.709C86.4918 19.317 86.6528 19.016 86.8628 18.806C87.0868 18.596 87.3948 18.491 87.7868 18.491C88.1088 18.491 88.3538 18.589 88.5218 18.785C88.6898 18.967 88.7738 19.219 88.7738 19.541C88.7738 19.807 88.6618 20.283 88.4378 20.969C88.2138 21.641 87.9408 22.495 87.6188 23.531C87.2968 24.567 86.9748 25.764 86.6528 27.122C86.3308 28.48 86.0578 29.971 85.8338 31.595C85.6098 33.219 85.4978 34.955 85.4978 36.803C85.4978 37.307 85.3998 37.72 85.2038 38.042C85.0218 38.378 84.6998 38.546 84.2378 38.546C83.7338 38.546 83.3628 38.371 83.1248 38.021C82.9008 37.671 82.7888 37.223 82.7888 36.677C82.7888 35.599 82.8238 34.703 82.8938 33.989C82.9778 33.261 83.0618 32.638 83.1458 32.12C82.4598 33.296 81.7318 34.311 80.9618 35.165C80.2058 36.005 79.4778 36.649 78.7778 37.097C78.0778 37.559 77.4758 37.79 76.9718 37.79C76.1458 37.79 75.4738 37.559 74.9558 37.097C74.4378 36.635 74.1788 35.935 74.1788 34.997C74.1788 34.269 74.3538 33.52 74.7038 32.75C75.0538 31.966 75.5158 31.196 76.0898 30.44C76.6638 29.684 77.2938 28.977 77.9798 28.319C78.6798 27.647 79.3798 27.059 80.0798 26.555C80.7798 26.037 81.4308 25.631 82.0328 25.337C82.6348 25.043 83.1248 24.896 83.5028 24.896C83.9228 24.896 84.2028 25.057 84.3428 25.379ZM83.8598 26.513C83.7758 26.569 83.6848 26.625 83.5868 26.681C83.5028 26.723 83.4188 26.772 83.3348 26.828C82.8028 27.164 82.2358 27.57 81.6338 28.046C81.0318 28.508 80.4368 29.026 79.8488 29.6C79.2608 30.16 78.7218 30.748 78.2318 31.364C77.7558 31.966 77.3708 32.568 77.0768 33.17C76.7968 33.758 76.6568 34.325 76.6568 34.871C76.6568 34.969 76.6988 35.039 76.7828 35.081C76.8668 35.123 76.9438 35.144 77.0138 35.144C77.5038 35.144 78.0288 34.927 78.5888 34.493C79.1628 34.059 79.7438 33.457 80.3318 32.687C80.9338 31.903 81.5288 30.986 82.1168 29.936C82.7188 28.886 83.2998 27.745 83.8598 26.513ZM92.3108 37.685C91.7088 37.685 91.2818 37.601 91.0298 37.433C90.7918 37.265 90.6728 37.02 90.6728 36.698C90.6728 36.418 90.7708 36.18 90.9668 35.984C91.1628 35.774 91.5968 35.564 92.2688 35.354C93.0528 35.116 93.7948 34.843 94.4948 34.535C95.2088 34.213 95.7898 33.863 96.2378 33.485C96.6998 33.107 96.9308 32.708 96.9308 32.288C96.9308 32.008 96.8328 31.805 96.6368 31.679C96.4548 31.553 96.2378 31.49 95.9858 31.49C95.7758 31.49 95.4678 31.525 95.0618 31.595C94.6698 31.651 94.2358 31.728 93.7598 31.826C93.2838 31.91 92.8218 31.987 92.3738 32.057C91.9398 32.113 91.5688 32.141 91.2608 32.141C90.5328 32.141 89.9938 31.98 89.6438 31.658C89.2938 31.322 89.1188 30.895 89.1188 30.377C89.1188 30.097 89.2658 29.712 89.5598 29.222C89.8538 28.732 90.2458 28.193 90.7358 27.605C91.2258 27.017 91.7718 26.429 92.3738 25.841C92.9758 25.253 93.5848 24.714 94.2008 24.224C94.8308 23.72 95.4258 23.321 95.9858 23.027C96.5458 22.719 97.0218 22.565 97.4138 22.565C97.8618 22.565 98.2188 22.705 98.4848 22.985C98.7648 23.265 98.9048 23.643 98.9048 24.119C98.9048 24.343 98.8838 24.588 98.8418 24.854C98.7998 25.106 98.6948 25.337 98.5268 25.547C98.3588 25.743 98.0998 25.883 97.7498 25.967C97.3998 26.051 96.9238 26.037 96.3218 25.925C95.8458 26.275 95.3488 26.66 94.8308 27.08C94.3268 27.486 93.8508 27.913 93.4028 28.361C92.9548 28.795 92.5838 29.222 92.2898 29.642C92.8078 29.474 93.3958 29.341 94.0538 29.243C94.7118 29.131 95.3768 29.075 96.0488 29.075C96.8608 29.075 97.5188 29.222 98.0228 29.516C98.5408 29.796 98.9188 30.174 99.1568 30.65C99.4088 31.126 99.5348 31.651 99.5348 32.225C99.5348 32.869 99.3248 33.513 98.9048 34.157C98.4848 34.801 97.9248 35.389 97.2248 35.921C96.5248 36.453 95.7478 36.88 94.8938 37.202C94.0398 37.524 93.1788 37.685 92.3108 37.685ZM129.625 26.618C129.625 26.814 129.359 27.031 128.827 27.269C128.295 27.507 127.581 27.759 126.685 28.025C125.803 28.277 124.816 28.529 123.724 28.781C122.632 29.019 121.526 29.236 120.406 29.432C120.014 30.734 119.629 32.05 119.251 33.38C118.873 34.696 118.544 35.928 118.264 37.076C118.194 37.384 118.033 37.615 117.781 37.769C117.543 37.923 117.284 38 117.004 38C116.654 38 116.367 37.902 116.143 37.706C115.919 37.524 115.807 37.286 115.807 36.992C115.807 36.488 115.947 35.683 116.227 34.577C116.507 33.471 116.843 32.218 117.235 30.818C116.591 31.742 115.94 32.589 115.282 33.359C114.624 34.129 114.001 34.759 113.413 35.249C112.489 36.005 111.53 36.607 110.536 37.055C109.556 37.517 108.576 37.748 107.596 37.748C106.028 37.748 104.887 37.356 104.173 36.572C103.459 35.788 103.102 34.626 103.102 33.086C103.102 32.204 103.2 31.329 103.396 30.461C103.606 29.579 103.886 28.753 104.236 27.983C104.586 27.199 104.985 26.506 105.433 25.904C105.881 25.302 106.35 24.833 106.84 24.497C107.33 24.147 107.82 23.972 108.31 23.972C109.514 23.972 110.389 24.294 110.935 24.938C111.495 25.568 111.775 26.345 111.775 27.269C111.775 27.899 111.593 28.501 111.229 29.075C110.879 29.649 110.41 30.181 109.822 30.671C109.234 31.147 108.576 31.553 107.848 31.889C107.134 32.225 106.413 32.47 105.685 32.624C105.685 32.722 105.685 32.827 105.685 32.939C105.685 33.835 105.853 34.451 106.189 34.787C106.539 35.123 107.099 35.291 107.869 35.291C109.143 35.291 110.41 34.871 111.67 34.031C112.944 33.177 114.204 31.875 115.45 30.125C114.876 30.167 114.379 30.188 113.959 30.188C113.357 30.188 112.965 30.097 112.783 29.915C112.615 29.719 112.531 29.446 112.531 29.096C112.531 28.984 112.58 28.851 112.678 28.697C112.79 28.529 112.923 28.382 113.077 28.256C113.245 28.116 113.42 28.046 113.602 28.046C114.204 27.99 114.785 27.934 115.345 27.878C115.919 27.822 116.465 27.759 116.983 27.689C117.949 26.037 118.887 24.126 119.797 21.956C120.189 20.85 120.595 19.968 121.015 19.31C121.449 18.638 121.897 18.302 122.359 18.302C122.597 18.302 122.814 18.4 123.01 18.596C123.22 18.778 123.325 19.072 123.325 19.478C123.325 19.66 123.22 20.115 123.01 20.843C122.814 21.557 122.548 22.46 122.212 23.552C121.876 24.644 121.512 25.834 121.12 27.122C123.374 26.758 125.117 26.429 126.349 26.135C127.581 25.827 128.358 25.673 128.68 25.673C128.974 25.673 129.205 25.771 129.373 25.967C129.541 26.163 129.625 26.38 129.625 26.618ZM105.979 30.545C106.525 30.251 107.05 29.915 107.554 29.537C108.058 29.145 108.471 28.753 108.793 28.361C109.115 27.955 109.276 27.57 109.276 27.206C109.276 26.884 109.213 26.653 109.087 26.513C108.975 26.373 108.744 26.303 108.394 26.303C108.086 26.303 107.778 26.506 107.47 26.912C107.162 27.318 106.875 27.85 106.609 28.508C106.357 29.152 106.147 29.831 105.979 30.545Z" fill="#0E0E0E"/>
</g>
<defs>
<filter id="filter0_d_426_210" x="0.652344" y="0.60083" width="179.65" height="67.1731" filterUnits="userSpaceOnUse" color-interpolation-filters="sRGB">
<feFlood flood-opacity="0" result="BackgroundImageFix"/>
<feColorMatrix in="SourceAlpha" type="matrix" values="0 0 0 0 0 0 0 0 0 0 0 0 0 0 0 0 0 0 127 0" result="hardAlpha"/>
<feOffset dy="4"/>
<feGaussianBlur stdDeviation="2"/>
<feComposite in2="hardAlpha" operator="out"/>
<feColorMatrix type="matrix" values="0 0 0 0 0 0 0 0 0 0 0 0 0 0 0 0 0 0 0.25 0"/>
<feBlend mode="normal" in2="BackgroundImageFix" result="effect1_dropShadow_426_210"/>
<feBlend mode="normal" in="SourceGraphic" in2="effect1_dropShadow_426_210" result="shape"/>
</filter>
<filter id="filter1_d_426_210" x="23.8398" y="18.302" width="109.785" height="28.2439" filterUnits="userSpaceOnUse" color-interpolation-filters="sRGB">
<feFlood flood-opacity="0" result="BackgroundImageFix"/>
<feColorMatrix in="SourceAlpha" type="matrix" values="0 0 0 0 0 0 0 0 0 0 0 0 0 0 0 0 0 0 127 0" result="hardAlpha"/>
<feOffset dy="4"/>
<feGaussianBlur stdDeviation="2"/>
<feComposite in2="hardAlpha" operator="out"/>
<feColorMatrix type="matrix" values="0 0 0 0 0 0 0 0 0 0 0 0 0 0 0 0 0 0 0.25 0"/>
<feBlend mode="normal" in2="BackgroundImageFix" result="effect1_dropShadow_426_210"/>
<feBlend mode="normal" in="SourceGraphic" in2="effect1_dropShadow_426_210" result="shape"/>
</filter>
</defs>
</svg>
