<svg width="48" height="43" viewBox="0 0 48 43" fill="none" xmlns="http://www.w3.org/2000/svg">
<path d="M43.4067 30.8511V16.5469L24.9187 27.1539C24.2297 27.5579 23.5024 27.76 22.7368 27.76C21.9713 27.76 21.244 27.5579 20.555 27.1539L1.14834 16.0014C0.727292 15.7589 0.430259 15.4559 0.257245 15.0922C0.0842306 14.7286 -0.00151095 14.3245 2.0146e-05 13.88C0.00155125 13.4355 0.0880587 13.0314 0.259542 12.6678C0.431025 12.3041 0.727292 12.0011 1.14834 11.7586L20.555 0.60615C20.8995 0.404112 21.254 0.25218 21.6184 0.150353C21.9828 0.0485263 22.3556 -0.00157842 22.7368 3.78823e-05C23.1181 0.00165418 23.4917 0.0525675 23.8576 0.152778C24.2235 0.252988 24.5772 0.404112 24.9187 0.60615L46.7942 13.2133C47.177 13.4153 47.4741 13.7087 47.6853 14.0934C47.8966 14.478 48.0015 14.8918 48 15.3347V30.8511C48 31.5381 47.7795 32.1143 47.3386 32.5798C46.8976 33.0453 46.3525 33.2772 45.7033 33.2756C45.0541 33.274 44.5091 33.0412 44.0681 32.5773C43.6272 32.1135 43.4067 31.5381 43.4067 30.8511ZM20.555 41.7005L9.07178 35.1545C8.30623 34.71 7.71293 34.1039 7.29188 33.3362C6.87083 32.5684 6.6603 31.7401 6.6603 30.8511V21.6382L20.555 29.5783C21.244 29.9824 21.9713 30.1844 22.7368 30.1844C23.5024 30.1844 24.2297 29.9824 24.9187 29.5783L38.8134 21.6382V30.8511C38.8134 31.7401 38.6029 32.5684 38.1818 33.3362C37.7608 34.1039 37.1675 34.71 36.4019 35.1545L24.9187 41.7005C24.5742 41.9026 24.2205 42.0545 23.8576 42.1563C23.4947 42.2582 23.1212 42.3083 22.7368 42.3066C22.3525 42.305 21.979 42.2549 21.6161 42.1563C21.2532 42.0577 20.8995 41.9058 20.555 41.7005Z" fill="#F5C518"/>
</svg>
