<svg width="1450" height="681" viewBox="0 0 1450 681" fill="none" xmlns="http://www.w3.org/2000/svg">
<path d="M8.64836 355.591C9.02292 346.079 8.86769 377.832 9.40254 356.747C9.46067 361.144 9.52061 365.568 9.57957 369.964C9.35551 371.08 9.13144 372.222 8.90605 373.337C8.81889 367.433 8.73266 361.525 8.64726 355.591C8.64763 355.591 8.648 355.591 8.64836 355.591ZM5.817 347.529C6.4572 352.94 6.66416 370.132 7.22384 351.56C7.00088 350.083 6.77876 348.571 6.55753 347.095C6.71863 340.647 6.87666 334.159 7.03086 327.711C6.94444 325.392 6.85845 323.076 6.77397 320.757C7.14108 317.804 7.50622 314.877 7.86812 311.924C7.82115 314.546 7.77291 317.204 7.72511 319.825C8.0534 330.191 8.16514 339.414 8.26306 353.487C8.35016 352.251 8.43615 351.013 8.52265 349.777C8.39121 356.919 8.25632 364.057 8.11876 371.169C7.9485 364.992 7.76198 358.087 7.60802 352.363C7.02743 361.523 7.3905 377.679 7.53961 386.088C7.74086 397.54 7.4396 394.952 7.58156 403.449C7.60389 404.805 7.83802 404.959 7.84827 407.641C7.9002 421.172 7.82856 447.454 7.23917 432.084C7.26826 409.812 6.80155 390.818 6.92434 368.969C6.32001 374.749 6.09424 363.238 5.817 347.529ZM88.6694 669.395C81.9204 669.793 68.1746 669.659 58.8625 669.414C58.8517 669.414 58.841 669.414 58.8302 669.414C56.7809 669.359 52.1398 668.867 58.8302 668.872C69.7373 668.882 75.0107 669.673 80.7359 669.118C83.2973 669.214 85.9876 669.299 88.6694 669.395ZM112.374 669.303C119.064 669.491 116.029 670.113 107.652 669.958C107.652 669.959 107.652 669.959 107.652 669.96C104.156 669.896 111.019 669.401 98.4821 669.912C95.9215 669.535 93.4 669.194 90.8696 668.832C93.9396 668.819 96.7394 668.803 99.9595 668.791C97.7925 669.423 105.685 669.117 112.374 669.303ZM7.54031 443.39C8.00207 444.442 7.9907 440.036 8.28803 432.534C8.29136 439.615 8.29331 446.698 8.29583 453.749C8.04174 450.284 7.79056 446.854 7.54031 443.39ZM7.25845 277.026C7.25843 277.015 7.2584 277.005 7.25838 276.994C7.19057 274.673 7.12293 272.346 7.05688 270.056C7.19493 268.67 7.33182 267.299 7.46869 265.913C7.31673 257.715 7.16779 249.474 7.02129 241.277C7.44117 242.273 7.40814 256.987 7.72888 265.094C7.63316 277.147 7.39378 282.956 7.02537 283.739C7.10328 281.51 7.1817 279.285 7.25845 277.026ZM1441.99 535.563C1441.76 532.821 1441.54 530.114 1441.31 527.373C1441.21 531.018 1441.13 534.634 1441 538.309C1442 547.922 1441.12 548.825 1441.18 561.42C1441.36 600.024 1442.91 589.782 1440.65 624.647C1440.76 596.655 1439.69 607.412 1438.88 590.536C1439.5 587.04 1440.9 603.763 1441.19 592.431C1440.54 572.905 1439.93 554.129 1439.5 532.464C1439.4 533.096 1439.29 533.726 1439.18 534.359C1439.25 537.794 1439.32 541.201 1439.38 544.637C1439.1 540.93 1438.81 537.307 1438.52 533.54C1439.17 538.301 1438.81 526.166 1439.56 527.79C1439.89 528.513 1440.36 533.876 1440.67 537.041C1440.85 528.875 1441.01 520.5 1441.18 512.244C1441.44 516.522 1441.71 520.796 1441.97 525.044C1441.98 528.538 1441.99 532.005 1442 535.499C1441.99 535.52 1441.99 535.542 1441.99 535.563ZM215.038 8.21458C225.405 7.85652 244.244 7.81769 254.159 8.28637C241.11 8.26281 228.087 8.23935 215.038 8.21458ZM6.72188 284.526C6.78996 283.352 6.85712 282.215 6.92472 281.041C7.06376 286.224 7.2039 291.436 7.34676 296.619C7.14418 297.613 6.94103 298.63 6.73821 299.654C6.73256 294.623 6.72768 289.557 6.72188 284.526ZM7.51862 616.098C7.49689 612.306 7.50506 611.97 7.53478 607.249C7.53457 607.254 7.53435 607.259 7.53414 607.265C7.54549 605.393 7.67098 589.732 7.87192 591.478C7.88947 599.253 7.90115 607.547 7.91543 615.503C7.78331 615.744 7.65187 615.797 7.51862 616.098ZM7.48317 524.573C7.48357 524.562 7.48397 524.551 7.48437 524.54C7.50836 521.71 7.56213 519.03 7.56748 516.109C7.88506 526.624 7.35176 528.285 7.51991 537.838C7.68941 547.39 8.00655 553.293 7.26691 561.398C7.14957 558.384 6.9842 555.139 6.84981 552.035C7.13122 538.475 6.84338 534.823 6.54274 523.946C6.8568 524.157 7.16885 524.362 7.48317 524.573ZM1408.56 669.687C1405.97 670.25 1403.08 669.698 1402.78 669.691C1402.79 669.69 1402.79 669.69 1402.8 669.689C1379.84 670.211 1405.79 669.377 1384.12 669.291C1387.34 669.15 1390.52 669.001 1393.71 668.859C1398.65 669.13 1403.74 669.437 1408.56 669.687ZM662.697 669.923C662.486 669.773 662.233 669.623 662.022 669.473C675.041 669.498 678.361 668.902 689.179 669.433C680.351 669.598 671.525 669.762 662.697 669.924C662.697 669.924 662.697 669.923 662.697 669.923ZM13.7181 671.231C10.666 671.281 7.78171 671.325 5 671.36L6.63974 673C6.50783 662.625 6.50033 653.673 6.76175 642.741C6.76219 642.73 6.76263 642.719 6.76307 642.709C6.78339 641.91 7.02661 645.775 7.08566 644.732C7.04636 641.872 6.98799 638.918 6.94218 636.028C7.13209 635.636 7.32185 635.263 7.51035 634.872C7.46873 643.008 7.42627 651.148 7.38292 659.315C7.49412 658.109 7.60406 656.875 7.71477 655.669C7.77242 661.454 7.83033 667.221 7.88878 673L5 670.111C6.14436 670.1 7.28888 670.088 8.43446 670.076C7.28758 670.23 6.14215 670.384 5 670.538L7.46246 673C7.29335 671.742 7.12445 670.487 6.95562 669.24C6.93693 670.493 6.91842 671.746 6.89992 673L5 671.1C7.90628 671.143 10.814 671.186 13.7181 671.231ZM879.44 671.498C877.15 671.328 881.391 671.04 877.834 670.894C874.278 670.75 867.722 671.071 869.258 670.589C874.046 670.522 879.075 670.446 883.953 670.376C868.253 669.513 852.588 670.308 852.347 669.238C867.416 669.506 879.806 669.37 894.392 669.063C893.789 669.919 879.199 670.662 888.386 671.46C885.435 671.472 882.333 671.489 879.472 671.496C879.462 671.497 879.451 671.497 879.44 671.498ZM1.70931 73.628C1.77608 64.7072 1.72797 44.2681 1.98397 32.9966C2.04915 30.2235 2.72696 20.985 2.80861 21.0321C3.08916 21.3032 3.09866 32.5857 3.3157 20.502C3.30707 24.5669 3.30762 28.5119 3.30253 32.5469C3.49779 31.8237 3.6919 31.1041 3.88521 30.411C3.86445 25.4985 3.84422 20.5805 3.82419 15.668C3.88705 15.427 3.94997 15.1865 4.01268 14.9453C3.98721 32.606 4.24521 22.1805 4.46551 31.3425C4.5885 22.9057 4.70658 14.4067 4.82071 6C4.80567 10.8513 4.79365 16.5762 4.77566 20.8553C5.09826 21.4281 5.02059 11.2184 5.07931 9.46894C5.40752 -0.385418 5.25423 49.7851 5.75281 53.8904C5.79886 45.8758 5.84117 37.4663 5.88237 29.2707C5.94408 31.6213 6.00649 34.0025 6.06944 36.3531C5.76653 54.9458 5.66221 75.7953 5.45211 97.4608C5.46816 99.4181 5.48473 101.379 5.50027 103.307C5.66343 102.734 5.82563 102.193 5.98807 101.62C6.01116 104.574 6.03436 107.564 6.05788 110.518C5.5047 101.809 5.52959 113.868 5.19424 128.424C4.9977 120.68 5.11483 111.127 4.75821 111.786C5.03319 138.365 4.6173 169.49 4.94979 195.346C5.03375 201.764 5.54631 201.743 5.50809 216.834C5.45056 216.321 5.34723 216.234 5.27195 215.902C5.52815 242.001 5.70579 257.836 5.44659 284.96C5.64666 283.393 5.84667 281.852 6.04491 280.286C5.93948 274.53 5.83414 268.764 5.73209 263.038C6.05273 259.121 6.20201 264.91 6.17773 247.733C6.1581 233.659 6.02822 242.037 5.93029 238.209C5.79809 233.027 6.04325 228.479 5.89641 222.904C5.78473 218.595 5.53237 223.257 5.58988 212.016C5.92147 216.536 6.26884 221.148 6.61441 225.699C6.544 228.441 6.47171 231.163 6.39912 233.905C6.30509 231.133 6.21306 228.407 6.12058 225.635C6.2925 235.398 6.45903 244.624 6.64693 254.719C6.14564 251.434 6.34523 261.869 6.41313 267.535C6.51888 276.361 6.16072 268.799 6.22594 274.585C6.29108 280.371 6.69427 286.612 6.62665 297.069C6.38817 291.464 6.19196 299.088 5.97669 297.615C5.76155 296.138 5.70909 285.077 5.48312 295.704C5.6726 316.136 6.46933 293.964 6.6189 307.765C6.80938 324.339 5.45117 328.283 5.15844 323.343C4.92887 319.455 4.97509 306.078 4.75201 302.16C4.33635 326.118 5.14668 326.326 5.30954 330.425C5.90131 345.312 4.32991 335.312 4.89723 352.941C4.60033 352.609 4.33351 352.341 4.04923 352.009C4.1008 355.051 4.17146 357.071 4.21218 360.746C4.79937 349.908 4.76929 358.779 4.77012 363.332C4.77094 370.504 5.05722 359.426 5.13006 361.324C5.32718 366.448 5.24065 374.55 5.49757 369.579C5.37819 371.809 5.2578 374.226 5.13795 376.517C5.28356 384.897 6.58748 404.591 6.30847 385.848C6.78413 387.596 6.56545 393.659 6.49795 398.39C6.43075 403.121 6.73657 403.033 6.68583 407.191C6.48056 423.734 5.93511 412.912 5.52343 410.291C5.82051 432.139 5.99446 410.749 6.21637 442.234C6.56619 445.278 6.91162 430.73 7.12932 442.844C6.53417 445.076 6.11219 453.995 5.91989 471.382C6.06188 473.07 6.20565 474.753 6.3487 476.441C5.79043 485.934 5.18639 481.082 5.90936 498.652C4.59061 489.219 5.43752 495.705 4.89853 511.436C4.7888 514.63 4.51535 507.248 4.37416 511.709C4.30996 513.731 4.51699 518.639 4.35321 523.577C4.27343 525.988 3.74509 537.259 3.98719 545.065C4.64597 539.339 5.20855 554.169 5.74897 541.451C5.6273 564.958 5.94686 581.41 5.03499 555.07C4.83448 561.037 4.63245 567.01 4.42831 572.977C4.58675 577.136 4.74522 581.331 4.90515 585.52C4.34935 586.152 4.19298 585.517 4.28375 601.901C4.15438 594.792 4.0246 587.712 3.89779 580.573C3.78604 580.332 3.67065 579.339 3.56195 579.578C3.76606 588.321 3.84112 612.942 3.98878 618.908C4.13657 624.875 4.18419 613.352 4.32932 615.07C5.53398 629.382 4.64435 628.247 4.85047 638.517C4.97461 644.545 5.10916 630.153 5.16179 633.378C5.35769 645.335 4.70541 650.881 4.69383 661.483C5.0684 657.717 5.44629 653.981 5.81944 650.305C5.81003 657.634 5.80765 665.517 5.8433 673L5 672.157C8.87097 672.138 12.635 672.11 16.1592 672.066C20.2171 672.017 17.1506 671.736 17.8134 671.717C21.1011 671.618 34.4808 671.453 35.8968 671.45C46.5594 671.438 46.8636 671.835 57.2243 671.851C53.1575 671.887 49.3326 671.919 45.356 671.954C43.548 672.598 41.7037 673.24 39.8956 673.881C50.0499 673.933 60.2091 673.984 70.3933 674.037C62.9505 673.816 55.4807 673.597 48.038 673.381C59.6707 672.863 71.3032 672.334 82.9361 671.796C88.9932 672.118 95.0265 672.442 101.084 672.77C117.534 672.683 114.221 671.336 122.026 672.513C126.876 672.412 131.726 672.31 136.576 672.209C135.883 672.379 135.197 672.549 134.504 672.719C140.351 672.614 146.195 672.509 152.042 672.401C145.895 671.797 139.868 671.167 133.782 670.592C145.286 670.447 145.508 670.959 147.224 671.085C151.774 671.42 160.807 670.954 164.424 671.266C165.646 671.374 154.371 671.721 158.257 672.11C159.016 672.182 174.112 673.626 183.744 673.295C183.563 673.031 182.819 672.708 182.427 672.422C195.381 672.256 201.987 673.641 200.269 674.03C207.171 673.761 217.257 673.741 218.674 673.313C222.2 673.303 225.699 673.294 229.225 673.284C225.551 674.329 240.258 674.147 241.222 673.24C235.164 673.217 229.1 673.193 223.042 673.17C227.623 672.068 209.215 671.404 247.517 672.418C254.841 672.996 234.5 672.342 240.467 672.773C250.833 673.025 260.565 672.812 270.419 673.219C282.681 673.729 267.594 674.22 296.163 673.576C233.147 671.943 304.805 672.474 334.401 671.945C342.538 673.581 367.532 674.125 401.949 673.634C398.363 673.165 387.535 673.405 381.296 673.251C375.058 673.098 381.807 672.822 374.037 672.606C366.264 672.39 349.754 672.101 341.885 671.781C348.55 671.52 381.446 670.881 359.695 671.636C375.933 672.086 383.559 672.559 403.683 672.644C409.711 671.911 409.265 671.454 428.881 671.423C417.279 672.45 439.571 673.159 434.663 674.221C420.751 673.969 428.527 672.943 420.482 672.452C419.657 672.403 406.696 672.662 403.683 672.644C416.763 673.559 421.286 673.909 413.239 674.999C422.491 674.909 428.246 675.051 429.09 674.526C431.018 674.755 432.958 674.984 434.855 675.214C437.867 675.21 440.577 675.191 443.769 675.198C439.373 674.399 447.894 674.895 453.951 674.536C460.008 674.176 451.881 673.542 468.517 673.537C462.972 673.348 457.902 673.187 452.537 673.01C463.265 672.804 474.026 672.596 484.753 672.386C477.219 671.893 460.892 671.174 461.338 670.531C466.279 670.77 483.206 670.329 485.059 670.309C492.231 670.237 488.322 670.649 488.865 670.659C500.133 670.85 509.415 670.704 513.693 671.327C522.161 671.04 528.547 671.197 537.526 671.177C542.468 671.165 541.508 670.703 544.4 670.789C563.626 671.364 545.309 671.981 582.397 670.812C577.907 670.488 573.477 670.158 568.987 669.834C573.176 669.708 577.341 669.581 581.53 669.453C584.333 669.51 587.111 669.567 589.913 669.624C589.853 670.333 589.781 671.043 589.721 671.752C592.795 671.789 595.881 671.826 598.955 671.864C593.681 671.935 588.394 672.007 583.12 672.078C582.638 672.202 582.188 672.327 581.707 672.451C589.543 672.643 597.351 672.838 605.186 673.033C605.337 672.786 605.485 672.536 605.636 672.289C623.296 672.63 623.716 672.844 640.502 672.154C653.431 672.159 663.959 671.107 671.433 670.66C674.115 670.799 676.799 670.941 679.511 671.081C681.229 670.87 682.965 670.66 684.682 670.449C688.088 670.74 691.54 671.03 694.945 671.32C696.843 670.655 697.826 670.446 684.538 670.222C689.089 669.394 712.483 669.739 722.006 670.013C729.23 670.22 721.214 670.919 722.118 671.002C725.135 671.288 737.042 671.036 739.543 671.082C750.121 671.277 757.532 671.239 767.086 671.391C768.945 671.421 774.144 671.864 774.586 671.878C778.021 671.953 786.501 672.168 787.466 672.174C837.211 672.499 784.057 670.572 830.313 670.759C828.928 670.502 827.654 670.248 826.298 669.992C829.792 669.974 833.323 669.957 836.818 669.94C841.247 670.152 835.888 670.546 844.687 670.226C844.114 670.544 843.539 670.862 842.936 671.178C846.764 671.006 850.453 670.834 854.371 670.661C860.518 671.762 882.963 672.01 881.367 673.313C880.825 673.757 864.913 674.207 873.322 674.682C880.154 674.777 875.529 674.247 878.316 674.219C898.448 674.03 897.278 674.773 905.505 674.577C906.8 674.258 908.163 673.933 909.488 673.611C912.591 673.705 915.702 673.799 918.835 673.893C919.558 673.678 920.312 673.463 921.035 673.248C918.112 673.234 914.82 673.219 912.138 673.205C915.878 672.375 950.225 671.995 937.127 672.708C931.794 672.997 922.025 672.874 928.198 673.859C937.389 673.718 947.818 673.574 957.491 673.432C957.793 673.645 958.073 673.858 958.375 674.071C971.412 673.935 959.555 673.082 959.579 672.626C962.561 672.613 965.574 672.601 968.556 672.588C969.821 672.795 971.022 673.011 972.347 673.212C972.468 672.883 974.138 672.118 983.026 672.401C988.741 672.586 979.741 673.417 990.639 673.302C989.824 672.787 985.888 672.162 998.026 671.994C999.232 672.532 1000.9 673.024 1001.83 673.589C1016.93 673.073 1023.8 673.906 1041.52 673.304C1052.76 672.924 1068.16 671.561 1075.42 673.658C1083.64 673.714 1081.03 673.191 1083.46 673.073C1094.95 672.517 1103.49 673.513 1105.63 673.572C1119.27 673.949 1125.39 673.604 1136.51 674.077C1135.91 673.686 1135.58 673.317 1135.1 672.936C1124.91 673.521 1119.75 673.493 1105.47 673.367C1110.26 673.289 1115.05 673.209 1119.84 673.13C1119.06 672.814 1118.28 672.498 1117.53 672.183C1073.35 673.429 1083.65 671.467 1120.69 671.029C1123.89 671.614 1127.2 672.198 1130.36 672.786C1151.76 671.896 1161.82 672.667 1186.02 672.853C1188.9 672.874 1199.38 672.534 1203.88 672.517C1203.81 672.515 1203.73 672.513 1203.66 672.51C1206.46 671.954 1202.66 671.698 1202.21 671.2C1204.65 671.137 1207.09 671.075 1209.53 671.012C1214.98 671.391 1213.07 671.703 1223.8 671.612C1222.35 671.234 1220.92 670.855 1219.48 670.478C1231.23 670.462 1238.92 670.873 1249.86 670.694C1248.02 670.837 1246.21 670.981 1244.37 671.124C1268.18 671.488 1249.23 673.717 1267.22 672.608C1268.37 672.802 1269.48 672.999 1270.63 673.193C1263.21 673.241 1255.8 673.287 1248.42 673.335C1248.26 673.61 1248.1 673.883 1247.98 674.158C1255.91 674.076 1263.87 673.992 1271.8 673.91C1266.01 674.094 1260.19 674.279 1254.41 674.463C1263.6 674.595 1272.79 674.728 1281.98 674.861C1272.22 673.848 1284.87 673.724 1282.49 672.721C1298.77 673.556 1311.55 674.659 1336.78 673.954C1341.78 673.814 1339.06 673.111 1353.25 673.966C1349.82 672.848 1367.6 672.324 1365.32 671.26C1360.37 671.311 1355.25 671.344 1350.46 671.407C1355.91 671.775 1356.82 672.79 1348.53 673.091C1337.95 673.475 1322.53 672.772 1323.16 673.897C1318.94 673.844 1315.02 673.813 1310.92 673.768C1312.61 673.489 1314.26 673.208 1315.91 672.929C1304.26 673.367 1296.93 673.224 1291.33 672.522C1305.22 672.36 1319.08 672.199 1332.97 672.038C1330.92 671.991 1328.85 671.942 1326.8 671.896C1337.32 671.177 1326.47 670.496 1346.09 670.341C1345.97 670.67 1345.87 670.999 1345.75 671.33C1352.9 670.45 1372.45 670.453 1366.21 669.441C1372.12 669.752 1373.32 669.949 1376.67 669.402C1392.25 670.171 1402.26 671.144 1396.71 672.306C1402.5 672.119 1408.29 671.932 1414.04 671.745C1410.7 671.427 1407.35 671.111 1404 670.793C1414.07 670.813 1424.21 670.832 1434.24 670.85C1435.21 671.791 1414.87 671.136 1420.74 671.976C1421.91 672.145 1427.33 671.784 1428.75 671.879C1443.76 672.907 1420.2 672.164 1424.62 672.952C1440.34 673.123 1436.17 673.826 1443 673.843H1443.84V673C1443.85 670.113 1443.74 665.261 1443.41 656.108C1443.68 655.295 1443.95 654.421 1444.22 653.667C1444.24 642.975 1443.63 643.843 1443.51 634.652C1443.44 628.897 1444.52 621.673 1443.78 615.316C1443.65 614.183 1442.33 624.876 1442.39 602.404C1442.43 584.964 1443.36 592.223 1443.69 582.795C1444.02 573.362 1442.73 551.783 1444.19 545.424C1444 550.365 1443.9 556.659 1443.74 562.142C1444.02 564.372 1444.3 566.543 1444.59 568.743C1444.22 556.206 1444.65 543.247 1443.97 534.808C1445.01 518.082 1444.05 499.376 1442.88 504.439C1443.05 509.945 1443.56 503.955 1443.23 511.602C1442.96 512.385 1442.69 513.211 1442.42 513.995C1442.45 500.976 1442.44 491.934 1443.27 497.871C1443.29 495.852 1443.31 493.851 1443.33 491.832C1442.73 491.471 1442.13 491.15 1441.53 490.788C1441.46 488.378 1441.39 485.956 1441.33 483.545C1441.46 480.865 1441.59 478.178 1441.73 475.467C1442.67 479.114 1442.71 485.325 1443.24 464.771C1442.91 464.711 1442.58 464.623 1442.25 464.563C1442.67 447.355 1443.46 446.901 1443.43 425.296C1444.57 441.871 1442.56 450.94 1444.84 450.88C1444.69 455.039 1444.53 459.231 1444.39 463.39C1444.72 464.023 1445.05 464.65 1445.38 465.253C1445.2 442.923 1443.03 405.831 1444.46 390.88C1444.29 389.072 1444.14 387.258 1443.95 385.42C1444.81 370.773 1442.87 364.448 1443.99 349.59C1444.1 348.057 1445.92 351.265 1445.85 331.924C1445.62 332.406 1445.22 332.657 1444.92 333.049C1445.07 328.861 1445.22 324.695 1445.36 320.538C1445.15 319.785 1444.93 318.995 1444.71 318.241C1444.62 325.384 1444.54 332.506 1444.46 339.649C1444.38 333.714 1444.3 327.741 1444.23 321.807C1443.87 329.55 1443.87 333.042 1443.3 328.375C1443.26 321.654 1443.23 314.925 1443.19 308.204C1443.05 307.512 1442.9 306.824 1442.75 306.132C1442.32 309.387 1441.89 312.674 1441.45 315.929C1441.81 298.42 1441.83 283.197 1442.68 269.757C1442.83 267.466 1443.39 275.566 1442.88 259.96C1443.18 259.719 1443.42 259.3 1443.7 259.029C1442.86 239.922 1443.11 233.645 1443.71 213.724C1443.15 226.623 1443.52 215.114 1443.22 211.829C1443.01 209.578 1443.04 218.363 1442.82 217.369C1442.61 216.375 1441.74 204.959 1441.63 214.72C1443.42 238.649 1441.28 245.167 1442.14 275.908C1441.9 271.176 1441.67 266.41 1441.44 261.679C1441.29 263.907 1441.14 265.902 1440.98 268.311C1441.33 251.166 1441.1 259.505 1440.83 252.46C1440.55 245.408 1440.32 232.591 1440.25 224.002C1440.23 221.297 1440.63 224.15 1440.67 218.044C1440.69 213.886 1440.1 202.52 1440.8 199.896C1441.26 198.179 1442.51 216.437 1442.5 191.192C1442.95 186.44 1442.81 198.544 1442.86 198.804C1443.39 201.004 1443.79 185.485 1443.39 178.312C1443.35 177.731 1442.94 183.395 1442.78 177.236C1442.39 162.619 1442.87 154.178 1443.5 144.715C1442.75 143.69 1441.87 131.39 1442.15 116.08C1441.93 115.297 1441.72 114.551 1441.51 113.767C1441.62 116.144 1441.73 118.521 1441.84 120.898C1441.71 123.49 1441.61 126.236 1441.45 128.767C1441.27 113.371 1440.25 111.193 1439.88 103.81C1438.63 78.545 1441.31 93.8574 1441.77 98.4141C1441.58 101.699 1441.37 104.875 1441.17 108.13C1441.43 107.769 1441.69 107.402 1441.95 107.07C1441.95 69.2493 1443.62 101.311 1444.1 82.1134C1442.83 77.1712 1442.71 63.0718 1443.51 45.1115C1443.5 43.1224 1443.5 41.1263 1443.49 39.1372C1443.31 38.8064 1443.03 38.8111 1442.91 38.27C1442.7 16.6314 1444.62 12.7767 1444.8 10.7273C1444.95 9.08095 1445.03 7.50045 1445.07 6L1445.06 3.9314L1443 3.93451C1436.21 3.76592 1431.05 4.51556 1428.86 4.52377C1417.56 4.56554 1414.27 4.07502 1403.51 4.29014C1391.94 4.52187 1399.86 4.89518 1396.34 5.23268C1393.51 5.5004 1384.38 5.54894 1380.61 5.82514C1382.11 5.5993 1383.78 5.37759 1385.27 5.15045C1373.28 4.84454 1363.48 4.54877 1349.86 4.47918C1334.49 6.12046 1321.41 3.3673 1326.72 5.59896C1339.62 5.75055 1346.83 6.00529 1353.73 6.57851C1345.26 6.65042 1336.79 6.71999 1328.32 6.79099C1325.85 6.54547 1324.1 6.30661 1321.18 6.05737C1314.85 6.57655 1300.18 6.35195 1294.42 6.50298C1267.45 7.20918 1275.79 8.07689 1251.17 6.60668C1268.92 6.46736 1268.89 5.7526 1286.49 5.85023C1282.69 5.33819 1273.75 5.44654 1279.53 4.83235C1262.51 4.98829 1268.01 5.53214 1261.38 6.01615C1255.67 6.43289 1244.16 6.45424 1244.81 6.99342C1243.63 6.69666 1242.72 6.40965 1241.55 6.1138C1230.52 6.11641 1219.5 6.11624 1208.47 6.1188C1213.17 5.8126 1217.87 5.5046 1222.57 5.19742C1219.02 5.08204 1215.46 4.96747 1211.9 4.85281C1184.78 5.80721 1138.01 4.09698 1145.48 6.44574C1132.4 6.51855 1130.77 6.224 1123.66 5.78297C1122.87 5.96012 1122.11 6.10737 1121.33 6.30426C1112.89 6.11896 1106.41 6.77992 1098.97 6.60624C1091.53 6.43435 1089.68 5.81408 1088.6 6.85731C1083.78 6.5566 1078.98 6.30788 1074.19 6.031C1071.3 6.26687 1068.41 6.49933 1065.55 6.7324C1061.03 6.60797 1056.5 6.48461 1051.98 6.36134C1049.56 6.85272 1031.79 6.63698 1023.96 6.96173C1016.52 6.43394 1016.72 4.78735 999.224 5.0889C999.676 5.49485 1000.12 5.89982 1000.57 6.30617C996.565 6.22089 992.55 6.13625 988.512 6.05174C988.271 5.91973 988.062 5.78775 987.821 5.65581C989.87 5.69638 991.892 5.73684 993.94 5.77897C992.162 5.55526 990.421 5.33305 988.673 5.11024C982.556 5.44329 976.431 5.77406 970.284 6.10242C978.57 6.35155 986.859 6.60327 995.145 6.85719C984.747 7.15063 977.511 6.8525 968.469 7.17753C960.605 6.62032 963.509 6.30471 966.703 5.70324C963.781 5.75488 960.824 5.80458 957.902 5.85587C959.83 5.25653 954.887 4.9016 971.97 4.94281C970.796 4.77155 969.597 4.60853 968.453 4.43098C965.651 4.45968 963.834 4.31612 960.761 4.38411C952.382 4.57115 945.959 5.62042 946.532 5.98689C946.841 6.17939 955.102 5.81097 954.77 6.08355C953.953 6.74983 935.003 6.4424 962.334 7.12141C953.263 7.54143 951.237 7.21955 941.232 7.09378C942.015 7.31455 942.776 7.53411 943.528 7.75528C938.889 7.65031 934.244 7.54626 929.605 7.44241C936.053 6.31268 901.848 5.89881 932.64 4.90521C923.54 4.85872 914.472 4.81255 905.402 4.76467C907.27 4.64913 909.139 4.53448 911.007 4.4184C915.105 4.47636 919.179 4.53368 923.277 4.59097C918.456 4.38289 913.628 4.17735 908.807 3.97188C897.416 4.24146 892.95 4.64153 887.737 5.13246C900.993 5.48511 896.662 4.99869 906.992 4.89595C906.631 5.2082 907.108 5.49523 906.205 5.82318C900.867 5.17795 883.455 5.65189 879.417 5.68239C867.129 5.77889 876.765 5.15081 868.545 5.14055C860.318 5.13171 850.614 5.5023 843.893 4.89243C844.014 5.23567 844.551 5.59076 845.033 5.90353C832.225 6.01638 834.78 5.6124 833.454 5.56035C812.298 4.70915 800.818 5.4397 776.618 5.52767C779.692 5.62989 782.797 5.72256 785.901 5.81948C767.644 6.52732 779.943 6.30864 795.794 6.54836C780.936 6.47419 772.427 7.07308 761.94 7.24284C751.453 7.41242 733.469 7.0952 726.897 6.85877C741.936 6.48696 758.156 6.74176 774.852 6.6421C772.954 6.30321 771.109 6.01711 769.151 5.64679C758.996 6.35496 753.111 5.88112 749.766 5.78957C739.944 5.51914 740.252 6.11702 734.317 5.47558C734.558 5.69635 734.734 5.88204 734.975 6.08837C714.694 5.99244 692.817 5.61867 679.617 6.40877C678.412 5.8938 677.502 5.39847 676.116 4.87502C667.528 5.26609 660.174 4.87541 652.941 4.97003C645.739 5.06351 648.481 5.47093 640.013 5.62961C638.446 5.65851 635.183 5.40579 631.325 5.59371C627.43 5.78623 613.064 7.16392 611.346 5.95824C604.084 5.95272 597.211 5.90921 590.099 5.88967C597.03 5.82221 603.964 5.75599 610.865 5.6868C604.959 5.3962 599.089 5.10964 593.183 4.82549C592.429 5.08331 591.674 5.34541 590.951 5.59913C575.038 5.91368 563.491 5.49964 547.428 5.60269C544.746 5.61939 551.074 6.11249 539.174 5.98689C527.27 5.8589 518.436 4.9608 498.157 5.3191C497.132 5.33861 491.127 6.0181 483.863 5.55144C482.211 5.44644 489.167 5.2861 485.373 5.14884C481.576 5.01152 464.633 4.91071 463.307 4.58676C463.488 4.70206 464.545 4.8208 465.057 4.93813C462.165 4.99571 459.243 5.053 456.321 5.10887C456.05 4.90666 455.757 4.70431 455.486 4.50337C438.851 4.99471 430.253 5.74562 405.604 5.50742C412.535 5.78707 419.468 6.07268 426.369 6.36185C428.268 6.16065 430.17 5.95717 432.038 5.75416C443.398 5.83282 454.79 5.91306 466.149 5.99602C468.018 5.75929 469.854 5.52227 471.722 5.28358C474.735 5.31284 477.719 5.34136 480.732 5.37104C479.978 5.54436 479.219 5.7165 478.435 5.88925C484.401 5.84638 490.374 5.80204 496.31 5.75806C484.225 6.78643 462.563 5.67432 464.126 6.52158C461.445 6.38963 458.761 6.25756 456.08 6.12619C454.904 6.53283 449.453 6.41301 439.843 6.34733C442.043 6.54577 444.473 6.74269 446.492 6.94507C437.15 6.65806 420.577 6.67759 410.904 6.56753C406.655 6.51961 410.898 6.23709 409.635 6.20321C403.155 6.02924 390.771 6.51795 388.179 6.47692C372.689 6.23707 362.623 5.34156 345.717 5.93504C363.166 6.08016 353.673 6.01839 359.881 6.34909C361.825 6.45214 384.368 6.68151 356.139 6.57074C352.83 6.54926 301.61 5.93664 318.447 5.47969C310.159 5.63045 303.67 5.80011 296.076 5.95311C277.511 4.77812 283.936 5.88066 289.33 6.49207C286.287 6.49327 283.391 6.49804 280.257 6.49651C286.917 5.85817 252.985 5.82987 241.472 6.13699C237.615 6.2381 248.401 6.43833 239.481 6.52644C235.233 6.48133 230.414 6.42402 225.926 6.37515C232.435 6.76001 219.661 6.8976 219.84 7.28051C211.673 6.9249 205.426 6.20965 209.915 5.82048C203.165 5.97943 196.38 6.1347 189.631 6.28742C192.765 6.37663 195.94 6.46601 199.074 6.55708C177.014 6.31547 148.648 6.80782 144.037 6.06458C141.114 6.06962 138.159 6.0739 135.236 6.07883C134.332 6.20242 133.458 6.32584 132.554 6.44861C119.327 6.33432 106.13 6.22455 92.9025 6.12084C104.68 6.05058 107.484 5.87796 119.835 6.01741C115.075 5.87778 110.227 5.73997 105.558 5.60541C86.9632 5.98252 84.4266 6.20797 56.4305 6.09987C55.1648 6.09286 34.0116 5.80997 33.2883 5.7852C29.9746 5.66231 35.0047 5.47879 33.5292 5.41665C29.4305 5.23871 4.52471 4.84569 5.00691 4.78474C11.0947 4.00149 94.891 3.70603 117.554 3.59334C352.624 2.27665 582.517 2.48276 816.11 1.91565C818.511 1.90796 817.463 1.67381 818.486 1.66159C824.844 1.58864 831.088 1.94607 833.438 1.95726C838.46 1.97936 835.695 1.64155 839.364 1.63387C877.277 1.5595 913.054 1.70011 950.996 1.57193C953.467 1.56351 950.944 1.85654 955.284 1.79817C957.524 1.76675 964.537 1.30992 969.593 1.29338C987.253 1.23732 1002.09 1.35492 1020.71 1.31617C1030.9 1.29434 1046.18 1.30733 1057.57 1.28155C1062.6 1.27037 1067.84 1.05017 1072.81 1.03444C1079.86 1.01242 1078.42 1.44549 1079.51 1.47051C1084.27 1.58016 1084.93 1.10581 1089.45 1.10947C1097.86 1.1181 1098.31 1.43499 1108.98 1.39198C1116.6 1.36084 1134.05 1.08123 1143.67 0.990987C1166.15 1.33003 1194.48 1.14324 1215.45 0.986241C1227.87 0.893315 1229.02 1.35448 1234.08 1.3466C1251.92 1.31556 1265.46 0.701622 1282.21 0.658168C1304.45 0.601377 1324.16 0.97553 1345.7 0.979776C1349.19 0.980247 1348.39 0.544029 1351.82 0.528406C1364.51 0.471242 1380.73 0.370565 1392.03 0.419692C1404.63 0.473173 1409.27 1.11143 1421.6 0.96759C1425.21 0.924876 1426.27 0.357844 1432.33 0.277891C1435.84 0.232241 1439.47 0.267371 1443 0.333231L1448.66 0.324714L1448.67 6C1448.55 12.1909 1448.34 18.0551 1448.31 22.3547C1448.24 31.6069 1448.82 23.5608 1448.75 36.0377C1448.75 36.5505 1448.34 38.4172 1448.36 41.0965C1448.42 48.9021 1448.75 48.1272 1448.73 59.5493C1448.73 60.6453 1448.34 75.7898 1448.34 77.2954C1448.35 86.1553 1448.22 103.993 1448.31 109.238C1448.63 127.984 1449.26 113.226 1447.89 129.169C1448.23 136.189 1448.58 143.151 1448.92 150.593C1448.61 145.626 1448.18 165.782 1448.21 167.198C1448.45 178.915 1448.98 171.936 1448.91 186.791C1447.64 167.172 1448.76 205.958 1448.8 214.607C1448.99 256.255 1448.7 294.112 1448.73 335.971C1448.74 349.985 1449.02 368.763 1449.02 383.589C1449.02 387.045 1448.72 384.433 1448.71 387.475C1448.71 390.509 1449.05 387.143 1449.03 390.607C1448.93 412.154 1448.29 429.037 1449.1 448.776C1448.99 449.737 1448.89 449.706 1448.77 451.297C1449.49 467.451 1448.53 498.56 1448.4 510.253C1448.2 528.542 1448.69 533.213 1448.59 546.5C1448.46 564.07 1447.51 590.449 1449.09 578.668C1449.14 590.721 1449.16 602.324 1449.01 614.497C1448.99 615.852 1448.59 614.919 1448.58 615.461C1448.53 618.895 1448.89 620.014 1448.9 622.335C1448.95 628.626 1448.52 618.359 1448.64 627.329C1448.7 632.06 1449.02 634.747 1449.02 647.886C1449.03 656.187 1449.03 664.563 1449.03 673V679.03H1443C1370.94 679.036 1294.42 678.926 1221.74 678.852C1216.16 678.847 1219.83 679.235 1212.84 679.207C1188.55 679.112 1145.07 678.444 1124.13 678.522C1103.18 678.599 1107.91 679.162 1094.8 679.388C1092.27 679.432 1094.35 679.114 1092.06 679.108C1076.66 679.069 1058.3 678.561 1045.82 678.479C1037.57 678.424 1038.23 678.923 1032.51 678.955C1023.98 679 1015.2 678.491 1010.65 678.472C989.256 678.387 974.547 678.779 954.568 678.558C955.35 678.667 955.866 678.768 956.528 678.875C932.872 678.838 909.247 678.8 885.591 678.76C886.706 678.859 887.784 678.959 888.9 679.06C861.145 678.978 864.312 677.921 866.753 680.163C864.735 680.239 862.595 680.328 860.666 680.398C861.45 679.246 844.661 678.385 823.295 678.075C821.728 678.052 811.213 679.156 812.358 677.841C809.616 678.16 807.982 678.38 805.661 678.66C801.142 678.257 796.562 677.86 792.043 677.461C789.602 677.518 787.128 677.573 784.687 677.63C784.326 677.886 784.604 678.152 783.82 678.403C772.49 678.43 749.251 678.089 740.298 678.112C718.056 678.171 695.413 678.821 678.114 678.067C669.688 678.131 678.056 678.634 665.523 678.555C664.107 678.305 662.776 678.065 661.299 677.808C651.057 678.903 648.917 678.225 634.881 677.978C625.389 677.81 619.172 678.07 610.133 678.006C607.842 677.99 608.167 677.669 606.6 677.678C601.351 677.705 586.376 678.125 582.67 678.132C549.1 678.2 520.26 678.106 488.287 677.944C484.851 677.927 489.305 678.24 485.749 678.221C480.028 678.192 483.394 677.727 480.08 677.699C470.835 677.625 470.765 678.118 457.869 678.122C415.407 678.135 366.588 677.688 322.228 677.58C320.841 677.578 320.924 677.852 319.417 677.852C309.595 677.847 299.653 677.46 290.734 677.449C275.937 677.429 264.816 677.785 250.199 677.754C221.63 677.695 196.104 677.454 166.72 677.385C142.671 677.327 121.784 677.316 95.4146 677.258C65.4131 677.191 35.2516 677.176 5 677.171L0.842855 677.184L0.829276 673C0.834545 587.107 0.797402 500.486 1.30847 414.723C1.32611 411.772 1.49734 412.973 1.49236 412.073C1.44077 403.515 1.21073 402.751 1.70809 399.707C1.64084 388.804 1.28846 385.364 1.35584 372.197C1.39145 365.179 1.92866 370.418 1.67808 358.546C1.45339 347.825 1.12107 359.656 1.52514 327.775C1.53643 326.931 1.87387 322.777 1.8088 316.148C1.74612 309.488 1.49055 317.197 1.4751 301.164C1.4463 263.524 1.87305 215.881 1.9483 172.123C1.95219 169.381 1.90275 142.969 1.85889 137.755C1.77098 127.665 1.56679 129.773 1.57674 116.668C1.586 106.542 1.83642 98.1876 1.84409 86.2832C1.84471 84.8966 1.63971 82.574 1.70931 73.628ZM1441.01 491.864C1440.51 489.393 1438.67 484.933 1439.23 469.991C1439.28 468.575 1440.55 476.221 1440.75 467.967C1440.88 476.044 1440.92 483.908 1441.01 491.864C1441.01 491.864 1441.01 491.864 1441.01 491.864ZM6.44911 8.85864C6.43968 20.0396 6.42863 31.2588 6.41516 42.4398C6.31046 34.7248 6.20884 26.9985 6.10948 19.3136C6.22457 15.8183 6.33796 12.3539 6.44911 8.85864ZM732.701 670.242C732.691 670.242 732.68 670.242 732.669 670.242C744.423 670.014 756.183 669.783 767.937 669.552C766.701 669.717 765.463 669.883 764.227 670.048C754.947 670.312 745.662 670.574 736.411 670.836C735.176 670.638 733.937 670.44 732.701 670.242ZM639.843 671.99C632.339 671.803 634.176 671.483 630.047 671.174C630.047 671.174 630.047 671.175 630.047 671.176C628.957 671.095 623.882 671.027 621.921 671.016C622.644 671.215 623.578 671.411 624.362 671.609C606.852 672.091 572.61 670.415 616.942 669.691C616.279 669.943 615.646 670.193 614.983 670.445C637.013 670.358 661.572 670.898 639.843 671.99ZM1440.25 314.724C1439.36 295.918 1439.18 289.888 1439.79 267.075C1440.05 270.297 1440.3 273.52 1440.55 276.743C1440.29 280.51 1440.03 284.25 1439.77 288.017C1439.77 288.027 1439.77 288.038 1439.77 288.049C1440.04 288.802 1440.32 289.558 1440.59 290.281C1440.47 298.417 1440.36 306.588 1440.25 314.724ZM6.19012 587.977C7.4082 582.735 6.69737 584.247 6.9927 599.219C7.09592 604.402 7.30517 599.35 7.3457 602.575C7.57045 619.989 6.73421 621.382 6.296 617.495C6.25864 607.64 6.22424 597.683 6.19015 588.009C6.19014 587.998 6.19013 587.987 6.19012 587.977ZM5.6258 136.165C5.62579 136.154 5.62578 136.144 5.62577 136.133C5.82432 135.681 5.88714 142.701 6.06638 134.784C6.07362 140.807 6.07994 146.83 6.08709 152.883C6.06579 151.108 6.04545 149.295 6.02438 147.519C5.95683 149.086 5.888 150.658 5.81965 152.225C6.05585 154.364 5.92293 156.352 5.8499 162.68C6.10123 160.932 6.35118 159.192 6.59936 157.444C6.53849 164.796 6.47535 172.175 6.4104 179.527C6.3455 179.617 6.28048 179.709 6.21554 179.8C6.30257 182.571 6.39126 185.315 6.47986 188.087C6.4027 188.84 6.32602 189.566 6.24846 190.319C6.31273 193.663 6.37762 197.012 6.44401 200.356C6.25268 201.374 6.15964 194.004 6.22617 207.069C6.02173 203.062 5.8205 199.062 5.62129 195.024C5.62359 175.406 5.62536 155.784 5.6258 136.165ZM56.1804 671.303C34.5731 671.378 40.6585 671.166 45.6611 670.507C49.1561 670.771 52.6855 671.036 56.1804 671.303ZM1169.42 671.489C1175.69 670.881 1181.98 670.277 1188.4 669.689C1201.18 669.345 1213.96 670.454 1204.35 670.891C1192.77 671.414 1180.69 670.832 1169.42 671.489ZM1441.2 655.546C1440.92 671.18 1440.19 656.47 1439.76 652.945C1440.44 648.62 1440.38 642.589 1440.46 632.902C1440.51 641.998 1441.25 652.961 1441.2 655.546C1441.2 655.546 1441.2 655.546 1441.2 655.546ZM917.823 670.869C911.559 670.889 905.326 671.055 899.724 670.857C901.414 670.294 912.62 670.802 904.606 669.97C908.613 669.954 912.626 669.938 916.603 669.92C914.075 670.268 917.475 670.525 917.807 670.867C917.813 670.868 917.818 670.869 917.823 670.869ZM265.537 670.57C277.833 671.118 280.163 670.879 292.549 670.475C294.295 670.935 279.526 671.716 270.274 671.887C268.707 671.447 267.134 671.008 265.537 670.57ZM379.073 7.57671C382.025 7.16535 403.807 7.12757 414.629 7.2654C413.341 7.32774 412.048 7.39072 410.759 7.45362C400.211 7.49618 389.621 7.53724 379.073 7.57671ZM1440.51 628.293C1440.49 629.914 1440.48 631.451 1440.46 632.902C1440.46 631.289 1440.47 629.732 1440.51 628.293ZM1410.63 5.40034C1415.78 4.76559 1400.47 4.55648 1419.06 4.79999C1419.06 4.79938 1419.06 4.79878 1419.06 4.79817C1430.42 4.94665 1433.6 4.99518 1443 5.03904L1443.96 5.0376L1443.96 6C1443.96 6.7759 1443.95 7.59417 1443.95 8.46291C1443.84 7.9189 1443.74 7.04037 1443.65 6L1443.65 5.34859L1443 5.34956C1436.88 5.8866 1425.15 6.13243 1443 6.28455L1442.72 6C1442.7 7.98576 1442.68 10.3377 1442.67 13.1042C1442.67 13.5238 1443.16 12.6885 1443.09 17.7776C1443.07 19.3485 1442.67 24.3762 1442.55 32.0227C1442.51 34.4939 1442.38 53.0645 1442.38 27.7508C1441.81 28.5042 1441.23 27.1445 1440.67 27.2048C1440.55 19.562 1441.19 13.2874 1441.48 6L1443 7.52017C1440.87 7.43633 1438.64 7.38319 1436.28 7.38873C1420.76 7.42888 1412.86 8.54847 1409.87 7.0739C1419.72 6.80321 1434.89 6.73196 1443 7.09756L1441.9 6C1441.78 8.6439 1441.62 10.5391 1441.4 11.2573C1441.38 23.883 1442.12 27.5086 1442.48 17.3279C1442.43 12.7924 1442.41 9.07085 1442.4 6L1443 6.60135C1416.54 6.67593 1438.39 5.49643 1404.17 6.01671C1403.72 6.22142 1402.15 6.44151 1402.39 6.63384C1390.74 5.91342 1408.79 5.62782 1410.63 5.40034ZM1442.01 64.8169C1441.58 57.2826 1441.13 49.7731 1440.7 42.2689C1441.41 42.2691 1442.05 46.4067 1442.46 58.2806C1442.31 60.4486 1442.16 62.6488 1442.01 64.8169ZM868.031 6.96913C866.946 7.29132 864.054 7.58487 861.944 7.88923C859.654 7.6131 805.406 7.32268 833.005 7.07703C837.013 7.03876 861.461 7.62195 868.031 6.96913ZM180.162 671.14C186.552 671.349 192.915 671.56 199.274 671.773C189.485 671.915 179.689 672.06 169.9 672.201C173.33 671.849 176.732 671.495 180.162 671.14ZM1273.42 672.2C1270.72 672.185 1279.69 671.62 1269.05 671.709C1276.98 671.348 1284.4 671.041 1292.15 670.701C1294.47 670.968 1296.81 671.234 1299.13 671.501C1300.94 671.329 1302.78 671.159 1304.59 670.987C1303.51 671.376 1302.54 671.757 1301.4 672.153C1288.35 671.319 1285.35 672.266 1273.42 672.2ZM885.399 673.693C883.052 672.882 901.948 672.397 883.359 672.269C886.885 671.735 892.555 671.453 903.434 671.403C905.18 671.607 906.923 671.81 908.669 672.015C908.91 671.467 911.71 671.262 917.823 670.869C917.829 670.87 917.834 670.87 917.839 670.871C934.379 670.826 933.391 671.009 937.368 671.913C919.858 671.406 919.335 672.232 907.401 672.722C899.204 673.059 888.502 672.907 885.399 673.693ZM925.831 6.9858C913.449 7.555 924.56 8.09293 902.592 7.47185C904.008 7.32805 905.431 7.18522 906.848 7.04089C913.175 7.0213 919.503 7.00312 925.831 6.9858ZM824.291 670.932C825.707 672.174 837.365 673.145 839.355 671.115C827.993 670.707 833.543 671.852 824.291 670.932ZM1443.26 660.878C1443.24 666.542 1443.13 670.46 1442.96 673L1443 672.962C1437.09 672.568 1438.64 671.861 1443 671.315L1441.32 673C1441.19 672.001 1441.07 670.854 1440.97 669.615C1441.24 668.229 1441.51 666.844 1441.78 665.487C1441.66 661.66 1441.53 657.832 1441.41 654.005C1442.03 656.295 1442.64 658.588 1443.26 660.878ZM439.127 672.364C455.824 671.552 421.104 671.923 432.768 671.416C442.08 671.009 454.352 671.816 449.711 672.329C446.486 672.344 442.896 672.355 439.16 672.364C439.149 672.364 439.138 672.364 439.127 672.364ZM535.744 672.107C533.002 671.221 536.954 671.479 523.763 671.643C519.996 671.69 490.061 671.372 502.628 672.094C513.324 672.092 524.625 672.101 535.744 672.107ZM1441.8 408.337C1442.23 408.136 1443.18 431.187 1442.95 434.145C1442.95 434.145 1442.95 434.145 1442.95 434.145C1442.3 442.131 1442.21 417.817 1441.32 428.364C1442.1 405.009 1440.21 398.021 1442.7 399.649C1442.81 413.407 1442.3 406.893 1441.8 408.337ZM93.0791 6.28735C93.0684 6.28734 93.0577 6.28734 93.047 6.28733C94.5949 6.29548 107.35 6.57906 105.799 6.67525C90.4604 6.57855 93.1938 6.4065 78.9143 6.6853C78.1315 6.59118 77.4608 6.50022 76.6178 6.40596C82.2836 6.35411 85.4242 6.24169 93.0791 6.28735ZM809.38 6.27243C815.016 6.1856 825.301 6.54952 831.72 6.53008C811.287 7.91518 786.87 6.60894 809.38 6.27243ZM5.81587 347.481C5.81624 347.497 5.81662 347.513 5.817 347.529C5.81644 347.524 5.8159 347.517 5.81534 347.513C5.81552 347.502 5.81569 347.491 5.81587 347.481ZM1246.1 7.29608C1245.37 7.19022 1244.96 7.09841 1244.81 7.01788C1244.81 7.01031 1244.81 7.00274 1244.81 6.99517C1245.2 7.09411 1245.62 7.19422 1246.1 7.29608ZM1441.68 360.431C1442.28 350.83 1443.23 382.817 1443.01 393.16C1442.73 392.438 1442.48 392.325 1442.17 390.639C1442.88 382.29 1441.58 362.028 1441.68 360.431ZM1026.29 671.91C1051.58 671.924 1018.67 674.272 1017.31 672.401C1017.37 672.365 1025.64 671.913 1026.29 671.91ZM1441.91 559.83C1442.64 566.272 1442.83 553.326 1442.71 574.027C1442.52 575.231 1442.33 576.435 1442.14 577.64C1442.07 571.705 1441.99 565.765 1441.91 559.83ZM1191.93 675.022C1223.76 674.626 1254.19 673.914 1233.46 671.918C1231.06 671.982 1228.61 672.044 1226.2 672.108C1225.84 673.082 1216.96 672.55 1203.95 672.519C1202.09 672.905 1194.88 672.994 1193.52 673.322C1190.9 673.955 1199.19 674.401 1191.93 675.022ZM4.71405 516.382C4.8212 516.894 4.92904 517.395 5.03536 517.908C5.15668 522.941 5.2787 527.987 5.40256 533.02C5.1941 532.207 4.98601 531.392 4.77826 530.579C4.75647 525.85 4.73476 521.143 4.71342 516.414C4.71363 516.403 4.71384 516.393 4.71405 516.382ZM1443.98 95.8285C1442.23 92.9377 1442.55 103.04 1443.44 123.532C1443.62 114.31 1443.8 105.05 1443.98 95.8285ZM680.555 674.188C679.892 673.708 679.241 673.229 678.548 672.75C667.668 673.25 669.688 673.796 674.902 674.433C676.799 674.352 678.658 674.27 680.555 674.188ZM523.843 674.336C528.356 674.434 526.053 674.061 526.525 674.069C537.947 674.268 539.556 674.441 553.57 674.164C555.287 674.066 556.976 673.963 558.693 673.862C552.214 672.886 547.51 673.416 533.8 672.846C536.271 673.178 538.733 673.511 541.204 673.846C533.581 673.774 525.99 673.703 518.367 673.632C517.463 673.733 516.557 673.834 515.653 673.936C518.364 674.067 521.162 674.216 523.843 674.336ZM5.01825 458.181C5.04461 450.767 5.07156 443.32 5.097 435.906C4.93392 435.635 4.76982 435.374 4.60694 435.103C4.74152 442.786 4.87873 450.498 5.01825 458.181ZM1380.61 5.82514C1380.03 5.91372 1379.45 6.0028 1378.94 6.09337C1378.99 5.98298 1379.63 5.8968 1380.61 5.82514ZM73.5182 5.6654C65.1114 5.5914 52.9968 5.64911 43.7754 5.63771C44.5003 5.90628 67.938 5.82553 76.1681 5.99569C77.4906 5.94514 77.0718 5.69652 73.5182 5.6654ZM1424.9 673.199C1422.79 673.537 1420.68 673.873 1418.6 674.21C1413.51 674.174 1408.4 674.135 1403.28 674.099C1403.13 674.375 1402.98 674.654 1402.83 674.931C1425.4 674.572 1420.2 675.369 1431.37 676.156C1429.2 675.171 1427.07 674.185 1424.9 673.199ZM4.14338 222.294C4.22038 238.598 4.39857 244.381 4.81969 235.19C4.72489 229.436 4.63177 223.648 4.54049 217.894C4.40878 219.37 4.27631 220.848 4.14338 222.294ZM1083.68 5.30692C1070.04 5.5726 1069.81 4.63021 1056.48 5.16023C1063.62 5.33125 1070.76 5.50556 1077.87 5.67921C1079.79 5.55566 1081.76 5.43097 1083.68 5.30692ZM1446.8 315.832C1447.18 310.076 1445.37 299.316 1446.7 283.134C1446.3 279.278 1445.92 276.861 1445.53 273.547C1445.95 271.618 1446.38 269.427 1446.8 267.589C1446.8 267.578 1446.8 267.567 1446.8 267.556C1446.65 252.879 1446.12 262.395 1445.67 262.064C1445.49 261.908 1445.79 251.016 1445.39 254.419C1444.7 260.296 1445.1 282.255 1444.26 282.315C1444.53 274.6 1444.3 259.535 1443.74 263.991C1443.12 268.873 1444.16 283.071 1443.64 292.112C1445 279.156 1444.58 305.915 1443.54 308.959C1444.34 324.66 1444.67 310.228 1444.63 294.135C1445.43 303.96 1444.99 289.499 1445.66 287.117C1446.06 297.248 1445.74 332.014 1446.8 315.832ZM1059.39 675.321C1070.24 675.272 1087.2 675.734 1094.63 675.06C1098.95 674.667 1081.96 674.36 1093.68 673.743C1083.11 673.803 1080.69 674.044 1082.5 674.585C1080.09 674.65 1077.65 674.713 1075.24 674.776C1074.13 674.67 1072.98 674.565 1071.87 674.46C1070.6 674.682 1069.33 674.902 1068.1 675.125C1065.54 675.08 1062.95 675.036 1060.39 674.99C1060.09 675.101 1059.57 675.198 1059.39 675.321ZM691.935 5.44136C694.948 5.43567 697.932 5.43 700.944 5.42309C700.613 5.32652 700.217 5.22604 699.836 5.12694C699.563 5.04861 699.29 4.97032 699.017 4.89206C700.763 5.16977 715.117 5.63473 721.164 5.33068C724.204 5.17697 717.286 4.64265 730.173 4.53818C720.834 4.57338 712.181 4.65339 703.112 4.70514C703.926 4.54581 704.708 4.3846 705.521 4.22485C705.516 4.22462 705.511 4.22439 705.505 4.22416C702.493 4.19126 699.444 4.15686 696.432 4.12434C694.925 4.56471 693.442 5.00317 691.935 5.44136ZM689.388 675.142C699.665 674.75 703.105 674.542 698.253 673.897C698.243 673.897 698.232 673.896 698.221 673.896C694.394 674.181 690.565 674.464 686.738 674.748C687.612 674.879 688.484 675.011 689.388 675.142ZM1292.09 3.73991C1270.24 6.14969 1319.45 4.66367 1310.08 3.8416C1309.66 3.80435 1294.14 4.00422 1292.09 3.73991ZM1444.07 656.863C1444.09 662.231 1444.11 667.609 1444.13 673V674.13H1443C1442.37 674.133 1441.73 674.135 1441.1 674.137C1441.73 674.285 1442.36 674.433 1443 674.58H1444.58V673C1444.76 672.233 1444.94 671.465 1445.11 670.707C1444.77 666.096 1444.42 661.474 1444.07 656.863ZM3.43598 293.279C3.0389 299.591 2.85795 315.794 3.28066 323.712C3.33817 319.553 3.39519 315.392 3.45157 311.233C3.48962 319.096 3.53404 326.87 3.57161 334.793C4.13446 335.215 3.81763 326.084 3.98459 312.342C4.01391 310.214 4.69859 296.611 4.1936 291.914C4.09115 290.969 4.00492 305.439 3.71181 295.382C3.68246 299.78 3.683 303.576 3.66439 307.732C3.53314 308.034 3.40164 308.332 3.27011 308.664C3.32588 303.524 3.38152 298.418 3.43598 293.279ZM1122.57 675.258C1137.48 675.317 1139.32 674.917 1142.42 674.21C1135.49 674.289 1128.55 674.367 1121.62 674.446C1121.95 674.716 1122.24 674.986 1122.57 675.258ZM3.1038 426.511C3.02094 434.672 3.37742 431.176 3.4402 434.461C3.67843 446.876 3.41495 455.344 3.56209 467.608C3.49327 466.794 3.42904 466.047 3.36246 465.263C3.36245 465.274 3.36244 465.285 3.36242 465.296C2.98058 523.367 3.85673 492.865 3.75001 458.117C3.88411 457.303 4.01811 456.522 4.1507 455.708C3.92769 440.158 3.72321 425.818 3.1038 426.511ZM1445.44 49.2067C1445.57 48.5438 1446.39 54.1789 1446 43.6019C1444.81 35.2256 1445.41 48.9631 1444.95 52.4027C1444.83 49.5396 1444.72 46.6114 1444.61 43.7785C1444.28 60.8966 1444.56 63.3949 1445.43 57.1564C1445.49 56.711 1445.32 49.8711 1445.44 49.2067ZM1373.71 3.03781C1371.36 4.75273 1392.96 3.97383 1392.18 3.43859C1389.19 3.41904 1386.88 3.71139 1383.71 3.58435C1380.52 3.45732 1379.7 3.05681 1373.71 3.03781ZM1445.75 555.638C1445.76 555.005 1446.53 548.647 1445.92 549.278C1444.48 557.144 1445.41 572.993 1445.92 570.22C1445.89 564.978 1445.67 561.483 1445.75 555.638C1445.75 555.638 1445.75 555.638 1445.75 555.638ZM3.37671 194.96C3.35197 195.261 3.16809 211.125 3.30721 213.172C3.46541 214.859 3.6374 215.697 3.80337 216.962C3.65979 208.222 3.80252 190.532 3.37665 194.992C3.37667 194.982 3.37669 194.971 3.37671 194.96Z" fill="url(#paint0_linear_844_113)"/>
<defs>
<linearGradient id="paint0_linear_844_113" x1="724" y1="6" x2="724" y2="673" gradientUnits="userSpaceOnUse">
<stop stop-color="#E5B80B"/>
<stop offset="1" stop-color="#FFAE00"/>
</linearGradient>
</defs>
</svg>
