<svg width="183" height="68" viewBox="0 0 183 68" fill="none" xmlns="http://www.w3.org/2000/svg">
<g filter="url(#filter0_d_426_165)">
<path d="M4.43474 3.21344C5.62758 1.35994 8.26315 1.00979 10.3351 1.46872C10.9842 1.60653 11.6053 3.38391 12.0786 3.56231C12.9972 3.91378 13.1277 2.83503 14.065 3.35046C14.3758 3.53149 15.4156 6.30705 15.7058 6.43904C17.2611 7.15674 17.8606 6.07545 19.063 6.25728C24.8993 7.21374 28.9631 7.16053 32.9955 7.37169C34.3185 7.44434 36.4698 9.61722 37.2858 8.16818C37.3805 7.99641 36.5701 5.53366 36.5354 5.32158C36.0125 2.07237 37.3545 7.12762 37.8095 7.72073C39.6085 10.0619 40.7939 9.97214 41.4393 8.7425C41.7098 8.21254 39.8254 3.40233 41.0554 6.05171C41.1396 6.23039 41.8381 8.89251 42.0316 9.14155C42.4701 9.70078 42.7869 9.09408 43.0379 9.24643C43.5262 9.55334 43.5771 9.50909 43.9229 9.43685C44.4004 9.36154 45.3606 10.4959 45.6462 9.75069C45.6983 9.59897 44.8621 7.39389 44.7197 6.62125C44.7112 6.54449 44.7104 6.4809 44.7188 6.43362C44.8144 5.89931 45.5471 5.9237 45.9579 6.49559C46.3713 7.06632 46.9291 9.21329 47.1159 9.68776C48.6599 13.7016 47.6428 7.81641 47.7158 7.64435C48.7529 4.75922 51.0805 7.68015 52.5608 7.35135C53.7029 7.0904 54.6951 5.76168 55.7952 5.72029C57.108 5.68203 58.4164 7.01609 59.5544 6.57747C59.6761 6.5343 58.9951 3.28835 59.1454 3.22867C60.7406 2.59841 62.4092 2.73769 64.2851 4.75377C64.4741 4.95882 64.6669 7.86393 64.878 8.24116C66.1621 10.4865 68.3289 16.0077 67.2981 3.39031C67.9971 3.80693 68.8375 4.22615 69.714 6.69534C70.2788 8.28453 70.3079 11.4661 70.5864 10.0766C70.6498 9.76692 70.1861 7.02874 70.3074 6.77235C70.8254 5.69478 71.6206 6.51583 72.08 5.02691C72.1718 4.71767 71.8475 2.25408 71.8313 1.80598C71.7122 -1.82424 72.923 4.07009 73.0768 4.49158C74.2411 7.51509 74.7054 6.38786 75.4464 6.30172C75.4832 6.29757 75.5205 6.29492 75.5582 6.29404C75.8037 6.28984 75.1465 3.00172 75.3821 2.87771C76.6479 2.27679 77.945 2.49511 79.1338 3.9389C79.3927 4.26846 79.2865 7.11239 79.4126 7.41523C79.9435 8.71766 79.8882 3.35521 80.4103 4.50666C80.5173 4.74276 80.5184 7.17332 80.5431 7.43997C80.9087 11.626 81.0246 5.68921 81.1039 5.55787C82.0252 3.76534 82.6089 9.97006 83.4217 9.11157C83.5239 9.00288 83.3305 5.92326 83.621 5.80594C85.558 5.00715 87.526 5.96446 89.1379 8.54742C89.3885 8.94491 89.0506 11.2338 89.0509 11.5191C89.0477 15.9759 89.5987 10.0456 89.7055 9.82898C90.5195 8.27314 90.7953 13.3087 91.801 6.27807C94.5634 8.9945 97.8556 5.3607 99.9908 12.0202C100.018 12.0977 99.6354 15.0039 99.6913 15.1459C100.357 16.8862 100.696 12.3379 101.886 6.87168C102.188 5.49941 101.865 12.2387 101.847 12.7334C101.781 14.5566 101.144 18.8715 101.151 19.227C101.219 22.0209 102.793 7.68375 103.315 7.74577C103.329 7.77173 102.957 10.4002 102.971 10.668C103.01 11.5084 103.268 10.478 103.295 11.4028C103.357 13.5424 102.653 20.5168 103.582 16.5249C103.702 16.0067 104.561 7.86946 104.979 8.31346C105.145 8.49719 105.975 8.46391 106.139 9.02C106.304 9.57537 105.841 12.1733 105.843 12.2888C106.041 15.8297 105.646 17.235 105.349 22.4005C105.054 27.5467 106.401 15.3567 106.685 14.0135C106.967 12.6741 107.076 15.5885 107.071 16.596C107.065 17.6037 106.733 19.2497 106.765 19.8246C106.982 23.5817 107.754 13.8156 108.191 11.9097C109.223 7.39678 108.553 16.4792 108.915 17.4236C109.013 17.6785 109.147 15.6078 109.279 15.4293C109.794 14.749 109.739 17.6022 110.519 15.077C110.647 14.6658 111.63 9.27777 111.451 13.2979C111.425 13.8776 111.079 16.1186 111.208 16.6454C111.276 16.927 111.375 17.1782 111.49 17.3522C111.716 17.6685 111.993 17.7334 112.238 17.2717C112.52 16.7412 112.661 12.9967 112.825 14.185C112.897 14.7155 112.425 16.859 112.579 17.6743C112.731 18.4891 113.335 18.4667 113.574 18.4205C113.808 18.3721 114 15.5415 114.039 15.3541C114.268 14.281 114.871 12.9804 114.91 12.9887C116.94 12.8975 118.172 17.8841 120.266 16.5921C120.431 16.495 120.724 13.52 120.754 13.4747C121.435 12.3097 119.983 20.1214 119.982 22.8071C120.734 16.7928 120.8 17.9113 121.245 17.3053C121.46 17.0084 121.681 14.6692 121.729 14.4335C122.465 10.9398 122.026 15.5282 121.944 16.468C121.644 19.9255 122.382 15.8974 122.183 18.2087C121.986 20.5028 121.264 23.8395 121.608 23.8468C121.998 21.7117 122.511 16.0571 122.895 15.1855C124.349 11.8896 125.531 16.5634 126.242 17.132C126.948 17.7004 127.246 17.3379 127.593 18.1782C128.228 19.6976 128.448 15.4815 129.18 13.6383C129.902 11.7932 128.415 22.036 128.218 24.2545C128.022 26.4722 128.377 24.21 128.322 25.436C128.267 26.6619 127.887 28.1373 128.049 28.622C128.205 29.1055 129.265 25.2538 129.602 22.9514C130.33 18.0754 130.672 12.9036 131.007 14.7794C131.027 14.8906 130.612 17.5815 130.702 17.8703C131.045 18.9406 131.459 19.5509 131.888 20.1206L131.824 20.1133C132.294 20.7096 132.763 21.2603 133.174 22.2632C133.283 22.5357 132.875 25.5378 132.936 25.7304C133.559 27.7466 133.761 22.6322 134.756 17.0345C133.93 24.5381 133.736 29.1628 134.344 29.2746C134.709 29.3445 134.966 26.0558 135.431 23.7694C135.572 23.0803 135.617 25.3629 135.816 23.8251C136.471 18.7983 136.778 13.1235 137.202 15.4441C137.219 15.5542 136.856 18.3052 136.937 18.4833C137.459 19.6484 138.047 14.3797 138.806 13.8196C139.4 13.3799 140.011 16.7038 140.575 17.2985C139.693 25.7396 140.459 23.8723 141.297 18.0793C141.659 18.3628 142.132 18.0854 142.427 18.9349C142.529 19.2247 142.184 21.658 142.172 21.924C141.986 26.0956 142.756 20.4547 142.865 20.2429C144.02 18.1963 144.298 22.576 145.645 18.4938C145.693 18.3467 146.393 12.4939 146.157 16.8013C146.139 17.0981 145.552 19.7278 145.944 19.9853C146.333 20.2429 146.76 23.4807 147.643 20.8399C147.857 20.2041 148.75 15.4944 148.608 19.2454C148.588 19.7547 148.352 21.4287 148.299 22.3703C148.131 25.3706 148.915 19.465 148.536 24.5193C148.16 29.5737 148.121 33.3906 149.109 29.9988C149.139 29.9004 149.834 25.2296 150.008 25.3279C150.285 25.4889 150.568 26.5192 150.874 26.5293C151.022 26.5327 151.283 23.6097 151.315 23.5599C152.497 22.0619 152.878 24.7527 153.759 26.0229C153.922 26.2619 154.999 22.3777 154.951 25.5643C154.895 29.0524 152.592 43.2594 153.941 39.9927C154.467 38.6843 157.445 20.6691 156.809 30.1412C158.446 28.022 158.902 32.9984 160.696 29.9137C160.777 29.7773 161.782 24.7818 161.915 24.8756C162.108 25.0242 161.831 27.3933 161.949 27.5737C162.445 28.3918 163.349 26.489 163.9 26.9201C164.105 27.078 163.566 29.4797 163.812 29.6697C164.053 29.8564 164.842 26.7102 164.905 28.3236C164.965 29.5564 163.846 36.0905 163.984 36.9144C165.393 30.5373 165.572 30.7145 166.414 29.1477C166.576 28.8437 167.01 26.6094 167.116 26.352C167.574 25.2593 167.262 27.1241 167.759 25.9373C167.878 25.6522 168.435 23.4933 168.568 23.1396C169.735 20.0522 169.015 25.069 168.811 25.922C168.156 29.1911 169.194 26.4853 169.036 27.8192C168.821 29.1346 167.932 30.5373 167.854 31.3573C167.724 32.0364 167.763 32.4727 167.375 32.4074C167.422 32.4915 167.715 32.5881 167.774 32.6639C168.212 33.1518 168.589 33.1932 168.75 33.3412C168.869 33.4295 170.072 30.7123 170.118 30.6623C170.937 30.233 169.539 33.0793 173.045 28.3183C164.715 41.133 174.137 27.2584 173.024 30.2584C172.929 30.4984 168.454 36.166 167.726 36.9422C167.017 37.7314 168.226 35.8172 167.209 37.1243C166.913 37.3929 163.325 43.1385 163.215 43.5527C161.961 46.5378 167.132 37.0435 167.366 36.4971C170.201 30.7493 166.745 37.1896 166.486 37.6293C165.924 38.401 165.393 38.5055 164.785 38.344C164.598 38.1033 163.667 37.7964 163.52 37.5294C164.203 38.1707 164.543 38.3295 164.683 38.5317C164.85 38.7381 164.833 38.9549 164.725 39.4415C164.427 40.471 162.194 47.2001 162.394 47.0378C162.892 46.4382 164.891 36.7138 162.514 44.9724C162.007 46.7339 160.424 54.3302 161.441 48.3036C161.513 47.9254 162.39 42.4018 161.5 45.8218C161.39 46.2534 160.941 48.47 160.877 48.6505C160.451 49.8158 160.694 48.0259 160.316 48.8295C159.936 49.6325 159.466 50.851 159.346 50.0466C159.274 49.5653 159.805 45.3765 159.901 44.3447C160.184 41.3733 159.107 46.1313 159.564 42.5556C160.013 38.9604 161.227 33.5959 161.198 31.2155C160.22 37.0118 159.2 42.9582 158.214 48.7869C157.434 48.4378 156.912 46.4224 155.985 46.5363C155.874 46.5571 155.52 49.7013 155.39 49.8043C154.851 50.2265 154.724 47.9259 154.1 48.7379C153.606 49.377 152.71 52.6266 152.193 53.4024C152.845 46.6968 151.908 48.8679 151.538 48.1937C151.406 47.96 151.649 46.1794 151.609 45.5814C151.45 43.3682 150.891 49.2951 150.653 50.2064C149.651 54.0983 151.316 40.7404 150.653 40.984C150.614 40.9918 149.334 48.0578 149.228 48.4943C148.532 51.3395 149.481 46.0083 149.332 45.4529C149.064 44.4385 148.979 42.6978 148.273 44.7236C148.064 45.3235 147.211 49.7216 147.359 46.2518C147.378 45.7974 147.678 43.4448 147.667 43.3032C147.427 40.9363 146.541 48.3363 145.964 50.8063C145.39 53.2759 145.544 48.1086 145.622 46.6237C145.823 42.7823 145.994 45.0189 146.05 44.6466C146.72 40.2165 146.303 40.9401 146.092 40.5315C146.891 33.2668 146.492 33.6579 145.875 40.1377C145.809 40.8456 146.077 40.193 146.092 40.5315C145.048 47.6257 144.579 48.4914 144.908 41.7798C145.062 38.6342 145.666 35.0199 144.897 36.2733C144.556 36.84 144.101 41.8538 143.709 43.1873C142.817 46.2302 142.601 41.4745 141.955 42.1411C141.719 42.3829 141.623 45.1459 141.452 45.4055C140.999 46.1035 140.879 44.0074 140.394 45.0155C140.349 45.1104 140.125 47.9875 140.006 48.0102C139.092 48.2382 138.505 46.3093 137.582 46.1508C137.128 46.0744 136.173 47.5654 135.737 47.1942C134.974 46.5666 134.41 42.2838 133.603 43.2193C133.088 43.8184 132.908 46.7003 132.525 48.6352C131.788 52.3863 131.784 45.5217 131.794 44.4599C131.794 44.4248 132.251 43.7907 132.184 42.294C132.358 39.2096 131.799 44.4471 131.794 44.4599C131.797 43.7736 131.086 43.0378 130.879 43.5701C130.766 43.861 130.555 46.5868 130.501 46.6871C130.031 47.5477 129.583 48.1691 129.155 48.5399C129.087 48.5009 128.837 48.5358 128.77 48.4957C127.96 49.1051 127.24 48.9913 126.59 48.096C126.577 48.0385 126.963 45.0071 126.926 44.9099C126.413 43.4728 125.543 47.1279 124.708 49.2543C123.874 51.3796 123.509 50.5785 123.848 45.329C123.345 45.9253 123.051 43.5406 122.898 42.0966C122.747 40.653 121.919 46.5424 121.872 46.6544C120.443 50.2487 120.366 46.7952 119.523 46.1333C119.121 45.8081 118.16 46.5365 117.626 47.1147C117.2 47.581 117.177 46.1688 116.736 47.0048C116.677 47.1165 116.37 49.7478 116.343 49.847C115.571 52.936 116.596 46.5434 116.675 45.3864C116.959 41.1789 117.083 38.934 116.367 40.8294C116.201 41.2634 114.696 50.4646 114.448 50.9803C114.12 51.6326 114.633 48.3305 114.276 49.0978C114.246 49.1605 113.992 51.2064 113.85 51.0948C113.18 50.6031 112.539 49.3063 111.757 49.4129C111.653 49.4199 111.402 52.6848 111.247 52.7485C110.506 53.0432 109.77 52.8287 109.248 51.2226C109.121 50.8172 109.476 48.5536 109.513 47.8732C109.73 43.7552 108.755 49.6585 108.695 49.766C108.434 50.2194 108.202 50.4423 107.988 50.5104C106.713 50.8227 106.102 47.3301 104.637 49.3034C104.544 49.4439 103.181 55.7284 103.556 50.2359C103.579 49.8703 103.969 44.2518 103.287 48.0393C103.245 48.2763 103.073 51.1727 102.819 50.842C102.566 50.5123 101.888 52.373 101.868 49.1634C101.863 48.1525 102.232 42.545 101.347 46.9379C101.284 47.2445 99.5531 57.2126 100.169 50.2599C100.271 49.1154 101.162 41.7888 100.294 45.492C100.128 46.2101 100.085 47.8645 99.751 48.8578C99.2439 50.3897 99.0393 48.3702 98.2667 51.586C98.1309 52.1554 97.2715 57.0958 97.4706 53.2883C97.5015 52.692 97.8504 50.2525 97.7579 49.9628C97.3185 48.5738 96.5261 50.1357 96.1308 48.3695C95.9891 47.7485 96.5296 43.8014 96.4268 42.7133C96.3233 41.6256 95.9916 40.5515 95.5714 42.3348C95.1526 44.119 94.726 50.4622 94.3412 50.9281C92.6828 52.9538 91.6818 49.0947 90.3594 48.4147C90.1655 48.3136 90.1349 50.5941 89.839 50.6083C88.7241 50.6665 86.8577 52.6471 86.2917 47.7687C85.8021 43.8575 86.8614 40.9766 86.3884 39.3669C86.1466 38.5981 85.5016 45.9597 85.4359 46.1888C84.7482 48.5147 84.4844 45.225 83.9516 46.2081C83.8438 46.4123 83.861 49.4102 83.7738 49.5511C83.4804 50.0594 83.2278 48.7138 82.9676 48.952C82.8533 49.0659 82.8507 51.3542 82.7558 51.1756C82.5299 50.7747 82.3368 49.8101 82.1022 47.664C82.0783 47.4684 82.2053 44.6225 82.0244 44.5157C81.7392 44.3509 81.3255 42.2376 81.0963 44.429C81.029 45.0883 81.2349 50.3164 80.9331 46.7105C80.873 45.9574 80.6125 39.6791 80.6818 45.1094C80.6579 46.0131 80.9125 53.3325 80.5094 48.6276C80.4003 47.3893 79.9045 42.2674 79.8983 43.0787C79.9026 43.2078 80.1785 46.0068 80.1603 46.2833C80.1309 46.7111 80.0983 46.879 80.0821 47.0221C79.7934 47.2162 79.5023 47.3789 79.2573 47.8804C79.1366 48.135 79.6888 51.0042 79.4992 51.2912C78.9681 52.0855 78.1309 51.4276 77.4367 50.5849C77.1815 50.2686 77.0481 47.858 77.0019 47.599C76.2493 43.3868 76.7696 49.1249 76.7266 49.4674C76.4436 51.5205 75.7256 48.8762 75.3367 49.6392C75.2294 49.8424 75.6532 52.5594 75.6569 52.8054C75.6797 55.2106 75.2835 50.2912 75.0458 49.7703C74.3756 48.2951 73.8744 48.5734 73.4403 48.9764C73.283 49.1282 73.8768 52.2664 73.7324 52.366C72.8797 53.0163 71.9167 52.8241 70.8221 51.1912C70.6137 50.8783 70.3822 48.435 70.2719 47.8841C69.4965 44.0306 69.888 49.3713 69.8859 49.8852C69.8588 52.2338 69.4186 50.1035 69.1727 50.5448C67.9674 52.7384 66.0849 51.5684 64.7401 50.9035C63.0206 50.0448 61.4104 47.9961 60.4059 48.8742C60.3441 48.9265 61.2512 52.0676 61.2132 52.1521C60.8402 52.8467 60.2465 52.4551 59.8495 52.6372C59.3948 52.8021 58.9661 53.0358 58.5905 53.412C58.4712 53.5239 59.6172 56.4138 59.4543 56.6934C59.1257 57.2881 58.4857 57.3061 57.7377 56.4969C57.3751 56.1077 56.8863 53.4783 56.5399 53.1376C55.7343 52.3376 55.1372 52.2833 54.7764 52.9059C54.6245 53.1774 55.864 56.1175 55.5936 56.2343C53.7697 57.0919 52.1908 58.1011 49.3873 54.6335C49.1953 54.3951 47.2685 48.2467 47.3792 49.4999C47.8693 51.219 48.4682 53.2348 49.0036 55.0689C46.9758 56.7197 44.308 55.1861 42.5002 55.4385C42.4262 55.4491 43.6747 58.6307 43.5427 58.666C42.7698 58.8785 42.5535 59.9668 40.7199 57.0454C40.5388 56.7606 38.2683 51.1961 38.4255 52.1142C38.4544 52.2813 38.4945 53.1338 38.9623 54.3533C39.0344 54.5366 40.1977 57.09 40.1646 57.1933C39.9502 57.7506 39.4358 57.2882 38.4357 55.8767C38.2697 55.6454 36.895 52.9911 36.7578 52.8071C35.7388 51.5532 36.7538 53.5933 35.203 51.3645C34.1212 49.8881 31.2822 45.5686 28.2859 41.4533C27.8588 40.8753 27.6307 40.8955 25.9007 38.4937C21.5387 32.4612 16.9903 25.6947 12.335 19.2686C11.3296 17.8844 11.7537 19.847 9.72481 16.2187C9.58848 15.9752 9.29548 14.5035 8.63155 13.2608C8.17318 12.4003 6.28239 10.0471 5.77918 8.88816C5.28543 7.7247 6.92734 9.65971 6.44456 8.23226C5.96415 6.78372 3.92817 4.01894 4.43474 3.21344ZM122.244 35.6443C122.327 32.7692 120.873 43.1286 121.539 40.6974C121.573 40.5676 122.24 35.7854 122.244 35.6443ZM158.089 38.6234C158.423 34.0027 157.158 40.6695 156.881 44.2341C156.593 47.7932 157.983 40.0232 158.089 38.6234ZM162.348 35.9687C162.587 32.3102 159.899 46.8909 160.823 44.018C160.875 43.8557 162.332 36.1808 162.348 35.9687ZM28.2153 39.7749C28.1395 39.6571 27.9251 39.6293 27.9959 39.7488C29.7141 42.619 30.0903 42.7041 28.2153 39.7749ZM166.537 33.1941C166.983 31.2347 166.029 33.368 165.515 35.8119C165.07 37.7678 165.931 35.6145 166.537 33.1941ZM108.347 22.5C108.36 22.3444 108.202 22.1828 108.105 23.0589C107.793 25.8809 108.128 25.1158 108.347 22.5ZM170.822 35.7043C170.687 34.803 177.972 24.9841 178.177 27.0178C178.186 27.3637 175.176 29.5393 174.663 30.5594C173.657 32.3503 179.202 27.0668 176.739 30.3963C176.26 30.9772 170.796 35.7579 170.81 35.7155C170.814 35.7118 170.818 35.7081 170.822 35.7043ZM123.76 23.167C123.773 23.029 123.554 22.8638 123.53 22.9989C122.953 26.2705 123.396 26.6057 123.76 23.167ZM99.0338 14.7862C99.0527 14.4914 98.5225 14.15 98.4752 14.4181C97.6132 19.7862 98.6656 20.4903 99.0338 14.7862ZM140.561 17.5248C141.167 14.2304 141.524 13.8759 141.296 18.0749C141.061 17.823 140.803 17.7599 140.561 17.5248Z" fill="#E5B80B"/>
</g>
<g filter="url(#filter1_d_426_165)">
<path d="M37.655 31.7495C38.089 31.7495 38.397 31.8685 38.579 32.1065C38.761 32.3305 38.852 32.5685 38.852 32.8205C38.852 33.1705 38.677 33.5415 38.327 33.9335C37.977 34.3255 37.522 34.6895 36.962 35.0255C36.416 35.3475 35.828 35.6135 35.198 35.8235C34.568 36.0335 33.966 36.1385 33.392 36.1385C32.538 36.1385 31.719 35.9075 30.935 35.4455C30.165 34.9695 29.535 34.3045 29.045 33.4505C28.569 32.5965 28.331 31.5815 28.331 30.4055C28.331 29.4395 28.513 28.4805 28.877 27.5285C29.255 26.5765 29.752 25.6595 30.368 24.7775C30.998 23.8955 31.684 23.0765 32.426 22.3205C33.182 21.5645 33.938 20.9065 34.694 20.3465C35.464 19.7865 36.171 19.3525 36.815 19.0445C37.459 18.7225 37.977 18.5615 38.369 18.5615C38.859 18.5615 39.223 18.6875 39.461 18.9395C39.713 19.1775 39.839 19.5135 39.839 19.9475C39.839 20.2975 39.769 20.5705 39.629 20.7665C39.503 20.9485 39.3 21.1095 39.02 21.2495C38.124 21.7115 37.214 22.2715 36.29 22.9295C35.38 23.5875 34.547 24.3155 33.791 25.1135C33.035 25.8975 32.426 26.7235 31.964 27.5915C31.502 28.4595 31.271 29.3415 31.271 30.2375C31.271 31.2175 31.467 31.9595 31.859 32.4635C32.251 32.9675 32.783 33.2195 33.455 33.2195C33.791 33.2195 34.155 33.1495 34.547 33.0095C34.939 32.8555 35.324 32.6805 35.702 32.4845C36.094 32.2885 36.458 32.1205 36.794 31.9805C37.144 31.8265 37.431 31.7495 37.655 31.7495ZM57.3046 36.5795C56.7586 36.5795 56.3596 36.4325 56.1076 36.1385C55.8556 35.8585 55.7296 35.2915 55.7296 34.4375C55.7296 33.7095 55.8486 32.7645 56.0866 31.6025C56.3246 30.4405 56.5906 29.1875 56.8846 27.8435C55.3306 29.5795 53.5386 30.6855 51.5086 31.1615C51.1026 32.0015 50.6266 32.7715 50.0806 33.4715C49.5346 34.1715 48.9396 34.7385 48.2956 35.1725C47.6656 35.5925 47.0076 35.8025 46.3216 35.8025C45.4676 35.8025 44.7326 35.5225 44.1166 34.9625C43.5146 34.4025 43.2136 33.5415 43.2136 32.3795C43.2136 31.5955 43.3326 30.9305 43.5706 30.3845C43.8086 29.8245 44.0816 29.4045 44.3896 29.1245C44.1376 28.5925 44.0116 27.9835 44.0116 27.2975C44.0116 26.3735 44.2636 25.5545 44.7676 24.8405C45.2716 24.1265 45.9366 23.5665 46.7626 23.1605C47.6026 22.7545 48.5126 22.5515 49.4926 22.5515C50.0386 22.5515 50.5566 22.6915 51.0466 22.9715C51.5506 23.2375 51.9566 23.6505 52.2646 24.2105C52.5866 24.7565 52.7476 25.4495 52.7476 26.2895C52.7476 26.9895 52.6426 27.7595 52.4326 28.5995C53.4266 28.0115 54.4066 27.2065 55.3726 26.1845C56.3526 25.1625 57.2276 24.0145 57.9976 22.7405C58.2356 22.3625 58.5716 22.1735 59.0056 22.1735C59.3696 22.1735 59.6566 22.2855 59.8666 22.5095C60.0906 22.7195 60.2026 22.9995 60.2026 23.3495C60.2026 23.4195 60.1606 23.6505 60.0766 24.0425C59.9926 24.4345 59.8806 24.9455 59.7406 25.5755C59.6006 26.1915 59.4466 26.8705 59.2786 27.6125C59.1246 28.3545 58.9706 29.1105 58.8166 29.8805C58.6626 30.6505 58.5226 31.3785 58.3966 32.0645C58.7606 31.4065 59.1526 30.7065 59.5726 29.9645C60.0066 29.2085 60.4546 28.4665 60.9166 27.7385C61.3786 26.9965 61.8336 26.3245 62.2816 25.7225C62.7296 25.1205 63.1426 24.6445 63.5206 24.2945C63.8986 23.9305 64.2206 23.7485 64.4866 23.7485C65.0186 23.7485 65.4666 23.9025 65.8306 24.2105C66.1946 24.5185 66.3766 24.8335 66.3766 25.1555C66.3766 25.4775 66.3416 25.9745 66.2716 26.6465C66.2016 27.3185 66.1106 28.0745 65.9986 28.9145C65.9006 29.7405 65.7956 30.5735 65.6836 31.4135C65.5716 32.2535 65.4806 33.0165 65.4106 33.7025C65.3406 34.3745 65.3056 34.8785 65.3056 35.2145C65.3056 35.4945 65.1726 35.7605 64.9066 36.0125C64.6406 36.2645 64.3396 36.3905 64.0036 36.3905C63.9756 36.3905 63.9266 36.3905 63.8566 36.3905C63.6886 36.4045 63.5346 36.3765 63.3946 36.3065C63.2546 36.2505 63.1356 36.0405 63.0376 35.6765C62.9536 35.3125 62.9116 34.6965 62.9116 33.8285C62.9116 33.2405 62.9396 32.5965 62.9956 31.8965C63.0516 31.1965 63.1216 30.4965 63.2056 29.7965C63.3036 29.0825 63.4086 28.4175 63.5206 27.8015C63.1566 28.4035 62.7506 29.0895 62.3026 29.8595C61.8686 30.6155 61.4136 31.3925 60.9376 32.1905C60.4616 32.9745 59.9926 33.7025 59.5306 34.3745C59.0826 35.0325 58.6626 35.5645 58.2706 35.9705C57.8926 36.3765 57.5706 36.5795 57.3046 36.5795ZM49.4086 29.5655C49.5906 29.0195 49.7376 28.4525 49.8496 27.8645C49.9616 27.2625 50.0176 26.6745 50.0176 26.1005C50.0176 25.8625 49.9686 25.6315 49.8706 25.4075C49.7726 25.1835 49.6046 25.0715 49.3666 25.0715C48.8906 25.0715 48.4216 25.1695 47.9596 25.3655C47.5116 25.5615 47.1406 25.8415 46.8466 26.2055C46.5526 26.5695 46.4056 27.0035 46.4056 27.5075C46.4056 27.9555 46.5526 28.3335 46.8466 28.6415C47.1546 28.9495 47.5326 29.1805 47.9806 29.3345C48.4426 29.4885 48.8976 29.5655 49.3456 29.5655C49.3596 29.5655 49.3806 29.5655 49.4086 29.5655ZM48.5476 31.4135C48.0576 31.3995 47.5816 31.3365 47.1196 31.2245C46.6576 31.0985 46.2376 30.9235 45.8596 30.6995C45.8176 30.9235 45.7756 31.1405 45.7336 31.3505C45.6916 31.5465 45.6706 31.7355 45.6706 31.9175C45.6706 32.2255 45.7196 32.5055 45.8176 32.7575C45.9296 32.9955 46.1536 33.1145 46.4896 33.1145C46.8396 33.1145 47.1896 32.9605 47.5396 32.6525C47.9036 32.3445 48.2396 31.9315 48.5476 31.4135ZM71.7106 35.5085C71.3746 35.5085 71.0386 35.3965 70.7026 35.1725C70.3806 34.9345 70.1146 34.5985 69.9046 34.1645C69.6946 33.7165 69.5896 33.1775 69.5896 32.5475C69.5896 31.7075 69.7016 30.8115 69.9256 29.8595C70.1636 28.9075 70.4506 27.9555 70.7866 27.0035C71.1226 26.0515 71.4516 25.1555 71.7736 24.3155C71.9276 23.9095 72.1166 23.6365 72.3406 23.4965C72.5646 23.3425 72.8586 23.2655 73.2226 23.2655C74.0486 23.2655 74.4616 23.6785 74.4616 24.5045C74.4616 24.6445 74.3986 24.9175 74.2726 25.3235C74.1466 25.7155 73.9786 26.1985 73.7686 26.7725C73.5726 27.3465 73.3626 27.9695 73.1386 28.6415C72.9286 29.2995 72.7326 29.9715 72.5506 30.6575C72.3826 31.3295 72.2496 31.9665 72.1516 32.5685C72.4736 32.0785 72.8306 31.4695 73.2226 30.7415C73.6286 29.9995 74.0556 29.2225 74.5036 28.4105C74.9656 27.5985 75.4276 26.8425 75.8896 26.1425C76.3516 25.4285 76.8066 24.8475 77.2546 24.3995C77.7026 23.9515 78.1296 23.7275 78.5356 23.7275C78.8856 23.7275 79.2146 23.7975 79.5226 23.9375C79.8446 24.0635 80.1246 24.3155 80.3626 24.6935C80.6006 25.0575 80.7826 25.5825 80.9086 26.2685C81.0486 26.9545 81.1186 27.8575 81.1186 28.9775C81.1186 29.5375 81.1676 30.0835 81.2656 30.6155C81.3776 31.1335 81.5596 31.5675 81.8116 31.9175C82.0636 32.2535 82.4206 32.4215 82.8826 32.4215C83.6806 32.4215 84.3946 32.2745 85.0246 31.9805C85.6546 31.6865 86.2076 31.3435 86.6836 30.9515C87.1596 30.5595 87.5586 30.2165 87.8806 29.9225C88.0766 29.7265 88.2446 29.5725 88.3846 29.4605C88.5386 29.3485 88.6646 29.2925 88.7626 29.2925C89.0566 29.2925 89.2666 29.3695 89.3926 29.5235C89.5326 29.6775 89.6026 29.8875 89.6026 30.1535C89.6026 30.2935 89.4836 30.5525 89.2456 30.9305C89.0076 31.3085 88.6716 31.7425 88.2376 32.2325C87.8176 32.7085 87.3346 33.1705 86.7886 33.6185C86.2426 34.0665 85.6546 34.4375 85.0246 34.7315C84.3946 35.0255 83.7506 35.1725 83.0926 35.1725C81.9866 35.1725 81.0696 34.9765 80.3416 34.5845C79.6276 34.1785 79.0956 33.5065 78.7456 32.5685C78.3956 31.6165 78.2206 30.3215 78.2206 28.6835C78.2206 28.6415 78.2206 28.5715 78.2206 28.4735C78.2206 28.0395 78.2136 27.6545 78.1996 27.3185C78.1996 26.9825 78.1786 26.7095 78.1366 26.4995C77.8986 26.9335 77.6116 27.4515 77.2756 28.0535C76.9536 28.6555 76.6036 29.2995 76.2256 29.9855C75.8476 30.6575 75.4556 31.3225 75.0496 31.9805C74.6436 32.6245 74.2376 33.2125 73.8316 33.7445C73.4396 34.2765 73.0616 34.7035 72.6976 35.0255C72.3336 35.3475 72.0046 35.5085 71.7106 35.5085ZM90.6953 36.2225C89.8273 36.2225 89.1273 35.9215 88.5953 35.3195C88.0633 34.7035 87.7973 33.7165 87.7973 32.3585C87.7973 31.4905 87.8953 30.6225 88.0913 29.7545C88.3013 28.8725 88.5883 28.0395 88.9523 27.2555C89.3303 26.4575 89.7643 25.7505 90.2543 25.1345C90.7583 24.5185 91.3113 24.0355 91.9133 23.6855C92.5153 23.3215 93.1383 23.1395 93.7823 23.1395C94.8743 23.1395 95.7283 23.4335 96.3443 24.0215C96.9603 24.6095 97.2683 25.3585 97.2683 26.2685C97.2683 26.9685 97.0723 27.6055 96.6803 28.1795C96.3023 28.7395 95.7843 29.2435 95.1263 29.6915C94.4683 30.1395 93.7333 30.5455 92.9213 30.9095C92.1093 31.2735 91.2763 31.6025 90.4223 31.8965C90.3523 32.4005 90.3173 32.8485 90.3173 33.2405C90.3173 33.4785 90.4503 33.5975 90.7163 33.5975C91.3463 33.5975 92.0183 33.4995 92.7323 33.3035C93.4603 33.0935 94.1953 32.8275 94.9373 32.5055C95.6793 32.1695 96.3933 31.8265 97.0793 31.4765C97.7653 31.1125 98.3883 30.7695 98.9483 30.4475C99.5223 30.1115 99.9913 29.8455 100.355 29.6495C100.733 29.4395 100.978 29.3345 101.09 29.3345C101.398 29.3345 101.622 29.4255 101.762 29.6075C101.902 29.7895 101.972 29.9855 101.972 30.1955C101.972 30.2935 101.783 30.5105 101.405 30.8465C101.041 31.1825 100.537 31.5815 99.8933 32.0435C99.2633 32.4915 98.5493 32.9605 97.7513 33.4505C96.9673 33.9265 96.1483 34.3815 95.2943 34.8155C94.4543 35.2355 93.6353 35.5715 92.8373 35.8235C92.0533 36.0895 91.3393 36.2225 90.6953 36.2225ZM90.7793 30.0275C91.3533 29.6915 91.9203 29.3415 92.4803 28.9775C93.0543 28.5995 93.5303 28.1795 93.9083 27.7175C94.2863 27.2415 94.4753 26.6885 94.4753 26.0585C94.4753 25.8765 94.4263 25.7575 94.3283 25.7015C94.2303 25.6315 94.0903 25.5965 93.9083 25.5965C93.4183 25.5965 92.9703 25.8135 92.5643 26.2475C92.1723 26.6815 91.8223 27.2415 91.5143 27.9275C91.2203 28.5995 90.9753 29.2995 90.7793 30.0275ZM104.085 36.0965C103.301 36.0965 102.622 35.9145 102.048 35.5505C101.474 35.2005 101.033 34.7455 100.725 34.1855C100.417 33.6115 100.263 33.0235 100.263 32.4215C100.263 31.4135 100.417 30.4825 100.725 29.6285C101.033 28.7605 101.439 27.9765 101.943 27.2765C102.447 26.5625 102.993 25.9325 103.581 25.3865C104.183 24.8405 104.764 24.3855 105.324 24.0215C105.898 23.6435 106.409 23.3635 106.857 23.1815C107.305 22.9855 107.634 22.8875 107.844 22.8875C108.222 22.8875 108.488 22.9715 108.642 23.1395C108.81 23.2935 108.894 23.5525 108.894 23.9165C108.894 24.1265 108.74 24.3785 108.432 24.6725C108.138 24.9665 107.746 25.3025 107.256 25.6805C106.78 26.0585 106.276 26.4855 105.744 26.9615C105.212 27.4375 104.701 27.9695 104.211 28.5575C103.735 29.1455 103.343 29.7895 103.035 30.4895C102.741 31.1895 102.594 31.9525 102.594 32.7785C102.594 33.0865 102.65 33.3245 102.762 33.4925C102.888 33.6605 103.091 33.7445 103.371 33.7445C104.169 33.7445 105.023 33.6045 105.933 33.3245C106.857 33.0305 107.774 32.6665 108.684 32.2325C109.608 31.7845 110.476 31.3225 111.288 30.8465C112.114 30.3705 112.821 29.9435 113.409 29.5655C113.647 29.3975 113.85 29.2645 114.018 29.1665C114.186 29.0685 114.305 29.0195 114.375 29.0195C114.795 29.0195 115.005 29.2365 115.005 29.6705C115.005 29.8945 114.837 30.1955 114.501 30.5735C114.109 31.0635 113.577 31.5675 112.905 32.0855C112.247 32.6035 111.512 33.1005 110.7 33.5765C109.902 34.0525 109.083 34.4795 108.243 34.8575C107.417 35.2355 106.64 35.5365 105.912 35.7605C105.184 35.9845 104.575 36.0965 104.085 36.0965ZM128.605 24.9245C128.605 25.0925 128.549 25.2395 128.437 25.3655C128.325 25.4915 128.185 25.5895 128.017 25.6595C127.779 25.7575 127.366 25.8835 126.778 26.0375C126.19 26.1915 125.476 26.3665 124.636 26.5625C123.81 26.7585 122.921 26.9615 121.969 27.1715C121.017 27.3675 120.065 27.5565 119.113 27.7385C118.749 29.0825 118.378 30.4685 118 31.8965C117.622 33.3105 117.244 34.7035 116.866 36.0755C116.726 36.5655 116.558 36.9365 116.362 37.1885C116.166 37.4545 115.83 37.5875 115.354 37.5875C114.836 37.5875 114.486 37.4195 114.304 37.0835C114.136 36.7615 114.115 36.3205 114.241 35.7605C114.605 34.2345 114.941 32.8135 115.249 31.4975C115.571 30.1815 115.83 29.1175 116.026 28.3055C115.186 28.4455 114.451 28.5575 113.821 28.6415C113.191 28.7115 112.743 28.7395 112.477 28.7255C112.183 28.6975 111.938 28.5785 111.742 28.3685C111.546 28.1585 111.455 27.8995 111.469 27.5915C111.497 27.3115 111.623 27.0735 111.847 26.8775C112.071 26.6675 112.337 26.5415 112.645 26.4995C113.079 26.4575 113.639 26.3945 114.325 26.3105C115.011 26.2265 115.767 26.1285 116.593 26.0165C116.775 25.3025 116.985 24.5675 117.223 23.8115C117.461 23.0415 117.706 22.3065 117.958 21.6065C118.224 20.8925 118.476 20.2695 118.714 19.7375C118.952 19.2055 119.169 18.8205 119.365 18.5825C119.519 18.4005 119.708 18.2605 119.932 18.1625C120.17 18.0645 120.401 18.0155 120.625 18.0155C120.919 18.0155 121.157 18.1205 121.339 18.3305C121.521 18.5405 121.612 18.7855 121.612 19.0655C121.612 19.1775 121.605 19.2965 121.591 19.4225C121.577 19.5345 121.549 19.6465 121.507 19.7585C121.241 20.4585 120.954 21.3055 120.646 22.2995C120.352 23.2935 120.044 24.3855 119.722 25.5755C120.772 25.4215 121.801 25.2675 122.809 25.1135C123.831 24.9455 124.755 24.7915 125.581 24.6515C126.421 24.4975 127.093 24.3645 127.597 24.2525C127.877 24.1545 128.115 24.1755 128.311 24.3155C128.507 24.4415 128.605 24.6445 128.605 24.9245ZM126.075 35.8235C125.683 35.8235 125.333 35.6905 125.025 35.4245C124.731 35.1585 124.584 34.7245 124.584 34.1225C124.584 33.8005 124.626 33.3455 124.71 32.7575C124.808 32.1695 124.934 31.5325 125.088 30.8465C125.242 30.1465 125.41 29.4535 125.592 28.7675C125.788 28.0815 125.977 27.4725 126.159 26.9405C126.341 26.3945 126.502 25.9885 126.642 25.7225C126.824 25.4005 126.992 25.2045 127.146 25.1345C127.314 25.0505 127.475 25.0085 127.629 25.0085C127.909 25.0085 128.168 25.0925 128.406 25.2605C128.658 25.4285 128.784 25.7995 128.784 26.3735C128.784 26.5975 128.742 26.9615 128.658 27.4655C128.574 27.9555 128.469 28.5295 128.343 29.1875C128.217 29.8455 128.077 30.5245 127.923 31.2245C127.783 31.9245 127.643 32.5895 127.503 33.2195C127.377 33.8355 127.272 34.3535 127.188 34.7735C127.118 35.1235 126.971 35.3825 126.747 35.5505C126.537 35.7325 126.313 35.8235 126.075 35.8235ZM128.49 22.9295C128.028 22.9295 127.601 22.7965 127.209 22.5305C126.817 22.2505 126.621 21.8235 126.621 21.2495C126.621 20.7735 126.74 20.3885 126.978 20.0945C127.216 19.8005 127.496 19.5905 127.818 19.4645C128.154 19.3245 128.448 19.2545 128.7 19.2545C128.952 19.2545 129.232 19.3105 129.54 19.4225C129.848 19.5205 130.114 19.7095 130.338 19.9895C130.576 20.2555 130.695 20.6405 130.695 21.1445C130.695 21.4805 130.576 21.7885 130.338 22.0685C130.1 22.3345 129.806 22.5445 129.456 22.6985C129.12 22.8525 128.798 22.9295 128.49 22.9295ZM145.755 36.5795C145.209 36.5795 144.81 36.4325 144.558 36.1385C144.306 35.8585 144.18 35.2915 144.18 34.4375C144.18 33.7095 144.299 32.7645 144.537 31.6025C144.775 30.4405 145.041 29.1875 145.335 27.8435C143.781 29.5795 141.989 30.6855 139.959 31.1615C139.553 32.0015 139.077 32.7715 138.531 33.4715C137.985 34.1715 137.39 34.7385 136.746 35.1725C136.116 35.5925 135.458 35.8025 134.772 35.8025C133.918 35.8025 133.183 35.5225 132.567 34.9625C131.965 34.4025 131.664 33.5415 131.664 32.3795C131.664 31.5955 131.783 30.9305 132.021 30.3845C132.259 29.8245 132.532 29.4045 132.84 29.1245C132.588 28.5925 132.462 27.9835 132.462 27.2975C132.462 26.3735 132.714 25.5545 133.218 24.8405C133.722 24.1265 134.387 23.5665 135.213 23.1605C136.053 22.7545 136.963 22.5515 137.943 22.5515C138.489 22.5515 139.007 22.6915 139.497 22.9715C140.001 23.2375 140.407 23.6505 140.715 24.2105C141.037 24.7565 141.198 25.4495 141.198 26.2895C141.198 26.9895 141.093 27.7595 140.883 28.5995C141.877 28.0115 142.857 27.2065 143.823 26.1845C144.803 25.1625 145.678 24.0145 146.448 22.7405C146.686 22.3625 147.022 22.1735 147.456 22.1735C147.82 22.1735 148.107 22.2855 148.317 22.5095C148.541 22.7195 148.653 22.9995 148.653 23.3495C148.653 23.4195 148.611 23.6505 148.527 24.0425C148.443 24.4345 148.331 24.9455 148.191 25.5755C148.051 26.1915 147.897 26.8705 147.729 27.6125C147.575 28.3545 147.421 29.1105 147.267 29.8805C147.113 30.6505 146.973 31.3785 146.847 32.0645C147.211 31.4065 147.603 30.7065 148.023 29.9645C148.457 29.2085 148.905 28.4665 149.367 27.7385C149.829 26.9965 150.284 26.3245 150.732 25.7225C151.18 25.1205 151.593 24.6445 151.971 24.2945C152.349 23.9305 152.671 23.7485 152.937 23.7485C153.469 23.7485 153.917 23.9025 154.281 24.2105C154.645 24.5185 154.827 24.8335 154.827 25.1555C154.827 25.4775 154.792 25.9745 154.722 26.6465C154.652 27.3185 154.561 28.0745 154.449 28.9145C154.351 29.7405 154.246 30.5735 154.134 31.4135C154.022 32.2535 153.931 33.0165 153.861 33.7025C153.791 34.3745 153.756 34.8785 153.756 35.2145C153.756 35.4945 153.623 35.7605 153.357 36.0125C153.091 36.2645 152.79 36.3905 152.454 36.3905C152.426 36.3905 152.377 36.3905 152.307 36.3905C152.139 36.4045 151.985 36.3765 151.845 36.3065C151.705 36.2505 151.586 36.0405 151.488 35.6765C151.404 35.3125 151.362 34.6965 151.362 33.8285C151.362 33.2405 151.39 32.5965 151.446 31.8965C151.502 31.1965 151.572 30.4965 151.656 29.7965C151.754 29.0825 151.859 28.4175 151.971 27.8015C151.607 28.4035 151.201 29.0895 150.753 29.8595C150.319 30.6155 149.864 31.3925 149.388 32.1905C148.912 32.9745 148.443 33.7025 147.981 34.3745C147.533 35.0325 147.113 35.5645 146.721 35.9705C146.343 36.3765 146.021 36.5795 145.755 36.5795ZM137.859 29.5655C138.041 29.0195 138.188 28.4525 138.3 27.8645C138.412 27.2625 138.468 26.6745 138.468 26.1005C138.468 25.8625 138.419 25.6315 138.321 25.4075C138.223 25.1835 138.055 25.0715 137.817 25.0715C137.341 25.0715 136.872 25.1695 136.41 25.3655C135.962 25.5615 135.591 25.8415 135.297 26.2055C135.003 26.5695 134.856 27.0035 134.856 27.5075C134.856 27.9555 135.003 28.3335 135.297 28.6415C135.605 28.9495 135.983 29.1805 136.431 29.3345C136.893 29.4885 137.348 29.5655 137.796 29.5655C137.81 29.5655 137.831 29.5655 137.859 29.5655ZM136.998 31.4135C136.508 31.3995 136.032 31.3365 135.57 31.2245C135.108 31.0985 134.688 30.9235 134.31 30.6995C134.268 30.9235 134.226 31.1405 134.184 31.3505C134.142 31.5465 134.121 31.7355 134.121 31.9175C134.121 32.2255 134.17 32.5055 134.268 32.7575C134.38 32.9955 134.604 33.1145 134.94 33.1145C135.29 33.1145 135.64 32.9605 135.99 32.6525C136.354 32.3445 136.69 31.9315 136.998 31.4135Z" fill="#0E0E0E"/>
</g>
<defs>
<filter id="filter0_d_426_165" x="0.354492" y="0.629883" width="181.823" height="66.4099" filterUnits="userSpaceOnUse" color-interpolation-filters="sRGB">
<feFlood flood-opacity="0" result="BackgroundImageFix"/>
<feColorMatrix in="SourceAlpha" type="matrix" values="0 0 0 0 0 0 0 0 0 0 0 0 0 0 0 0 0 0 127 0" result="hardAlpha"/>
<feOffset dy="4"/>
<feGaussianBlur stdDeviation="2"/>
<feComposite in2="hardAlpha" operator="out"/>
<feColorMatrix type="matrix" values="0 0 0 0 0 0 0 0 0 0 0 0 0 0 0 0 0 0 0.25 0"/>
<feBlend mode="normal" in2="BackgroundImageFix" result="effect1_dropShadow_426_165"/>
<feBlend mode="normal" in="SourceGraphic" in2="effect1_dropShadow_426_165" result="shape"/>
</filter>
<filter id="filter1_d_426_165" x="24.3311" y="18.0156" width="134.496" height="27.572" filterUnits="userSpaceOnUse" color-interpolation-filters="sRGB">
<feFlood flood-opacity="0" result="BackgroundImageFix"/>
<feColorMatrix in="SourceAlpha" type="matrix" values="0 0 0 0 0 0 0 0 0 0 0 0 0 0 0 0 0 0 127 0" result="hardAlpha"/>
<feOffset dy="4"/>
<feGaussianBlur stdDeviation="2"/>
<feComposite in2="hardAlpha" operator="out"/>
<feColorMatrix type="matrix" values="0 0 0 0 0 0 0 0 0 0 0 0 0 0 0 0 0 0 0.25 0"/>
<feBlend mode="normal" in2="BackgroundImageFix" result="effect1_dropShadow_426_165"/>
<feBlend mode="normal" in="SourceGraphic" in2="effect1_dropShadow_426_165" result="shape"/>
</filter>
</defs>
</svg>
