<svg width="197" height="68" viewBox="0 0 197 68" fill="none" xmlns="http://www.w3.org/2000/svg">
<g filter="url(#filter0_d_426_207)">
<path d="M4.43632 3.12153C5.68724 1.23518 8.40908 0.861712 10.5513 1.3076C11.2223 1.44131 11.8395 3.23309 12.3284 3.40907C13.2779 3.75564 13.4309 2.66378 14.3997 3.17571C14.721 3.35561 15.7598 6.15129 16.0608 6.28166C17.6745 6.99045 18.3235 5.89037 19.5845 6.06088C25.711 6.96075 30.0682 6.85805 34.4074 7.02143C35.8316 7.0783 38.1165 9.24082 39.0303 7.76878C39.1364 7.59432 38.3067 5.12248 38.2733 4.90914C37.7711 1.64048 39.1256 6.71875 39.6073 7.31046C41.5124 9.64597 42.8026 9.53825 43.5332 8.28728C43.8398 7.74819 41.893 2.92454 43.1751 5.57812C43.2629 5.75706 43.9646 8.43226 44.1698 8.68045C44.6352 9.23776 44.9947 8.62011 45.2652 8.76961C45.791 9.07111 45.8473 9.0256 46.227 8.94647C46.7505 8.86187 47.7715 9.99023 48.1029 9.23136C48.161 9.08476 47.3908 7.08381 47.197 6.21509C47.1732 6.07768 47.1658 5.96708 47.1806 5.8944C47.2904 5.3551 48.0671 5.37368 48.4954 5.94613C48.9262 6.5174 49.4873 8.67466 49.6789 9.15086C51.263 13.179 50.2706 7.26163 50.3492 7.08839C51.4935 4.17722 53.939 7.10081 55.5335 6.76195C56.7619 6.49364 57.8416 5.15532 59.0255 5.11012C60.4384 5.06735 61.8393 6.40243 63.0731 5.95993C63.205 5.91637 62.4944 2.66158 62.6571 2.60143C64.3827 1.96645 66.1862 2.10461 68.2084 4.12496C68.4123 4.33043 68.6036 7.2431 68.8305 7.62117C70.2096 9.87163 72.5383 15.4057 71.4867 2.75741C72.2434 3.17516 73.1546 3.59562 74.0961 6.07089C74.7017 7.66409 74.7178 10.8531 75.0281 9.46046C75.0989 9.15003 74.6078 6.40526 74.7412 6.14832C75.3106 5.06839 76.1722 5.89177 76.6791 4.39978C76.7805 4.0899 76.439 1.62048 76.4235 1.17135C76.3111 -2.46722 77.6009 3.44142 77.7669 3.86393C79.0113 6.87047 79.524 5.78377 80.321 5.68227C80.3684 5.67661 80.4166 5.67308 80.4654 5.67218C80.7266 5.66897 80.0336 2.37197 80.2835 2.24878C81.6242 1.65267 83.0041 1.87976 84.2796 3.33483C84.5577 3.66686 84.4522 6.51368 84.5884 6.81791C85.1637 8.12628 85.0864 2.75651 85.6494 3.91408C85.7652 4.15144 85.7767 6.58508 85.8043 6.85228C86.2164 11.0469 86.3154 5.10382 86.3994 4.97308C87.3787 3.18725 88.0456 9.40608 88.9209 8.55607C89.0305 8.44845 88.7995 5.36257 89.1121 5.24853C91.1956 4.47156 93.3289 5.45795 95.1086 8.07088C95.3852 8.47303 95.0459 10.7605 95.0496 11.0462C95.1001 15.5107 95.6273 9.57909 95.7402 9.36377C96.6036 7.81831 96.97 12.8681 97.9689 5.84125C101.005 8.61029 104.525 5.03106 106.959 11.7507C106.991 11.8289 106.622 14.7349 106.686 14.8784C107.44 16.6367 107.733 12.0836 108.936 6.62736C109.241 5.25761 109.004 12.0081 108.993 12.5038C108.953 14.3305 108.333 18.6437 108.347 19.0004C108.469 21.8032 109.937 7.46022 110.506 7.53318C110.522 7.55949 110.163 10.1874 110.182 10.4561C110.24 11.2997 110.502 10.2718 110.548 11.1997C110.653 13.3464 110.007 20.3251 110.951 16.3418C111.072 15.8247 111.865 7.68317 112.329 8.13716C112.512 8.32483 113.417 8.30899 113.606 8.87009C113.795 9.43046 113.336 12.0258 113.341 12.1417C113.619 15.6966 113.214 17.0976 112.981 22.271C112.751 27.4253 114.004 15.2299 114.289 13.889C114.573 12.5518 114.745 15.4767 114.757 16.4869C114.768 17.4973 114.435 19.1408 114.48 19.7179C114.783 23.4901 115.453 13.7133 115.895 11.8113C116.943 7.30783 116.372 16.401 116.784 17.3557C116.894 17.6133 117.004 15.5397 117.145 15.3636C117.696 14.6923 117.686 17.552 118.494 15.0363C118.626 14.6265 119.609 9.24495 119.482 13.2718C119.464 13.8525 119.124 16.0922 119.273 16.623C119.351 16.9004 119.461 17.1493 119.586 17.3254C119.839 17.6573 120.146 17.7354 120.408 17.2718C120.707 16.7457 120.798 12.9944 120.996 14.1891C121.084 14.7224 120.606 16.8618 120.787 17.6823C120.965 18.5022 121.624 18.4922 121.883 18.4508C122.138 18.4071 122.299 15.573 122.338 15.3859C122.569 14.3146 123.204 13.023 123.246 13.0321C125.453 12.9822 126.883 18.0095 129.139 16.7602C129.318 16.6665 129.58 13.6887 129.611 13.6439C130.331 12.4903 128.898 20.2942 128.949 22.9884C129.653 16.9719 129.746 18.0955 130.22 17.4976C130.448 17.2045 130.644 14.8628 130.691 14.6274C131.426 11.1391 131.035 15.7323 130.964 16.6733C130.705 20.1352 131.43 16.1108 131.259 18.4251C131.089 20.7221 130.366 24.0532 130.742 24.0684C131.125 21.9352 131.575 16.2738 131.976 15.4082C133.495 12.1346 134.879 16.8509 135.665 17.4373C136.447 18.0234 136.766 17.6664 137.161 18.517C137.883 20.055 138.044 15.8311 138.811 13.9987C139.567 12.1641 138.13 22.4042 137.955 24.6249C137.782 26.8447 138.128 24.5837 138.09 25.812C138.053 27.0402 137.665 28.5118 137.85 29.0012C138.028 29.4894 139.115 25.6493 139.442 23.3476C140.15 18.4735 140.431 13.2946 140.831 15.1828C140.854 15.2948 140.45 17.9843 140.553 18.2757C140.946 19.3535 141.407 19.9736 141.883 20.5523L141.82 20.5445C142.343 21.1529 142.865 21.7141 143.33 22.7298C143.453 23.005 143.056 26.0062 143.124 26.2004C143.837 28.2334 143.977 23.111 144.974 17.5195C144.19 25.0246 144.052 29.6562 144.718 29.7802C145.117 29.8574 145.345 26.566 145.816 24.2832C145.959 23.5952 146.044 25.8841 146.237 24.3466C146.872 19.3207 147.116 13.6385 147.615 15.9728C147.636 16.0834 147.284 18.8339 147.375 19.014C147.962 20.1921 148.519 14.9224 149.337 14.3757C149.978 13.9466 150.698 17.2905 151.322 17.8979C150.497 26.3421 151.303 24.4856 152.122 18.695C152.521 18.9864 153.031 18.7178 153.367 19.5753C153.483 19.8679 153.147 22.3003 153.139 22.5667C153.005 26.7451 153.751 21.1056 153.866 20.8954C155.091 18.8668 155.468 23.2634 156.867 19.1982C156.917 19.0517 157.58 13.198 157.396 17.5118C157.381 17.8089 156.787 20.4335 157.218 20.6997C157.647 20.966 158.168 24.2212 159.085 21.5916C159.307 20.9586 160.198 16.2547 160.109 20.0129C160.096 20.5231 159.868 22.1968 159.827 23.1398C159.696 26.1448 160.447 20.2395 160.123 25.2997C159.802 30.3601 159.828 34.1868 160.845 30.8067C160.876 30.7086 161.551 26.0395 161.742 26.1418C162.046 26.3091 162.375 27.3484 162.707 27.3652C162.869 27.3718 163.101 24.4459 163.135 24.3967C164.396 22.9197 164.86 25.6266 165.844 26.9202C166.027 27.1635 167.127 23.2911 167.135 26.4867C167.141 29.9845 164.902 44.1844 166.314 40.9384C166.864 39.6382 169.756 21.6316 169.251 31.1207C170.993 29.0322 171.595 34.0377 173.487 30.986C173.572 30.851 174.558 25.8605 174.704 25.958C174.917 26.1119 174.668 28.4837 174.8 28.6679C175.359 29.5018 176.3 27.614 176.909 28.0614C177.135 28.2255 176.606 30.6243 176.879 30.8218C177.146 31.0161 177.927 27.8755 178.035 29.4989C178.131 30.7397 177.085 37.2786 177.264 38.1131C178.626 31.7393 178.828 31.9232 179.698 30.3716C179.866 30.0705 180.274 27.8346 180.382 27.5786C180.846 26.492 180.562 28.3602 181.063 27.1797C181.183 26.8961 181.723 24.7387 181.856 24.3863C183.021 21.3104 182.38 26.3399 182.189 27.1948C181.584 30.471 182.615 27.7746 182.486 29.1155C182.302 30.4393 181.396 31.8257 181.349 32.6559C181.244 33.3471 181.314 33.7968 180.944 33.7412C180.994 33.824 181.282 33.926 181.343 34.0003C181.813 34.5027 182.22 34.5608 182.409 34.723C182.548 34.8216 183.713 32.1023 183.761 32.0538C184.613 31.6481 183.279 34.5125 186.756 29.7805C178.579 42.577 187.858 28.74 186.822 31.7746C186.733 32.0172 182.321 37.668 181.587 38.4293C180.872 39.2037 182.039 37.2777 181.014 38.5657C180.716 38.8291 177.157 44.541 177.046 44.9525C175.789 47.9141 180.861 38.4378 181.089 37.8912C183.849 32.1431 180.415 38.5506 180.147 38.9832C179.575 39.7357 179.029 39.8316 178.41 39.6611C178.214 39.4255 177.301 39.102 177.143 38.8392C177.824 39.4832 178.148 39.6338 178.278 39.8313C178.433 40.0318 178.405 40.2429 178.287 40.7267C177.966 41.7434 175.793 48.4658 175.965 48.2961C176.38 47.6741 178.281 37.9478 175.899 46.1805C175.393 47.9369 173.884 55.5342 174.801 49.495C174.866 49.1158 175.665 43.5835 174.778 46.9957C174.668 47.4263 174.237 49.6422 174.17 49.8216C173.726 50.9791 173.942 49.1859 173.543 49.9815C173.141 50.7765 172.651 51.9866 172.493 51.1738C172.398 50.6874 172.876 46.4931 172.955 45.4589C173.191 42.4813 172.123 47.2313 172.538 43.6519C172.946 40.0528 174.149 34.6969 174.063 32.3057C173.126 38.1011 172.147 44.0462 171.202 49.874C170.33 49.5011 169.708 47.4638 168.692 47.5547C168.571 47.5727 168.25 50.7199 168.11 50.82C167.525 51.23 167.336 48.9178 166.667 49.7174C166.138 50.3467 165.222 53.5859 164.669 54.3518C165.247 47.639 164.263 49.7953 163.844 49.1103C163.694 48.8728 163.926 47.092 163.87 46.4912C163.652 44.2673 163.156 50.2002 162.912 51.1089C161.89 54.99 163.455 41.6282 162.735 41.8578C162.693 41.8647 161.425 48.9235 161.317 49.3589C160.608 52.1971 161.547 46.871 161.374 46.3107C161.061 45.2872 160.935 43.5395 160.2 45.5557C159.982 46.1528 159.13 50.5449 159.228 47.0683C159.24 46.613 159.526 44.2601 159.511 44.1179C159.205 41.739 158.371 49.1409 157.784 51.6053C157.199 54.0694 157.274 48.8908 157.333 47.4034C157.484 43.5556 157.711 45.8021 157.766 45.43C158.419 41.0019 157.976 41.7186 157.738 41.3043C158.481 34.0365 158.053 34.4203 157.494 40.9049C157.434 41.6133 157.715 40.9646 157.738 41.3043C156.723 48.3959 156.224 49.2538 156.466 42.5309C156.578 39.3799 157.175 35.7686 156.357 37.0093C155.994 37.5703 155.584 42.5881 155.179 43.9169C154.256 46.9492 153.937 42.1762 153.243 42.8312C152.989 43.0687 152.932 45.837 152.749 46.0938C152.266 46.7842 152.099 44.6802 151.585 45.6809C151.538 45.775 151.342 48.6549 151.212 48.6752C150.216 48.885 149.541 46.9392 148.529 46.7615C148.032 46.6758 147.011 48.1512 146.529 47.7703C145.684 47.1258 144.997 42.8215 144.131 43.7433C143.578 44.3336 143.427 47.2189 143.039 49.1508C142.293 52.8962 142.179 46.0154 142.173 44.9513C142.173 44.9161 142.662 44.2895 142.565 42.7879C142.706 39.6997 142.179 44.9385 142.173 44.9513C142.166 44.2634 141.377 43.512 141.159 44.0415C141.04 44.3309 140.852 47.0589 140.795 47.1584C140.293 48.0146 139.811 48.63 139.348 48.9928C139.279 48.9555 139.032 48.9839 138.965 48.9456C138.099 49.5367 137.319 49.4072 136.603 48.4983C136.587 48.4404 136.954 45.4086 136.912 45.3105C136.332 43.8591 135.451 47.5064 134.585 49.6217C133.719 51.7358 133.312 50.9251 133.585 45.6675C133.051 46.255 132.689 43.857 132.497 42.4054C132.306 40.954 131.516 46.8435 131.468 46.9549C129.984 50.5292 129.836 47.0632 128.904 46.38C128.459 46.0447 127.425 46.7534 126.852 47.321C126.395 47.7789 126.342 46.3615 125.875 47.1899C125.813 47.3006 125.528 49.9334 125.501 50.0322C124.716 53.1133 125.712 46.7236 125.776 45.5647C126.003 41.35 126.096 39.1009 125.347 40.9857C125.175 41.4173 123.704 50.613 123.442 51.1244C123.094 51.7711 123.593 48.4705 123.215 49.2319C123.183 49.2941 122.944 51.3405 122.785 51.2252C122.038 50.7163 121.307 49.4007 120.449 49.49C120.335 49.4947 120.12 52.7635 119.95 52.8239C119.139 53.1026 118.325 52.8712 117.721 51.2493C117.575 50.8401 117.924 48.5781 117.953 47.8966C118.119 43.7723 117.152 49.6704 117.088 49.7769C116.805 50.2324 116.551 50.4508 116.315 50.511C114.952 50.7778 114.231 47.2898 112.678 49.2329C112.579 49.3719 111.205 55.6453 111.518 50.1456C111.537 49.7795 111.863 44.1537 111.187 47.9374C111.145 48.1741 111.009 51.0749 110.726 50.738C110.445 50.4021 109.739 52.2537 109.66 49.0347C109.636 48.0209 109.939 42.4056 109.051 46.7919C108.989 47.098 107.276 57.057 107.825 50.098C107.915 48.9525 108.758 41.6244 107.876 45.3194C107.706 46.036 107.69 47.6942 107.342 48.683C106.815 50.2083 106.555 48.1788 105.767 51.3869C105.628 51.9549 104.775 56.8905 104.925 53.0767C104.948 52.4794 105.286 50.0406 105.18 49.7481C104.673 48.3458 103.832 49.8949 103.366 48.1153C103.2 47.4897 103.723 43.5434 103.591 42.4503C103.459 41.3574 103.076 40.2735 102.646 42.0526C102.217 43.8327 101.859 50.1835 101.444 50.6424C99.6531 52.6377 98.4796 48.7474 97.0054 48.039C96.7889 47.9337 96.7921 50.2189 96.464 50.2271C95.231 50.2626 93.1713 52.21 92.469 47.3126C91.8701 43.3857 93.0153 40.5185 92.4682 38.8977C92.1907 38.1236 91.5612 45.4865 91.4893 45.7148C90.7441 48.0326 90.4081 44.7334 89.8166 45.7097C89.6964 45.9125 89.7462 48.915 89.6483 49.0548C89.318 49.5591 89.0164 48.2078 88.7191 48.4427C88.5884 48.5551 88.6033 50.8464 88.4916 50.6662C88.2259 50.2616 87.9931 49.2933 87.7087 47.1418C87.6802 46.9457 87.8123 44.0977 87.6031 43.9887C87.2722 43.8205 86.7899 41.7006 86.5215 43.8933C86.4426 44.553 86.6784 49.7894 86.3224 46.1769C86.2506 45.4225 85.9635 39.1336 86.0247 44.5724C85.9993 45.4771 86.2301 52.8105 85.7672 48.0978C85.6425 46.8574 85.0965 41.7256 85.0767 42.5391C85.079 42.6685 85.3808 45.473 85.3479 45.7508C85.2936 46.1901 85.2341 46.3579 85.1922 46.5057C84.8815 46.6953 84.569 46.8615 84.3035 47.3546C84.17 47.6097 84.7599 50.4857 84.5508 50.7732C83.9658 51.5691 83.0522 50.9096 82.2958 50.065C82.0179 49.748 81.8852 47.3317 81.836 47.0721C81.0358 42.8499 81.5732 48.6016 81.5241 48.9449C81.2016 51.003 80.4303 48.3525 79.9986 49.1176C79.8795 49.3214 80.3279 52.0449 80.3304 52.2915C80.3403 54.7026 79.9356 49.7713 79.6788 49.2492C78.9519 47.7708 78.4006 48.0502 77.9201 48.4547C77.7461 48.6072 78.3774 51.7528 78.2178 51.8528C77.275 52.5059 76.2142 52.3152 75.0184 50.6807C74.7917 50.3674 74.557 47.9176 74.4401 47.3654C73.6183 43.5027 74.0032 48.8581 73.9956 49.3737C73.9441 51.7295 73.4766 49.5943 73.1998 50.038C71.8424 52.2433 69.7516 51.0824 68.2476 50.4298C66.3216 49.5873 64.5448 47.5509 63.3541 48.4665C63.2807 48.5212 64.2146 51.6724 64.1665 51.7592C63.6947 52.4794 62.9963 52.1008 62.5026 52.3165C62.0234 52.4871 61.5697 52.7259 61.168 53.1036C61.0386 53.2177 62.2139 56.1179 62.0355 56.4015C61.6751 57.0043 60.9909 57.0293 60.2038 56.2221C59.8221 55.8339 59.3435 53.1895 58.9781 52.8501C58.128 52.0532 57.4876 52.0055 57.088 52.6373C56.9198 52.9127 58.2003 55.861 57.9075 55.9819C55.9309 56.8676 54.2016 57.9054 51.2214 54.4504C51.0173 54.2129 49.0512 48.0403 49.1446 49.3027C49.6413 51.0293 50.2499 53.0536 50.7935 54.8956C48.5431 56.5932 45.6389 55.0972 43.6025 55.4087C43.5188 55.4219 44.7984 58.6145 44.6477 58.6548C43.7671 58.8965 43.45 60.0219 41.4945 57.1214C41.3013 56.8387 39.0128 51.2415 39.1422 52.1752C39.1662 52.345 39.162 53.2188 39.6226 54.4501C39.6938 54.635 40.8763 57.2001 40.8283 57.3097C40.5267 57.9036 39.9178 57.4784 38.8265 56.0993C38.6457 55.8732 37.2757 53.1934 37.1279 53.0129C36.0346 51.7831 36.9831 53.8793 35.3616 51.6717C34.2328 50.2091 31.3938 45.8438 28.3608 41.7064C27.9285 41.1253 27.6755 41.1606 25.9356 38.7384C21.5489 32.6544 16.9883 25.8225 12.3053 19.3425C11.2939 17.9466 11.6926 19.9402 9.66994 16.2716C9.53404 16.0253 9.25945 14.5313 8.59701 13.2758C8.13965 12.4064 6.23307 10.0355 5.73407 8.8638C5.24451 7.68766 6.90262 9.63599 6.42853 8.19212C5.95683 6.72716 3.9046 3.94135 4.43632 3.12153ZM131.664 35.9185C131.699 33.0361 130.315 43.3961 130.993 40.972C131.028 40.8425 131.663 36.06 131.664 35.9185ZM170.828 39.6644C171.093 35.0344 169.852 41.695 169.626 45.2664C169.389 48.8321 170.743 41.0671 170.828 39.6644ZM175.435 37.1115C175.606 33.4417 173.021 48.0181 173.968 45.1582C174.021 44.9966 175.424 37.3243 175.435 37.1115ZM28.3864 39.9588C28.3099 39.8402 28.0767 39.8217 28.1475 39.9423C29.8663 42.8406 30.2802 42.9066 28.3864 39.9588ZM179.968 34.4568C180.383 32.4937 179.412 34.6121 178.933 37.0598C178.515 39.0182 179.399 36.8812 179.968 34.4568ZM116.253 22.4339C116.264 22.2783 116.089 22.1129 115.999 22.9893C115.708 25.8124 116.059 25.0523 116.253 22.4339ZM184.814 37.3383C184.601 36.3691 191.742 26.5457 192.043 28.653C192.069 29.0121 189.039 31.1315 188.554 32.1658C187.598 33.9823 193.108 28.7474 190.711 32.0971C190.244 32.6814 184.791 37.3955 184.801 37.3493C184.805 37.3456 184.809 37.3419 184.814 37.3383ZM133.075 23.4354C133.086 23.2972 132.844 23.1265 132.82 23.2614C132.255 26.5306 132.745 26.8769 133.075 23.4354ZM105.963 14.5044C105.979 14.2092 105.396 13.8563 105.348 14.1241C104.498 19.4883 105.657 20.2155 105.963 14.5044ZM151.31 18.1245C151.917 14.834 152.3 14.4857 152.121 18.6905C151.86 18.4334 151.578 18.3649 151.31 18.1245Z" fill="#E5B80B"/>
</g>
<g filter="url(#filter1_d_426_207)">
<path d="M45.674 38.347C45.268 38.347 44.96 38.221 44.75 37.969C44.554 37.717 44.456 37.374 44.456 36.94C44.456 36.59 44.47 36.289 44.498 36.037C44.526 35.785 44.582 35.519 44.666 35.239C44.75 34.945 44.855 34.588 44.981 34.168C45.121 33.734 45.296 33.181 45.506 32.509C45.632 32.117 45.786 31.606 45.968 30.976C46.164 30.332 46.36 29.632 46.556 28.876C46.752 28.106 46.913 27.336 47.039 26.566C47.179 25.782 47.249 25.061 47.249 24.403C47.249 23.955 47.151 23.542 46.955 23.164C45.653 24.452 44.421 26.132 43.259 28.204C42.111 30.276 41.089 32.684 40.193 35.428C39.927 36.114 39.619 36.576 39.269 36.814C38.919 37.038 38.583 37.15 38.261 37.15C38.163 37.15 38.016 37.094 37.82 36.982C37.624 36.856 37.442 36.632 37.274 36.31C37.106 35.988 37.022 35.533 37.022 34.945C37.022 34.805 37.057 34.63 37.127 34.42C37.197 34.196 37.302 33.958 37.442 33.706C37.568 32.978 37.659 32.201 37.715 31.375C37.785 30.535 37.827 29.702 37.841 28.876C37.869 28.036 37.883 27.252 37.883 26.524C37.883 25.964 37.841 25.474 37.757 25.054C37.071 25.922 36.42 26.972 35.804 28.204C35.188 29.436 34.628 30.745 34.124 32.131C33.634 33.517 33.228 34.875 32.906 36.205C32.822 36.527 32.724 36.828 32.612 37.108C32.5 37.374 32.332 37.591 32.108 37.759C31.898 37.913 31.59 37.99 31.184 37.99C30.736 37.99 30.4 37.808 30.176 37.444C29.952 37.08 29.84 36.597 29.84 35.995C29.84 35.533 29.938 34.938 30.134 34.21C30.33 33.468 30.596 32.663 30.932 31.795C31.268 30.913 31.653 30.017 32.087 29.107C32.535 28.183 33.004 27.294 33.494 26.44C33.984 25.586 34.481 24.823 34.985 24.151C35.503 23.465 35.993 22.926 36.455 22.534C36.931 22.128 37.365 21.925 37.757 21.925C37.771 21.925 37.792 21.925 37.82 21.925C38.128 21.925 38.408 21.953 38.66 22.009C38.926 22.051 39.157 22.198 39.353 22.45C39.563 22.688 39.745 23.087 39.899 23.647C40.053 24.207 40.186 24.998 40.298 26.02C40.326 26.272 40.347 26.573 40.361 26.923C40.375 27.259 40.382 27.609 40.382 27.973C40.844 26.937 41.348 25.964 41.894 25.054C42.454 24.144 43.028 23.339 43.616 22.639C44.218 21.939 44.813 21.393 45.401 21.001C45.989 20.609 46.535 20.413 47.039 20.413C47.627 20.413 48.173 20.56 48.677 20.854C49.181 21.134 49.587 21.61 49.895 22.282C50.203 22.954 50.357 23.871 50.357 25.033C50.357 26.265 50.245 27.462 50.021 28.624C49.797 29.772 49.517 30.857 49.181 31.879C48.845 32.901 48.509 33.839 48.173 34.693C47.837 35.533 47.557 36.261 47.333 36.877C47.151 37.311 46.941 37.668 46.703 37.948C46.465 38.214 46.122 38.347 45.674 38.347ZM56.4862 38.746C55.4922 38.746 54.6942 38.396 54.0922 37.696C53.4902 36.982 53.1892 36.03 53.1892 34.84C53.1892 34.462 53.2382 34.077 53.3362 33.685C53.4482 33.293 53.5812 32.929 53.7352 32.593C53.6512 32.467 53.5812 32.306 53.5252 32.11C53.4832 31.9 53.4622 31.655 53.4622 31.375C53.4622 30.465 53.6232 29.632 53.9452 28.876C54.2672 28.106 54.7012 27.441 55.2472 26.881C55.7932 26.321 56.3952 25.887 57.0532 25.579C57.7112 25.271 58.3762 25.117 59.0482 25.117C60.1962 25.117 61.1342 25.502 61.8622 26.272C62.6042 27.042 62.9752 28.239 62.9752 29.863C62.9752 30.675 62.8492 31.501 62.5972 32.341C62.3452 33.181 62.0022 33.986 61.5682 34.756C61.1482 35.512 60.6582 36.191 60.0982 36.793C59.5522 37.395 58.9642 37.871 58.3342 38.221C57.7182 38.571 57.1022 38.746 56.4862 38.746ZM56.1502 31.648C56.2202 31.802 56.2552 31.984 56.2552 32.194C56.2552 32.404 56.2132 32.621 56.1292 32.845C56.0452 33.069 55.9612 33.37 55.8772 33.748C55.7932 34.112 55.7512 34.637 55.7512 35.323C55.7512 35.505 55.7722 35.659 55.8142 35.785C55.8702 35.897 55.9892 35.953 56.1712 35.953C56.6472 35.953 57.0952 35.799 57.5152 35.491C57.9492 35.183 58.3342 34.777 58.6702 34.273C59.0202 33.769 59.3142 33.209 59.5522 32.593C59.8042 31.963 59.9932 31.326 60.1192 30.682C60.2592 30.024 60.3292 29.415 60.3292 28.855C60.3292 28.491 60.2592 28.239 60.1192 28.099C59.9792 27.959 59.7342 27.889 59.3842 27.889C58.9082 27.889 58.4182 28.043 57.9142 28.351C57.4242 28.645 57.0112 29.051 56.6752 29.569C56.3392 30.073 56.1712 30.647 56.1712 31.291C56.1712 31.417 56.1642 31.536 56.1502 31.648ZM84.3617 37.57C84.2777 38.326 83.8297 38.704 83.0177 38.704C82.5977 38.704 82.2617 38.578 82.0097 38.326C81.7717 38.074 81.6527 37.71 81.6527 37.234C81.6527 36.422 81.6877 35.554 81.7577 34.63C81.8417 33.692 81.9397 32.747 82.0517 31.795C82.1777 30.843 82.2967 29.933 82.4087 29.065C81.9047 29.793 81.3727 30.542 80.8127 31.312C80.2527 32.082 79.6927 32.831 79.1327 33.559C78.5727 34.287 78.0337 34.945 77.5157 35.533C77.0117 36.107 76.5497 36.569 76.1297 36.919C75.7097 37.255 75.3597 37.423 75.0797 37.423C74.4077 37.423 73.8267 37.178 73.3367 36.688C72.8467 36.184 72.6017 35.547 72.6017 34.777C72.6017 34.511 72.6297 34.154 72.6857 33.706C72.7417 33.244 72.8117 32.754 72.8957 32.236C72.9797 31.718 73.0497 31.228 73.1057 30.766C73.1617 30.304 73.1897 29.94 73.1897 29.674C73.1897 29.674 73.1897 29.66 73.1897 29.632C73.2037 29.562 73.1897 29.527 73.1477 29.527C73.0917 29.527 72.9377 29.716 72.6857 30.094C72.4337 30.458 72.1257 30.934 71.7617 31.522C71.3977 32.11 71.0127 32.726 70.6067 33.37C70.2147 34.014 69.8437 34.616 69.4937 35.176C69.1577 35.736 68.8777 36.17 68.6537 36.478C68.3457 36.954 68.0587 37.255 67.7927 37.381C67.5267 37.507 67.2187 37.57 66.8687 37.57C66.3787 37.57 65.9937 37.409 65.7137 37.087C65.4477 36.751 65.3147 36.282 65.3147 35.68C65.3147 35.428 65.3567 35.036 65.4407 34.504C65.5387 33.972 65.6577 33.384 65.7977 32.74C65.9377 32.082 66.0777 31.445 66.2177 30.829C66.3717 30.199 66.5047 29.667 66.6167 29.233C66.7427 28.659 66.9177 28.26 67.1417 28.036C67.3797 27.798 67.6807 27.679 68.0447 27.679C68.8987 27.679 69.3257 28.099 69.3257 28.939C69.3257 29.093 69.2767 29.345 69.1787 29.695C69.0807 30.045 68.9617 30.451 68.8217 30.913C68.6817 31.375 68.5347 31.851 68.3807 32.341C68.2267 32.817 68.1007 33.265 68.0027 33.685C68.3387 33.097 68.7027 32.467 69.0947 31.795C69.4867 31.123 69.8857 30.465 70.2917 29.821C70.7117 29.177 71.1247 28.589 71.5307 28.057C71.9507 27.525 72.3637 27.105 72.7697 26.797C73.1757 26.475 73.5607 26.314 73.9247 26.314C74.2887 26.314 74.6457 26.447 74.9957 26.713C75.3457 26.965 75.6327 27.294 75.8567 27.7C76.0947 28.092 76.2137 28.512 76.2137 28.96C76.2137 29.38 76.1577 29.884 76.0457 30.472C75.9337 31.06 75.8077 31.676 75.6677 32.32C75.5277 32.964 75.4297 33.594 75.3737 34.21C75.8497 33.678 76.3537 33.076 76.8857 32.404C77.4177 31.718 77.9637 31.011 78.5237 30.283C79.0837 29.555 79.6297 28.848 80.1617 28.162C80.7077 27.476 81.2117 26.853 81.6737 26.293C82.1497 25.733 82.5697 25.292 82.9337 24.97C83.2977 24.634 83.5777 24.466 83.7737 24.466C84.3477 24.466 84.7957 24.62 85.1177 24.928C85.4537 25.222 85.6217 25.74 85.6217 26.482C85.6217 26.944 85.5867 27.546 85.5167 28.288C85.4607 29.03 85.3767 29.835 85.2647 30.703C85.1667 31.557 85.0547 32.425 84.9287 33.307C84.8167 34.175 84.7117 34.98 84.6137 35.722C84.5157 36.464 84.4317 37.08 84.3617 37.57ZM91.624 38.767C90.756 38.767 90.056 38.466 89.524 37.864C88.992 37.248 88.726 36.261 88.726 34.903C88.726 34.035 88.824 33.167 89.02 32.299C89.23 31.417 89.517 30.584 89.881 29.8C90.259 29.002 90.693 28.295 91.183 27.679C91.687 27.063 92.24 26.58 92.842 26.23C93.444 25.866 94.067 25.684 94.711 25.684C95.803 25.684 96.657 25.978 97.273 26.566C97.889 27.154 98.197 27.903 98.197 28.813C98.197 29.513 98.001 30.15 97.609 30.724C97.231 31.284 96.713 31.788 96.055 32.236C95.397 32.684 94.662 33.09 93.85 33.454C93.038 33.818 92.205 34.147 91.351 34.441C91.281 34.945 91.246 35.393 91.246 35.785C91.246 36.023 91.379 36.142 91.645 36.142C92.275 36.142 92.947 36.044 93.661 35.848C94.389 35.638 95.124 35.372 95.866 35.05C96.608 34.714 97.322 34.371 98.008 34.021C98.694 33.657 99.317 33.314 99.877 32.992C100.451 32.656 100.92 32.39 101.284 32.194C101.662 31.984 101.907 31.879 102.019 31.879C102.327 31.879 102.551 31.97 102.691 32.152C102.831 32.334 102.901 32.53 102.901 32.74C102.901 32.838 102.712 33.055 102.334 33.391C101.97 33.727 101.466 34.126 100.822 34.588C100.192 35.036 99.478 35.505 98.68 35.995C97.896 36.471 97.077 36.926 96.223 37.36C95.383 37.78 94.564 38.116 93.766 38.368C92.982 38.634 92.268 38.767 91.624 38.767ZM91.708 32.572C92.282 32.236 92.849 31.886 93.409 31.522C93.983 31.144 94.459 30.724 94.837 30.262C95.215 29.786 95.404 29.233 95.404 28.603C95.404 28.421 95.355 28.302 95.257 28.246C95.159 28.176 95.019 28.141 94.837 28.141C94.347 28.141 93.899 28.358 93.493 28.792C93.101 29.226 92.751 29.786 92.443 30.472C92.149 31.144 91.904 31.844 91.708 32.572ZM103.463 38.053C103.127 38.053 102.791 37.941 102.455 37.717C102.133 37.479 101.867 37.143 101.657 36.709C101.447 36.261 101.342 35.722 101.342 35.092C101.342 34.252 101.454 33.356 101.678 32.404C101.916 31.452 102.203 30.5 102.539 29.548C102.875 28.596 103.204 27.7 103.526 26.86C103.68 26.454 103.869 26.181 104.093 26.041C104.317 25.887 104.611 25.81 104.975 25.81C105.801 25.81 106.214 26.223 106.214 27.049C106.214 27.189 106.151 27.462 106.025 27.868C105.899 28.26 105.731 28.743 105.521 29.317C105.325 29.891 105.115 30.514 104.891 31.186C104.681 31.844 104.485 32.516 104.303 33.202C104.135 33.874 104.002 34.511 103.904 35.113C104.226 34.623 104.583 34.014 104.975 33.286C105.381 32.544 105.808 31.767 106.256 30.955C106.718 30.143 107.18 29.387 107.642 28.687C108.104 27.973 108.559 27.392 109.007 26.944C109.455 26.496 109.882 26.272 110.288 26.272C110.638 26.272 110.967 26.342 111.275 26.482C111.597 26.608 111.877 26.86 112.115 27.238C112.353 27.602 112.535 28.127 112.661 28.813C112.801 29.499 112.871 30.402 112.871 31.522C112.871 32.082 112.92 32.628 113.018 33.16C113.13 33.678 113.312 34.112 113.564 34.462C113.816 34.798 114.173 34.966 114.635 34.966C115.433 34.966 116.147 34.819 116.777 34.525C117.407 34.231 117.96 33.888 118.436 33.496C118.912 33.104 119.311 32.761 119.633 32.467C119.829 32.271 119.997 32.117 120.137 32.005C120.291 31.893 120.417 31.837 120.515 31.837C120.809 31.837 121.019 31.914 121.145 32.068C121.285 32.222 121.355 32.432 121.355 32.698C121.355 32.838 121.236 33.097 120.998 33.475C120.76 33.853 120.424 34.287 119.99 34.777C119.57 35.253 119.087 35.715 118.541 36.163C117.995 36.611 117.407 36.982 116.777 37.276C116.147 37.57 115.503 37.717 114.845 37.717C113.739 37.717 112.822 37.521 112.094 37.129C111.38 36.723 110.848 36.051 110.498 35.113C110.148 34.161 109.973 32.866 109.973 31.228C109.973 31.186 109.973 31.116 109.973 31.018C109.973 30.584 109.966 30.199 109.952 29.863C109.952 29.527 109.931 29.254 109.889 29.044C109.651 29.478 109.364 29.996 109.028 30.598C108.706 31.2 108.356 31.844 107.978 32.53C107.6 33.202 107.208 33.867 106.802 34.525C106.396 35.169 105.99 35.757 105.584 36.289C105.192 36.821 104.814 37.248 104.45 37.57C104.086 37.892 103.757 38.053 103.463 38.053ZM134.907 27.469C134.907 27.637 134.851 27.784 134.739 27.91C134.627 28.036 134.487 28.134 134.319 28.204C134.081 28.302 133.668 28.428 133.08 28.582C132.492 28.736 131.778 28.911 130.938 29.107C130.112 29.303 129.223 29.506 128.271 29.716C127.319 29.912 126.367 30.101 125.415 30.283C125.051 31.627 124.68 33.013 124.302 34.441C123.924 35.855 123.546 37.248 123.168 38.62C123.028 39.11 122.86 39.481 122.664 39.733C122.468 39.999 122.132 40.132 121.656 40.132C121.138 40.132 120.788 39.964 120.606 39.628C120.438 39.306 120.417 38.865 120.543 38.305C120.907 36.779 121.243 35.358 121.551 34.042C121.873 32.726 122.132 31.662 122.328 30.85C121.488 30.99 120.753 31.102 120.123 31.186C119.493 31.256 119.045 31.284 118.779 31.27C118.485 31.242 118.24 31.123 118.044 30.913C117.848 30.703 117.757 30.444 117.771 30.136C117.799 29.856 117.925 29.618 118.149 29.422C118.373 29.212 118.639 29.086 118.947 29.044C119.381 29.002 119.941 28.939 120.627 28.855C121.313 28.771 122.069 28.673 122.895 28.561C123.077 27.847 123.287 27.112 123.525 26.356C123.763 25.586 124.008 24.851 124.26 24.151C124.526 23.437 124.778 22.814 125.016 22.282C125.254 21.75 125.471 21.365 125.667 21.127C125.821 20.945 126.01 20.805 126.234 20.707C126.472 20.609 126.703 20.56 126.927 20.56C127.221 20.56 127.459 20.665 127.641 20.875C127.823 21.085 127.914 21.33 127.914 21.61C127.914 21.722 127.907 21.841 127.893 21.967C127.879 22.079 127.851 22.191 127.809 22.303C127.543 23.003 127.256 23.85 126.948 24.844C126.654 25.838 126.346 26.93 126.024 28.12C127.074 27.966 128.103 27.812 129.111 27.658C130.133 27.49 131.057 27.336 131.883 27.196C132.723 27.042 133.395 26.909 133.899 26.797C134.179 26.699 134.417 26.72 134.613 26.86C134.809 26.986 134.907 27.189 134.907 27.469ZM138.927 39.998C138.605 39.998 138.311 39.865 138.045 39.599C137.793 39.347 137.667 38.92 137.667 38.318C137.667 37.87 137.702 37.247 137.772 36.449C137.856 35.637 138.01 34.594 138.234 33.32C137.744 34.328 137.233 35.224 136.701 36.008C136.169 36.792 135.644 37.408 135.126 37.856C134.622 38.29 134.139 38.507 133.677 38.507C132.935 38.507 132.347 38.283 131.913 37.835C131.479 37.373 131.262 36.512 131.262 35.252C131.262 34.65 131.311 33.971 131.409 33.215C131.521 32.459 131.661 31.703 131.829 30.947C131.997 30.191 132.165 29.519 132.333 28.931C132.515 28.329 132.676 27.881 132.816 27.587C132.928 27.335 133.068 27.139 133.236 26.999C133.418 26.859 133.649 26.789 133.929 26.789C134.377 26.789 134.72 26.936 134.958 27.23C135.196 27.524 135.315 27.825 135.315 28.133C135.315 28.371 135.259 28.714 135.147 29.162C135.049 29.61 134.923 30.107 134.769 30.653C134.629 31.199 134.482 31.759 134.328 32.333C134.174 32.907 134.041 33.446 133.929 33.95C133.831 34.454 133.782 34.881 133.782 35.231C133.782 35.665 133.95 35.882 134.286 35.882C134.482 35.882 134.734 35.693 135.042 35.315C135.364 34.937 135.7 34.433 136.05 33.803C136.414 33.159 136.778 32.459 137.142 31.703C137.52 30.933 137.863 30.156 138.171 29.372C138.493 28.574 138.766 27.839 138.99 27.167C139.13 26.747 139.319 26.453 139.557 26.285C139.795 26.117 140.068 26.033 140.376 26.033C140.852 26.033 141.216 26.166 141.468 26.432C141.734 26.698 141.867 27.076 141.867 27.566C141.867 27.79 141.832 28.168 141.762 28.7C141.692 29.232 141.601 29.855 141.489 30.569C141.391 31.283 141.272 32.039 141.132 32.837C140.992 33.635 140.852 34.419 140.712 35.189C140.586 35.959 140.46 36.666 140.334 37.31C140.208 37.94 140.103 38.444 140.019 38.822C139.879 39.382 139.711 39.718 139.515 39.83C139.319 39.942 139.123 39.998 138.927 39.998ZM163.317 37.57C163.233 38.326 162.785 38.704 161.973 38.704C161.553 38.704 161.217 38.578 160.965 38.326C160.727 38.074 160.608 37.71 160.608 37.234C160.608 36.422 160.643 35.554 160.713 34.63C160.797 33.692 160.895 32.747 161.007 31.795C161.133 30.843 161.252 29.933 161.364 29.065C160.86 29.793 160.328 30.542 159.768 31.312C159.208 32.082 158.648 32.831 158.088 33.559C157.528 34.287 156.989 34.945 156.471 35.533C155.967 36.107 155.505 36.569 155.085 36.919C154.665 37.255 154.315 37.423 154.035 37.423C153.363 37.423 152.782 37.178 152.292 36.688C151.802 36.184 151.557 35.547 151.557 34.777C151.557 34.511 151.585 34.154 151.641 33.706C151.697 33.244 151.767 32.754 151.851 32.236C151.935 31.718 152.005 31.228 152.061 30.766C152.117 30.304 152.145 29.94 152.145 29.674C152.145 29.674 152.145 29.66 152.145 29.632C152.159 29.562 152.145 29.527 152.103 29.527C152.047 29.527 151.893 29.716 151.641 30.094C151.389 30.458 151.081 30.934 150.717 31.522C150.353 32.11 149.968 32.726 149.562 33.37C149.17 34.014 148.799 34.616 148.449 35.176C148.113 35.736 147.833 36.17 147.609 36.478C147.301 36.954 147.014 37.255 146.748 37.381C146.482 37.507 146.174 37.57 145.824 37.57C145.334 37.57 144.949 37.409 144.669 37.087C144.403 36.751 144.27 36.282 144.27 35.68C144.27 35.428 144.312 35.036 144.396 34.504C144.494 33.972 144.613 33.384 144.753 32.74C144.893 32.082 145.033 31.445 145.173 30.829C145.327 30.199 145.46 29.667 145.572 29.233C145.698 28.659 145.873 28.26 146.097 28.036C146.335 27.798 146.636 27.679 147 27.679C147.854 27.679 148.281 28.099 148.281 28.939C148.281 29.093 148.232 29.345 148.134 29.695C148.036 30.045 147.917 30.451 147.777 30.913C147.637 31.375 147.49 31.851 147.336 32.341C147.182 32.817 147.056 33.265 146.958 33.685C147.294 33.097 147.658 32.467 148.05 31.795C148.442 31.123 148.841 30.465 149.247 29.821C149.667 29.177 150.08 28.589 150.486 28.057C150.906 27.525 151.319 27.105 151.725 26.797C152.131 26.475 152.516 26.314 152.88 26.314C153.244 26.314 153.601 26.447 153.951 26.713C154.301 26.965 154.588 27.294 154.812 27.7C155.05 28.092 155.169 28.512 155.169 28.96C155.169 29.38 155.113 29.884 155.001 30.472C154.889 31.06 154.763 31.676 154.623 32.32C154.483 32.964 154.385 33.594 154.329 34.21C154.805 33.678 155.309 33.076 155.841 32.404C156.373 31.718 156.919 31.011 157.479 30.283C158.039 29.555 158.585 28.848 159.117 28.162C159.663 27.476 160.167 26.853 160.629 26.293C161.105 25.733 161.525 25.292 161.889 24.97C162.253 24.634 162.533 24.466 162.729 24.466C163.303 24.466 163.751 24.62 164.073 24.928C164.409 25.222 164.577 25.74 164.577 26.482C164.577 26.944 164.542 27.546 164.472 28.288C164.416 29.03 164.332 29.835 164.22 30.703C164.122 31.557 164.01 32.425 163.884 33.307C163.772 34.175 163.667 34.98 163.569 35.722C163.471 36.464 163.387 37.08 163.317 37.57Z" fill="#0E0E0E"/>
</g>
<defs>
<filter id="filter0_d_426_207" x="0.349121" y="-0.00732422" width="195.694" height="67.0789" filterUnits="userSpaceOnUse" color-interpolation-filters="sRGB">
<feFlood flood-opacity="0" result="BackgroundImageFix"/>
<feColorMatrix in="SourceAlpha" type="matrix" values="0 0 0 0 0 0 0 0 0 0 0 0 0 0 0 0 0 0 127 0" result="hardAlpha"/>
<feOffset dy="4"/>
<feGaussianBlur stdDeviation="2"/>
<feComposite in2="hardAlpha" operator="out"/>
<feColorMatrix type="matrix" values="0 0 0 0 0 0 0 0 0 0 0 0 0 0 0 0 0 0 0.25 0"/>
<feBlend mode="normal" in2="BackgroundImageFix" result="effect1_dropShadow_426_207"/>
<feBlend mode="normal" in="SourceGraphic" in2="effect1_dropShadow_426_207" result="shape"/>
</filter>
<filter id="filter1_d_426_207" x="25.8398" y="20.4131" width="142.737" height="27.719" filterUnits="userSpaceOnUse" color-interpolation-filters="sRGB">
<feFlood flood-opacity="0" result="BackgroundImageFix"/>
<feColorMatrix in="SourceAlpha" type="matrix" values="0 0 0 0 0 0 0 0 0 0 0 0 0 0 0 0 0 0 127 0" result="hardAlpha"/>
<feOffset dy="4"/>
<feGaussianBlur stdDeviation="2"/>
<feComposite in2="hardAlpha" operator="out"/>
<feColorMatrix type="matrix" values="0 0 0 0 0 0 0 0 0 0 0 0 0 0 0 0 0 0 0.25 0"/>
<feBlend mode="normal" in2="BackgroundImageFix" result="effect1_dropShadow_426_207"/>
<feBlend mode="normal" in="SourceGraphic" in2="effect1_dropShadow_426_207" result="shape"/>
</filter>
</defs>
</svg>
