<svg width="587" height="135" viewBox="0 0 587 135" fill="none" xmlns="http://www.w3.org/2000/svg">
<g filter="url(#filter0_di_426_239)">
<path d="M4.85331 28.1929C8.4604 24.1931 14.8869 22.9488 19.8497 23.3575C21.4118 23.4714 22.2003 26.8438 23.322 27.0749C25.4763 27.5439 26.3146 25.3575 28.495 26.1338C29.2186 26.4092 30.6945 31.6216 31.3945 31.8021C35.2024 32.7643 37.3368 30.4335 40.555 30.4208C56.2971 30.4482 69.1473 28.7332 82.1945 27.4688C86.4868 27.0563 92.6901 30.3564 96.1767 27.14C96.5824 26.7599 95.0008 22.3065 94.9842 21.9068C94.762 15.7799 96.9117 25.0691 98.1843 26.0204C103.22 29.7734 107.384 29.023 110.306 26.2622C111.541 25.075 107.424 16.5233 110.375 21.1332C110.578 21.4436 111.634 26.3548 112.186 26.7483C113.44 27.6297 114.894 26.2589 115.703 26.4282C117.277 26.7773 117.485 26.6612 118.761 26.3292C119.782 26.0888 121.145 26.5722 122.397 26.6969C123.444 26.7439 124.443 26.6079 125.21 25.8779C125.597 25.4929 123.5 20.7615 123.998 19.6998C124.503 18.636 126.622 18.4718 127.621 19.448C128.622 20.4225 129.434 24.3873 129.804 25.244C132.846 32.4945 132.181 21.466 132.423 21.1261C136.597 15.2897 142.629 20.182 147.459 19.0914C151.143 18.2472 154.669 15.4448 158.21 15.0373C162.436 14.5711 166.415 16.6697 170.295 15.4994C170.709 15.3814 169.168 9.52253 169.675 9.36577C175.033 7.7128 180.545 7.47442 186.548 10.6523C187.154 10.9758 187.283 16.3216 187.936 16.9582C191.891 20.7424 198.554 30.3111 197.067 7.19813C199.405 7.75712 202.235 8.27798 204.882 12.5907C206.593 15.3655 206.206 21.2587 207.396 18.5938C207.665 17.9995 206.478 13.0624 206.938 12.5495C208.895 10.392 211.538 11.6697 213.381 8.76447C213.745 8.16307 212.979 3.69535 212.988 2.86964C213.102 -3.8231 216.433 6.73493 216.935 7.4651C219.02 10.4842 220.499 11.0261 221.897 10.8651C223.135 10.7194 224.34 10.1311 225.727 10.0285C226.437 9.97986 224.873 4.03667 225.546 3.77158C229.13 2.47078 232.869 2.6566 236.508 5.09408C237.3 5.65261 236.995 10.8738 237.389 11.4057C239.095 13.6923 238.785 3.89894 240.457 5.91324C240.803 6.32608 240.895 10.7673 240.983 11.2503C242.322 18.8341 242.451 7.96751 242.679 7.71498C245.481 4.28492 247.836 15.5103 250.496 13.806C250.82 13.5908 249.864 8.00596 250.792 7.74438C256.99 5.96995 263.61 7.41454 269.643 11.8916C270.579 12.5803 269.92 16.8006 269.981 17.3205C270.941 25.4444 271.542 14.5569 271.851 14.1469C274.275 11.1961 276.433 20.3395 278.169 7.38487C288.286 11.9669 298.542 4.93824 308.119 16.8626C308.242 17.0011 307.846 22.3536 308.09 22.6067C311.025 25.7126 310.697 17.3645 313.049 7.24417C313.647 4.70316 314.767 17.054 314.868 17.9602C315.247 21.2991 314.463 29.2545 314.606 29.9035C315.788 35.002 316.482 8.62774 318.338 8.6841C318.394 8.73009 317.981 13.5746 318.119 14.0625C318.548 15.5943 319.092 13.6827 319.502 15.3699C320.431 19.2732 320.371 32.0987 322.278 24.7015C322.519 23.7413 322.746 8.77448 324.356 9.54012C325.011 9.85848 327.915 9.70753 328.689 10.7062C329.471 11.704 328.734 16.5029 328.785 16.7137C330.745 23.1663 329.815 25.7771 330.562 35.2516C331.303 44.6901 331.825 22.2614 332.362 19.7754C332.905 17.2967 334.313 22.6122 334.636 24.4539C334.96 26.2965 334.364 29.3416 334.674 30.3888C336.757 37.2325 336.091 19.2972 336.98 15.766C339.061 7.40356 339.887 24.0781 341.474 25.762C341.9 26.2166 341.667 22.4178 342.07 22.0766C343.681 20.7755 344.463 25.9943 346.38 21.2904C346.705 20.5244 348.425 10.5685 349.119 17.9304C349.195 18.7431 348.932 21.3569 349.085 22.9621C349.135 23.4536 349.227 23.8507 349.382 24.0727C350.382 25.4943 352.109 26.4501 353.268 25.0984C354.1 24.0976 353.388 17.2419 354.33 19.3934C354.746 20.354 353.803 24.3234 354.59 25.7948C355.366 27.2652 357.526 27.158 358.332 27.0469C359.157 26.9331 358.88 21.7393 358.958 21.3926C359.431 19.4073 361.066 16.9628 361.201 16.9739C368.224 16.5838 374.288 25.5821 381.171 23.0209C381.711 22.8274 381.623 17.3525 381.708 17.2667C383.632 15.0682 381.497 29.5095 382.522 34.4284C382.888 23.3445 383.526 25.3858 384.87 24.2353C385.515 23.6718 385.395 19.3669 385.473 18.9307C386.711 12.4631 386.925 20.908 387.001 22.6372C387.284 28.9982 388.315 21.5514 388.513 25.8037C388.709 30.0243 387.449 36.2023 388.673 36.1847C389.217 32.2379 388.84 21.8323 389.851 20.2005C393.675 14.0294 399.739 22.4836 402.491 23.455C405.242 24.428 406.166 23.7342 407.722 25.2371C410.537 27.9516 409.803 20.2177 411.738 16.7702C413.685 13.3218 412.073 32.2088 412.176 36.2867C412.282 40.3628 412.729 36.1884 412.961 38.4356C413.196 40.6824 412.397 43.4218 413.12 44.2896C413.855 45.1572 416.197 37.9985 416.612 33.7537C417.494 24.7615 416.913 15.2719 418.767 18.663C418.873 18.8641 418.336 23.8279 418.753 24.3455C420.171 26.0108 421.606 27.0346 423.107 27.9246L423.012 27.9223C425.08 29.1178 427.141 30.0636 429.114 32.0637C429.583 32.547 429.045 38.0766 429.316 38.4205C432.163 42.0211 431.315 32.6627 433.135 22.3226C432.489 36.1194 433.208 44.5828 435.403 44.7109C436.725 44.7929 436.612 38.7589 437.578 34.5286C437.867 33.2533 438.725 37.4137 438.959 34.5822C439.729 25.3267 439.07 14.9318 441.272 19.1142C441.368 19.3128 440.934 24.3787 441.274 24.6938C443.469 26.7555 443.934 17.0669 446.42 15.9508C448.365 15.0749 451.567 21.0681 453.736 22.0859C453.295 37.6029 455.421 34.1019 456.526 23.4245C457.887 23.8987 459.474 23.3362 460.783 24.8523C461.236 25.3694 460.805 29.8536 460.85 30.3406C461.54 37.9805 462.435 27.5888 462.748 27.1892C466.16 23.3157 468.573 31.2826 471.973 23.6714C472.093 23.3972 472.613 12.6252 473.209 20.5209C473.246 21.0651 472.055 25.9361 473.52 26.3617C474.974 26.7878 477.574 32.6556 479.791 27.7315C480.33 26.546 481.864 17.8398 482.642 24.7104C482.746 25.6433 482.489 28.7288 482.625 30.4555C483.065 35.9577 483.795 25.0778 484.204 34.3573C484.621 43.6368 485.843 50.619 488.15 44.3127C488.223 44.1295 489.04 35.5157 489.687 35.6769C490.72 35.9417 492.104 37.7962 493.173 37.7824C493.7 37.7732 493.577 32.4001 493.672 32.3056C497.309 29.4427 499.596 34.3244 503.198 36.5626C503.844 36.9828 506.2 29.768 507.233 35.6065C508.378 41.9991 505.603 68.2285 509.23 62.1245C510.663 59.6832 514.064 26.4022 515.593 43.8183C520.52 39.7881 524.237 48.8813 529.325 43.0878C529.547 42.8308 530.842 33.5734 531.355 33.7366C532.098 33.9956 532.193 38.3717 532.695 38.6958C534.775 40.1631 537.061 36.6002 539.206 37.3632C539.998 37.642 539.335 42.1076 540.246 42.4401C541.168 42.7702 542.405 36.9236 543.405 39.8983C544.174 42.1669 543.977 54.3362 544.977 55.8661C546.304 43.9772 547.215 44.3194 549.105 41.3655C549.499 40.7959 549.654 36.6205 549.869 36.1381C550.766 34.0851 550.897 37.5803 551.76 35.3379C551.97 34.7998 552.516 30.7509 552.723 30.0831C554.627 24.2645 554.976 33.612 555.029 35.2443C555.146 41.4202 556.49 36.2638 556.932 38.7881C557.24 41.2919 555.533 43.9963 556.065 45.5882C556.373 46.5044 556.742 47.1562 557.061 47.6232C557.242 47.8625 557.39 48.051 557.488 48.1925C557.612 48.3415 557.676 48.4478 557.591 48.458C557.709 48.5537 558.157 48.6643 558.286 48.7434C559.444 49.2816 560.473 49.4496 561.214 49.7462C561.88 49.9852 562.909 44.6093 563.038 44.5214C565.099 43.6688 564.36 49.5745 569.334 39.877C559.483 66.2109 571.346 37.731 571.418 44.0102C571.414 44.5169 565.544 56.4314 564.221 57.952C562.927 59.4844 563.943 55.3776 562.141 57.9198C561.611 58.4698 556.574 69.8684 556.403 70.6123C554.374 76.1408 560.273 57.1928 560.502 56.1213C563.299 44.6661 558.163 57.1703 557.35 57.9024C556.515 58.7148 555.657 59.1004 554.783 59.2156C554.399 58.9812 553.072 58.6532 552.723 58.3697C553.916 59.604 553.842 59.5138 553.721 59.6863C553.588 59.831 553.151 60.0466 552.616 61.1178C551.587 62.9109 549.238 75.7025 548.912 75.2428C547.657 73.7039 548.864 55.5683 544.818 70.9261C543.953 74.204 542.873 88.3788 542.418 77.0892C542.416 76.3799 542.182 66.077 540.734 72.4332C540.555 73.2349 540.157 77.3572 540.004 77.6919C538.989 79.8546 538.742 76.5177 537.648 78.006C536.58 79.4968 535.309 81.7523 534.311 80.2616C533.744 79.3725 533.529 71.6154 533.348 69.7067C532.859 64.21 531.186 73.0328 531.134 66.4214C531.045 59.7742 532.917 49.825 531.69 45.4457C530.862 56.174 529.944 67.1806 529.087 77.9679C525.874 77.3594 522.901 73.6833 519.517 73.9604C519.108 74.0062 519.183 79.8051 518.737 80.0032C516.857 80.8142 515.418 76.6041 513.419 78.1418C511.834 79.3523 509.888 85.3849 508.254 86.8487C507.895 74.5029 505.356 78.5646 503.709 77.3624C503.127 76.9464 503.318 73.6633 502.936 72.5719C501.482 68.5341 501.762 79.4385 501.246 81.1293C499.067 88.3472 499.993 63.7366 497.691 64.2474C497.553 64.2653 495.582 77.3215 495.35 78.1302C493.875 83.4044 495.333 73.5563 494.583 72.5548C493.22 70.7251 492.275 67.5496 490.462 71.3268C489.925 72.4456 488.43 80.5761 487.7 74.2153C487.603 73.3823 487.838 69.049 487.744 68.7912C486.021 64.4879 485.493 78.112 484.277 82.6881C483.068 87.2635 481.77 77.7998 481.526 75.0771C480.894 68.0334 482.305 72.1037 482.375 71.4173C483.223 63.2472 481.975 64.6146 481.071 63.8903C481.397 50.5253 480.106 51.2837 480.154 63.1941C480.163 64.4952 480.9 63.2733 481.071 63.8903C479.812 76.9705 478.393 78.6023 477.246 66.3005C476.706 60.5349 477.628 53.8634 475.306 56.239C474.279 57.3123 474.364 66.5246 473.409 69.0047C471.235 74.6636 468.828 65.9988 466.738 67.2902C465.97 67.7588 466.554 72.8169 466.024 73.3108C464.623 74.6373 463.497 70.8225 462.074 72.7195C461.946 72.8978 462.097 78.1786 461.673 78.2338C458.45 78.7556 455.684 75.3016 452.318 75.1216C450.664 75.0362 447.687 77.8723 446.006 77.2473C443.059 76.1937 439.669 68.4452 437.077 70.2527C435.396 71.4092 435.66 76.6917 434.882 80.2702C433.394 87.2073 431.253 74.6804 430.964 72.7417C430.955 72.6776 432.398 71.4632 431.698 68.7403C431.373 63.0898 430.98 72.7176 430.964 72.7417C430.771 71.4889 427.973 70.2351 427.4 71.2328C427.086 71.7778 427.158 76.7784 426.996 76.9682C425.341 78.8627 423.688 80.1639 422.03 80.8394C421.924 80.8129 421.59 80.8537 421.484 80.826C419.183 81.6891 416.971 81.4549 414.729 80.0442C414.663 79.9408 414.967 74.3572 414.809 74.1839C412.615 71.6182 410.876 78.3959 408.81 82.3775C406.731 86.3564 405.261 84.9331 404.559 75.2958C403.074 76.4412 401.211 72.1091 400.17 69.4827C399.118 66.8561 398.439 77.7186 398.325 77.9287C394.77 84.6528 393.214 78.3373 389.984 77.2029C388.447 76.6446 385.299 78.0643 383.583 79.1696C382.23 80.0614 381.563 77.4744 380.29 79.0445C380.117 79.254 380.042 84.1019 379.984 84.2858C378.363 90.0107 379.583 78.2105 379.412 76.0839C378.797 68.3514 378.354 64.2273 376.479 67.7625C376.033 68.5713 374.117 85.5573 373.361 86.5216C372.371 87.7438 373.007 81.6524 371.975 83.0889C371.887 83.2063 371.739 86.9751 371.149 86.7827C368.426 85.9403 365.511 83.6253 362.625 83.8961C362.231 83.9187 362.512 89.9157 361.939 90.0468C359.278 90.6579 356.354 90.3373 353.863 87.458C353.236 86.73 353.773 82.5559 353.671 81.3084C353.051 73.76 351.511 84.6531 351.301 84.8554C349.854 86.3239 348.625 86.5476 347.349 86.2258C344.042 85.4239 341.106 81.2697 337.347 84.4999C337.04 84.7663 334.522 96.4078 333.908 86.3265C333.865 85.6557 333.284 75.3434 332.214 82.3418C332.147 82.7796 332.54 88.0921 331.543 87.5164C330.545 86.9417 328.768 90.4157 327.6 84.5514C327.232 82.7041 326.54 72.4122 324.951 80.5382C324.846 81.1057 322.16 99.5131 321.898 86.7361C321.857 84.6329 322.467 71.1439 320.671 78.0063C320.326 79.3369 320.755 82.3659 319.908 84.2172C318.606 87.0707 317.153 83.4002 315.483 89.3601C315.192 90.4154 313.781 99.536 313.162 92.5548C313.064 91.4614 313.477 86.9652 313.038 86.4454C310.946 83.9523 308.574 86.8902 306.475 83.7033C305.729 82.5833 306.357 75.3123 305.607 73.335C304.858 71.3584 303.271 69.4316 302.32 72.7353C301.374 76.0407 301.957 87.6765 300.672 88.5691C295.09 92.4472 289.903 85.5089 284.537 84.4272C283.743 84.266 284.337 88.4312 283.169 88.4929C278.831 88.7319 271.577 92.5909 267.916 83.7897C264.946 76.7366 268.605 71.3261 266.324 68.4644C265.202 67.1002 264.171 80.6161 263.928 81.0444C261.484 85.3944 259.65 79.4476 257.45 81.3391C257.001 81.7317 257.592 87.1908 257.214 87.4645C255.933 88.4481 254.485 86.05 253.263 86.5421C252.718 86.7755 252.978 90.9485 252.468 90.6456C251.241 89.9697 250.109 88.2613 248.763 84.4059C248.637 84.0548 249.103 78.8254 248.199 78.6771C246.72 78.4532 244.695 74.6995 243.324 78.7947C242.922 80.0263 243.6 89.5537 242.124 83.0479C241.817 81.6898 241.189 70.2313 240.784 80.2059C240.672 81.8658 240.021 95.3371 238.354 86.8439C237.91 84.6081 236.366 75.3282 235.969 76.8536C235.923 77.0952 236.743 82.1681 236.364 82.7117C235.093 84.4721 233.598 84.2002 232.534 85.7751C232.469 85.8363 232.404 85.9 232.34 85.9663C231.854 86.4791 233.416 91.6203 232.67 92.2164C230.635 93.8613 227.672 92.9194 225.296 91.5825C224.406 91.0816 224.333 86.6482 224.206 86.1828C222.153 78.6129 223.103 89.0935 222.883 89.7445C221.509 93.6508 219.308 88.9828 217.753 90.531C217.322 90.9451 218.391 95.8527 218.36 96.3088C217.989 100.775 217.43 91.7625 216.647 90.875C214.453 88.3589 212.535 89.0506 210.844 89.9515C210.228 90.2891 211.821 95.9251 211.261 96.1614C207.923 97.6748 204.27 97.6721 200.443 95.0324C199.712 94.5263 199.415 90.0441 199.123 89.0556C197.088 82.1391 197.293 91.9809 197.145 92.9456C196.435 97.3548 195.267 93.5361 194.184 94.4608C188.847 99.0531 181.363 97.6992 175.785 97.1289C168.575 96.4008 162.482 93.3558 156.721 95.9251C156.359 96.0825 158.184 101.761 157.897 101.969C154.418 104.219 150.326 103.376 147.189 105.517C146.821 105.721 146.457 105.941 146.1 106.181C145.681 106.448 148.023 111.628 147.402 112.239C146.135 113.533 144.139 113.824 142.111 112.555C141.126 111.946 140.706 107.016 139.748 106.496C137.527 105.271 135.607 105.424 134.153 106.796C133.535 107.393 136.271 112.602 135.338 112.946C129.01 115.407 123.131 118.11 114.966 112.677C114.406 112.303 110.805 101.135 110.537 103.552C111.368 106.7 112.428 110.379 113.359 113.731C105.146 118.039 95.7853 116.542 87.857 118.473C87.5268 118.555 90.0132 124.279 89.3921 124.465C85.7752 125.558 83.1476 128.29 77.7193 123.732C77.1833 123.289 73.4935 112.994 73.0723 114.925C72.9953 115.276 72.0537 117.206 72.5653 119.559C72.6497 119.911 74.783 124.553 74.3953 124.868C72.1187 126.61 69.2775 126.57 65.8032 124.775C65.2327 124.48 63.2605 119.4 62.8224 119.152C59.6515 117.477 59.7961 122.069 55.9368 118.612C53.2763 116.325 48.8383 108.037 43.3415 100.56C42.5566 99.509 41.6442 99.8372 38.7009 95.336C31.2722 84.03 23.879 71.1788 15.9219 59.1521C14.2022 56.5601 14.1285 60.594 11.1714 53.567C10.973 53.0941 11.0622 50.0842 10.0936 47.6925C9.42519 46.0358 6.05819 41.6863 5.42387 39.4288C4.81032 37.1623 7.7921 40.7137 7.32601 37.9101C6.86615 35.0699 3.30047 29.9365 4.85331 28.1929ZM395.483 57.7357C394.675 52.4627 393.562 71.5731 394.95 67.0566C395.019 66.8156 395.526 57.9945 395.483 57.7357ZM523.786 59.2775C522.959 50.7666 521.255 63.1017 521.822 69.6685C522.371 76.2276 524.03 61.8573 523.786 59.2775ZM538.213 54.1441C537.184 47.3764 534.726 74.4105 536.805 69.0784C536.923 68.7773 538.271 54.537 538.213 54.1441ZM45.4033 96.3173C45.2693 96.1001 44.509 96.2392 44.6184 96.4675C47.2773 101.945 48.703 101.714 45.4033 96.3173ZM552.459 48.9802C552.576 45.2795 550.581 49.277 550.528 53.8816C550.447 57.578 552.295 53.5779 552.459 48.9802ZM341.207 35.1021C341.201 34.8165 340.596 34.5393 340.554 36.1512C340.422 41.3429 341.325 39.9065 341.207 35.1021ZM572.429 56.3001C570.385 53.8283 578.925 32.9295 581.679 37.4445C582.117 38.236 576.574 42.7337 576.412 44.9849C575.956 48.9914 584.411 37.671 581.897 45.0243C581.374 46.3274 572.483 56.4552 572.408 56.3235C572.415 56.3157 572.422 56.3079 572.429 56.3001ZM396.012 34.7414C396.004 34.4876 395.166 34.2055 395.132 34.455C394.366 40.5014 396.059 41.0736 396.012 34.7414ZM305.669 22.0237C305.639 21.4829 303.661 20.9193 303.582 21.4144C302.258 31.317 306.23 32.485 305.669 22.0237ZM453.759 22.5007C454.851 16.4131 455.987 15.7227 456.522 23.4166C455.613 22.9849 454.684 22.9007 453.759 22.5007Z" fill="#E5B80B"/>
</g>
<g filter="url(#filter1_d_426_239)">
<path d="M43.1201 72.6819C42.0841 72.6819 41.0061 72.43 39.8861 71.926C38.7662 71.45 37.8142 70.6381 37.0302 69.4901C36.2743 68.3421 35.8963 66.8161 35.8964 64.9121C35.8964 62.8961 36.0645 60.8101 36.4006 58.6541C36.7646 56.4701 37.2267 54.3281 37.7868 52.228C38.3748 50.1 39.0049 48.098 39.677 46.222C40.377 44.346 41.0631 42.68 41.7351 41.2239C42.4352 39.7679 43.0792 38.6339 43.6672 37.8219C44.2833 36.9819 44.7733 36.5618 45.1373 36.5618C45.8933 36.5618 46.5653 36.8418 47.1533 37.4018C47.7692 37.9617 48.0772 38.8157 48.0772 39.9637C48.0772 40.2437 47.9091 40.9297 47.5731 42.0218C47.2651 43.0858 46.859 44.4158 46.355 46.0118C45.8789 47.6078 45.3469 49.3438 44.7588 51.2198C44.1987 53.0679 43.6667 54.9439 43.1626 56.8479C42.6866 58.7519 42.2805 60.5439 41.9445 62.2239C41.6364 63.9039 41.4824 65.3459 41.4823 66.5499C41.4823 66.8859 41.6783 67.0539 42.0703 67.0539C42.6303 67.0539 43.4563 66.9139 44.5483 66.6338C45.6683 66.3538 46.8863 66.0038 48.2023 65.5837C49.5464 65.1357 50.8344 64.7017 52.0664 64.2816C53.2984 63.8616 54.3484 63.5116 55.2164 63.2315C56.0844 62.9515 56.5744 62.8115 56.6864 62.8115C57.3864 62.8115 57.9464 63.0074 58.3664 63.3994C58.7864 63.7914 58.9964 64.3514 58.9964 65.0794C58.9963 65.5834 58.6603 66.1714 57.9883 66.8434C57.3163 67.4875 56.4203 68.1595 55.3002 68.8595C54.1802 69.5316 52.9202 70.1476 51.5202 70.7076C50.1482 71.2957 48.7341 71.7717 47.2781 72.1358C45.8221 72.4998 44.4361 72.6819 43.1201 72.6819ZM65.813 71.1272C65.029 71.1272 64.329 70.8612 63.713 70.3293C63.125 69.7973 62.831 68.9293 62.8311 67.7253C62.8311 67.0813 62.9151 66.1713 63.0832 64.9953C63.2792 63.8193 63.5312 62.5453 63.8393 61.1733C64.1473 59.7733 64.4834 58.3872 64.8474 57.0152C65.2395 55.6432 65.6175 54.4252 65.9815 53.3612C66.3456 52.2692 66.6676 51.4572 66.9476 50.9252C67.3116 50.2812 67.6476 49.8891 67.9557 49.7491C68.2917 49.5811 68.6137 49.4971 68.9217 49.4971C69.4817 49.4971 69.9997 49.6651 70.4756 50.0011C70.9796 50.337 71.2316 51.079 71.2316 52.227C71.2316 52.675 71.1475 53.403 70.9795 54.411C70.8115 55.3911 70.6014 56.5391 70.3494 57.8551C70.0973 59.1711 69.8173 60.5291 69.5093 61.9291C69.2292 63.3291 68.9492 64.6591 68.6691 65.9191C68.4171 67.1511 68.2071 68.1871 68.039 69.0271C67.899 69.7271 67.605 70.2451 67.157 70.5812C66.737 70.9452 66.289 71.1272 65.813 71.1272ZM70.6438 45.3391C69.7198 45.3391 68.8658 45.0731 68.0818 44.5411C67.2978 43.9812 66.9059 43.1272 66.9059 41.9792C66.9059 41.0272 67.144 40.2572 67.62 39.6691C68.096 39.0811 68.656 38.6611 69.3 38.4091C69.972 38.1291 70.56 37.9891 71.064 37.989C71.568 37.989 72.128 38.101 72.744 38.325C73.36 38.521 73.892 38.899 74.34 39.4589C74.816 39.9909 75.0539 40.7609 75.0539 41.7689C75.0539 42.4409 74.8159 43.0569 74.3399 43.6169C73.8638 44.149 73.2758 44.569 72.5758 44.877C71.9038 45.185 71.2598 45.339 70.6438 45.3391ZM114.527 69.5297C114.359 71.0417 113.463 71.7978 111.839 71.7978C110.999 71.7978 110.327 71.5459 109.823 71.0419C109.347 70.5379 109.109 69.8099 109.109 68.8579C109.109 67.2339 109.179 65.4979 109.319 63.6499C109.487 61.7739 109.683 59.8839 109.907 57.9799C110.159 56.0759 110.397 54.2559 110.621 52.5198C109.613 53.9759 108.549 55.4739 107.429 57.0139C106.309 58.554 105.189 60.052 104.069 61.508C102.949 62.9641 101.871 64.2801 100.835 65.4561C99.8269 66.6042 98.9028 67.5282 98.0628 68.2282C97.2228 68.9003 96.5228 69.2363 95.9628 69.2363C94.6188 69.2363 93.4568 68.7464 92.4768 67.7664C91.4969 66.7584 91.0069 65.4844 91.007 63.9444C91.007 63.4124 91.063 62.6984 91.175 61.8024C91.2871 60.8784 91.4271 59.8984 91.5951 58.8624C91.7632 57.8264 91.9032 56.8464 92.0152 55.9224C92.1272 54.9984 92.1833 54.2704 92.1833 53.7384C92.1833 53.7384 92.1833 53.7104 92.1833 53.6544C92.2113 53.5144 92.1833 53.4444 92.0993 53.4444C91.9873 53.4444 91.6793 53.8224 91.1753 54.5784C90.6712 55.3065 90.0552 56.2585 89.3272 57.4345C88.5991 58.6105 87.8291 59.8425 87.017 61.1306C86.233 62.4186 85.491 63.6226 84.7909 64.7426C84.1189 65.8627 83.5589 66.7307 83.1108 67.3467C82.4948 68.2987 81.9208 68.9007 81.3888 69.1527C80.8568 69.4047 80.2408 69.5308 79.5408 69.5308C78.5608 69.5308 77.7908 69.2088 77.2308 68.5649C76.6988 67.8929 76.4329 66.9549 76.4329 65.7509C76.4329 65.2469 76.5169 64.4629 76.685 63.3989C76.881 62.3349 77.119 61.1589 77.3991 59.8709C77.6791 58.5548 77.9592 57.2808 78.2392 56.0488C78.5473 54.7888 78.8133 53.7248 79.0373 52.8568C79.2894 51.7088 79.6394 50.9108 80.0874 50.4628C80.5634 49.9868 81.1654 49.7487 81.8934 49.7487C83.6014 49.7487 84.4554 50.5886 84.4553 52.2686C84.4553 52.5766 84.3573 53.0806 84.1613 53.7806C83.9653 54.4807 83.7272 55.2927 83.4472 56.2167C83.1672 57.1407 82.8731 58.0927 82.5651 59.0727C82.2571 60.0247 82.0051 60.9207 81.809 61.7607C82.4811 60.5847 83.2091 59.3247 83.9932 57.9807C84.7772 56.6366 85.5752 55.3206 86.3873 54.0326C87.2273 52.7446 88.0534 51.5685 88.8654 50.5045C89.7054 49.4405 90.5315 48.6005 91.3435 47.9844C92.1555 47.3404 92.9255 47.0184 93.6535 47.0184C94.3815 47.0183 95.0955 47.2843 95.7955 47.8163C96.4955 48.3203 97.0694 48.9783 97.5174 49.7902C97.9934 50.5742 98.2314 51.4142 98.2313 52.3102C98.2313 53.1502 98.1193 54.1582 97.8952 55.3342C97.6712 56.5102 97.4192 57.7422 97.1391 59.0303C96.8591 60.3183 96.663 61.5783 96.551 62.8103C97.503 61.7462 98.5111 60.5422 99.5751 59.1982C100.639 57.8262 101.731 56.4121 102.851 54.9561C103.971 53.5 105.063 52.086 106.127 50.714C107.219 49.342 108.227 48.0959 109.152 46.9759C110.104 45.8559 110.944 44.9738 111.672 44.3298C112.4 43.6578 112.96 43.3218 113.352 43.3218C114.5 43.3217 115.396 43.6297 116.04 44.2457C116.712 44.8337 117.048 45.8697 117.047 47.3537C117.047 48.2777 116.977 49.4817 116.837 50.9657C116.725 52.4497 116.557 54.0597 116.333 55.7957C116.137 57.5037 115.913 59.2397 115.661 61.0037C115.437 62.7397 115.227 64.3497 115.031 65.8337C114.835 67.3177 114.667 68.5497 114.527 69.5297ZM131.956 72.3432C130.416 72.3433 129.044 71.9233 127.84 71.0833C126.636 70.2714 125.684 69.1234 124.984 67.6394C124.312 66.1554 123.976 64.4194 123.976 62.4314C123.976 60.3034 124.228 58.2314 124.732 56.2154C125.236 54.1714 125.88 52.3374 126.664 50.7134C127.448 49.0613 128.232 47.7593 129.017 46.8073C129.829 45.8273 130.529 45.3372 131.117 45.3372C131.733 45.3372 132.237 45.5192 132.629 45.8832C133.049 46.2472 133.259 46.7932 133.259 47.5212C133.259 47.6332 133.132 48.0392 132.88 48.7392C132.656 49.4112 132.362 50.2792 131.998 51.3432C131.634 52.3792 131.27 53.5412 130.906 54.8292C130.542 56.0892 130.234 57.3773 129.982 58.6933C129.758 60.0093 129.646 61.2693 129.646 62.4733C129.646 63.9293 129.87 65.0913 130.318 65.9593C130.766 66.8272 131.732 67.2612 133.216 67.2612C134.728 67.2611 136.198 66.8271 137.626 65.959C139.082 65.091 140.482 63.9289 141.826 62.4729C143.17 60.9889 144.458 59.3368 145.69 57.5168C144.234 57.6288 142.862 57.6849 141.574 57.6849C140.706 57.6849 140.076 57.601 139.684 57.433C139.292 57.237 139.04 56.985 138.928 56.677C138.844 56.369 138.802 56.005 138.802 55.585C138.802 54.997 139.068 54.465 139.6 53.989C140.132 53.513 140.72 53.2609 141.364 53.2329C142.568 53.1489 143.786 53.0508 145.018 52.9388C146.278 52.8268 147.524 52.7007 148.756 52.5607C149.68 50.9087 150.534 49.2706 151.319 47.6466C152.131 45.9946 152.873 44.4406 153.545 42.9846C154.189 41.1645 154.875 39.4845 155.603 37.9445C156.359 36.3765 157.087 35.1164 157.787 34.1644C158.487 33.2124 159.145 32.7364 159.761 32.7364C160.489 32.7363 161.035 32.9323 161.399 33.3243C161.791 33.7163 161.987 34.2343 161.987 34.8783C161.987 35.0743 161.847 35.6483 161.567 36.6003C161.287 37.5523 160.895 38.7843 160.391 40.2963C159.915 41.8084 159.369 43.5164 158.753 45.4204C158.165 47.2964 157.534 49.2844 156.862 51.3845C159.522 50.9364 161.944 50.5023 164.128 50.0822C166.34 49.6622 168.146 49.3121 169.546 49.0321C170.946 48.752 171.786 48.612 172.066 48.612C172.626 48.612 173.088 48.878 173.452 49.4099C173.816 49.9139 173.998 50.4039 173.998 50.8799C173.998 51.1599 173.48 51.5239 172.444 51.972C171.436 52.42 170.05 52.9101 168.286 53.4421C166.55 53.9462 164.562 54.4642 162.322 54.9963C160.11 55.5004 157.786 55.9484 155.35 56.3405C154.678 58.5525 154.034 60.7225 153.418 62.8506C152.83 64.9506 152.326 66.8966 151.906 68.6886C151.71 69.4726 151.388 70.0746 150.94 70.4946C150.52 70.8866 149.946 71.0827 149.218 71.0827C148.462 71.0827 147.902 70.9007 147.538 70.5367C147.174 70.2007 146.992 69.5847 146.992 68.6887C146.992 68.6047 147.076 68.1427 147.244 67.3027C147.44 66.4347 147.678 65.3707 147.958 64.1107C148.266 62.8227 148.56 61.5067 148.84 60.1627C147.188 62.4587 145.438 64.5308 143.59 66.3789C141.742 68.2269 139.838 69.683 137.878 70.747C135.918 71.8111 133.944 72.3431 131.956 72.3432ZM132.083 42.4392C131.159 42.4392 130.403 42.1592 129.815 41.5993C129.227 41.0113 128.933 40.3253 128.933 39.5413C128.933 38.5893 129.283 37.7773 129.983 37.1053C130.711 36.4332 131.565 36.0972 132.545 36.0972C133.637 36.0972 134.463 36.3911 135.023 36.9791C135.611 37.5671 135.905 38.3511 135.905 39.3311C135.905 40.0311 135.541 40.7311 134.813 41.4311C134.085 42.1031 133.175 42.4392 132.083 42.4392ZM177.712 72.5938C175.192 72.5939 173.204 71.824 171.748 70.284C170.32 68.716 169.606 66.4901 169.606 63.6061C169.606 62.0381 169.816 60.2041 170.236 58.104C170.656 55.976 171.202 53.736 171.874 51.384C172.575 49.004 173.317 46.652 174.101 44.3279C174.913 42.0039 175.711 39.8479 176.495 37.8599C177.279 35.8718 177.965 34.2058 178.553 32.8618C179.057 31.8258 179.771 31.3078 180.695 31.3077C181.283 31.3077 181.759 31.4897 182.123 31.8537C182.515 32.2177 182.711 32.8057 182.711 33.6177C182.711 34.0097 182.515 34.8637 182.123 36.1797C181.731 37.4957 181.213 39.1197 180.569 41.0517C179.953 42.9558 179.281 45.0138 178.553 47.2258C177.852 49.4378 177.18 51.6638 176.536 53.9039C175.92 56.1439 175.416 58.2579 175.024 60.2459C174.632 62.2059 174.436 63.8719 174.436 65.2439C174.436 65.8039 174.59 66.2519 174.898 66.5879C175.234 66.9239 175.668 67.0919 176.2 67.0919C177.348 67.0918 178.524 66.8818 179.728 66.4618C180.96 66.0417 182.164 65.5097 183.34 64.8657C184.544 64.2216 185.678 63.5356 186.742 62.8075C187.806 62.0795 188.758 61.3935 189.598 60.7495C190.466 60.0774 191.166 59.5454 191.698 59.1534C192.398 58.6214 192.874 58.3554 193.126 58.3554C194.078 58.3553 194.554 58.8173 194.554 59.7413C194.554 59.9653 194.274 60.4273 193.714 61.1273C193.238 61.7434 192.566 62.5274 191.698 63.4794C190.83 64.4314 189.822 65.4395 188.674 66.5035C187.554 67.5395 186.35 68.5196 185.062 69.4436C183.802 70.3676 182.542 71.1237 181.282 71.7117C180.022 72.2998 178.832 72.5938 177.712 72.5938ZM197.629 71.9212C195.893 71.9213 194.493 71.3193 193.429 70.1153C192.365 68.8834 191.833 66.9094 191.834 64.1934C191.834 62.4574 192.03 60.7214 192.422 58.9854C192.842 57.2214 193.416 55.5553 194.144 53.9873C194.9 52.3913 195.768 50.9773 196.748 49.7452C197.756 48.5132 198.862 47.5472 200.066 46.8471C201.27 46.1191 202.516 45.7551 203.804 45.755C205.988 45.755 207.696 46.3429 208.928 47.5189C210.16 48.6948 210.776 50.1928 210.776 52.0128C210.776 53.4128 210.384 54.6868 209.6 55.8349C208.844 56.9549 207.808 57.9629 206.492 58.859C205.176 59.755 203.706 60.567 202.082 61.2951C200.458 62.0231 198.792 62.6812 197.084 63.2692C196.944 64.2772 196.873 65.1732 196.873 65.9572C196.873 66.4332 197.139 66.6712 197.671 66.6712C198.931 66.6712 200.275 66.4751 201.703 66.0831C203.159 65.6631 204.629 65.131 206.114 64.487C207.598 63.8149 209.026 63.1289 210.398 62.4288C211.77 61.7008 213.016 61.0148 214.136 60.3707C215.284 59.6987 216.222 59.1667 216.95 58.7746C217.706 58.3546 218.196 58.1446 218.42 58.1446C219.036 58.1446 219.484 58.3266 219.764 58.6905C220.044 59.0545 220.184 59.4465 220.184 59.8665C220.184 60.0625 219.806 60.4965 219.05 61.1686C218.322 61.8406 217.314 62.6386 216.026 63.5627C214.766 64.4587 213.337 65.3967 211.741 66.3768C210.173 67.3288 208.535 68.2389 206.827 69.1069C205.147 69.947 203.509 70.619 201.913 71.1231C200.345 71.6551 198.917 71.9212 197.629 71.9212ZM197.798 59.5312C198.946 58.8592 200.08 58.1591 201.2 57.4311C202.348 56.6751 203.3 55.835 204.056 54.911C204.812 53.959 205.19 52.853 205.19 51.593C205.19 51.229 205.092 50.991 204.896 50.879C204.7 50.739 204.42 50.669 204.056 50.669C203.076 50.6691 202.18 51.1031 201.368 51.9711C200.584 52.8391 199.884 53.9591 199.268 55.3312C198.68 56.6752 198.19 58.0752 197.798 59.5312ZM250.7 74.3136C249.552 74.3136 248.74 74.2017 248.264 73.9777C247.788 73.7817 247.494 73.5437 247.382 73.2637C247.298 72.9837 247.256 72.7177 247.256 72.4657C247.256 72.4377 247.256 72.4097 247.256 72.3817C247.256 71.9897 247.424 71.5697 247.76 71.1217C248.096 70.7017 248.488 70.3657 248.936 70.1137C249.524 69.7777 250.112 69.4136 250.7 69.0216C251.316 68.6296 251.82 68.2236 252.212 67.8036C252.632 67.3556 252.842 66.9075 252.842 66.4596C252.842 66.1515 252.52 65.8156 251.876 65.4516C251.232 65.0596 250.434 64.6116 249.482 64.1077C248.558 63.6037 247.62 63.0297 246.668 62.3857C245.716 61.7418 244.918 60.9998 244.274 60.1598C243.63 59.3198 243.308 58.3818 243.308 57.3458C243.308 56.9538 243.35 56.5478 243.434 56.1278C242.51 56.6319 241.6 57.1359 240.704 57.6399C239.836 58.1439 238.982 58.648 238.142 59.152C238.142 59.264 238.142 59.376 238.142 59.488C238.142 61.084 237.82 62.666 237.176 64.234C236.56 65.774 235.734 67.1741 234.698 68.4341C233.69 69.6941 232.556 70.7022 231.296 71.4582C230.036 72.2142 228.776 72.5923 227.516 72.5923C225.332 72.5924 223.708 72.1024 222.644 71.1225C221.608 70.1425 221.09 68.9945 221.09 67.6785C221.09 66.3905 221.524 65.2985 222.392 64.4025C223.26 63.5064 224.548 62.5824 226.256 61.6304C226.872 61.2383 227.726 60.7483 228.818 60.1603C229.938 59.5442 231.184 58.8582 232.556 58.1022C232.36 58.0462 232.122 58.0182 231.842 58.0182C231.478 58.0182 230.89 58.1442 230.078 58.3962C229.266 58.6203 228.328 58.9143 227.264 59.2783C226.228 59.6144 225.164 59.9504 224.072 60.2864C223.008 60.6225 222.028 60.9165 221.132 61.1685C220.236 61.3925 219.536 61.5046 219.032 61.5046C217.66 61.5046 216.624 61.1546 215.924 60.4547C215.252 59.7547 214.916 58.8867 214.916 57.8507C214.916 57.2067 215.182 56.4367 215.714 55.5407C216.246 54.6447 216.946 53.6926 217.815 52.6846C218.711 51.6766 219.691 50.6826 220.755 49.7025C221.819 48.7225 222.897 47.8405 223.989 47.0564C225.081 46.2724 226.117 45.6424 227.097 45.1663C228.077 44.6903 228.889 44.4523 229.533 44.4523C230.345 44.4522 230.989 44.7322 231.465 45.2922C231.941 45.8242 232.179 46.5522 232.179 47.4762C232.179 47.9522 232.067 48.4002 231.843 48.8202C231.647 49.2402 231.255 49.5902 230.667 49.8702C230.079 50.1222 229.211 50.2763 228.063 50.3323C227.531 50.6683 226.887 51.1163 226.131 51.6764C225.375 52.2364 224.619 52.8244 223.862 53.4404C223.134 54.0564 222.476 54.6445 221.888 55.2045C221.328 55.7645 220.95 56.2405 220.754 56.6325C221.202 56.5485 221.846 56.3525 222.686 56.0445C223.526 55.7364 224.478 55.4144 225.542 55.0784C226.634 54.7143 227.74 54.4063 228.86 54.1543C229.98 53.8742 231.016 53.7342 231.968 53.7342C234.292 53.7341 235.972 54.3781 237.008 55.666C238.492 54.854 240.004 54.0419 241.544 53.2299C243.085 52.3898 244.583 51.5778 246.039 50.7938C246.907 49.6737 247.901 48.6377 249.021 47.6857C250.141 46.7056 251.303 45.8376 252.507 45.0816C253.739 44.3255 254.915 43.7375 256.035 43.3175C257.183 42.8974 258.219 42.6874 259.143 42.6874C259.899 42.6873 260.473 42.9113 260.865 43.3593C261.257 43.7793 261.453 44.2273 261.453 44.7033C261.453 44.8993 261.411 45.0953 261.327 45.2913C261.271 45.4873 261.089 45.7393 260.781 46.0473C260.473 46.3273 259.941 46.7053 259.185 47.1814C258.457 47.6294 257.421 48.2314 256.077 48.9875C255.377 49.3795 254.635 49.7995 253.851 50.2475C253.067 50.6675 252.255 51.1156 251.415 51.5916C250.575 52.4596 249.86 53.3836 249.272 54.3637C248.684 55.3157 248.39 56.2537 248.39 57.1777C248.39 57.7097 248.698 58.2137 249.314 58.6897C249.958 59.1656 250.742 59.6556 251.666 60.1596C252.618 60.6356 253.556 61.1815 254.48 61.7975C255.404 62.4135 256.174 63.1274 256.79 63.9394C257.434 64.7514 257.756 65.7174 257.756 66.8374C257.756 67.6774 257.532 68.5454 257.084 69.4414C256.664 70.3094 256.104 71.1075 255.404 71.8355C254.732 72.5915 253.976 73.1935 253.136 73.6415C252.324 74.0896 251.512 74.3136 250.7 74.3136ZM232.976 62.0922C230.904 63.2962 229.364 64.1923 228.356 64.7803C227.824 65.0883 227.362 65.3823 226.97 65.6623C226.578 65.9143 226.382 66.3063 226.382 66.8383C226.382 67.5943 226.886 67.9723 227.894 67.9723C228.566 67.9723 229.224 67.6643 229.868 67.0482C230.54 66.4322 231.142 65.6762 231.674 64.7802C232.234 63.8842 232.668 62.9882 232.976 62.0922ZM220.67 56.9265C220.67 56.9545 220.67 56.9825 220.67 57.0105C220.67 56.9825 220.67 56.9545 220.67 56.9265ZM305.478 59.822C303.854 59.822 302.258 59.6261 300.69 59.2341C299.15 58.8422 297.694 58.3382 296.322 57.7222C295.706 60.2423 295.174 63.0003 294.726 65.9963C294.614 66.8363 294.446 67.6063 294.222 68.3063C293.997 68.9783 293.647 69.5243 293.171 69.9443C292.695 70.3643 291.995 70.5744 291.071 70.5744C290.203 70.5744 289.629 70.2384 289.349 69.5664C289.07 68.8945 288.93 68.0685 288.93 67.0885C288.93 66.7805 289.042 65.9825 289.266 64.6944C289.49 63.4064 289.77 61.8524 290.106 60.0324C290.442 58.1844 290.792 56.2804 291.156 54.3204C290.008 53.1724 289.434 52.1224 289.434 51.1704C289.434 50.6944 289.574 50.2464 289.854 49.8264C290.162 49.3784 290.75 49.1544 291.618 49.1544C291.73 49.1544 291.884 49.1964 292.08 49.2804C292.36 47.7124 292.598 46.3123 292.794 45.0803C293.018 43.8203 293.144 42.9103 293.172 42.3503C293.228 41.2863 293.396 40.5023 293.676 39.9983C293.956 39.4663 294.306 39.1163 294.726 38.9483C295.174 38.7523 295.622 38.6543 296.07 38.6542C296.658 38.6542 297.106 38.7802 297.414 39.0322C297.722 39.2842 297.876 39.8442 297.876 40.7122C297.876 41.5522 297.862 42.3222 297.834 43.0222C299.206 40.6701 300.634 39.0181 302.119 38.0661C303.603 37.086 305.227 36.596 306.991 36.5959C308.727 36.5959 310.239 37.0718 311.527 38.0238C312.814 38.9757 313.808 40.3477 314.508 42.1397C315.236 43.9037 315.6 46.0317 315.6 48.5237C315.6 52.3317 314.718 55.1737 312.954 57.0497C311.218 58.8978 308.726 59.8219 305.478 59.822ZM297.75 52.7662C298.786 53.3262 299.892 53.8161 301.068 54.2361C302.244 54.6281 303.448 54.824 304.68 54.824C306.668 54.8239 308.124 54.3059 309.048 53.2699C310 52.2338 310.476 50.5258 310.476 48.1458C310.476 43.9178 309.202 41.8038 306.654 41.8039C305.03 41.804 303.448 42.714 301.908 44.5341C300.396 46.3541 299.01 49.0982 297.75 52.7662ZM327.387 71.8753C325.399 71.8754 323.803 71.1754 322.599 69.7754C321.395 68.3475 320.793 66.4435 320.793 64.0635C320.793 63.3075 320.891 62.5375 321.087 61.7535C321.311 60.9695 321.577 60.2415 321.885 59.5695C321.717 59.3175 321.577 58.9955 321.465 58.6035C321.381 58.1835 321.339 57.6935 321.339 57.1335C321.34 55.3135 321.662 53.6475 322.306 52.1355C322.95 50.5954 323.818 49.2654 324.91 48.1454C326.002 47.0253 327.206 46.1573 328.522 45.5413C329.838 44.9252 331.168 44.6172 332.512 44.6171C334.808 44.6171 336.684 45.387 338.14 46.927C339.624 48.4669 340.366 50.8609 340.366 54.1089C340.365 55.7329 340.113 57.3849 339.609 59.0649C339.105 60.7449 338.419 62.355 337.551 63.895C336.711 65.407 335.731 66.765 334.611 67.9691C333.519 69.1731 332.343 70.1251 331.083 70.8252C329.851 71.5252 328.619 71.8753 327.387 71.8753ZM326.715 57.6793C326.855 57.9873 326.925 58.3513 326.925 58.7713C326.925 59.1913 326.841 59.6253 326.673 60.0733C326.505 60.5213 326.337 61.1233 326.169 61.8793C326.001 62.6073 325.917 63.6573 325.917 65.0293C325.917 65.3933 325.959 65.7013 326.043 65.9533C326.155 66.1773 326.393 66.2893 326.757 66.2893C327.709 66.2893 328.605 65.9813 329.445 65.3652C330.313 64.7492 331.083 63.9372 331.755 62.9292C332.455 61.9211 333.043 60.8011 333.519 59.5691C334.023 58.3091 334.401 57.0351 334.653 55.7471C334.934 54.4311 335.074 53.2131 335.074 52.0931C335.074 51.3651 334.934 50.8611 334.654 50.5811C334.374 50.3011 333.884 50.1611 333.184 50.1611C332.232 50.1611 331.252 50.4692 330.244 51.0852C329.264 51.6732 328.438 52.4853 327.766 53.5213C327.094 54.5293 326.757 55.6773 326.757 56.9653C326.757 57.2173 326.743 57.4553 326.715 57.6793ZM375.496 49.3198C375.496 49.6558 375.384 49.9498 375.16 50.2019C374.936 50.4539 374.656 50.6499 374.32 50.7899C373.844 50.9859 373.018 51.2379 371.842 51.546C370.666 51.854 369.238 52.204 367.558 52.5961C365.906 52.9881 364.128 53.3942 362.224 53.8142C360.32 54.2063 358.416 54.5844 356.512 54.9484C355.784 57.6364 355.042 60.4085 354.286 63.2645C353.53 66.0925 352.774 68.8785 352.018 71.6226C351.738 72.6026 351.402 73.3446 351.01 73.8486C350.618 74.3806 349.946 74.6466 348.994 74.6466C347.958 74.6467 347.258 74.3107 346.894 73.6387C346.558 72.9947 346.516 72.1127 346.768 70.9927C347.496 67.9407 348.168 65.0987 348.784 62.4666C349.428 59.8346 349.946 57.7066 350.338 56.0826C348.658 56.3627 347.188 56.5867 345.928 56.7547C344.668 56.8948 343.772 56.9508 343.24 56.9228C342.652 56.8668 342.162 56.6288 341.77 56.2089C341.378 55.7889 341.196 55.2709 341.224 54.6549C341.28 54.0949 341.532 53.6189 341.98 53.2269C342.428 52.8068 342.96 52.5548 343.576 52.4708C344.444 52.3868 345.564 52.2607 346.936 52.0927C348.308 51.9247 349.82 51.7286 351.472 51.5046C351.836 50.0766 352.256 48.6065 352.732 47.0945C353.209 45.5545 353.699 44.0845 354.203 42.6845C354.735 41.2565 355.239 40.0105 355.715 38.9464C356.191 37.8824 356.625 37.1124 357.017 36.6364C357.325 36.2724 357.703 35.9924 358.151 35.7964C358.627 35.6004 359.089 35.5023 359.537 35.5023C360.125 35.5023 360.601 35.7123 360.965 36.1323C361.329 36.5523 361.511 37.0423 361.511 37.6023C361.511 37.8263 361.497 38.0643 361.469 38.3163C361.441 38.5403 361.385 38.7643 361.301 38.9883C360.769 40.3883 360.195 42.0823 359.579 44.0703C358.991 46.0583 358.374 48.2424 357.73 50.6224C359.83 50.3143 361.888 50.0063 363.904 49.6982C365.948 49.3621 367.796 49.0541 369.448 48.774C371.128 48.466 372.472 48.1999 373.48 47.9759C374.04 47.7799 374.516 47.8219 374.908 48.1019C375.3 48.3538 375.496 48.7598 375.496 49.3198ZM376.416 71.9158C374.68 71.9159 373.28 71.3139 372.216 70.1099C371.152 68.878 370.621 66.904 370.621 64.188C370.621 62.452 370.817 60.716 371.209 58.98C371.629 57.216 372.203 55.5499 372.931 53.9819C373.687 52.3859 374.555 50.9719 375.535 49.7398C376.543 48.5078 377.649 47.5418 378.853 46.8417C380.057 46.1137 381.303 45.7497 382.591 45.7496C384.775 45.7496 386.483 46.3375 387.715 47.5135C388.947 48.6894 389.563 50.1874 389.563 52.0074C389.563 53.4074 389.171 54.6814 388.387 55.8295C387.631 56.9495 386.595 57.9575 385.279 58.8535C383.963 59.7496 382.493 60.5616 380.869 61.2897C379.245 62.0177 377.579 62.6758 375.871 63.2638C375.731 64.2718 375.661 65.1678 375.661 65.9518C375.661 66.4278 375.927 66.6658 376.459 66.6658C377.719 66.6658 379.063 66.4697 380.491 66.0777C381.947 65.6576 383.417 65.1256 384.901 64.4816C386.385 63.8095 387.813 63.1235 389.185 62.4234C390.557 61.6954 391.803 61.0093 392.923 60.3653C394.071 59.6933 395.009 59.1613 395.737 58.7692C396.493 58.3492 396.983 58.1392 397.207 58.1392C397.823 58.1392 398.271 58.3212 398.551 58.6851C398.831 59.0491 398.971 59.4411 398.971 59.8611C398.971 60.0571 398.593 60.4911 397.837 61.1632C397.109 61.8352 396.101 62.6332 394.813 63.5573C393.553 64.4533 392.125 65.3913 390.529 66.3714C388.961 67.3234 387.323 68.2335 385.614 69.1015C383.934 69.9416 382.296 70.6136 380.7 71.1177C379.132 71.6497 377.704 71.9158 376.416 71.9158ZM376.585 59.5258C377.733 58.8538 378.867 58.1537 379.987 57.4257C381.135 56.6697 382.087 55.8296 382.843 54.9056C383.599 53.9536 383.977 52.8476 383.977 51.5876C383.977 51.2236 383.879 50.9856 383.683 50.8736C383.487 50.7336 383.207 50.6636 382.843 50.6636C381.863 50.6636 380.967 51.0977 380.155 51.9657C379.371 52.8337 378.671 53.9537 378.055 55.3258C377.467 56.6698 376.977 58.0698 376.585 59.5258ZM400.094 70.4871C399.422 70.4871 398.75 70.2631 398.078 69.8152C397.434 69.3392 396.902 68.6672 396.482 67.7992C396.062 66.9032 395.852 65.8252 395.852 64.5652C395.852 62.8852 396.076 61.0932 396.524 59.1892C397 57.2852 397.574 55.3812 398.246 53.4772C398.918 51.5731 399.576 49.7811 400.22 48.1011C400.528 47.2891 400.906 46.7431 401.354 46.4631C401.802 46.155 402.39 46.001 403.118 46.001C404.77 46.001 405.596 46.8269 405.596 48.4789C405.596 48.7589 405.47 49.3049 405.218 50.1169C404.966 50.901 404.63 51.867 404.21 53.015C403.818 54.163 403.398 55.409 402.95 56.753C402.53 58.069 402.138 59.413 401.774 60.785C401.438 62.1291 401.172 63.4031 400.976 64.6071C401.62 63.6271 402.334 62.409 403.118 60.953C403.93 59.469 404.784 57.915 405.68 56.2909C406.604 54.6669 407.528 53.1549 408.452 51.7548C409.376 50.3268 410.286 49.1648 411.182 48.2688C412.078 47.3727 412.932 46.9247 413.744 46.9247C414.444 46.9247 415.102 47.0646 415.718 47.3446C416.362 47.5966 416.922 48.1006 417.398 48.8566C417.874 49.5846 418.238 50.6345 418.49 52.0065C418.77 53.3785 418.91 55.1845 418.91 57.4245C418.91 58.5445 419.008 59.6365 419.204 60.7005C419.428 61.7365 419.792 62.6045 420.296 63.3045C420.8 63.9765 421.514 64.3125 422.438 64.3124C424.034 64.3124 425.462 64.0183 426.722 63.4303C427.982 62.8423 429.088 62.1562 430.04 61.3722C430.992 60.5882 431.79 59.9021 432.434 59.3141C432.826 58.9221 433.162 58.6141 433.442 58.3901C433.75 58.1661 434.002 58.0541 434.198 58.0541C434.786 58.0541 435.206 58.208 435.458 58.516C435.738 58.824 435.878 59.244 435.878 59.776C435.878 60.056 435.64 60.574 435.164 61.33C434.688 62.0861 434.016 62.9541 433.148 63.9341C432.308 64.8861 431.342 65.8102 430.25 66.7062C429.158 67.6022 427.982 68.3443 426.722 68.9323C425.462 69.5203 424.174 69.8144 422.858 69.8144C420.646 69.8145 418.812 69.4225 417.356 68.6386C415.928 67.8266 414.864 66.4827 414.164 64.6067C413.464 62.7027 413.114 60.1127 413.114 56.8367C413.114 56.7527 413.114 56.6127 413.114 56.4167C413.114 55.5487 413.1 54.7787 413.072 54.1067C413.072 53.4347 413.03 52.8887 412.946 52.4687C412.47 53.3367 411.896 54.3727 411.224 55.5768C410.58 56.7808 409.88 58.0688 409.124 59.4408C408.368 60.7848 407.584 62.1149 406.772 63.4309C405.96 64.7189 405.148 65.8949 404.336 66.959C403.552 68.023 402.796 68.877 402.068 69.521C401.34 70.1651 400.682 70.4871 400.094 70.4871ZM462.983 49.3172C462.983 49.6532 462.871 49.9472 462.647 50.1992C462.423 50.4512 462.143 50.6472 461.807 50.7872C461.331 50.9832 460.505 51.2353 459.329 51.5433C458.153 51.8513 456.725 52.2014 455.045 52.5934C453.393 52.9855 451.615 53.3915 449.711 53.8116C447.807 54.2037 445.903 54.5817 443.999 54.9458C443.27 57.6338 442.528 60.4058 441.772 63.2618C441.016 66.0899 440.26 68.8759 439.504 71.6199C439.224 72.5999 438.888 73.3419 438.496 73.8459C438.104 74.378 437.432 74.644 436.48 74.644C435.444 74.644 434.744 74.3081 434.38 73.6361C434.044 72.9921 434.002 72.1101 434.254 70.9901C434.982 67.938 435.654 65.096 436.27 62.464C436.914 59.832 437.432 57.704 437.825 56.08C436.145 56.36 434.674 56.5841 433.414 56.7521C432.154 56.8921 431.258 56.9482 430.726 56.9202C430.138 56.8642 429.648 56.6262 429.257 56.2062C428.865 55.7862 428.683 55.2682 428.711 54.6522C428.767 54.0922 429.019 53.6162 429.467 53.2242C429.915 52.8042 430.447 52.5522 431.063 52.4682C431.931 52.3841 433.051 52.2581 434.423 52.0901C435.795 51.922 437.307 51.726 438.959 51.5019C439.323 50.0739 439.743 48.6039 440.219 47.0919C440.695 45.5519 441.185 44.0819 441.689 42.6818C442.221 41.2538 442.725 40.0078 443.201 38.9438C443.677 37.8798 444.111 37.1098 444.503 36.6338C444.811 36.2697 445.189 35.9897 445.637 35.7937C446.113 35.5977 446.575 35.4997 447.023 35.4997C447.611 35.4997 448.087 35.7096 448.451 36.1296C448.815 36.5496 448.997 37.0396 448.997 37.5996C448.997 37.8236 448.983 38.0616 448.955 38.3136C448.927 38.5376 448.871 38.7616 448.787 38.9856C448.255 40.3856 447.681 42.0797 447.065 44.0677C446.477 46.0557 445.861 48.2397 445.217 50.6197C447.317 50.3117 449.375 50.0036 451.391 49.6955C453.435 49.3595 455.283 49.0514 456.935 48.7714C458.615 48.4633 459.959 48.1973 460.967 47.9733C461.527 47.7772 462.003 47.8192 462.395 48.0992C462.787 48.3512 462.983 48.7572 462.983 49.3172ZM457.922 70.1154C457.138 70.1154 456.438 69.8494 455.822 69.3174C455.234 68.7854 454.94 67.9174 454.94 66.7134C454.94 66.0694 455.025 65.1594 455.193 63.9834C455.389 62.8074 455.641 61.5334 455.949 60.1614C456.257 58.7614 456.593 57.3754 456.957 56.0034C457.349 54.6314 457.727 53.4134 458.091 52.3493C458.455 51.2573 458.777 50.4453 459.057 49.9133C459.421 49.2693 459.757 48.8773 460.065 48.7373C460.401 48.5693 460.723 48.4853 461.031 48.4853C461.591 48.4852 462.109 48.6532 462.585 48.9892C463.089 49.3252 463.341 50.0672 463.341 51.2152C463.341 51.6632 463.257 52.3912 463.089 53.3992C462.921 54.3792 462.711 55.5272 462.459 56.8432C462.207 58.1592 461.927 59.5172 461.619 60.9172C461.339 62.3172 461.059 63.6473 460.779 64.9073C460.526 66.1393 460.316 67.1753 460.148 68.0153C460.008 68.7153 459.714 69.2333 459.266 69.5693C458.846 69.9333 458.398 70.1153 457.922 70.1154ZM462.753 44.3272C461.829 44.3272 460.975 44.0613 460.191 43.5293C459.407 42.9693 459.015 42.1153 459.015 40.9673C459.015 40.0153 459.253 39.2453 459.729 38.6573C460.205 38.0693 460.765 37.6493 461.409 37.3972C462.081 37.1172 462.669 36.9772 463.173 36.9772C463.677 36.9772 464.237 37.0892 464.853 37.3131C465.469 37.5091 466.001 37.8871 466.449 38.4471C466.925 38.9791 467.163 39.7491 467.163 40.7571C467.163 41.4291 466.925 42.0451 466.449 42.6051C465.973 43.1371 465.385 43.5571 464.685 43.8651C464.013 44.1732 463.369 44.3272 462.753 44.3272ZM471.991 72.0809C471.095 72.081 470.283 71.829 469.555 71.325C468.827 70.849 468.253 70.219 467.833 69.4351C467.413 68.6231 467.203 67.7551 467.203 66.8311C467.203 65.0951 467.581 63.4011 468.337 61.749C469.121 60.097 470.143 58.529 471.403 57.0449C472.664 55.5609 474.036 54.2029 475.52 52.9708C477.032 51.7108 478.53 50.6327 480.014 49.7367C481.526 48.8406 482.898 48.1406 484.13 47.6366C485.39 47.1325 486.37 46.8805 487.07 46.8805C487.882 46.8804 488.54 47.0624 489.044 47.4264C489.576 47.7624 489.842 48.2944 489.842 49.0224C489.842 49.2464 489.786 49.4284 489.674 49.5684C490.038 49.6524 490.332 49.8624 490.556 50.1984C490.78 50.5344 490.892 51.0384 490.892 51.7104C490.892 51.9904 490.822 52.7184 490.682 53.8944C490.542 55.0704 490.387 56.4984 490.219 58.1784C490.079 59.8584 490.009 61.6084 490.009 63.4284C490.009 63.7084 490.051 63.9604 490.135 64.1844C490.219 64.3804 490.401 64.4784 490.681 64.4784C491.801 64.4783 492.935 64.2543 494.083 63.8063C495.259 63.3302 496.393 62.7562 497.485 62.0842C498.605 61.3841 499.613 60.6981 500.509 60.0261C501.433 59.326 502.203 58.752 502.819 58.304C503.463 57.828 503.883 57.59 504.079 57.59C505.031 57.5899 505.507 58.0659 505.507 59.0179C505.507 59.2699 505.199 59.8019 504.583 60.6139C503.995 61.398 503.183 62.308 502.147 63.344C501.111 64.352 499.949 65.3601 498.661 66.3681C497.401 67.3482 496.085 68.1602 494.713 68.8042C493.369 69.4483 492.067 69.7703 490.807 69.7704C489.267 69.7704 488.091 69.4064 487.279 68.6785C486.495 67.9505 485.935 66.9705 485.599 65.7385C485.291 64.4785 485.123 63.0645 485.095 61.4965C483.667 63.5406 482.183 65.3606 480.643 66.9567C479.131 68.5247 477.633 69.7708 476.149 70.6948C474.665 71.6188 473.279 72.0809 471.991 72.0809ZM486.86 51.0385C484.116 52.3546 481.652 53.8666 479.468 55.5747C477.283 57.2548 475.547 59.0188 474.259 60.8669C472.999 62.7149 472.369 64.4929 472.369 66.2009C472.369 66.6769 472.593 66.9149 473.041 66.9149C473.573 66.9149 474.273 66.6069 475.141 65.9908C476.037 65.3748 477.003 64.5628 478.039 63.5547C479.075 62.5187 480.111 61.3707 481.147 60.1106C482.183 58.8226 483.149 57.5066 484.046 56.1626C484.942 54.8185 485.656 53.5305 486.188 52.2985C486.384 51.8505 486.608 51.4305 486.86 51.0385ZM510.595 72.5838C508.075 72.5838 506.087 71.8139 504.631 70.2739C503.203 68.706 502.489 66.48 502.489 63.596C502.489 62.028 502.699 60.194 503.119 58.094C503.539 55.966 504.085 53.726 504.757 51.3739C505.457 48.9939 506.199 46.6419 506.983 44.3179C507.796 41.9938 508.594 39.8378 509.378 37.8498C510.162 35.8618 510.848 34.1957 511.436 32.8517C511.94 31.8157 512.654 31.2977 513.578 31.2977C514.166 31.2976 514.642 31.4796 515.006 31.8436C515.398 32.2076 515.594 32.7956 515.594 33.6076C515.594 33.9996 515.398 34.8536 515.006 36.1696C514.614 37.4856 514.096 39.1097 513.452 41.0417C512.836 42.9457 512.163 45.0037 511.435 47.2157C510.735 49.4278 510.063 51.6538 509.419 53.8938C508.803 56.1338 508.299 58.2478 507.907 60.2358C507.515 62.1959 507.319 63.8619 507.319 65.2339C507.319 65.7939 507.473 66.2419 507.781 66.5778C508.117 66.9138 508.551 67.0818 509.083 67.0818C510.231 67.0818 511.407 66.8717 512.611 66.4517C513.843 66.0317 515.047 65.4996 516.223 64.8556C517.427 64.2116 518.561 63.5255 519.625 62.7975C520.689 62.0695 521.641 61.3834 522.481 60.7394C523.349 60.0674 524.049 59.5354 524.581 59.1433C525.281 58.6113 525.757 58.3453 526.009 58.3453C526.961 58.3453 527.437 58.8072 527.437 59.7312C527.437 59.9552 527.157 60.4173 526.597 61.1173C526.121 61.7333 525.449 62.5173 524.581 63.4693C523.713 64.4214 522.705 65.4294 521.557 66.4934C520.437 67.5295 519.233 68.5095 517.945 69.4335C516.685 70.3576 515.425 71.1136 514.165 71.7017C512.905 72.2897 511.715 72.5837 510.595 72.5838Z" fill="#0E0E0E"/>
</g>
<defs>
<filter id="filter0_di_426_239" x="0.464355" y="0.657471" width="585.9" height="133.621" filterUnits="userSpaceOnUse" color-interpolation-filters="sRGB">
<feFlood flood-opacity="0" result="BackgroundImageFix"/>
<feColorMatrix in="SourceAlpha" type="matrix" values="0 0 0 0 0 0 0 0 0 0 0 0 0 0 0 0 0 0 127 0" result="hardAlpha"/>
<feOffset dy="4"/>
<feGaussianBlur stdDeviation="2"/>
<feComposite in2="hardAlpha" operator="out"/>
<feColorMatrix type="matrix" values="0 0 0 0 0 0 0 0 0 0 0 0 0 0 0 0 0 0 0.32 0"/>
<feBlend mode="normal" in2="BackgroundImageFix" result="effect1_dropShadow_426_239"/>
<feBlend mode="normal" in="SourceGraphic" in2="effect1_dropShadow_426_239" result="shape"/>
<feColorMatrix in="SourceAlpha" type="matrix" values="0 0 0 0 0 0 0 0 0 0 0 0 0 0 0 0 0 0 127 0" result="hardAlpha"/>
<feOffset dy="4"/>
<feGaussianBlur stdDeviation="2"/>
<feComposite in2="hardAlpha" operator="arithmetic" k2="-1" k3="1"/>
<feColorMatrix type="matrix" values="0 0 0 0 0 0 0 0 0 0 0 0 0 0 0 0 0 0 0.3 0"/>
<feBlend mode="normal" in2="shape" result="effect2_innerShadow_426_239"/>
</filter>
<filter id="filter1_d_426_239" x="31.896" y="31.2974" width="499.542" height="51.3586" filterUnits="userSpaceOnUse" color-interpolation-filters="sRGB">
<feFlood flood-opacity="0" result="BackgroundImageFix"/>
<feColorMatrix in="SourceAlpha" type="matrix" values="0 0 0 0 0 0 0 0 0 0 0 0 0 0 0 0 0 0 127 0" result="hardAlpha"/>
<feOffset dy="4"/>
<feGaussianBlur stdDeviation="2"/>
<feComposite in2="hardAlpha" operator="out"/>
<feColorMatrix type="matrix" values="0 0 0 0 0 0 0 0 0 0 0 0 0 0 0 0 0 0 0.25 0"/>
<feBlend mode="normal" in2="BackgroundImageFix" result="effect1_dropShadow_426_239"/>
<feBlend mode="normal" in="SourceGraphic" in2="effect1_dropShadow_426_239" result="shape"/>
</filter>
</defs>
</svg>
