<svg width="187" height="70" viewBox="0 0 187 70" fill="none" xmlns="http://www.w3.org/2000/svg">
<g filter="url(#filter0_d_426_193)">
<path d="M4.04493 9.80447C4.89075 7.84503 7.44708 7.17292 9.59517 7.37215C10.2696 7.42678 11.1523 9.1405 11.6537 9.2603C12.6239 9.5006 12.6141 8.38657 13.6342 8.78734C13.9746 8.93003 15.4183 11.5991 15.7308 11.695C17.4154 12.2143 17.8847 11.0408 19.1444 11.0688C25.2883 11.2695 29.5431 10.7607 33.7347 10.5812C35.1139 10.5246 37.5662 12.5189 38.2464 10.9879C38.3252 10.8065 37.2263 8.39587 37.1678 8.18518C36.2817 4.95605 38.2052 9.93313 38.7362 10.4913C40.8353 12.6945 42.0336 12.5074 42.5628 11.2162C42.7832 10.6603 40.35 5.96783 41.8865 8.53671C41.9913 8.70988 42.986 11.3349 43.2096 11.5702C43.7161 12.0981 43.9763 11.4612 44.2472 11.595C44.7773 11.8652 44.8251 11.8164 45.1695 11.7164C45.6483 11.6026 46.7431 12.6704 46.9576 11.8968C46.9986 11.7245 45.6948 9.14563 45.6504 8.63477C45.6061 8.12492 46.1089 8.18234 46.5254 8.74432C46.9427 9.30663 47.8265 11.3913 48.0664 11.8535C48.6469 12.9723 48.8951 13.299 48.9514 13.1928C49.1765 12.8925 48.2828 9.89214 48.3109 9.76565C49.0285 6.72411 51.851 9.39452 53.3691 8.91153C54.5436 8.52986 55.4521 7.09704 56.6139 6.95916C58.0019 6.80596 59.5117 8.04791 60.6627 7.52684C60.7869 7.47477 59.7626 4.25693 59.9163 4.18605C61.5356 3.43976 63.3242 3.47448 65.443 5.40289C65.6551 5.59939 66.1084 8.51001 66.3577 8.8786C67.8895 11.0673 70.5657 16.5193 68.4556 3.88243C69.223 4.26745 70.1253 4.65199 71.2175 7.09862C71.9237 8.6729 72.2092 11.8701 72.3874 10.4612C72.4289 10.147 71.7322 7.41367 71.8379 7.1507C72.2754 6.04734 73.1621 6.84023 73.5179 5.32551C73.5898 5.01081 73.0639 2.54684 73.013 2.09691C72.6077 -1.54798 74.3018 4.33219 74.4977 4.74935C75.9776 7.8571 76.3423 6.50303 77.1452 6.4745C77.3327 6.46919 76.4762 3.17956 76.6344 3.05514C76.9905 2.79309 77.3819 2.67617 77.8127 2.74048C78.6526 2.78447 79.5255 3.15794 80.3511 3.93462C80.6795 4.25016 80.8094 7.11424 80.9802 7.41114C81.6926 8.69035 81.1496 3.30662 81.8436 4.43943C81.9849 4.67194 82.1842 7.11414 82.2339 7.38099C82.9849 11.5715 82.6203 5.60319 82.7024 5.46818C83.5971 3.6348 84.6758 9.85709 85.4817 8.98152C85.5841 8.8708 85.1736 5.77883 85.4796 5.65678C87.5311 4.82701 89.7101 5.80463 91.5095 8.42478C91.7892 8.82807 91.5309 11.123 91.5435 11.4097C91.723 15.8881 92.0527 9.93755 92.1571 9.7218C92.9519 8.17294 93.4195 13.2383 94.2191 6.19681C97.2019 8.9908 100.536 5.46006 102.87 12.2349C102.9 12.3138 102.562 15.2177 102.622 15.3625C103.337 17.1367 103.599 12.5819 104.729 7.1413C105.015 5.77557 104.803 12.5313 104.791 13.0271C104.753 14.8553 104.172 19.1621 104.184 19.5194C104.297 22.3276 105.676 7.99505 106.219 8.08046C106.233 8.10714 105.893 10.7308 105.911 11.0004C105.967 11.8464 106.213 10.8224 106.256 11.7523C106.353 13.9038 105.731 20.8762 106.628 16.9085C106.742 16.3933 107.503 8.25933 107.939 8.72368C108.11 8.91513 108.966 8.91968 109.14 9.48512C109.315 10.0501 108.876 12.638 108.881 12.7541C109.135 16.3194 108.745 17.7121 108.506 22.8851C108.269 28.0386 109.491 15.8596 109.764 14.5237C110.033 13.1911 110.188 16.1236 110.192 17.1344C110.197 18.1458 109.879 19.7835 109.918 20.362C110.181 24.1435 110.853 14.3732 111.278 12.4798C112.283 7.99648 111.702 17.0839 112.084 18.049C112.186 18.3092 112.299 16.2364 112.431 16.0631C112.944 15.4028 112.93 18.2663 113.691 15.7656C113.814 15.358 114.764 9.99483 114.621 14.0217C114.601 14.6024 114.274 16.8367 114.41 17.3712C114.607 18.1723 115.082 18.7481 115.441 18.0397C115.445 18.0315 115.449 18.0225 115.453 18.0127C115.728 17.4021 115.803 13.7823 115.989 14.9634C116.072 15.4989 115.629 17.6332 115.799 18.4578C115.964 19.2812 116.588 19.2837 116.827 19.2463C117.065 19.2069 117.213 16.3722 117.25 16.1856C117.464 15.1168 118.066 13.8362 118.103 13.8458C120.189 13.8392 121.523 18.9013 123.653 17.7048C123.822 17.6155 124.089 14.6422 124.119 14.5981C124.807 13.4619 123.402 21.235 123.428 23.9314C124.135 17.9292 124.216 19.0556 124.666 18.4693C124.883 18.1818 125.086 15.8441 125.133 15.6097C125.856 12.1389 125.449 16.7241 125.374 17.6636C125.099 21.12 125.818 17.113 125.635 19.4236C125.452 21.7168 124.743 25.0303 125.093 25.0548C125.474 22.9311 125.952 17.2799 126.339 16.4246C127.806 13.1909 129.046 17.9449 129.771 18.5511C130.491 19.1569 130.794 18.8082 131.148 19.6679C131.798 21.2227 132.001 17.0036 132.718 15.1864C133.434 13.3683 132.016 23.58 131.835 25.7977C131.658 28.0149 131.998 25.7606 131.951 26.9885C131.906 28.2163 131.535 29.6799 131.703 30.1737C131.877 30.6684 132.907 26.8492 133.232 24.5542C133.92 19.6924 134.223 14.518 134.568 16.4133C134.588 16.5257 134.199 19.2087 134.291 19.5024C134.739 20.8301 135.266 21.4746 135.805 22.1948L135.729 22.1832C136.118 22.6748 136.501 23.2019 136.85 24.0148C136.967 24.2925 136.608 27.2922 136.673 27.4879C137.348 29.5356 137.45 24.406 138.364 18.8221C137.661 26.3266 137.551 30.9636 138.173 31.0986C138.547 31.1824 138.748 27.8896 139.181 25.6111C139.311 24.9242 139.394 27.2174 139.571 25.6809C140.148 20.6578 140.357 14.9706 140.834 17.3175C140.854 17.4286 140.533 20.1773 140.619 20.3593C141.174 21.5493 141.685 16.2818 142.445 15.7478C143.049 15.33 143.726 18.691 144.315 19.3111C143.557 27.7525 144.308 25.9078 145.068 20.1242C145.445 20.4239 145.918 20.1636 146.235 21.0289C146.345 21.3241 146.031 23.7534 146.024 24.0201C145.9 28.2014 146.597 22.5685 146.705 22.3604C147.849 20.3521 148.206 24.7622 149.519 20.7198C149.565 20.5741 150.195 14.7269 150.017 19.0422C150.003 19.3393 149.442 21.9549 149.846 22.2302C150.249 22.5057 150.729 25.7748 151.595 23.1617C151.805 22.5327 152.654 17.843 152.561 21.6034C152.547 22.1138 152.328 23.7843 152.286 24.7273C152.153 27.7324 152.878 21.8376 152.556 26.8955C152.237 31.9538 152.239 35.7831 153.206 32.4225C153.235 32.325 153.889 27.6669 154.067 27.7735C154.352 27.9478 154.648 28.9943 154.964 29.0196C155.115 29.0298 155.35 26.1073 155.382 26.0588C156.571 24.6096 156.99 27.3297 157.902 28.6485C158.071 28.8964 159.136 25.05 159.111 28.2465C159.082 31.7457 156.848 45.8927 158.18 42.6782C158.69 41.3884 161.639 23.4639 161.031 32.9363C162.691 30.8975 163.162 35.9162 164.985 32.9285C165.066 32.7963 166.099 27.845 166.234 27.9474C166.43 28.1086 166.132 30.4663 166.261 30.6574C166.763 31.51 167.709 29.6649 168.258 30.1347C168.474 30.3101 167.906 32.6828 168.143 32.8881C168.367 33.0882 169.239 29.9991 169.276 31.622C169.293 32.8566 168.058 39.3265 168.11 40.1437C169.694 33.8727 169.909 34.0773 170.783 32.5784C170.961 32.291 171.479 30.0954 171.599 29.8491C172.118 28.8057 171.759 30.6518 172.303 29.5136C172.436 29.2412 173.103 27.1431 173.256 26.8047C174.669 23.8756 173.749 28.8488 173.478 29.6739C172.576 32.8463 173.901 30.334 173.658 31.6726C173.282 32.9417 172.199 34.1423 171.946 34.8989C171.801 35.2057 171.645 35.4148 171.41 35.4441C171.447 35.5333 171.722 35.6703 171.774 35.7522C172.129 36.8365 172.582 36.8257 172.725 37.0352C172.814 37.1309 174.364 34.6746 174.413 34.6314C175.286 34.3626 173.541 36.9267 177.634 32.8764C167.732 44 178.855 32.0341 177.368 34.7893C177.242 35.0085 172.119 39.8255 171.292 40.4528C170.48 41.0936 171.904 39.4052 170.712 40.494C170.385 40.7045 166.046 45.6776 165.876 46.0606C164.209 48.7466 170.621 40.3756 170.919 39.8753C174.474 34.7255 170.289 40.501 170.153 41.0069C169.405 42.3188 169.062 41.9612 168.001 41.4823C167.805 41.1751 166.774 40.6613 166.634 40.3268C167.327 41.1537 167.652 41.573 167.662 42.2156C167.618 43.4153 164.686 49.7152 165.213 49.7421C166.558 49.5738 168.835 39.9485 166.319 48.0616C165.773 49.7867 163.918 57.2443 165.244 51.3376C165.351 50.9722 166.409 45.5222 165.467 48.8878C165.351 49.313 164.852 51.499 164.79 51.6767C164.389 52.8269 164.659 51.049 164.307 51.8387C163.956 52.6285 163.473 53.8192 163.404 53.0156C163.361 52.5347 163.945 48.3711 164.051 47.3425C164.373 44.3838 163.274 49.0929 163.762 45.5363C164.237 41.9579 165.505 36.6552 165.475 34.2623C164.456 40.016 163.395 45.9181 162.37 51.7046C161.651 51.3222 161.125 49.2701 160.23 49.3428C160.117 49.3573 159.763 52.4931 159.631 52.5893C159.098 52.986 158.985 50.6752 158.361 51.4586C157.879 52.0776 156.986 55.2928 156.484 56.049C157.118 49.3538 156.181 51.4862 155.815 50.7943C155.683 50.5539 155.916 48.7783 155.873 48.1766C155.701 45.9488 155.178 51.8706 154.945 52.7742C153.963 56.6332 155.547 43.3052 154.88 43.5193C154.843 43.5257 153.606 50.5585 153.506 50.9925C152.832 53.8174 153.74 48.5087 153.587 47.9449C153.309 46.915 153.211 45.1648 152.515 47.1664C152.31 47.7594 151.497 52.1371 151.612 48.661C151.626 48.2057 151.905 45.8573 151.891 45.7146C151.627 43.3287 150.809 50.7179 150.257 53.173C149.706 55.6279 149.806 50.448 149.867 48.9606C150.027 45.1131 150.224 47.3653 150.276 46.994C150.901 42.5754 150.489 43.2841 150.271 42.8649C150.991 35.606 150.59 35.9814 150.046 42.4604C149.987 43.1682 150.252 42.5246 150.271 42.8649C149.298 49.942 148.84 50.7922 149.089 44.0683C149.205 40.9169 149.77 37.3136 149.008 38.5398C148.669 39.0945 148.274 44.1092 147.895 45.4318C147.034 48.45 146.754 43.6674 146.109 44.3104C145.873 44.5436 145.815 47.3138 145.646 47.5676C145.199 48.2504 145.044 46.1408 144.572 47.1344C144.528 47.2278 144.344 50.1076 144.223 50.1256C143.302 50.3185 142.684 48.3601 141.746 48.1652C141.282 48.0708 140.346 49.5327 139.897 49.1433C139.119 48.4853 138.466 44.1631 137.671 45.0737C137.162 45.6567 137.028 48.5437 136.675 50.4726C135.995 54.2122 135.867 47.3193 135.857 46.2534C135.857 46.2181 136.309 45.598 136.214 44.0927C136.334 41.0017 135.862 46.2407 135.857 46.2534C135.852 45.5649 135.117 44.8005 134.916 45.3275C134.807 45.6156 134.643 48.3452 134.591 48.4439C134.253 49.0654 133.924 49.5581 133.604 49.9176C133.516 49.8649 133.196 49.8972 133.109 49.8428C132.128 50.7701 131.224 50.7358 130.431 49.6584C130.415 49.5999 130.778 46.5746 130.737 46.475C130.192 45.0074 129.324 48.6325 128.478 50.7242C127.63 52.8143 127.238 51.9895 127.54 46.7362C127.022 47.3079 126.696 44.8974 126.531 43.4401C126.364 41.9826 125.558 47.8519 125.512 47.9621C124.074 51.4958 123.974 48.0251 123.123 47.3203C122.716 46.9744 121.762 47.6611 121.236 48.218C120.816 48.6672 120.786 47.2496 120.354 48.0695C120.297 48.1791 120.008 50.8058 119.982 50.9042C119.239 53.9712 120.213 47.6008 120.285 46.4434C120.54 42.2341 120.645 39.9864 119.946 41.8581C119.784 42.2866 118.364 51.4574 118.126 51.9655C117.809 52.6074 118.289 49.3145 117.942 50.0702C117.913 50.132 117.68 52.1748 117.539 52.0574C116.877 51.5388 116.228 50.2131 115.453 50.2912C115.35 50.2943 115.14 53.5618 114.988 53.6201C114.258 53.889 113.528 53.6479 112.98 52.0166C112.85 51.6054 113.168 49.3456 113.195 48.6639C113.322 45.3325 112.767 48.5321 112.518 49.9432C112.451 50.2784 112.403 50.5122 112.388 50.5319C110.457 53.126 109.84 47.5577 108.089 49.861C107.995 49.9978 106.691 56.2478 107.005 50.7497C107.025 50.3839 107.359 44.761 106.713 48.5337C106.673 48.7697 106.53 51.6695 106.272 51.327C106.008 50.9844 105.351 52.8241 105.298 49.6021C105.28 48.5869 105.587 42.9735 104.75 47.3467C104.691 47.6519 103.067 57.5865 103.608 50.6334C103.697 49.4888 104.504 42.1705 103.68 45.8531C103.522 46.5674 103.498 48.2261 103.177 49.2102C102.684 50.7271 102.462 48.6934 101.733 51.892C101.603 52.458 100.814 57.3853 100.966 53.5717C100.99 52.9743 101.305 50.5385 101.21 50.2446C100.756 48.8344 99.9998 50.3755 99.5855 48.5898C99.4377 47.962 99.9139 44.0182 99.7962 42.9227C99.6787 41.8276 99.3308 40.7382 98.9453 42.515C98.5616 44.2929 98.2409 50.6462 97.8741 51.1027C96.2984 53.0886 95.281 49.1936 94.0117 48.4877C93.8266 48.383 93.8476 50.6714 93.5712 50.6811C92.5164 50.7203 90.914 52.6995 90.2594 47.8032C89.6824 43.8756 90.5284 40.9823 90.0355 39.365C89.7783 38.5923 89.4941 45.988 89.4511 46.2188C88.958 48.559 88.5959 45.2574 88.2029 46.2516C88.1269 46.4582 88.2932 49.47 88.2331 49.6128C88.0384 50.128 87.7742 48.7802 87.6049 49.0243C87.5315 49.1408 87.673 51.4404 87.601 51.2627C87.4267 50.8641 87.2523 49.8984 86.9408 47.7464C86.9082 47.5504 86.7774 44.6883 86.6435 44.5846C86.4451 44.4243 85.9631 42.3116 86.0725 44.5137C86.1052 45.1762 86.8047 50.4176 86.2676 46.802C86.1603 46.0465 85.2479 39.7582 85.979 45.1966C86.0473 46.0894 87.3056 53.1507 86.6298 48.9342C86.6091 48.8584 86.5878 48.7788 86.5659 48.6954C86.2442 47.4698 85.0461 42.3795 85.0114 43.2095C85.0106 43.3413 85.6483 46.1262 85.5453 46.4202C85.1794 47.4066 84.5435 47.1869 84.1653 48.1387C84.0631 48.3988 84.8464 51.2632 84.6774 51.5582C84.2179 52.3729 83.3324 51.7398 82.5792 50.9161C82.298 50.6072 81.9686 48.1896 81.9013 47.931C80.8036 43.7252 81.7992 49.4718 81.7855 49.8172C81.6813 51.8888 80.7506 49.2571 80.4344 50.0369C80.3451 50.245 80.9949 52.9593 81.0193 53.2063C81.2471 55.6216 80.4352 50.6941 80.1585 50.179C79.3839 48.7191 78.9078 49.0179 78.5274 49.4372C78.3865 49.5956 79.2457 52.7255 79.1137 52.8308C78.354 53.5127 77.4184 53.3535 76.2222 51.7551C75.9959 51.4484 75.5344 49.0056 75.3758 48.4569C74.2638 44.6186 75.1572 49.964 75.2096 50.4792C75.4271 52.8353 74.796 50.7152 74.6106 51.1674C73.7236 53.4106 71.9222 52.3054 70.6741 51.6896C69.0875 50.8905 67.4095 48.9169 66.7334 49.8212C66.6922 49.8749 68.016 52.9405 68.0027 53.0243C67.9109 53.4301 67.6954 53.4642 67.4684 53.4648C66.4356 53.7751 65.4113 53.9943 64.6999 54.8628C64.5939 54.9834 66.0572 57.8068 65.9271 58.0988C65.6677 58.7186 65.0378 58.7795 64.2044 58.0185C63.801 57.6526 63.0163 55.0467 62.6344 54.7284C61.7456 53.9804 61.1469 53.9676 60.8626 54.6172C60.744 54.9001 62.3095 57.7653 62.0564 57.901C60.3562 58.8863 58.9462 60 55.7929 56.7172C55.5771 56.4914 52.9247 50.468 53.1906 51.7156C53.8856 53.4028 54.7242 55.3796 55.478 57.1788C53.7383 58.9652 51.0173 57.6071 49.3895 57.9729C49.3235 57.988 50.986 61.0647 50.8724 61.107C50.2053 61.3621 50.2312 62.4327 48.0545 59.6626C47.8397 59.393 44.7732 54.058 45.0768 54.9545C45.1316 55.118 45.3198 55.9558 45.9695 57.1243C46.0691 57.2996 47.597 59.7342 47.5873 59.837C47.5039 60.3929 46.9614 59.9638 45.7551 58.6647C45.5555 58.452 43.787 55.9507 43.6229 55.7823C42.4209 54.6448 43.7142 56.5905 41.7953 54.573C40.4715 53.2422 37.0213 49.223 33.4295 45.4422C32.9193 44.9115 32.6838 44.9699 30.616 42.7519C25.4074 37.1817 19.9019 30.8978 14.3438 24.9662C13.1441 23.6889 13.878 25.5916 11.3207 22.186C11.1489 21.9576 10.6208 20.5294 9.77281 19.3613C9.18689 18.5524 6.97265 16.3971 6.29262 15.298C5.62055 14.1939 7.52526 15.9578 6.82278 14.5876C6.11783 13.1972 3.68995 10.6533 4.04493 9.80447ZM125.816 36.9287C125.883 34.0471 124.469 44.3714 125.131 41.9648C125.164 41.8362 125.814 37.0702 125.816 36.9287ZM162.331 41.5149C162.669 36.8974 161.403 43.5188 161.115 47.0781C160.81 50.6299 162.225 42.9138 162.331 41.5149ZM166.577 39.0996C166.858 35.4465 163.994 49.8879 164.932 47.0631C164.985 46.9036 166.559 39.3113 166.577 39.0996ZM33.1421 43.7316C33.0492 43.6222 32.8276 43.6241 32.9154 43.736C35.0497 46.4195 35.448 46.4496 33.1421 43.7316ZM170.635 36.6084C171.233 34.7174 170.188 36.7513 169.508 39.123C168.913 41.0105 169.794 38.9161 170.635 36.6084ZM111.563 23.1196C111.574 22.9641 111.413 22.7948 111.324 23.67C111.038 26.4889 111.369 25.7358 111.563 23.1196ZM174.576 39.8397C174.512 38.8852 182.898 30.4317 182.858 32.4734C182.827 32.8175 179.587 34.4546 178.964 35.3805C177.765 36.9915 183.863 32.6891 181.049 35.5804C180.511 36.0785 174.548 39.8944 174.562 39.8486C174.566 39.8457 174.571 39.8427 174.576 39.8397ZM127.282 24.4819C127.294 24.3441 127.069 24.1669 127.045 24.3013C126.479 27.5558 126.933 27.915 127.282 24.4819ZM101.941 14.9758C101.954 14.6802 101.404 14.3173 101.36 14.5848C100.587 19.9445 101.673 20.6902 101.941 14.9758ZM144.305 19.5379C144.869 16.2538 145.23 15.9123 145.067 20.1198C144.822 19.8574 144.557 19.7836 144.305 19.5379Z" fill="#E5B80B"/>
</g>
<g filter="url(#filter1_d_426_193)">
<path d="M43.4655 30.1672C42.6535 30.1672 41.8555 30.0692 41.0715 29.8732C40.3015 29.6772 39.5735 29.4252 38.8875 29.1172C38.5795 30.3772 38.3135 31.7562 38.0895 33.2542C38.0335 33.6742 37.9495 34.0592 37.8375 34.4092C37.7255 34.7452 37.5505 35.0182 37.3125 35.2282C37.0745 35.4382 36.7245 35.5432 36.2625 35.5432C35.8285 35.5432 35.5415 35.3752 35.4015 35.0392C35.2615 34.7032 35.1915 34.2902 35.1915 33.8002C35.1915 33.6462 35.2475 33.2472 35.3595 32.6032C35.4715 31.9592 35.6115 31.1822 35.7795 30.2722C35.9475 29.3482 36.1225 28.3962 36.3045 27.4162C35.7305 26.8422 35.4435 26.3172 35.4435 25.8412C35.4435 25.6032 35.5135 25.3792 35.6535 25.1692C35.8075 24.9452 36.1015 24.8332 36.5355 24.8332C36.5915 24.8332 36.6685 24.8542 36.7665 24.8962C36.9065 24.1122 37.0255 23.4122 37.1235 22.7962C37.2355 22.1662 37.2985 21.7112 37.3125 21.4312C37.3405 20.8992 37.4245 20.5072 37.5645 20.2552C37.7045 19.9892 37.8795 19.8142 38.0895 19.7302C38.3135 19.6322 38.5375 19.5832 38.7615 19.5832C39.0555 19.5832 39.2795 19.6462 39.4335 19.7722C39.5875 19.8982 39.6645 20.1782 39.6645 20.6122C39.6645 21.0322 39.6575 21.4172 39.6435 21.7672C40.3295 20.5912 41.0435 19.7652 41.7855 19.2892C42.5275 18.7992 43.3395 18.5542 44.2215 18.5542C45.0895 18.5542 45.8455 18.7922 46.4895 19.2682C47.1335 19.7442 47.6305 20.4302 47.9805 21.3262C48.3445 22.2082 48.5265 23.2722 48.5265 24.5182C48.5265 26.4222 48.0855 27.8432 47.2035 28.7812C46.3355 29.7052 45.0895 30.1672 43.4655 30.1672ZM39.6015 26.6392C40.1195 26.9192 40.6725 27.1642 41.2605 27.3742C41.8485 27.5702 42.4505 27.6682 43.0665 27.6682C44.0605 27.6682 44.7885 27.4092 45.2505 26.8912C45.7265 26.3732 45.9645 25.5192 45.9645 24.3292C45.9645 22.2152 45.3275 21.1582 44.0535 21.1582C43.2415 21.1582 42.4505 21.6132 41.6805 22.5232C40.9245 23.4332 40.2315 24.8052 39.6015 26.6392ZM51.5326 36.4252C51.1826 36.4252 50.8816 36.2992 50.6296 36.0472C50.3916 35.7952 50.2726 35.4312 50.2726 34.9552C50.2726 34.7452 50.3006 34.4022 50.3566 33.9262C50.4266 33.4362 50.5106 32.8762 50.6086 32.2462C50.7206 31.6162 50.8256 30.9582 50.9236 30.2722C51.0356 29.5862 51.1266 28.9352 51.1966 28.3192C51.2806 27.7032 51.3366 27.1782 51.3646 26.7442C51.3926 26.2122 51.5326 25.8342 51.7846 25.6102C52.0366 25.3722 52.3376 25.2532 52.6876 25.2532C52.9676 25.2532 53.2196 25.3232 53.4436 25.4632C53.6816 25.5892 53.8286 25.8622 53.8846 26.2822C53.9546 26.6882 53.9616 27.2762 53.9056 28.0462C54.5216 26.9262 55.1446 25.9252 55.7746 25.0432C56.4186 24.1612 57.0906 23.4612 57.7906 22.9432C58.9526 22.0612 60.0026 21.6202 60.9406 21.6202C61.4726 21.6202 61.8226 21.7392 61.9906 21.9772C62.1586 22.2152 62.2426 22.4602 62.2426 22.7122C62.2426 22.8802 62.2006 23.0342 62.1166 23.1742C62.0466 23.3142 61.8926 23.4612 61.6546 23.6152C61.4166 23.7692 61.0526 23.9722 60.5626 24.2242C59.9046 24.5602 59.2536 25.0012 58.6096 25.5472C57.9796 26.0932 57.3496 26.7932 56.7196 27.6472C56.0896 28.5012 55.4526 29.5512 54.8086 30.7972C54.1646 32.0432 53.4996 33.5272 52.8136 35.2492C52.6876 35.7252 52.5056 36.0402 52.2676 36.1942C52.0436 36.3482 51.7986 36.4252 51.5326 36.4252ZM63.8618 36.2152C62.9938 36.2152 62.2938 35.9142 61.7618 35.3122C61.2298 34.6962 60.9638 33.7092 60.9638 32.3512C60.9638 31.4832 61.0618 30.6152 61.2578 29.7472C61.4678 28.8652 61.7548 28.0322 62.1188 27.2482C62.4968 26.4502 62.9308 25.7432 63.4208 25.1272C63.9248 24.5112 64.4778 24.0282 65.0798 23.6782C65.6818 23.3142 66.3048 23.1322 66.9488 23.1322C68.0408 23.1322 68.8948 23.4262 69.5108 24.0142C70.1268 24.6022 70.4348 25.3512 70.4348 26.2612C70.4348 26.9612 70.2388 27.5982 69.8468 28.1722C69.4688 28.7322 68.9508 29.2362 68.2928 29.6842C67.6348 30.1322 66.8998 30.5382 66.0878 30.9022C65.2758 31.2662 64.4428 31.5952 63.5888 31.8892C63.5188 32.3932 63.4838 32.8412 63.4838 33.2332C63.4838 33.4712 63.6168 33.5902 63.8828 33.5902C64.5128 33.5902 65.1848 33.4922 65.8988 33.2962C66.6268 33.0862 67.3618 32.8202 68.1038 32.4982C68.8458 32.1622 69.5598 31.8192 70.2458 31.4692C70.9318 31.1052 71.5548 30.7622 72.1148 30.4402C72.6888 30.1042 73.1578 29.8382 73.5218 29.6422C73.8998 29.4322 74.1448 29.3272 74.2568 29.3272C74.5648 29.3272 74.7888 29.4182 74.9288 29.6002C75.0688 29.7822 75.1388 29.9782 75.1388 30.1882C75.1388 30.2862 74.9498 30.5032 74.5718 30.8392C74.2078 31.1752 73.7038 31.5742 73.0598 32.0362C72.4298 32.4842 71.7158 32.9532 70.9178 33.4432C70.1338 33.9192 69.3148 34.3742 68.4608 34.8082C67.6208 35.2282 66.8018 35.5642 66.0038 35.8162C65.2198 36.0822 64.5058 36.2152 63.8618 36.2152ZM63.9458 30.0202C64.5198 29.6842 65.0868 29.3342 65.6468 28.9702C66.2208 28.5922 66.6968 28.1722 67.0748 27.7102C67.4528 27.2342 67.6418 26.6812 67.6418 26.0512C67.6418 25.8692 67.5928 25.7502 67.4948 25.6942C67.3968 25.6242 67.2568 25.5892 67.0748 25.5892C66.5848 25.5892 66.1368 25.8062 65.7308 26.2402C65.3388 26.6742 64.9888 27.2342 64.6808 27.9202C64.3868 28.5922 64.1418 29.2922 63.9458 30.0202ZM75.8181 36.5722C75.2161 36.5722 74.7891 36.4882 74.5371 36.3202C74.2991 36.1522 74.1801 35.9072 74.1801 35.5852C74.1801 35.3052 74.2781 35.0672 74.4741 34.8712C74.6701 34.6612 75.1041 34.4512 75.7761 34.2412C76.5601 34.0032 77.3021 33.7302 78.0021 33.4222C78.7161 33.1002 79.2971 32.7502 79.7451 32.3722C80.2071 31.9942 80.4381 31.5952 80.4381 31.1752C80.4381 30.8952 80.3401 30.6922 80.1441 30.5662C79.9621 30.4402 79.7451 30.3772 79.4931 30.3772C79.2831 30.3772 78.9751 30.4122 78.5691 30.4822C78.1771 30.5382 77.7431 30.6152 77.2671 30.7132C76.7911 30.7972 76.3291 30.8742 75.8811 30.9442C75.4471 31.0002 75.0761 31.0282 74.7681 31.0282C74.0401 31.0282 73.5011 30.8672 73.1511 30.5452C72.8011 30.2092 72.6261 29.7822 72.6261 29.2642C72.6261 28.9842 72.7731 28.5992 73.0671 28.1092C73.3611 27.6192 73.7531 27.0802 74.2431 26.4922C74.7331 25.9042 75.2791 25.3162 75.8811 24.7282C76.4831 24.1402 77.0921 23.6012 77.7081 23.1112C78.3381 22.6072 78.9331 22.2082 79.4931 21.9142C80.0531 21.6062 80.5291 21.4522 80.9211 21.4522C81.3691 21.4522 81.7261 21.5922 81.9921 21.8722C82.2721 22.1522 82.4121 22.5302 82.4121 23.0062C82.4121 23.2302 82.3911 23.4752 82.3491 23.7412C82.3071 23.9932 82.2021 24.2242 82.0341 24.4342C81.8661 24.6302 81.6071 24.7702 81.2571 24.8542C80.9071 24.9382 80.4311 24.9242 79.8291 24.8122C79.3531 25.1622 78.8561 25.5472 78.3381 25.9672C77.8341 26.3732 77.3581 26.8002 76.9101 27.2482C76.4621 27.6822 76.0911 28.1092 75.7971 28.5292C76.3151 28.3612 76.9031 28.2282 77.5611 28.1302C78.2191 28.0182 78.8841 27.9622 79.5561 27.9622C80.3681 27.9622 81.0261 28.1092 81.5301 28.4032C82.0481 28.6832 82.4261 29.0612 82.6641 29.5372C82.9161 30.0132 83.0421 30.5382 83.0421 31.1122C83.0421 31.7562 82.8321 32.4002 82.4121 33.0442C81.9921 33.6882 81.4321 34.2762 80.7321 34.8082C80.0321 35.3402 79.2551 35.7672 78.4011 36.0892C77.5471 36.4112 76.6861 36.5722 75.8181 36.5722ZM88.5327 36.2152C87.6647 36.2152 86.9647 35.9142 86.4327 35.3122C85.9007 34.6962 85.6347 33.7092 85.6347 32.3512C85.6347 31.4832 85.7327 30.6152 85.9287 29.7472C86.1387 28.8652 86.4257 28.0322 86.7897 27.2482C87.1677 26.4502 87.6017 25.7432 88.0917 25.1272C88.5957 24.5112 89.1487 24.0282 89.7507 23.6782C90.3527 23.3142 90.9757 23.1322 91.6197 23.1322C92.7117 23.1322 93.5657 23.4262 94.1817 24.0142C94.7977 24.6022 95.1057 25.3512 95.1057 26.2612C95.1057 26.9612 94.9097 27.5982 94.5177 28.1722C94.1397 28.7322 93.6217 29.2362 92.9637 29.6842C92.3057 30.1322 91.5707 30.5382 90.7587 30.9022C89.9467 31.2662 89.1137 31.5952 88.2597 31.8892C88.1897 32.3932 88.1547 32.8412 88.1547 33.2332C88.1547 33.4712 88.2877 33.5902 88.5537 33.5902C89.1837 33.5902 89.8557 33.4922 90.5697 33.2962C91.2977 33.0862 92.0327 32.8202 92.7747 32.4982C93.5167 32.1622 94.2307 31.8192 94.9167 31.4692C95.6027 31.1052 96.2257 30.7622 96.7857 30.4402C97.3597 30.1042 97.8287 29.8382 98.1927 29.6422C98.5707 29.4322 98.8157 29.3272 98.9277 29.3272C99.2357 29.3272 99.4597 29.4182 99.5997 29.6002C99.7397 29.7822 99.8097 29.9782 99.8097 30.1882C99.8097 30.2862 99.6207 30.5032 99.2427 30.8392C98.8787 31.1752 98.3747 31.5742 97.7307 32.0362C97.1007 32.4842 96.3867 32.9532 95.5887 33.4432C94.8047 33.9192 93.9857 34.3742 93.1317 34.8082C92.2917 35.2282 91.4727 35.5642 90.6747 35.8162C89.8907 36.0822 89.1767 36.2152 88.5327 36.2152ZM88.6167 30.0202C89.1907 29.6842 89.7577 29.3342 90.3177 28.9702C90.8917 28.5922 91.3677 28.1722 91.7457 27.7102C92.1237 27.2342 92.3127 26.6812 92.3127 26.0512C92.3127 25.8692 92.2637 25.7502 92.1657 25.6942C92.0677 25.6242 91.9277 25.5892 91.7457 25.5892C91.2557 25.5892 90.8077 25.8062 90.4017 26.2402C90.0097 26.6742 89.6597 27.2342 89.3517 27.9202C89.0577 28.5922 88.8127 29.2922 88.6167 30.0202ZM100.371 35.5012C100.035 35.5012 99.6992 35.3892 99.3632 35.1652C99.0412 34.9272 98.7752 34.5912 98.5652 34.1572C98.3552 33.7092 98.2502 33.1702 98.2502 32.5402C98.2502 31.7002 98.3622 30.8042 98.5862 29.8522C98.8242 28.9002 99.1112 27.9482 99.4472 26.9962C99.7832 26.0442 100.112 25.1482 100.434 24.3082C100.588 23.9022 100.777 23.6292 101.001 23.4892C101.225 23.3352 101.519 23.2582 101.883 23.2582C102.709 23.2582 103.122 23.6712 103.122 24.4972C103.122 24.6372 103.059 24.9102 102.933 25.3162C102.807 25.7082 102.639 26.1912 102.429 26.7652C102.233 27.3392 102.023 27.9622 101.799 28.6342C101.589 29.2922 101.393 29.9642 101.211 30.6502C101.043 31.3222 100.91 31.9592 100.812 32.5612C101.134 32.0712 101.491 31.4622 101.883 30.7342C102.289 29.9922 102.716 29.2152 103.164 28.4032C103.626 27.5912 104.088 26.8352 104.55 26.1352C105.012 25.4212 105.467 24.8402 105.915 24.3922C106.363 23.9442 106.79 23.7202 107.196 23.7202C107.546 23.7202 107.875 23.7902 108.183 23.9302C108.505 24.0562 108.785 24.3082 109.023 24.6862C109.261 25.0502 109.443 25.5752 109.569 26.2612C109.709 26.9472 109.779 27.8502 109.779 28.9702C109.779 29.5302 109.828 30.0762 109.926 30.6082C110.038 31.1262 110.22 31.5602 110.472 31.9102C110.724 32.2462 111.081 32.4142 111.543 32.4142C112.341 32.4142 113.055 32.2672 113.685 31.9732C114.315 31.6792 114.868 31.3362 115.344 30.9442C115.82 30.5522 116.219 30.2092 116.541 29.9152C116.737 29.7192 116.905 29.5652 117.045 29.4532C117.199 29.3412 117.325 29.2852 117.423 29.2852C117.717 29.2852 117.927 29.3622 118.053 29.5162C118.193 29.6702 118.263 29.8802 118.263 30.1462C118.263 30.2862 118.144 30.5452 117.906 30.9232C117.668 31.3012 117.332 31.7352 116.898 32.2252C116.478 32.7012 115.995 33.1632 115.449 33.6112C114.903 34.0592 114.315 34.4302 113.685 34.7242C113.055 35.0182 112.411 35.1652 111.753 35.1652C110.647 35.1652 109.73 34.9692 109.002 34.5772C108.288 34.1712 107.756 33.4992 107.406 32.5612C107.056 31.6092 106.881 30.3142 106.881 28.6762C106.881 28.6342 106.881 28.5642 106.881 28.4662C106.881 28.0322 106.874 27.6472 106.86 27.3112C106.86 26.9752 106.839 26.7022 106.797 26.4922C106.559 26.9262 106.272 27.4442 105.936 28.0462C105.614 28.6482 105.264 29.2922 104.886 29.9782C104.508 30.6502 104.116 31.3152 103.71 31.9732C103.304 32.6172 102.898 33.2052 102.492 33.7372C102.1 34.2692 101.722 34.6962 101.358 35.0182C100.994 35.3402 100.665 35.5012 100.371 35.5012ZM120.133 36.0892C119.349 36.0892 118.67 35.9072 118.096 35.5432C117.522 35.1932 117.081 34.7382 116.773 34.1782C116.465 33.6042 116.311 33.0162 116.311 32.4142C116.311 31.4062 116.465 30.4752 116.773 29.6212C117.081 28.7532 117.487 27.9692 117.991 27.2692C118.495 26.5552 119.041 25.9252 119.629 25.3792C120.231 24.8332 120.812 24.3782 121.372 24.0142C121.946 23.6362 122.457 23.3562 122.905 23.1742C123.353 22.9782 123.682 22.8802 123.892 22.8802C124.27 22.8802 124.536 22.9642 124.69 23.1322C124.858 23.2862 124.942 23.5452 124.942 23.9092C124.942 24.1192 124.788 24.3712 124.48 24.6652C124.186 24.9592 123.794 25.2952 123.304 25.6732C122.828 26.0512 122.324 26.4782 121.792 26.9542C121.26 27.4302 120.749 27.9622 120.259 28.5502C119.783 29.1382 119.391 29.7822 119.083 30.4822C118.789 31.1822 118.642 31.9452 118.642 32.7712C118.642 33.0792 118.698 33.3172 118.81 33.4852C118.936 33.6532 119.139 33.7372 119.419 33.7372C120.217 33.7372 121.071 33.5972 121.981 33.3172C122.905 33.0232 123.822 32.6592 124.732 32.2252C125.656 31.7772 126.524 31.3152 127.336 30.8392C128.162 30.3632 128.869 29.9362 129.457 29.5582C129.695 29.3902 129.898 29.2572 130.066 29.1592C130.234 29.0612 130.353 29.0122 130.423 29.0122C130.843 29.0122 131.053 29.2292 131.053 29.6632C131.053 29.8872 130.885 30.1882 130.549 30.5662C130.157 31.0562 129.625 31.5602 128.953 32.0782C128.295 32.5962 127.56 33.0932 126.748 33.5692C125.95 34.0452 125.131 34.4722 124.291 34.8502C123.465 35.2282 122.688 35.5292 121.96 35.7532C121.232 35.9772 120.623 36.0892 120.133 36.0892ZM132.194 36.2152C131.326 36.2152 130.626 35.9142 130.094 35.3122C129.562 34.6962 129.296 33.7092 129.296 32.3512C129.296 31.4832 129.394 30.6152 129.59 29.7472C129.8 28.8652 130.087 28.0322 130.451 27.2482C130.829 26.4502 131.263 25.7432 131.753 25.1272C132.257 24.5112 132.81 24.0282 133.412 23.6782C134.014 23.3142 134.637 23.1322 135.281 23.1322C136.373 23.1322 137.227 23.4262 137.843 24.0142C138.459 24.6022 138.767 25.3512 138.767 26.2612C138.767 26.9612 138.571 27.5982 138.179 28.1722C137.801 28.7322 137.283 29.2362 136.625 29.6842C135.967 30.1322 135.232 30.5382 134.42 30.9022C133.608 31.2662 132.775 31.5952 131.921 31.8892C131.851 32.3932 131.816 32.8412 131.816 33.2332C131.816 33.4712 131.949 33.5902 132.215 33.5902C132.845 33.5902 133.517 33.4922 134.231 33.2962C134.959 33.0862 135.694 32.8202 136.436 32.4982C137.178 32.1622 137.892 31.8192 138.578 31.4692C139.264 31.1052 139.887 30.7622 140.447 30.4402C141.021 30.1042 141.49 29.8382 141.854 29.6422C142.232 29.4322 142.477 29.3272 142.589 29.3272C142.897 29.3272 143.121 29.4182 143.261 29.6002C143.401 29.7822 143.471 29.9782 143.471 30.1882C143.471 30.2862 143.282 30.5032 142.904 30.8392C142.54 31.1752 142.036 31.5742 141.392 32.0362C140.762 32.4842 140.048 32.9532 139.25 33.4432C138.466 33.9192 137.647 34.3742 136.793 34.8082C135.953 35.2282 135.134 35.5642 134.336 35.8162C133.552 36.0822 132.838 36.2152 132.194 36.2152ZM132.278 30.0202C132.852 29.6842 133.419 29.3342 133.979 28.9702C134.553 28.5922 135.029 28.1722 135.407 27.7102C135.785 27.2342 135.974 26.6812 135.974 26.0512C135.974 25.8692 135.925 25.7502 135.827 25.6942C135.729 25.6242 135.589 25.5892 135.407 25.5892C134.917 25.5892 134.469 25.8062 134.063 26.2402C133.671 26.6742 133.321 27.2342 133.013 27.9202C132.719 28.5922 132.474 29.2922 132.278 30.0202Z" fill="#0E0E0E"/>
</g>
<defs>
<filter id="filter0_d_426_193" x="0.00976562" y="0.910889" width="186.848" height="68.6128" filterUnits="userSpaceOnUse" color-interpolation-filters="sRGB">
<feFlood flood-opacity="0" result="BackgroundImageFix"/>
<feColorMatrix in="SourceAlpha" type="matrix" values="0 0 0 0 0 0 0 0 0 0 0 0 0 0 0 0 0 0 127 0" result="hardAlpha"/>
<feOffset dy="4"/>
<feGaussianBlur stdDeviation="2"/>
<feComposite in2="hardAlpha" operator="out"/>
<feColorMatrix type="matrix" values="0 0 0 0 0 0 0 0 0 0 0 0 0 0 0 0 0 0 0.25 0"/>
<feBlend mode="normal" in2="BackgroundImageFix" result="effect1_dropShadow_426_193"/>
<feBlend mode="normal" in="SourceGraphic" in2="effect1_dropShadow_426_193" result="shape"/>
</filter>
<filter id="filter1_d_426_193" x="31.1914" y="18.5542" width="116.279" height="26.0181" filterUnits="userSpaceOnUse" color-interpolation-filters="sRGB">
<feFlood flood-opacity="0" result="BackgroundImageFix"/>
<feColorMatrix in="SourceAlpha" type="matrix" values="0 0 0 0 0 0 0 0 0 0 0 0 0 0 0 0 0 0 127 0" result="hardAlpha"/>
<feOffset dy="4"/>
<feGaussianBlur stdDeviation="2"/>
<feComposite in2="hardAlpha" operator="out"/>
<feColorMatrix type="matrix" values="0 0 0 0 0 0 0 0 0 0 0 0 0 0 0 0 0 0 0.25 0"/>
<feBlend mode="normal" in2="BackgroundImageFix" result="effect1_dropShadow_426_193"/>
<feBlend mode="normal" in="SourceGraphic" in2="effect1_dropShadow_426_193" result="shape"/>
</filter>
</defs>
</svg>
