<svg width="32" height="33" viewBox="0 0 32 33" fill="none" xmlns="http://www.w3.org/2000/svg">
<path d="M29.1152 1.48999H3.11523C2.01023 1.48999 1.11523 2.38499 1.11523 3.48999V29.49C1.11523 30.595 2.01023 31.49 3.11523 31.49H29.1152C30.2202 31.49 31.1152 30.595 31.1152 29.49V3.48999C31.1152 2.38499 30.2202 1.48999 29.1152 1.48999Z" fill="#8F730E"/>
<path d="M27.5402 1.48999H2.99024C2.49407 1.49359 2.01925 1.69229 1.66839 2.04314C1.31754 2.394 1.11884 2.86882 1.11524 3.36499V27.84C1.11274 28.875 1.95024 29.7125 2.98524 29.715H27.5152C28.5502 29.7175 29.3877 28.88 29.3902 27.845V3.36499C29.4127 2.35249 28.6077 1.51249 27.5952 1.48999H27.5402Z" fill="#0E0E0E"/>
<path opacity="0.75" d="M10.0401 3.71508C10.0401 3.14008 9.64014 2.96508 7.34014 3.04008C5.41514 3.11508 4.46514 3.34008 3.89014 4.04008C3.31514 4.74008 3.16514 6.16508 3.14014 7.86508C3.14014 9.06508 3.14014 10.1901 3.76514 10.1901C4.61514 10.1901 4.61514 8.21508 5.31514 7.11508C6.66514 4.94008 10.0401 4.46508 10.0401 3.71508Z" fill="#FFBD52"/>
<path d="M10.925 16.0524V9.62741C10.9226 9.5269 10.9472 9.4276 10.9961 9.33975C11.045 9.25191 11.1164 9.17872 11.2031 9.12774C11.2898 9.07677 11.3884 9.04986 11.489 9.0498C11.5895 9.04975 11.6882 9.07654 11.775 9.12741L22.65 15.5524C22.9325 15.7324 23.0175 16.1074 22.8375 16.3899C22.79 16.4649 22.725 16.5274 22.65 16.5774L11.775 22.9774C11.505 23.1349 11.16 23.0449 11.0025 22.7749C10.95 22.6849 10.9225 22.5824 10.925 22.4774V16.0524Z" fill="#FAFAFA"/>
</svg>
