<svg width="32" height="32" viewBox="0 0 32 32" fill="none" xmlns="http://www.w3.org/2000/svg">
<path d="M29.1152 0.98999H3.11523C2.01023 0.98999 1.11523 1.88499 1.11523 2.98999V28.99C1.11523 30.095 2.01023 30.99 3.11523 30.99H29.1152C30.2202 30.99 31.1152 30.095 31.1152 28.99V2.98999C31.1152 1.88499 30.2202 0.98999 29.1152 0.98999Z" fill="#F77E00"/>
<path opacity="0.75" d="M10.0401 3.21496C10.0401 2.63996 9.64014 2.46496 7.34014 2.53996C5.41514 2.61496 4.46514 2.83996 3.89014 3.53996C3.31514 4.23996 3.16514 5.66496 3.14014 7.36496C3.14014 8.56496 3.14014 9.68996 3.76514 9.68996C4.61514 9.68996 4.61514 7.71496 5.31514 6.61496C6.66514 4.43996 10.0401 3.96496 10.0401 3.21496Z" fill="#FFBD52"/>
<path d="M10.925 15.5525V9.12753C10.9226 9.02703 10.9472 8.92772 10.9961 8.83987C11.045 8.75203 11.1164 8.67884 11.2031 8.62786C11.2898 8.57689 11.3884 8.54998 11.489 8.54993C11.5895 8.54987 11.6882 8.57666 11.775 8.62753L22.65 15.0525C22.9325 15.2325 23.0175 15.6075 22.8375 15.89C22.79 15.965 22.725 16.0275 22.65 16.0775L11.775 22.4775C11.505 22.635 11.16 22.545 11.0025 22.275C10.95 22.185 10.9225 22.0825 10.925 21.9775V15.5525Z" fill="#FAFAFA"/>
</svg>
