<svg width="520" height="272" viewBox="0 0 520 272" fill="none" xmlns="http://www.w3.org/2000/svg">
<g filter="url(#filter0_d_426_44)">
<path d="M256 4.41125L507.147 258.161H4.85263L256 4.41125Z" fill="url(#paint0_linear_426_44)"/>
<path d="M271.815 5.05936C276.768 9.7474 282.779 16.3691 287.224 21.5232C288.618 23.1377 287.464 22.7636 288.409 23.8953C290.258 26.1077 292.322 27.8306 294.119 30.0473C294.712 30.7836 293.262 30.5706 293.9 31.328C297.398 35.4724 301.133 38.9727 304.827 43.0223C323.028 62.9655 341.36 82.1328 360.205 101.903C366.418 108.423 373.565 116.749 380.303 123.166C381.09 123.915 381.131 122.963 381.317 123.071C384.206 124.769 382.456 124.986 383.805 126.627C389.162 133.138 395.664 139.838 401.509 145.421C403.997 147.795 402.536 144.393 404.424 147.393C404.557 147.6 403.437 147.481 404.044 148.207C405.42 149.853 408.352 152.658 409.473 153.88C411.631 156.237 412.006 156.608 414.117 158.769C416.998 161.727 420.193 165.474 423.41 168.523C424.098 169.172 423.728 167.778 424.87 168.769C426.013 169.762 428.765 172.655 429.59 173.733C430.415 174.811 429.619 174.792 429.695 175.052C430.308 177.204 434.601 179.454 435.041 179.854C443.071 187.151 448.988 194.37 456.12 201.621C461.535 207.126 467.508 212.83 472.63 218.099C478.729 224.378 483.677 229.918 489.681 235.941C490.313 236.577 490.115 235.294 490.888 236.071C497.294 242.503 503.589 248.975 509.736 255.6L515.854 261.854L507.147 261.803C504.593 261.721 502.038 261.621 499.481 261.503C498.318 261.449 499.817 260.817 498.655 260.725C491.542 260.172 480.288 258.938 476.063 261.624C471.245 261.498 465.396 261.365 461.086 260.816C458.306 260.463 461.006 259.809 457.592 260.083C456.822 260.144 457.823 260.725 456.668 260.772C451.807 260.967 446.495 260.763 441.686 261.04C440.708 261.097 440.975 261.606 440.698 261.696C438.368 262.424 434.49 261.187 433.645 261.097C427.207 260.418 422.506 260.664 416.509 260.628C415.118 260.619 416.763 261.286 415.424 261.301C408.478 261.367 401.284 261.277 394.484 260.967C392.971 260.896 394.362 260.355 393.639 260.293C390.452 260.032 389.745 261.057 386.688 260.824C386.044 260.777 386.407 260.315 386.289 260.263C384.45 259.461 382.851 260.586 382.378 260.608C376.392 260.924 372.566 259.749 366.783 259.902C366.091 259.92 367.651 260.496 365.706 260.512C352.751 260.627 339.049 260.417 326.225 259.953C324.231 259.882 325.654 259.482 325.529 259.431C323.484 258.651 322.161 259.689 321.511 259.726C316.382 259.991 311.591 259.126 308.106 260.328C286.384 259.855 264.763 260.411 243.221 259.372C242.947 259.36 243.437 258.91 242.891 258.888C236.311 258.628 237.575 259.33 233.221 260.16C232.125 260.366 228.789 259.343 228.493 259.27C227.418 258.996 228.533 258.343 228.173 258.29C225.193 257.876 225.679 260.033 221.659 260.018C221.533 260.015 222.061 259.622 221.724 259.582C220.675 259.457 219.636 259.61 218.61 259.473C216.262 259.154 215.426 258.129 211.84 258.722C211.387 258.798 212.08 259.993 208.49 259.925C207.06 259.897 200.726 259.897 198.951 259.817C197.178 259.736 198.395 259.365 198.269 259.348C193.491 258.844 195.303 258.643 192.909 257.914C190.516 257.193 191.18 258.916 190.204 259.106C189.227 259.295 185.725 258.887 184.864 258.748C184.004 258.608 185.076 258.377 184.312 258.298C179.239 257.786 182.085 259.138 180.414 259.403C176.474 260.024 173.405 258.773 169.798 258.653C168.822 258.619 169.618 258.899 168.749 258.924C165.307 259.017 163.237 258.638 159.321 258.977C158.68 259.034 155.514 259.744 153.465 259.213C153.175 259.137 154 258.842 152.532 258.774C150.341 258.672 146.392 258.605 144.037 258.7C142.297 258.769 144.291 259.25 142.102 259.098C141.129 259.03 142.932 258.754 141.104 258.651C139.286 258.548 134.637 258.557 132.868 258.565C131.102 258.573 132.069 258.928 131.926 258.952C131.063 259.088 127.674 259.25 127.375 259.249C112.269 259.25 98.3403 258.665 83.6336 258.829C82.4794 258.841 83.2483 259.178 83.0721 259.183C79.1211 259.315 82.2362 258.43 79.4762 258.132C79.8751 258.808 78.2457 258.684 75.4626 258.754C74.1214 258.788 74.8519 259.048 74.7295 259.074C72.7406 259.462 71.3556 258.953 70.9989 258.85C69.6818 258.469 68.2483 258.914 67.3519 258.661C66.4561 258.411 68.5178 258.042 65.8486 258.047C65.1001 258.281 67.0817 258.896 65.0552 258.992C57.4089 259.346 43.136 258.842 36.988 258.792C30.8524 258.736 28.8705 258.772 25.2953 258.69C18.8372 258.544 21.2039 258.955 17.1939 259.129C13.1721 259.301 15.1272 258.325 14.5491 258.113C13.9816 257.902 13.362 258.119 12.656 258.004C11.9524 257.889 13.4757 257.745 11.8208 257.703C10.165 257.664 5.63797 258.037 5.0511 258.25C4.9727 258.279 4.90724 258.307 4.85263 258.336L4.43227 258.334L4.72828 258.038C4.9958 257.163 3.62669 257.962 6.63218 255.162C6.81674 254.99 6.41736 255.745 7.11505 255.078C12.6496 249.774 18.2636 244.129 23.764 238.804C24.5204 238.072 24.0415 238.922 24.4835 238.498C29.0859 234.077 27.1744 235.394 29.3023 232.58C29.196 233.58 30.8294 232.476 34.2324 229.032C36.2789 226.962 35.7366 227.13 36.928 225.661C37.2856 225.22 38.8632 223.884 39.0377 223.532C39.6172 222.374 37.9298 223.433 41.5772 220.019C41.7375 219.87 41.4011 220.518 41.9437 219.99C45.4508 216.579 45.5711 215.874 49.2678 212.094C52.1659 209.131 57.5352 204.073 60.887 200.751C61.2499 201.25 64.284 197.981 65.2681 196.411C67.4383 194.25 69.7538 191.887 71.8787 189.825C72.6097 189.115 72.2558 189.707 72.3591 189.628C73.9447 188.426 74.6106 187.212 75.0664 186.733C80.0145 181.549 84.3197 177.597 88.9518 172.561C89.1159 172.381 89.138 171.85 90.6132 170.738C90.709 170.667 89.2338 172.384 91.5089 170.11C93.7859 167.837 98.1861 163.66 101.22 160.379C101.954 159.584 103.692 157.458 105.386 156.047C105.612 155.86 105.453 156.152 105.787 155.889C106.864 155.036 107.158 154.279 108.482 153.334C109.806 152.389 112.288 150.153 115.324 146.821C115.421 146.715 115.997 145.785 116.997 144.782C118.593 143.179 120.886 140.933 122.546 139.253C123.34 138.449 122.729 138.863 122.866 138.721C128.161 133.268 132.059 129.515 137.823 123.762C138.878 122.707 141.779 119.542 143.906 117.582C146.239 115.426 144.365 118.16 149.38 112.861C151.398 110.72 153.53 107.59 157.498 104.079C164.65 96.7318 171.424 90.0961 178.58 82.7127C178.902 82.3806 179.828 81.2406 180.595 80.4705C181.734 79.3269 182.403 78.7432 183.217 77.9272C186.626 74.5088 189.699 71.3333 192.98 68.032C194.226 66.7783 193.831 67.257 195.316 65.7605C196.799 64.2644 197.738 63.2175 199.77 61.2121C201.305 59.6981 202.913 58.257 204.932 56.228C204.921 56.0636 206.304 54.6673 208.74 52.1629C209.208 51.6816 208.673 52.1656 208.893 51.9366C209.789 51.0044 210.654 50.177 211.503 49.2904C211.71 49.0748 211.694 49.0393 211.862 48.8618C213.288 47.3525 215.753 44.9814 216.175 44.5722C217.794 43.0071 218.505 42.2306 219.733 41.0169C220.958 39.8042 219.16 41.6513 220.584 40.227C223.534 37.2738 227.299 33.4549 230.28 30.4406C231.469 29.2377 230.638 30.0391 230.808 29.8664C233.264 27.3769 235.767 24.878 237.103 23.4711C238.882 21.8204 238.579 21.9653 242.113 18.4289C242.392 18.1503 242.769 17.8186 241.711 18.899C240.654 19.9798 239.034 21.6022 237.569 23.1033C237.221 23.4579 235.26 25.521 234.991 25.8011C232.88 27.9901 232.512 28.2323 232.395 28.3428C231.072 29.601 228.676 32.122 228.039 32.7795C225.116 35.7808 222.607 38.3045 220.163 40.8159C218.565 42.4586 218.479 42.6882 217.217 43.9713C213.026 48.2392 211.439 49.607 207.596 53.7334C206.772 54.6187 207.715 53.8618 204.604 56.8764C204.409 57.0667 202.079 59.2841 200.828 60.6599C200.671 60.8328 200.709 60.8601 200.497 61.0827C199.072 62.5741 198.083 63.5299 196.524 65.148C194.966 66.7661 193.098 68.7182 191.292 70.5387C190.203 71.6361 188.742 72.9797 188.205 73.4893C186.687 74.9269 185.207 76.614 184.233 77.4712C183.249 78.3337 184.938 76.4148 182.488 78.8058C182.512 79.0077 182.424 79.3304 182.396 79.5892C177.146 84.9459 171.94 90.1769 166.677 95.557C166.025 96.2243 166.767 95.6161 166.07 96.3339C163.132 99.363 160.498 101.942 157.459 105.092C155.107 107.53 152.601 110.275 150.15 112.833C148.451 114.196 144.836 118.013 142.148 120.725C141.206 121.675 141.215 121.557 140.531 122.219C137.953 124.716 139.312 123.696 138.653 124.427C135.828 127.57 135.152 127.409 131.673 130.967C131.487 131.155 129.467 133.689 129.173 134.023C127.298 136.135 128.763 134.274 127.51 135.517C125.222 137.786 123.593 139.324 121.02 142.098C120.269 142.906 118.581 144.956 116.957 146.361C116.744 146.546 116.766 146.349 116.602 146.506C113.643 149.35 113.843 149.701 112.3 151.473C110.758 153.246 108.029 155.641 107.454 156.11C105.955 157.339 108.425 154.991 108.483 154.902C109.169 153.855 107.348 155.77 105.919 157.195C105.427 157.119 103.462 159.146 104.438 158.673C104.548 158.618 105.622 157.471 105.919 157.195C104.958 158.737 102.832 160.998 100.159 163.173C98.9061 164.19 99.8185 162.96 96.4556 166.487C94.9297 168.088 95.7404 167.688 94.4319 169.138C91.4449 172.455 87.1858 176.39 83.9977 179.702C82.8415 180.905 84.1039 179.868 83.3186 180.695C81.2359 182.89 79.273 184.702 77.1956 186.921C77.0077 187.122 77.6135 186.775 76.9545 187.452C71.962 192.59 67.5099 196.959 62.2742 202.3C59.7444 204.881 55.3089 209.581 52.6745 212.24C48.1107 216.852 42.2912 222.322 38.4674 226.336C35.9742 228.954 36.6955 228.552 35.7262 229.772C33.8597 232.13 29.7619 235.519 29.1983 235.963C29.1808 235.977 31.3177 233.715 30.0682 234.813C29.2092 235.321 29.2218 235.937 29.1983 235.963C28.8306 236.258 24.4413 240.656 23.6113 241.571C23.1604 242.068 23.5897 241.965 23.3517 242.221C17.8512 248.136 12.251 253.971 6.45766 259.75L4.85263 255.903C5.09199 255.905 5.33132 255.906 5.57078 255.908C5.71909 255.912 5.49568 256.196 5.84454 256.203C10.7235 256.303 13.8474 255.937 17.8713 255.697C21.8946 255.458 25.0852 255.502 27.4668 256.003C30.5024 255.92 34.8576 256.125 37.3638 256.256C39.8699 256.386 40.2197 255.781 40.4401 255.768C47.3179 255.341 51.2938 255.661 58.4293 255.676C61.8216 255.684 68.5509 255.551 72.2239 255.456C75.1267 255.379 76.8756 255.522 79.5504 255.406C79.9123 255.391 79.5467 255.097 79.6571 255.085C82.6423 254.709 81.2076 255.445 81.824 255.571C84.0585 256.029 85.439 256.279 89.2618 256.036C90.1437 255.982 92.712 254.897 94.3194 254.82C96.4092 254.724 95.6205 255.117 97.8087 255.008C97.9959 254.999 97.957 254.76 99.3074 254.76C105.576 254.758 112.411 254.852 118.925 254.781C119.815 254.772 118.674 254.382 119.96 254.362C125.993 254.266 132.605 254.225 138.483 254.373C139.929 254.411 139.022 254.709 139.336 254.793C141.264 255.304 143.999 254.524 144.45 254.504C155.211 254.048 163.447 254.702 174.415 254.278C175.012 254.256 179.607 253.338 181.657 254.078C181.798 254.127 183.826 254.892 185.62 254.346C185.732 254.312 184.467 253.919 186.673 253.943C188.879 253.968 192.429 253.666 195.461 254.092C196.421 254.226 198.69 255.011 201.554 254.353C201.74 254.311 206.161 252.818 207.739 253.812C207.995 253.976 207.727 255.048 211.145 254.477C211.797 254.365 210.612 254.134 212.332 253.971C214.968 253.719 218.46 253.985 221.7 253.472C222.266 253.383 224.671 252.614 226.6 253.165C226.902 253.251 226.328 253.624 227.347 253.658C232.193 253.82 237.266 253.531 242.186 253.754C243.928 253.834 243.037 254.453 244.854 254.607C246.671 254.76 250.331 254.901 252.231 254.605C254.133 254.309 252.056 253.33 254.904 253.228C267.286 252.776 279.553 253.268 291.917 253.271C293.751 253.27 292.231 252.903 294.933 252.874C304.897 252.77 322.099 252.244 330.744 253.028C337.671 253.663 328.954 254.241 334.247 254.489C336.802 254.611 339.565 253.276 340.182 253.229C346.206 252.761 350.392 253.32 355.814 253.1C356.934 253.054 355.836 252.514 356.788 252.481C360.043 252.359 363.464 252.578 366.574 252.508C367.969 252.476 367.712 252.053 368.996 252.075C372.068 252.123 374.785 252.279 377.78 252.66C378.053 252.696 376.212 253.244 378.485 253.249C382.164 253.254 386.73 253.629 390.962 253.183C392.218 253.049 392.267 252.042 394.966 252.717C395.532 252.858 394.81 254.077 397.954 253.007C398.483 252.832 403.765 251.363 406.357 252.263C407.041 252.5 408.786 253.497 410.297 253.33C410.501 253.303 409.681 252.756 410.932 252.693C415.342 252.48 419.964 252.506 424.495 252.296C425.705 252.238 423.903 251.67 425.706 251.601C430.665 251.411 436.855 251.507 441.704 251.654C443.492 251.709 442.256 252.213 442.387 252.266C444.478 253.126 445.715 251.935 446.409 251.859C450.727 251.41 454.015 251.943 457.995 251.764C459.094 251.715 458.315 251.147 458.534 251.094C460.801 250.574 459.112 251.62 460.547 251.723C464.568 252.014 469.051 251.935 473.117 251.829C474.611 251.789 472.932 251.125 474.272 251.096C482.206 250.911 490.453 250.901 498.196 251.223C499.654 251.285 498.737 251.83 499.041 251.951C501.135 252.797 504.204 251.6 504.91 251.48C505.775 251.335 506.498 251.263 507.147 251.233L502.223 263.035C500.926 261.841 500.228 260.81 498.712 259.395C488.568 249.944 476.661 237.664 467.54 228.294C455.646 216.091 446.68 206.361 435.064 194.997C434.326 194.274 434.493 195.574 433.849 194.959C425.559 186.992 417.762 178.788 409.425 170.836C408.741 170.183 409.147 171.698 408.03 170.669C405.736 168.562 402.968 165.756 400.917 163.36C399.915 162.192 401.862 163.161 400.845 161.995C398.478 159.278 395.787 156.517 393.076 154.003C391.921 152.935 393.015 155.188 391.559 153.755C381.627 144.002 371.812 134.484 362.631 123.781C362.001 123.048 362.648 121.217 360.958 120.006C360.502 120.24 360.1 120.649 359.682 120.968C345.113 106.88 331.334 92.3006 317.008 77.892C316.404 77.2849 316.754 79.0215 315.579 77.8504C308.782 71.0718 301.967 64.7021 295.718 57.0713C295.097 56.3151 296.716 55.4164 294.492 53.5777C294.099 53.2545 290.868 50.368 289.8 49.8527C289.65 49.7869 289.615 50.9319 288.61 49.9662C282.78 44.344 276.898 38.2261 271.542 32.1541C270.679 31.1729 272.311 31.5129 271.702 30.8081C267.382 25.8102 261.81 21.2383 257.949 16.1974C255.37 12.8191 257.614 12.7936 257.158 10.0933C257.093 9.71165 255.277 7.83598 255.839 7.09054C257.245 5.21063 259.94 4.32294 261.334 2.21334C261.567 1.86343 259.916 0.535762 260.243 0.212248C260.243 0.212179 260.243 0.21211 260.243 0.21204C260.339 0.116871 260.607 0.108858 261.145 0.239034C261.308 0.281544 263.385 1.79231 264.131 1.93216C264.649 2.03101 264.768 0.811109 265.661 1.17458C266.554 1.53865 266.677 2.78809 268.025 3.52256C269.376 4.25314 269.68 3.04306 271.815 5.05936ZM48.6482 256.852C50.9688 257.142 51.3113 256.05 48.8013 256.323C48.6798 256.337 48.5285 256.838 48.6482 256.852ZM171.794 89.9739C169.562 92.0333 168.26 93.6653 169.841 92.2188C171.419 90.7695 172.473 89.345 171.794 89.9739ZM193.806 67.4976C191.255 69.9613 191.115 70.6087 193.725 67.8482C193.877 67.6878 193.955 67.3534 193.806 67.4976ZM264.803 17.1437C264.811 17.0906 263.518 15.7302 263.456 15.7285C262.016 15.7475 264.605 18.4649 264.803 17.1437ZM215.684 45.2284C214.884 45.9945 212.67 48.2866 213.664 47.3356C214.463 46.5689 216.678 44.2729 215.684 45.2284ZM169.7 257.963C169.737 257.984 171.082 258.003 171.055 257.884C170.964 257.5 169.092 257.61 169.7 257.963ZM252.969 7.47964C247.465 13.0614 244.08 16.3985 250.102 10.3473C251.191 9.25041 247.761 12.7185 249.149 11.3239C251.685 8.76793 253.363 7.06516 255.953 4.45912C256.42 3.98555 253.282 7.16007 252.959 7.48955C252.962 7.48623 252.966 7.48293 252.969 7.47964ZM49.9845 258.154C50.0309 258.169 51.8933 258.183 51.938 258.168C52.9465 257.82 49.1947 257.796 49.9845 258.154ZM248.204 258.938C248.307 258.984 252.629 259.033 252.77 258.99C255.024 258.141 246.286 258.052 248.204 258.938ZM60.9508 200.71C62.2132 199.1 63.9111 197.36 65.2614 196.417C63.827 197.839 62.3925 199.28 60.9508 200.71Z" fill="#FFAE00"/>
</g>
<defs>
<filter id="filter0_d_426_44" x="0.432373" y="0.140869" width="519.421" height="270.894" filterUnits="userSpaceOnUse" color-interpolation-filters="sRGB">
<feFlood flood-opacity="0" result="BackgroundImageFix"/>
<feColorMatrix in="SourceAlpha" type="matrix" values="0 0 0 0 0 0 0 0 0 0 0 0 0 0 0 0 0 0 127 0" result="hardAlpha"/>
<feOffset dy="4"/>
<feGaussianBlur stdDeviation="2"/>
<feComposite in2="hardAlpha" operator="out"/>
<feColorMatrix type="matrix" values="0 0 0 0 0 0 0 0 0 0 0 0 0 0 0 0 0 0 0.25 0"/>
<feBlend mode="normal" in2="BackgroundImageFix" result="effect1_dropShadow_426_44"/>
<feBlend mode="normal" in="SourceGraphic" in2="effect1_dropShadow_426_44" result="shape"/>
</filter>
<linearGradient id="paint0_linear_426_44" x1="-34" y1="174.909" x2="546" y2="172.247" gradientUnits="userSpaceOnUse">
<stop stop-color="#F5C518"/>
<stop offset="1" stop-color="#8F730E"/>
</linearGradient>
</defs>
</svg>
