<svg width="40" height="41" viewBox="0 0 40 41" fill="none" xmlns="http://www.w3.org/2000/svg">
<g clip-path="url(#clip0_432_365)">
<path d="M36.6852 5.94824H26.9835C25.3608 5.9481 23.7863 6.49994 22.5188 7.51308C21.2512 8.52622 20.366 9.9404 20.0085 11.5232C19.6507 9.94043 18.7651 8.52642 17.4972 7.51357C16.2293 6.50073 14.6546 5.9493 13.0319 5.94991H3.33354C2.89566 5.94969 2.46202 6.03575 2.05741 6.20317C1.6528 6.37058 1.28514 6.61608 0.975435 6.92563C0.66573 7.23518 0.420049 7.60272 0.252429 8.00725C0.0848095 8.41177 -0.0014649 8.84536 -0.00146484 9.28324V26.3566C-0.00146484 27.2406 0.349725 28.0885 0.974846 28.7136C1.59997 29.3387 2.44781 29.6899 3.33187 29.6899H9.56187C16.6569 29.6899 18.7785 31.3982 19.7919 34.9132C19.8019 34.9546 19.826 34.9912 19.8601 35.0168C19.8941 35.0423 19.936 35.0552 19.9785 35.0532H20.0185C20.0611 35.0552 20.103 35.0423 20.137 35.0168C20.1711 34.9912 20.1952 34.9546 20.2052 34.9132C21.2252 31.3982 23.3469 29.6916 30.4352 29.6916H36.6635C37.1014 29.6918 37.535 29.6057 37.9397 29.4383C38.3443 29.2709 38.7119 29.0254 39.0216 28.7159C39.3313 28.4063 39.577 28.0388 39.7446 27.6342C39.9123 27.2297 39.9985 26.7961 39.9985 26.3582V9.28324C39.9986 8.40235 39.6499 7.55727 39.0287 6.93268C38.4076 6.30808 37.5644 5.95475 36.6835 5.94991L36.6852 5.94824ZM16.8052 24.3749C16.8052 24.4064 16.799 24.4376 16.7869 24.4668C16.7749 24.4959 16.7572 24.5223 16.7349 24.5446C16.7126 24.5669 16.6862 24.5846 16.657 24.5966C16.6279 24.6087 16.5967 24.6149 16.5652 24.6149H5.42854C5.36488 24.6149 5.30384 24.5896 5.25883 24.5446C5.21382 24.4996 5.18854 24.4386 5.18854 24.3749V22.7866C5.18854 22.7229 5.21382 22.6619 5.25883 22.6169C5.30384 22.5719 5.36488 22.5466 5.42854 22.5466H16.5669C16.6305 22.5466 16.6916 22.5719 16.7366 22.6169C16.7816 22.6619 16.8069 22.7229 16.8069 22.7866L16.8052 24.3749ZM16.8052 20.1466C16.8052 20.1781 16.799 20.2093 16.7869 20.2384C16.7749 20.2675 16.7572 20.294 16.7349 20.3163C16.7126 20.3386 16.6862 20.3562 16.657 20.3683C16.6279 20.3804 16.5967 20.3866 16.5652 20.3866H5.42854C5.36488 20.3866 5.30384 20.3613 5.25883 20.3163C5.21382 20.2713 5.18854 20.2102 5.18854 20.1466V18.5599C5.18854 18.4963 5.21382 18.4352 5.25883 18.3902C5.30384 18.3452 5.36488 18.3199 5.42854 18.3199H16.5669C16.6305 18.3199 16.6916 18.3452 16.7366 18.3902C16.7816 18.4352 16.8069 18.4963 16.8069 18.5599L16.8052 20.1466ZM16.8052 15.9182C16.8052 15.9498 16.799 15.981 16.7869 16.0101C16.7749 16.0392 16.7572 16.0657 16.7349 16.0879C16.7126 16.1102 16.6862 16.1279 16.657 16.14C16.6279 16.152 16.5967 16.1582 16.5652 16.1582H5.42854C5.36488 16.1582 5.30384 16.133 5.25883 16.0879C5.21382 16.0429 5.18854 15.9819 5.18854 15.9182V14.3332C5.18854 14.2696 5.21382 14.2085 5.25883 14.1635C5.30384 14.1185 5.36488 14.0932 5.42854 14.0932H16.5669C16.6305 14.0932 16.6916 14.1185 16.7366 14.1635C16.7816 14.2085 16.8069 14.2696 16.8069 14.3332L16.8052 15.9182ZM34.8119 24.3682C34.8119 24.4319 34.7866 24.4929 34.7416 24.5379C34.6966 24.583 34.6355 24.6082 34.5719 24.6082H23.4352C23.3716 24.6082 23.3105 24.583 23.2655 24.5379C23.2205 24.4929 23.1952 24.4319 23.1952 24.3682V22.7799C23.1952 22.7484 23.2014 22.7172 23.2135 22.6881C23.2255 22.6589 23.2432 22.6325 23.2655 22.6102C23.2878 22.5879 23.3142 22.5702 23.3434 22.5582C23.3725 22.5461 23.4037 22.5399 23.4352 22.5399H34.5719C34.6034 22.5399 34.6346 22.5461 34.6637 22.5582C34.6928 22.5702 34.7193 22.5879 34.7416 22.6102C34.7639 22.6325 34.7815 22.6589 34.7936 22.6881C34.8057 22.7172 34.8119 22.7484 34.8119 22.7799V24.3682ZM34.8119 20.1399C34.8119 20.2036 34.7866 20.2646 34.7416 20.3096C34.6966 20.3546 34.6355 20.3799 34.5719 20.3799H23.4352C23.3716 20.3799 23.3105 20.3546 23.2655 20.3096C23.2205 20.2646 23.1952 20.2036 23.1952 20.1399V18.5532C23.1952 18.4896 23.2205 18.4285 23.2655 18.3835C23.3105 18.3385 23.3716 18.3132 23.4352 18.3132H34.5719C34.6355 18.3132 34.6966 18.3385 34.7416 18.3835C34.7866 18.4285 34.8119 18.4896 34.8119 18.5532V20.1399ZM34.8119 15.9116C34.8119 15.9752 34.7866 16.0363 34.7416 16.0813C34.6966 16.1263 34.6355 16.1516 34.5719 16.1516H23.4352C23.3716 16.1516 23.3105 16.1263 23.2655 16.0813C23.2205 16.0363 23.1952 15.9752 23.1952 15.9116V14.3332C23.1952 14.2696 23.2205 14.2085 23.2655 14.1635C23.3105 14.1185 23.3716 14.0932 23.4352 14.0932H34.5719C34.6355 14.0932 34.6966 14.1185 34.7416 14.1635C34.7866 14.2085 34.8119 14.2696 34.8119 14.3332V15.9199V15.9116Z" fill="#F5C518"/>
</g>
<defs>
<clipPath id="clip0_432_365">
<rect width="40" height="40" fill="white" transform="translate(0 0.5)"/>
</clipPath>
</defs>
</svg>
