<svg width="53" height="39" viewBox="0 0 53 39" fill="none" xmlns="http://www.w3.org/2000/svg">
<path d="M0 16.7034V36.9861C0 37.6453 0.592937 38.1792 1.325 38.1792H7.95V14.3172H2.65C1.1867 14.3172 0 15.3858 0 16.7034ZM29.8125 13.1241H27.825V10.1414C27.825 9.81176 27.5285 9.54481 27.1625 9.54481H25.8375C25.4715 9.54481 25.175 9.81176 25.175 10.1414V14.9138C25.175 15.2434 25.4715 15.5103 25.8375 15.5103H29.8125C30.1785 15.5103 30.475 15.2434 30.475 14.9138V13.7207C30.475 13.3911 30.1785 13.1241 29.8125 13.1241ZM41.2199 8.35469L27.9699 0.400441C27.5345 0.139324 27.0231 0 26.5 0C25.9769 0 25.4655 0.139324 25.0301 0.400441L11.7801 8.35469C11.4171 8.57255 11.1195 8.86772 10.9137 9.21399C10.7078 9.56027 10.6001 9.94694 10.6 10.3397V38.1792H21.2V27.4413C21.2 26.7821 21.7929 26.2482 22.525 26.2482H30.475C31.2071 26.2482 31.8 26.7821 31.8 27.4413V38.1792H42.4V10.3405C42.4 9.54257 41.957 8.79688 41.2199 8.35469ZM26.5 19.0896C22.8413 19.0896 19.875 16.4186 19.875 13.1241C19.875 9.82966 22.8413 7.15861 26.5 7.15861C30.1587 7.15861 33.125 9.82966 33.125 13.1241C33.125 16.4186 30.1587 19.0896 26.5 19.0896ZM50.35 14.3172H45.05V38.1792H51.675C52.4071 38.1792 53 37.6453 53 36.9861V16.7034C53 15.3858 51.8133 14.3172 50.35 14.3172Z" fill="#F5C518"/>
</svg>
